<svg width="123" height="37" viewBox="0 0 123 37" fill="none" xmlns="http://www.w3.org/2000/svg">
<path fill-rule="evenodd" clip-rule="evenodd" d="M76.1697 28.9352C69.0348 34.1942 58.6932 37 49.7893 37C37.3046 37 26.0651 32.3824 17.562 24.7023C16.8939 24.0984 17.4925 23.2754 18.2942 23.7457C27.4707 29.0848 38.8171 32.2969 50.5375 32.2969C58.442 32.2969 67.1375 30.6614 75.1329 27.2677C76.3407 26.7546 77.3508 28.0587 76.1697 28.9352Z" fill="#B5BFBE"/>
<path fill-rule="evenodd" clip-rule="evenodd" d="M79.1359 25.5413C78.2273 24.3762 73.1073 24.9908 70.8092 25.2634C70.109 25.3489 70.0021 24.7396 70.6328 24.3014C74.7106 21.4314 81.4019 22.2598 82.1822 23.2218C82.9625 24.1891 81.9792 30.8965 78.1471 34.0978C77.5593 34.5895 76.9981 34.3276 77.26 33.6756C78.1204 31.5271 80.0498 26.7117 79.1359 25.5413Z" fill="#B5BFBE"/>
<path fill-rule="evenodd" clip-rule="evenodd" d="M70.9695 4.04046V1.25064C70.9695 0.828424 71.2902 0.545166 71.675 0.545166H84.1651C84.5659 0.545166 84.8866 0.833769 84.8866 1.25064V3.63963C84.8813 4.04046 84.5446 4.56422 83.946 5.39262L77.4738 14.6332C79.8788 14.5745 82.4174 14.9325 84.598 16.1618C85.0897 16.4397 85.2233 16.8459 85.2607 17.2467V20.2236C85.2607 20.6298 84.8118 21.1054 84.3415 20.8596C80.4988 18.8447 75.3948 18.6256 71.1459 20.881C70.713 21.1161 70.2587 20.6458 70.2587 20.2396V17.4124C70.2587 16.9581 70.2641 16.1832 70.7183 15.4937L78.2167 4.74059H71.691C71.2902 4.74059 70.9695 4.45734 70.9695 4.04046Z" fill="#B5BFBE"/>
<path fill-rule="evenodd" clip-rule="evenodd" d="M25.4077 21.4472H21.6078C21.2444 21.4204 20.9558 21.1479 20.929 20.8005V1.29843C20.929 0.908278 21.255 0.598295 21.6612 0.598295H25.2046C25.5734 0.614317 25.8673 0.897585 25.8941 1.25032V3.79965H25.9635C26.8881 1.33583 28.6251 0.186768 30.966 0.186768C33.3443 0.186768 34.8301 1.33583 35.899 3.79965C36.8182 1.33583 38.9079 0.186768 41.1472 0.186768C42.7399 0.186768 44.4822 0.84414 45.5458 2.31922C46.7483 3.95998 46.5024 6.34362 46.5024 8.43332L46.4971 20.7417C46.4971 21.1318 46.1711 21.4472 45.7649 21.4472H41.9703C41.5908 21.4204 41.2862 21.1158 41.2862 20.7417V10.4054C41.2862 9.58239 41.361 7.5301 41.1793 6.7498C40.8961 5.44041 40.0463 5.07163 38.9453 5.07163C38.0261 5.07163 37.0641 5.68625 36.6739 6.66964C36.2838 7.65303 36.3212 9.29913 36.3212 10.4054V20.7417C36.3212 21.1318 35.9952 21.4472 35.589 21.4472H31.7944C31.4096 21.4204 31.1103 21.1158 31.1103 20.7417L31.105 10.4054C31.105 8.23023 31.463 5.02888 28.7641 5.02888C26.033 5.02888 26.1399 8.15006 26.1399 10.4054V20.7417C26.1399 21.1318 25.8139 21.4472 25.4077 21.4472" fill="#B5BFBE"/>
<path fill-rule="evenodd" clip-rule="evenodd" d="M95.6397 0.186768C101.278 0.186768 104.33 5.02888 104.33 11.1857C104.33 17.1342 100.957 21.8533 95.6397 21.8533C90.1028 21.8533 87.0885 17.0112 87.0885 10.9773C87.0885 4.90595 90.1402 0.186768 95.6397 0.186768ZM95.6718 4.16842C92.8712 4.16842 92.6949 7.98438 92.6949 10.3627C92.6949 12.7463 92.6575 17.8343 95.6397 17.8343C98.5845 17.8343 98.7235 13.7297 98.7235 11.2285C98.7235 9.58239 98.654 7.61561 98.1569 6.05502C97.7294 4.69752 96.8796 4.16842 95.6718 4.16842Z" fill="#B5BFBE"/>
<path fill-rule="evenodd" clip-rule="evenodd" d="M111.641 21.4472H107.857C107.478 21.4204 107.173 21.1158 107.173 20.7417L107.168 1.23429C107.2 0.876207 107.515 0.598295 107.9 0.598295H111.422C111.753 0.614317 112.026 0.838797 112.101 1.14343V4.12566H112.17C113.234 1.45876 114.725 0.186768 117.349 0.186768C119.054 0.186768 120.716 0.801385 121.785 2.4849C122.779 4.04549 122.779 6.66964 122.779 8.55624V20.8325C122.736 21.1746 122.421 21.4472 122.047 21.4472H118.236C117.889 21.4204 117.6 21.1639 117.563 20.8325V10.2398C117.563 8.10731 117.809 4.98612 115.184 4.98612C114.26 4.98612 113.41 5.60609 112.988 6.54671C112.453 7.73854 112.384 8.92502 112.384 10.2398V20.7417C112.379 21.1318 112.047 21.4472 111.641 21.4472" fill="#B5BFBE"/>
<path fill-rule="evenodd" clip-rule="evenodd" d="M61.0127 12.132C61.0127 13.6124 61.0501 14.847 60.3019 16.1617C59.698 17.2307 58.736 17.888 57.6724 17.888C56.2134 17.888 55.3583 16.7764 55.3583 15.1356C55.3583 11.8968 58.2603 11.309 61.0127 11.309V12.132ZM64.8447 21.394C64.5935 21.6185 64.2301 21.6345 63.9469 21.4849C62.6855 20.4373 62.4557 19.951 61.7663 18.9516C59.6819 21.0787 58.2015 21.7147 55.5025 21.7147C52.3012 21.7147 49.816 19.7426 49.816 15.793C49.816 12.7092 51.4835 10.6088 53.8671 9.58268C55.9301 8.67411 58.8108 8.51378 61.0127 8.26259V7.7709C61.0127 6.86767 61.0822 5.79877 60.5478 5.01848C60.0881 4.31835 59.2009 4.02975 58.4153 4.02975C56.9669 4.02975 55.6789 4.77263 55.3636 6.31185C55.2995 6.6539 55.0483 6.9906 54.7009 7.00663L51.0185 6.61114C50.7085 6.54166 50.3611 6.29047 50.452 5.81481C51.2964 1.34682 55.3369 0 58.9497 0C60.7989 0 63.2147 0.491694 64.6737 1.89195C66.5229 3.61822 66.3465 5.9217 66.3465 8.42827V14.35C66.3465 16.1297 67.0841 16.91 67.7788 17.872C68.0194 18.214 68.0728 18.6256 67.7628 18.8821C66.9879 19.5288 65.609 20.7313 64.8501 21.4047L64.8447 21.394" fill="#B5BFBE"/>
<path fill-rule="evenodd" clip-rule="evenodd" d="M11.1967 12.132C11.1967 13.6124 11.2341 14.847 10.4859 16.1617C9.88196 17.2307 8.9253 17.888 7.8564 17.888C6.39736 17.888 5.54758 16.7764 5.54758 15.1356C5.54758 11.8968 8.44964 11.309 11.1967 11.309V12.132ZM15.0287 21.394C14.7775 21.6185 14.4141 21.6345 14.1308 21.4849C12.8695 20.4373 12.6451 19.951 11.9503 18.9516C9.86593 21.0787 8.39085 21.7147 5.68654 21.7147C2.49053 21.7147 0 19.7426 0 15.793C0 12.7092 1.67283 10.6088 4.05112 9.58268C6.1141 8.67411 8.99478 8.51378 11.1967 8.26259V7.7709C11.1967 6.86767 11.2662 5.79877 10.7371 5.01848C10.2721 4.31835 9.38493 4.02975 8.60463 4.02975C7.15628 4.02975 5.86291 4.77263 5.54758 6.31185C5.48345 6.6539 5.23226 6.9906 4.89021 7.00663L1.20251 6.61114C0.89253 6.54166 0.550482 6.29047 0.635994 5.81481C1.48577 1.34682 5.52086 0 9.13374 0C10.9829 0 13.3986 0.491694 14.8577 1.89195C16.7069 3.61822 16.5305 5.9217 16.5305 8.42827V14.35C16.5305 16.1297 17.2681 16.91 17.9628 17.872C18.2087 18.214 18.2621 18.6256 17.9521 18.8821C17.1772 19.5288 15.7983 20.7313 15.0394 21.4047L15.0287 21.394" fill="#B5BFBE"/>
</svg>
