<svg width="114" height="32" viewBox="0 0 114 32" fill="none" xmlns="http://www.w3.org/2000/svg">
<path d="M79.9771 25.239C79.0125 24.1941 79.5752 22.1444 80.0977 19.7732L81.7856 11.8157H88.6982L89.9441 5.90786H83.0315L84.2774 0H77.7265L73.4664 20.3359C72.8234 23.3903 72.5822 25.7615 73.9085 28.3336C75.1142 30.7048 79.2939 32.9956 84.5587 31.5487L85.7242 26.0428C82.1071 26.4849 80.7005 26.0026 79.9771 25.239ZM24.7165 0L21.5818 14.6692H10.1278L13.2223 0H6.67146L0 31.5086H6.59108L8.88188 20.577H20.3359L18.0049 31.5086H24.5156L31.187 0H24.7165ZM62.3339 8.11828C60.0431 10.0474 58.757 12.5391 57.9131 16.5179L54.7381 31.5086H61.289L63.9013 19.09C64.5041 16.1964 64.9864 14.3476 66.0715 13.2223C67.5585 11.6951 69.7288 11.6148 72.3411 11.8157L73.587 5.90786C69.0054 4.74236 64.9864 5.90786 62.3339 8.11828ZM113.294 5.90786H92.9181L91.6722 11.8157H103.488L88.6982 25.8016L87.4925 31.5086H107.869L109.114 25.6007H97.2184L112.089 11.5344L113.294 5.90786ZM44.4898 5.46577C42.2793 5.46577 39.2651 6.14899 36.3313 8.47998C29.6197 13.7448 26.3241 31.9908 40.6718 31.9908C44.3692 31.9908 48.5087 30.8253 51.4024 28.6149L48.8302 24.1941C46.66 25.882 35.6883 29.5393 36.8538 20.6172H53.9343C53.9343 20.6172 56.1045 13.4635 52.9698 9.1632C50.3172 5.50596 45.4141 5.46577 44.4898 5.46577ZM48.7499 15.2318H38.2604C38.6221 13.8252 40.8727 10.3287 44.972 10.6904C49.4331 11.0923 48.7499 15.2318 48.7499 15.2318Z" fill="#B5BFBE"/>
</svg>
