<svg width="109" height="55" viewBox="0 0 109 55" fill="none" xmlns="http://www.w3.org/2000/svg">
<path d="M0.0192063 52.0526V51.4668H0.55873V47.306C0.55873 47.1611 0.487143 47.0886 0.335238 47.0886H0V46.5037H2.04635V47.0886H1.49548V51.2503C1.49548 51.404 1.59587 51.4668 1.72071 51.4668H2.06381V52.0526H0.0192063ZM5.28873 52.0526H7.08103V51.5297H6.80952C6.68468 51.5297 6.60349 51.4764 6.60349 51.3315V49.08C6.60349 48.702 6.54849 48.3676 6.36079 48.1432C6.16175 47.8988 5.86492 47.8071 5.54016 47.8071C5.05389 47.8071 4.57635 48.0175 4.24286 48.3405V48.0708C4.24286 47.9171 4.17127 47.8621 4.02635 47.8621C3.74 47.8621 3.27032 47.9267 2.79278 47.9267L2.90103 48.4575H3.39603V51.5297H2.9281V52.0526H4.7204V51.5297H4.45936C4.29698 51.5297 4.24286 51.4572 4.24286 51.3036V48.9805C4.50389 48.7648 4.87317 48.5474 5.225 48.5474C5.59429 48.5474 5.75579 48.7447 5.75579 49.1516V51.5297H5.28873V52.0526ZM9.30548 52.16C9.56825 52.16 9.82841 52.0866 10.0353 51.9976V51.4397C9.89214 51.4939 9.68437 51.5297 9.52198 51.5297C9.12651 51.5297 8.91873 51.3411 8.91873 50.6933V48.4575H9.82841L9.72016 47.9267H8.9004V46.8992L8.23429 47.017C8.11643 47.0336 8.07191 47.1166 8.07191 47.2772V47.9267H7.55857V48.4575H8.07191V50.6479C8.07191 51.0966 8.1077 51.4214 8.27008 51.6833C8.48571 52.0255 8.8646 52.16 9.30548 52.16ZM12.4134 48.4497C12.8098 48.4497 13.1075 48.7736 13.1075 49.4571L13.0987 49.6108H11.5125C11.5849 48.8635 11.9088 48.4497 12.4134 48.4497ZM13.9813 50.1066C13.9901 50.0263 13.9901 49.9172 13.9901 49.8369C13.9901 48.4121 13.234 47.8071 12.4221 47.8071C11.8922 47.8071 11.4679 48.0079 11.1711 48.3231C10.7844 48.7273 10.5949 49.341 10.5949 50.0063C10.5949 51.1874 11.0908 52.1696 12.3863 52.1696C12.973 52.1696 13.4584 51.9173 13.8015 51.5655L13.5317 51.1604C13.2777 51.3673 12.946 51.5393 12.5671 51.5393C11.9813 51.5393 11.5125 51.0617 11.495 50.1066H13.9813ZM17.0797 48.53C17.1792 48.53 17.2779 48.53 17.3966 48.5474V48.0603C17.3966 47.8822 17.2875 47.8071 17.1338 47.8071C16.6213 47.8071 16.3865 48.0341 16.0347 48.3772V48.0708C16.0347 47.9267 15.9631 47.8621 15.819 47.8621C15.531 47.8621 15.0621 47.9267 14.5855 47.9267L14.6937 48.4575H15.1887V51.5297H14.7199V52.0526H16.5122V51.5297H16.2512C16.1071 51.5297 16.0347 51.4572 16.0347 51.3036V48.9909C16.2416 48.7736 16.5393 48.5387 17.0797 48.53ZM20.0532 52.1513C20.756 52.1513 21.4395 51.8343 21.8804 51.4214L21.6194 50.9264C21.2597 51.1874 20.7725 51.4397 20.2514 51.4397C19.3853 51.4397 18.8004 50.7998 18.8004 49.2057C18.8004 48.0175 19.2779 47.0974 20.1964 47.0974C20.7455 47.0974 21.0982 47.4309 21.1698 47.8988L21.2143 48.2061C21.2413 48.3772 21.3496 48.4217 21.4762 48.4217H21.7556V46.5037H21.2867L21.2413 46.8189C21.0074 46.5832 20.611 46.3946 20.0977 46.3946C18.6921 46.3946 17.8008 47.6212 17.8008 49.3489C17.8008 51.1709 18.6834 52.1513 20.0532 52.1513ZM24.3318 48.4575C25.1333 48.4575 25.2144 49.3838 25.2144 49.9827C25.2144 50.6025 25.1333 51.5218 24.3048 51.5218C23.5121 51.5218 23.4125 50.5929 23.4125 49.9975C23.4125 49.3759 23.5121 48.4575 24.3318 48.4575ZM24.3048 52.1696C25.6108 52.1696 26.1145 51.1316 26.1145 49.9539C26.1145 48.7648 25.6291 47.8071 24.3222 47.8071C23.0171 47.8071 22.5125 48.8277 22.5125 50.0071C22.5125 51.1874 22.9979 52.1696 24.3048 52.1696ZM29.1963 52.0526H30.9886V51.5297H30.7179C30.5922 51.5297 30.5102 51.4764 30.5102 51.3315V49.08C30.5102 48.702 30.4569 48.3676 30.2675 48.1432C30.0702 47.8988 29.7716 47.8071 29.4468 47.8071C28.9623 47.8071 28.4839 48.0175 28.1513 48.3405V48.0708C28.1513 47.9171 28.0797 47.8621 27.9348 47.8621C27.6467 47.8621 27.177 47.9267 26.7012 47.9267L26.8086 48.4575H27.3036V51.5297H26.8356V52.0526H28.6279V51.5297H28.3678C28.2045 51.5297 28.1513 51.4572 28.1513 51.3036V48.9805C28.4123 48.7648 28.7807 48.5474 29.1325 48.5474C29.501 48.5474 29.6642 48.7447 29.6642 49.1516V51.5297H29.1963V52.0526ZM33.213 52.16C33.4749 52.16 33.736 52.0866 33.942 51.9976V51.4397C33.7988 51.4939 33.5919 51.5297 33.4295 51.5297C33.0332 51.5297 32.8263 51.3411 32.8263 50.6933V48.4575H33.736L33.6268 47.9267H32.8079V46.8992L32.141 47.017C32.0248 47.0336 31.9786 47.1166 31.9786 47.2772V47.9267H31.4661V48.4575H31.9786V50.6479C31.9786 51.0966 32.0152 51.4214 32.1767 51.6833C32.3941 52.0255 32.7721 52.16 33.213 52.16ZM35.4471 47.2597C35.7264 47.2597 35.9613 47.0336 35.9613 46.756C35.9613 46.4758 35.7264 46.2514 35.4471 46.2514C35.1686 46.2514 34.9425 46.4758 34.9425 46.756C34.9425 47.0336 35.1686 47.2597 35.4471 47.2597ZM34.574 52.0526H36.3663V51.5297H36.1044C35.9421 51.5297 35.8879 51.4572 35.8879 51.3036V48.0708C35.8879 47.9267 35.8163 47.8621 35.6714 47.8621C35.3833 47.8621 34.9163 47.9267 34.4379 47.9267L34.547 48.4575H35.0429V51.5297H34.574V52.0526ZM39.4385 52.0526H41.2308V51.5297H40.9593C40.8344 51.5297 40.7533 51.4764 40.7533 51.3315V49.08C40.7533 48.702 40.6991 48.3676 40.5097 48.1432C40.3124 47.8988 40.0138 47.8071 39.6899 47.8071C39.2028 47.8071 38.727 48.0175 38.3926 48.3405V48.0708C38.3926 47.9171 38.3202 47.8621 38.177 47.8621C37.8889 47.8621 37.4201 47.9267 36.9417 47.9267L37.0499 48.4575H37.5458V51.5297H37.0779V52.0526H38.8702V51.5297H38.6091C38.4476 51.5297 38.3926 51.4572 38.3926 51.3036V48.9805C38.6537 48.7648 39.0229 48.5474 39.3748 48.5474C39.7432 48.5474 39.9064 48.7447 39.9064 49.1516V51.5297H39.4385V52.0526ZM43.6892 48.4497C44.0873 48.4497 44.3833 48.7736 44.3833 49.4571L44.3745 49.6108H42.7891C42.8607 48.8635 43.1855 48.4497 43.6892 48.4497ZM45.2571 50.1066C45.2667 50.0263 45.2667 49.9181 45.2667 49.8369C45.2667 48.4121 44.509 47.8071 43.6979 47.8071C43.168 47.8071 42.7437 48.0079 42.4469 48.3231C42.0584 48.7273 41.8707 49.341 41.8707 50.0071C41.8707 51.1874 42.3666 52.1696 43.6639 52.1696C44.2488 52.1696 44.7351 51.9173 45.0764 51.5663L44.8075 51.1604C44.5552 51.3673 44.2209 51.5393 43.8437 51.5393C43.2571 51.5393 42.7891 51.0617 42.7717 50.1066H45.2571ZM48.3572 52.0526H50.1478V51.5297H49.8771C49.7532 51.5297 49.6702 51.4764 49.6702 51.3315V49.08C49.6702 48.702 49.6179 48.3676 49.4284 48.1432C49.2294 47.8988 48.9325 47.8071 48.6078 47.8071C48.1215 47.8071 47.644 48.0175 47.3114 48.3405V48.0708C47.3114 47.9171 47.2389 47.8621 47.094 47.8621C46.8076 47.8621 46.3371 47.9267 45.8604 47.9267L45.9678 48.4575H46.4636V51.5297H45.9957V52.0526H47.7871V51.5297H47.527C47.3655 51.5297 47.3114 51.4572 47.3114 51.3036V48.9805C47.5715 48.7648 47.9408 48.5474 48.2935 48.5474C48.6619 48.5474 48.8243 48.7447 48.8243 49.1516V51.5297H48.3572V52.0526ZM52.3731 52.16C52.6341 52.16 52.8952 52.0866 53.1029 51.9976V51.4397C52.9598 51.4939 52.752 51.5297 52.5905 51.5297C52.1924 51.5297 51.9855 51.3411 51.9855 50.6933V48.4575H52.8952L52.7887 47.9267H51.968V46.8992L51.3019 47.017C51.184 47.0336 51.1395 47.1166 51.1395 47.2772V47.9267H50.6253V48.4575H51.1395V50.6479C51.1395 51.0966 51.1753 51.4214 51.336 51.6833C51.5533 52.0255 51.9331 52.16 52.3731 52.16ZM55.8416 49.9975V51.1962C55.6975 51.376 55.4365 51.5122 55.165 51.5122C54.7241 51.5122 54.526 51.2154 54.526 50.8356C54.526 50.2411 55.0559 50.0071 55.8416 49.9975ZM56.5164 52.0526H57.2192V51.5297H56.8944C56.7609 51.5297 56.6893 51.4668 56.6893 51.3123V49.2694C56.6893 48.1144 56.0476 47.8071 55.1929 47.8071C54.8682 47.8071 54.4177 47.8901 53.9681 48.1074V48.702C54.3112 48.53 54.7067 48.4121 55.0847 48.4121C55.337 48.4121 55.6059 48.4933 55.7246 48.7011C55.8067 48.8451 55.8416 49.0442 55.8416 49.341V49.4571C54.6787 49.4571 53.6521 49.8447 53.6521 50.9081C53.6521 51.6999 54.1575 52.1696 54.9502 52.1696C55.3911 52.1696 55.7429 51.9522 55.9498 51.7462C56.0398 51.9723 56.2554 52.0526 56.5164 52.0526ZM57.8329 52.0526H59.6244V51.5297H59.3625C59.2018 51.5297 59.1477 51.4572 59.1477 51.3036V46.0532C59.1477 45.9083 59.0761 45.8455 58.9321 45.8455C58.6422 45.8455 58.1734 45.9083 57.6959 45.9083L57.805 46.44H58.3V51.5297H57.8329V52.0526ZM65.12 52.0526H67.1646V51.4668H66.8206C66.6958 51.4668 66.5963 51.404 66.5963 51.2503V47.0886H67.1471V46.5037H65.1008V47.0886H65.4352C65.5879 47.0886 65.6587 47.1611 65.6587 47.306V48.9709H63.5879V47.0886H64.1379V46.5037H62.0924V47.0886H62.4268C62.5804 47.0886 62.652 47.1611 62.652 47.306V51.4668H62.1107V52.0526H64.1571V51.4668H63.8131C63.6883 51.4668 63.5879 51.404 63.5879 51.2503V49.6108H65.6587V51.4668H65.12V52.0526ZM69.7583 48.4575C70.5606 48.4575 70.6418 49.3838 70.6418 49.9827C70.6418 50.6025 70.5606 51.5218 69.7321 51.5218C68.9386 51.5218 68.8399 50.5929 68.8399 49.9975C68.8399 49.3759 68.9386 48.4575 69.7583 48.4575ZM69.7321 52.1696C71.0373 52.1696 71.5428 51.1316 71.5428 49.9539C71.5428 48.7648 71.0565 47.8071 69.7505 47.8071C68.4436 47.8071 67.939 48.8277 67.939 50.0071C67.939 51.1874 68.4261 52.1696 69.7321 52.1696ZM73.7768 52.16C74.037 52.16 74.2998 52.0866 74.5058 51.9976V51.4397C74.3617 51.4939 74.1548 51.5297 73.9933 51.5297C73.5961 51.5297 73.3892 51.3411 73.3892 50.6933V48.4575H74.2998L74.1906 47.9267H73.3726V46.8992L72.7056 47.017C72.5878 47.0336 72.5424 47.1166 72.5424 47.2772V47.9267H72.029V48.4575H72.5424V50.6479C72.5424 51.0966 72.5782 51.4214 72.7406 51.6833C72.9571 52.0255 73.336 52.16 73.7768 52.16ZM76.8839 48.4497C77.2802 48.4497 77.5771 48.7736 77.5771 49.4571L77.5692 49.6108H75.9829C76.0554 48.8635 76.3793 48.4497 76.8839 48.4497ZM78.4527 50.1066C78.4606 50.0263 78.4606 49.9181 78.4606 49.8369C78.4606 48.4121 77.7045 47.8071 76.8926 47.8071C76.3618 47.8071 75.9375 48.0079 75.6425 48.3231C75.254 48.7273 75.0645 49.341 75.0645 50.0071C75.0645 51.1874 75.5613 52.1696 76.8577 52.1696C77.4444 52.1696 77.9289 51.9173 78.2729 51.5663L78.0014 51.1604C77.7482 51.3673 77.4164 51.5393 77.0375 51.5393C76.4517 51.5393 75.9838 51.0617 75.9663 50.1066H78.4527ZM79.1459 52.0526H80.9364V51.5297H80.6763C80.5139 51.5297 80.4598 51.4572 80.4598 51.3036V46.0532C80.4598 45.9083 80.389 45.8455 80.245 45.8455C79.956 45.8455 79.489 45.9083 79.0097 45.9083L79.1188 46.44H79.6147V51.5297H79.1459V52.0526ZM83.2071 52.1696C84.1081 52.1696 84.5944 51.6021 84.5944 50.9805C84.5944 50.3956 84.3071 50.0429 83.6402 49.7644L83.0797 49.5305C82.686 49.3585 82.4965 49.1882 82.4965 48.9089C82.4965 48.6016 82.7034 48.3772 83.1076 48.3772C83.5415 48.3772 83.8113 48.6644 83.8829 49.08L83.9195 49.2782C83.9387 49.3838 84.0182 49.4493 84.1264 49.4493H84.4154V47.9267H83.9387L83.9021 48.1511C83.7659 47.9713 83.4429 47.8071 82.9906 47.8071C82.2442 47.8071 81.6951 48.2855 81.6951 48.9805C81.6951 49.5392 81.9648 49.9539 82.6222 50.2053L83.1801 50.4218C83.5773 50.5746 83.7746 50.7448 83.7746 51.0434C83.7746 51.3123 83.5485 51.5663 83.0718 51.5663C82.6222 51.5663 82.2975 51.3123 82.2346 50.8906L82.1979 50.6567C82.1805 50.5475 82.0993 50.4847 81.991 50.4847H81.6846V52.0526H82.1621L82.1901 51.7994C82.3883 52.0151 82.7829 52.1696 83.2071 52.1696ZM91.2974 50.015H91.7461V49.4755H89.8368V50.015H90.1432C90.2978 50.015 90.3589 50.0429 90.3589 50.2411V51.2154C90.1529 51.3507 89.8464 51.4764 89.4501 51.4764C88.6129 51.4764 87.9991 50.7998 87.9991 49.3043C87.9991 47.8543 88.6661 47.0974 89.5234 47.0974C90.0341 47.0974 90.441 47.3488 90.5483 47.7731L90.6479 48.1432C90.6845 48.2602 90.7753 48.358 90.874 48.358H91.1804V46.5037H90.7029L90.6409 46.8442C90.4506 46.6294 90.0263 46.3946 89.4326 46.3946C88.1441 46.3946 87.0004 47.3951 87.0004 49.3585C87.0004 51.0338 87.8114 52.1513 89.2598 52.1513C89.7644 52.1513 90.3152 51.9522 90.5396 51.7907L90.6924 52.0526H91.2974V50.015ZM94.7825 48.53C94.882 48.53 94.9824 48.53 95.0985 48.5474V48.0603C95.0985 47.8822 94.9902 47.8071 94.8375 47.8071C94.3241 47.8071 94.0893 48.0341 93.7375 48.3772V48.0708C93.7375 47.9267 93.6659 47.8621 93.5227 47.8621C93.2337 47.8621 92.7649 47.9267 92.2883 47.9267L92.3965 48.4575H92.8915V51.5297H92.4227V52.0526H94.2159V51.5297H93.9548C93.8099 51.5297 93.7375 51.4572 93.7375 51.3036V48.9909C93.947 48.7736 94.2429 48.5387 94.7825 48.53ZM97.3142 48.4575C98.1165 48.4575 98.1977 49.3838 98.1977 49.9827C98.1977 50.6025 98.1165 51.5218 97.288 51.5218C96.4944 51.5218 96.3958 50.5929 96.3958 49.9975C96.3958 49.3759 96.4944 48.4575 97.3142 48.4575ZM97.288 52.1696C98.594 52.1696 99.0995 51.1316 99.0995 49.9539C99.0995 48.7648 98.6106 47.8071 97.3055 47.8071C95.9977 47.8071 95.4957 48.8277 95.4957 50.0071C95.4957 51.1874 95.9811 52.1696 97.288 52.1696ZM103.348 52.0526H103.981V51.5297H103.692C103.539 51.5297 103.431 51.4572 103.431 51.2765V48.0708C103.431 47.9267 103.36 47.8621 103.215 47.8621C102.936 47.8621 102.467 47.9267 101.98 47.9267L102.089 48.4575H102.585V50.9971C102.324 51.2154 101.954 51.4301 101.602 51.4301C101.233 51.4301 101.072 51.232 101.072 50.8278V48.0708C101.072 47.9267 100.999 47.8621 100.856 47.8621C100.576 47.8621 100.106 47.9267 99.6207 47.9267L99.729 48.4575H100.225V50.8985C100.225 51.2765 100.278 51.6109 100.468 51.8343C100.667 52.0788 100.963 52.1696 101.287 52.1696C101.828 52.1696 102.314 51.9173 102.666 51.582C102.738 51.9452 103.008 52.0526 103.348 52.0526ZM106.745 48.53C107.502 48.53 107.638 49.3585 107.638 49.9451C107.638 51.115 107.314 51.5218 106.71 51.5218C106.295 51.5218 105.936 51.232 105.936 50.6287V48.9001C106.197 48.6557 106.468 48.53 106.745 48.53ZM106.889 52.1696C107.962 52.1696 108.539 51.3123 108.539 49.9539C108.539 48.6644 107.952 47.8071 107.045 47.8071C106.702 47.8071 106.295 47.9337 105.936 48.2419V48.0708C105.936 47.9171 105.864 47.8621 105.72 47.8621C105.431 47.8621 104.964 47.9267 104.486 47.9267L104.593 48.4575H105.089V53.287C105.089 53.4486 105.016 53.5114 104.862 53.5114H104.558V54.0614H105.279C105.773 54.0614 105.936 53.7829 105.936 53.3761V51.8544C106.179 52.0605 106.495 52.1696 106.889 52.1696Z" fill="#B5BFBE"/>
<path d="M48.9535 21.2089V20.2905C48.95 20.4433 48.943 20.5961 48.943 20.7497C48.943 20.9034 48.95 21.057 48.9535 21.2089Z" fill="#B5BFBE"/>
<path d="M48.9535 7.32344V0.848285L36.2799 0.847412C36.2799 0.847412 36.2799 12.318 36.2799 15.8345C33.2313 15.8345 29.6136 15.8345 26.5554 15.8345C26.5554 12.318 26.5554 0.847412 26.5554 0.847412H13.8678L13.8626 40.3409H26.5554C26.5554 40.3409 26.5554 27.7747 26.5554 23.9326C29.6136 23.9326 33.2313 23.9326 36.2799 23.9326C36.2799 27.7747 36.2799 40.3409 36.2799 40.3409H48.9535V34.153C45.987 30.543 44.2305 25.8689 44.2305 20.7496C44.2305 15.6311 45.987 10.9447 48.9535 7.32344Z" fill="#B5BFBE"/>
<path d="M64.5726 4.19921C55.8346 4.19921 49.1752 11.3693 48.9535 20.2906V7.32373C52.6228 2.84603 58.1463 0 64.5115 0C70.4175 0 75.5534 2.30302 79.372 6.3381C78.7164 6.93 76.7468 8.5896 75.8485 9.36135C72.923 6.21762 69.1682 4.19921 64.5726 4.19921ZM84.5044 18.7367H62.9645V22.8241H79.7343C79.1887 30.2439 73.4006 37.2394 64.5726 37.2394C55.8346 37.2394 49.1752 30.1313 48.9535 21.209V34.1533C52.6228 38.6152 58.1463 41.4473 64.5115 41.4473C76.0292 41.4473 84.5664 32.1968 84.5664 20.7498C84.5664 19.9807 84.5664 19.2098 84.5044 18.7367Z" fill="#B5BFBE"/>
<path d="M48.943 20.7496C48.943 20.5959 48.95 20.4432 48.9535 20.2904V7.32349C45.987 10.9448 44.2305 15.6311 44.2305 20.7496C44.2305 25.869 45.987 30.5431 48.9535 34.153V21.2088C48.95 21.0569 48.943 20.9032 48.943 20.7496Z" fill="#B5BFBE"/>
<path d="M12.6124 0.847412H0.0523682V40.3409H12.6124V0.847412Z" fill="#B5BFBE"/>
</svg>
