<svg width="59" height="75" viewBox="0 0 59 75" fill="none" xmlns="http://www.w3.org/2000/svg">
<path d="M29.6105 48.6545C18.862 48.6545 10.1392 39.9455 10.1392 29.1952C10.1392 18.4253 18.862 9.72272 29.6105 9.72272C40.3685 9.72272 49.0804 18.4253 49.0804 29.1952C49.0804 39.9455 40.3685 48.6545 29.6105 48.6545ZM29.6105 0C13.4972 0 0.430481 13.07 0.430481 29.1952C0.430481 45.3079 13.4972 58.3739 29.6105 58.3739C45.7309 58.3739 58.8181 45.3079 58.8181 29.1952C58.8181 13.07 45.7309 0 29.6105 0Z" fill="#B5BFBE"/>
<path d="M29.6106 19.1909C24.0873 19.1909 19.6121 23.6553 19.6121 29.1953C19.6121 34.7171 24.0872 39.1948 29.6106 39.1948C35.1391 39.1948 39.624 34.7169 39.624 29.1953C39.624 23.6555 35.1391 19.1909 29.6106 19.1909Z" fill="#B5BFBE"/>
<path d="M3.21842 65.9886H0V64.0024H8.79843V65.9886H5.58V74.7421H3.21842V65.9886Z" fill="#B5BFBE"/>
<path d="M7.77576 74.7421H10.1662L11.0091 72.3499H15.0251L15.8376 74.7421H18.2888L14.2728 64.0024H11.8518L7.77576 74.7421ZM13.0247 66.6487H13.0543L14.4074 70.5902H11.6268L13.0247 66.6487Z" fill="#B5BFBE"/>
<path d="M19.2202 74.742H21.5828V70.5457H23.9427C25.1321 70.5457 25.5674 71.0416 25.7324 72.1692C25.8542 73.0268 25.8236 74.0648 26.1096 74.7421H28.4697C28.0491 74.1407 28.0646 72.8756 28.0189 72.199C27.9433 71.1145 27.6138 69.9877 26.4547 69.6872V69.6575C27.6444 69.1765 28.1553 68.23 28.1553 66.9649C28.1553 65.3417 26.936 64.0029 25.0114 64.0029H19.2203L19.2202 74.742ZM21.5828 65.8373H24.1702C25.2214 65.8373 25.7934 66.2888 25.7934 67.3255C25.7934 68.4079 25.2214 68.8599 24.1702 68.8599H21.5828V65.8373Z" fill="#B5BFBE"/>
<path d="M37.5393 73.5229C36.7113 74.5924 35.6302 74.9999 34.5919 74.9999C31.2686 74.9999 29.3127 72.5141 29.3127 69.4155C29.3127 66.2284 31.2684 63.7478 34.5919 63.7478C36.7872 63.7478 38.8636 65.1014 39.1199 67.536H36.8626C36.5913 66.3466 35.7041 65.7322 34.5919 65.7322C32.4709 65.7322 31.6726 67.536 31.6726 69.4155C31.6726 71.2063 32.4709 73.0104 34.5919 73.0104C36.1265 73.0104 37.012 72.1837 37.1481 70.6938H34.7728V68.936H39.2839V74.7419H37.7787L37.5393 73.5229Z" fill="#B5BFBE"/>
<path d="M40.8938 64.0024H48.9227V65.9886H43.2549V68.2888H48.4579V70.1255H43.2549V72.756H49.0445V74.7421H40.8938V64.0024Z" fill="#B5BFBE"/>
<path d="M53.316 65.9886H50.0974V64.0024H58.897V65.9886H55.6768V74.7421H53.316V65.9886Z" fill="#B5BFBE"/>
</svg>
