<svg width="320" height="274" xmlns="http://www.w3.org/2000/svg" xmlns:xlink="http://www.w3.org/1999/xlink"><defs><path id="b" d="M23 224h274v50H23z"/><filter x="-.2%" y="-3%" width="100.4%" height="104%" filterUnits="objectBoundingBox" id="a"><feOffset dy="-1" in="SourceAlpha" result="shadowOffsetOuter1"/><feColorMatrix values="0 0 0 0 0.882 0 0 0 0 0.9 0 0 0 0 0.8979 0 0 0 1 0" in="shadowOffsetOuter1"/></filter><linearGradient x1="50%" y1="0%" x2="50%" y2="100%" id="d"><stop stop-color="#FFF8B2" offset="0%"/><stop stop-color="#EF8A0A" offset="100%"/></linearGradient><linearGradient x1="50%" y1="0%" x2="50%" y2="100%" id="c"><stop stop-color="#E8B95B" offset="0%"/><stop stop-color="#D44D07" offset="100%"/></linearGradient><linearGradient x1="50.042%" y1="0%" x2="50.009%" y2="100%" id="e"><stop stop-color="#8C2450" offset="0%"/><stop stop-color="#FC438D" offset="28.452%"/><stop stop-color="#FC88C8" offset="70.313%"/><stop stop-color="#EB3078" offset="100%"/></linearGradient><path id="g" d="M23 0h274v50H23z"/><filter x="-.2%" y="-1%" width="100.4%" height="104%" filterUnits="objectBoundingBox" id="f"><feOffset dy="1" in="SourceAlpha" result="shadowOffsetOuter1"/><feColorMatrix values="0 0 0 0 0.882 0 0 0 0 0.9 0 0 0 0 0.8979 0 0 0 1 0" in="shadowOffsetOuter1"/></filter><linearGradient x1="0%" y1="50%" y2="50%" id="h"><stop stop-color="#32BB94" offset="0%"/><stop stop-color="#16B4BD" offset="100%"/></linearGradient></defs><g fill="none" fill-rule="evenodd"><path fill="#FFF" d="M0 0h320v274H0z"/><g><use fill="#000" filter="url(#a)" xlink:href="#b"/><use fill="#FFF" xlink:href="#b"/></g><path d="M25.156 250.578L24.428 253h-1.344l3.094-9.646h1.68l3.08 9.646h-1.4l-.728-2.422h-3.654zm1.834-6.118l-1.512 5.04h3.01l-1.498-5.04zM38.064 253H36.93l-.126-1.022a2.67 2.67 0 0 1-.91.875c-.364.21-.77.315-1.218.315-.877 0-1.561-.345-2.051-1.036-.49-.69-.735-1.62-.735-2.786 0-.756.117-1.428.35-2.016.233-.588.57-1.048 1.008-1.379.439-.331.952-.497 1.54-.497.756 0 1.419.303 1.988.91V242.5l1.288.154V253zm-3.108-.854c.392 0 .728-.091 1.008-.273.28-.182.55-.455.812-.819v-3.612a2.788 2.788 0 0 0-.777-.721 1.79 1.79 0 0 0-.931-.245c-.57 0-1.01.238-1.323.714-.313.476-.469 1.185-.469 2.128 0 .952.145 1.661.434 2.128.29.467.705.7 1.246.7zm11.48.854h-1.134l-.126-1.022a2.67 2.67 0 0 1-.91.875c-.364.21-.77.315-1.218.315-.877 0-1.561-.345-2.051-1.036-.49-.69-.735-1.62-.735-2.786 0-.756.117-1.428.35-2.016.233-.588.57-1.048 1.008-1.379.439-.331.952-.497 1.54-.497.756 0 1.419.303 1.988.91V242.5l1.288.154V253zm-3.108-.854c.392 0 .728-.091 1.008-.273.28-.182.55-.455.812-.819v-3.612a2.788 2.788 0 0 0-.777-.721 1.79 1.79 0 0 0-.931-.245c-.57 0-1.01.238-1.323.714-.313.476-.469 1.185-.469 2.128 0 .952.145 1.661.434 2.128.29.467.705.7 1.246.7zm14.448-.868c0 .299.051.52.154.665a.939.939 0 0 0 .462.329l-.294.896c-.383-.047-.69-.154-.924-.322-.233-.168-.406-.43-.518-.784-.495.737-1.227 1.106-2.198 1.106-.728 0-1.302-.205-1.722-.616-.42-.41-.63-.947-.63-1.61 0-.784.282-1.386.847-1.806.565-.42 1.365-.63 2.401-.63h1.134v-.546c0-.523-.126-.896-.378-1.12-.252-.224-.64-.336-1.162-.336-.541 0-1.204.13-1.988.392l-.322-.938c.915-.336 1.764-.504 2.548-.504.868 0 1.517.212 1.946.637.43.425.644 1.029.644 1.813v3.374zm-3.024.924c.737 0 1.316-.383 1.736-1.148v-1.694h-.966c-1.363 0-2.044.504-2.044 1.512 0 .439.107.77.322.994.215.224.532.336.952.336zm12.068-6.748c.439 0 .84.063 1.204.189a3.36 3.36 0 0 1 1.05.609l-.63.84c-.252-.196-.5-.34-.742-.434a2.288 2.288 0 0 0-.826-.14c-.597 0-1.062.238-1.393.714-.331.476-.497 1.18-.497 2.114 0 .933.163 1.622.49 2.065.327.443.793.665 1.4.665.299 0 .567-.047.805-.14.238-.093.497-.247.777-.462l.616.882c-.672.541-1.423.812-2.254.812-.999 0-1.785-.336-2.359-1.008-.574-.672-.861-1.6-.861-2.786 0-.784.13-1.47.392-2.058.261-.588.632-1.045 1.113-1.372.48-.327 1.052-.49 1.715-.49zm6.776 0c1.036 0 1.841.345 2.415 1.036.574.69.861 1.629.861 2.814 0 .765-.13 1.44-.392 2.023-.261.583-.64 1.036-1.134 1.358-.495.322-1.083.483-1.764.483-1.036 0-1.843-.345-2.422-1.036-.579-.69-.868-1.629-.868-2.814 0-.765.13-1.44.392-2.023.261-.583.64-1.036 1.134-1.358.495-.322 1.087-.483 1.778-.483zm0 1.036c-1.279 0-1.918.943-1.918 2.828 0 1.876.635 2.814 1.904 2.814 1.27 0 1.904-.943 1.904-2.828 0-1.876-.63-2.814-1.89-2.814zm12.81-1.036c.607 0 1.092.203 1.456.609.364.406.546.954.546 1.645V253H87.12v-5.11c0-.952-.345-1.428-1.036-1.428-.364 0-.672.105-.924.315-.252.21-.523.539-.812.987V253H83.06v-5.11c0-.952-.345-1.428-1.036-1.428-.373 0-.686.107-.938.322-.252.215-.518.541-.798.98V253H79v-7.378h1.106l.112 1.078c.55-.83 1.26-1.246 2.128-1.246.457 0 .847.117 1.169.35.322.233.553.56.693.98.29-.43.609-.758.959-.987.35-.229.763-.343 1.239-.343zm11.998 0c.607 0 1.092.203 1.456.609.364.406.546.954.546 1.645V253h-1.288v-5.11c0-.952-.345-1.428-1.036-1.428-.364 0-.672.105-.924.315-.252.21-.523.539-.812.987V253h-1.288v-5.11c0-.952-.345-1.428-1.036-1.428-.373 0-.686.107-.938.322-.252.215-.518.541-.798.98V253h-1.288v-7.378h1.106l.112 1.078c.55-.83 1.26-1.246 2.128-1.246.457 0 .847.117 1.169.35.322.233.553.56.693.98.29-.43.609-.758.959-.987.35-.229.763-.343 1.239-.343zm10.164 3.64c0 .215-.01.434-.028.658h-4.704c.056.812.261 1.41.616 1.792.355.383.812.574 1.372.574.355 0 .681-.051.98-.154.299-.103.611-.266.938-.49l.56.77c-.784.616-1.643.924-2.576.924-1.027 0-1.827-.336-2.401-1.008-.574-.672-.861-1.596-.861-2.772 0-.765.124-1.444.371-2.037s.602-1.057 1.064-1.393c.462-.336 1.006-.504 1.631-.504.98 0 1.731.322 2.254.966.523.644.784 1.535.784 2.674zm-1.274-.378c0-.728-.145-1.283-.434-1.666-.29-.383-.723-.574-1.302-.574-1.055 0-1.629.775-1.722 2.324h3.458v-.084zm6.874-3.262c.672 0 1.197.2 1.575.602.378.401.567.952.567 1.652V253h-1.288v-5.11c0-.523-.098-.891-.294-1.106-.196-.215-.485-.322-.868-.322a1.68 1.68 0 0 0-1.036.336c-.299.224-.579.546-.84.966V253h-1.288v-7.378h1.106l.112 1.092c.261-.392.586-.7.973-.924a2.513 2.513 0 0 1 1.281-.336zm8.456 7.21a2.833 2.833 0 0 1-1.652.504c-.625 0-1.113-.18-1.463-.539-.35-.36-.525-.88-.525-1.561v-4.452h-1.288v-.994h1.288v-1.666l1.288-.154v1.82h1.75l-.14.994h-1.61v4.396c0 .383.068.66.203.833.135.173.362.259.679.259.308 0 .635-.107.98-.322l.49.882zM26.192 201l-3.108-9.646h1.428l2.422 8.204 2.422-8.204H30.7L27.62 201h-1.428zm5.922 0v-7.378h1.288V201h-1.288zm.63-10.92c.27 0 .49.084.658.252a.855.855 0 0 1 .252.63c0 .252-.084.46-.252.623-.168.163-.387.245-.658.245a.886.886 0 0 1-.644-.245.832.832 0 0 1-.252-.623c0-.252.084-.462.252-.63a.872.872 0 0 1 .644-.252zm8.89 7.014c0 .215-.01.434-.028.658h-4.704c.056.812.261 1.41.616 1.792.355.383.812.574 1.372.574.355 0 .681-.051.98-.154.299-.103.611-.266.938-.49l.56.77c-.784.616-1.643.924-2.576.924-1.027 0-1.827-.336-2.401-1.008-.574-.672-.861-1.596-.861-2.772 0-.765.124-1.444.371-2.037s.602-1.057 1.064-1.393c.462-.336 1.006-.504 1.631-.504.98 0 1.731.322 2.254.966.523.644.784 1.535.784 2.674zm-1.274-.378c0-.728-.145-1.283-.434-1.666-.29-.383-.723-.574-1.302-.574-1.055 0-1.629.775-1.722 2.324h3.458v-.084zm8.4 4.284l-1.288-6.216-1.33 6.216h-1.708l-1.722-7.378H44l1.33 6.482 1.456-6.482h1.442l1.386 6.482 1.344-6.482h1.232L50.51 201h-1.75zm9.646-8.358v2.758a3.256 3.256 0 0 1 1.498-.364c.803 0 1.447.264 1.932.791.485.527.728 1.253.728 2.177 0 .616-.135 1.164-.406 1.645-.27.48-.651.854-1.141 1.12-.49.266-1.057.399-1.701.399-.57 0-1.078-.1-1.526-.301a4.065 4.065 0 0 1-1.246-.889l.784-.756c.28.308.579.534.896.679a2.57 2.57 0 0 0 1.078.217c.597 0 1.066-.187 1.407-.56.34-.373.511-.9.511-1.582 0-.681-.154-1.176-.462-1.484-.308-.308-.723-.462-1.246-.462-.243 0-.467.026-.672.077a3.49 3.49 0 0 0-.658.245h-1.008v-4.718h5.068l-.182 1.008h-3.654zm12.516.812c.439 0 .84.063 1.204.189a3.36 3.36 0 0 1 1.05.609l-.63.84c-.252-.196-.5-.34-.742-.434a2.288 2.288 0 0 0-.826-.14c-.597 0-1.062.238-1.393.714-.331.476-.497 1.18-.497 2.114 0 .933.163 1.622.49 2.065.327.443.793.665 1.4.665.299 0 .567-.047.805-.14.238-.093.497-.247.777-.462l.616.882c-.672.541-1.423.812-2.254.812-.999 0-1.785-.336-2.359-1.008-.574-.672-.861-1.6-.861-2.786 0-.784.13-1.47.392-2.058.261-.588.632-1.045 1.113-1.372.48-.327 1.052-.49 1.715-.49zm6.776 0c1.036 0 1.841.345 2.415 1.036.574.69.861 1.629.861 2.814 0 .765-.13 1.44-.392 2.023-.261.583-.64 1.036-1.134 1.358-.495.322-1.083.483-1.764.483-1.036 0-1.843-.345-2.422-1.036-.579-.69-.868-1.629-.868-2.814 0-.765.13-1.44.392-2.023.261-.583.64-1.036 1.134-1.358.495-.322 1.087-.483 1.778-.483zm0 1.036c-1.279 0-1.918.943-1.918 2.828 0 1.876.635 2.814 1.904 2.814 1.27 0 1.904-.943 1.904-2.828 0-1.876-.63-2.814-1.89-2.814zm12.81-1.036c.607 0 1.092.203 1.456.609.364.406.546.954.546 1.645V201h-1.288v-5.11c0-.952-.345-1.428-1.036-1.428-.364 0-.672.105-.924.315-.252.21-.523.539-.812.987V201h-1.288v-5.11c0-.952-.345-1.428-1.036-1.428-.373 0-.686.107-.938.322-.252.215-.518.541-.798.98V201h-1.288v-7.378h1.106l.112 1.078c.55-.83 1.26-1.246 2.128-1.246.457 0 .847.117 1.169.35.322.233.553.56.693.98.29-.43.609-.758.959-.987.35-.229.763-.343 1.239-.343zm11.998 0c.607 0 1.092.203 1.456.609.364.406.546.954.546 1.645V201h-1.288v-5.11c0-.952-.345-1.428-1.036-1.428-.364 0-.672.105-.924.315-.252.21-.523.539-.812.987V201H99.16v-5.11c0-.952-.345-1.428-1.036-1.428-.373 0-.686.107-.938.322-.252.215-.518.541-.798.98V201H95.1v-7.378h1.106l.112 1.078c.55-.83 1.26-1.246 2.128-1.246.457 0 .847.117 1.169.35.322.233.553.56.693.98.29-.43.609-.758.959-.987.35-.229.763-.343 1.239-.343zm10.164 3.64c0 .215-.01.434-.028.658h-4.704c.056.812.261 1.41.616 1.792.355.383.812.574 1.372.574.355 0 .681-.051.98-.154.299-.103.611-.266.938-.49l.56.77c-.784.616-1.643.924-2.576.924-1.027 0-1.827-.336-2.401-1.008-.574-.672-.861-1.596-.861-2.772 0-.765.124-1.444.371-2.037s.602-1.057 1.064-1.393c.462-.336 1.006-.504 1.631-.504.98 0 1.731.322 2.254.966.523.644.784 1.535.784 2.674zm-1.274-.378c0-.728-.145-1.283-.434-1.666-.29-.383-.723-.574-1.302-.574-1.055 0-1.629.775-1.722 2.324h3.458v-.084zm6.874-3.262c.672 0 1.197.2 1.575.602.378.401.567.952.567 1.652V201h-1.288v-5.11c0-.523-.098-.891-.294-1.106-.196-.215-.485-.322-.868-.322a1.68 1.68 0 0 0-1.036.336c-.299.224-.579.546-.84.966V201h-1.288v-7.378h1.106l.112 1.092c.261-.392.586-.7.973-.924a2.513 2.513 0 0 1 1.281-.336zm8.456 7.21a2.833 2.833 0 0 1-1.652.504c-.625 0-1.113-.18-1.463-.539-.35-.36-.525-.88-.525-1.561v-4.452h-1.288v-.994h1.288v-1.666l1.288-.154v1.82h1.75l-.14.994h-1.61v4.396c0 .383.068.66.203.833.135.173.362.259.679.259.308 0 .635-.107.98-.322l.49.882zm3.332-7.21c.504 0 .957.07 1.358.21.401.14.784.35 1.148.63l-.56.854a3.864 3.864 0 0 0-.945-.511 2.853 2.853 0 0 0-.959-.161c-.42 0-.751.086-.994.259a.822.822 0 0 0-.364.707.82.82 0 0 0 .343.7c.229.168.642.331 1.239.49.821.205 1.435.485 1.841.84.406.355.609.84.609 1.456 0 .728-.282 1.283-.847 1.666s-1.253.574-2.065.574c-1.12 0-2.049-.322-2.786-.966l.714-.812c.579.495 1.26.742 2.044.742.476 0 .859-.098 1.148-.294.29-.196.434-.457.434-.784 0-.261-.051-.474-.154-.637-.103-.163-.278-.303-.525-.42-.247-.117-.618-.24-1.113-.371-.784-.205-1.351-.483-1.701-.833-.35-.35-.525-.791-.525-1.323 0-.383.114-.728.343-1.036.229-.308.546-.548.952-.721a3.455 3.455 0 0 1 1.365-.259zM27.046 134.298c1.279 0 2.273.266 2.982.798.71.532 1.064 1.32 1.064 2.366 0 1.092-.348 1.916-1.043 2.471-.695.555-1.626.833-2.793.833h-1.05V144H23.91v-9.702h3.136zm.014 4.816c.541 0 .954-.128 1.239-.385.285-.257.427-.679.427-1.267 0-1.017-.57-1.526-1.708-1.526h-.812v3.178h.854zm11.116 2.73c0 .28.04.485.119.616a.72.72 0 0 0 .385.294l-.462 1.442c-.457-.037-.828-.135-1.113-.294-.285-.159-.511-.415-.679-.77-.485.737-1.232 1.106-2.24 1.106-.737 0-1.325-.215-1.764-.644-.439-.43-.658-.99-.658-1.68 0-.812.299-1.433.896-1.862.597-.43 1.46-.644 2.59-.644h.756v-.322c0-.439-.093-.74-.28-.903-.187-.163-.513-.245-.98-.245-.243 0-.537.035-.882.105-.345.07-.7.166-1.064.287l-.504-1.456a8.52 8.52 0 0 1 1.435-.406c.49-.093.945-.14 1.365-.14 1.064 0 1.843.22 2.338.658.495.439.742 1.097.742 1.974v2.884zm-3.346.812c.243 0 .464-.06.665-.182.2-.121.371-.294.511-.518v-1.33h-.546c-.504 0-.88.089-1.127.266-.247.177-.371.453-.371.826 0 .299.077.53.231.693.154.163.366.245.637.245zm9.772.994c-.27.187-.586.331-.945.434-.36.103-.716.154-1.071.154-1.624-.01-2.436-.905-2.436-2.688v-3.444H39.1v-1.54h1.05v-1.61l2.212-.252v1.862h1.708l-.238 1.54h-1.47v3.416c0 .345.056.593.168.742.112.15.29.224.532.224.261 0 .527-.084.798-.252l.742 1.414zm5.404 0c-.27.187-.586.331-.945.434-.36.103-.716.154-1.071.154-1.624-.01-2.436-.905-2.436-2.688v-3.444h-1.05v-1.54h1.05v-1.61l2.212-.252v1.862h1.708l-.238 1.54h-1.47v3.416c0 .345.056.593.168.742.112.15.29.224.532.224.261 0 .527-.084.798-.252l.742 1.414zm4.844.364c-.299.961-.786 1.701-1.463 2.219-.677.518-1.584.81-2.723.875l-.238-1.554c.71-.093 1.234-.252 1.575-.476.34-.224.614-.583.819-1.078h-.756l-2.268-7.434h2.352l1.33 6.02 1.456-6.02h2.282l-2.366 7.448zM65.91 144l-2.8-7.518c.093.737.166 1.388.217 1.953.051.565.077 1.234.077 2.009V144H61.36v-9.702h2.856l2.87 7.532a22.835 22.835 0 0 1-.308-3.612v-3.92h2.058V144H65.91zm11.536-7c-.485.196-1.2.294-2.142.294.485.205.84.457 1.064.756.224.299.336.686.336 1.162 0 .476-.126.903-.378 1.281-.252.378-.614.674-1.085.889-.471.215-1.024.322-1.659.322-.299 0-.583-.028-.854-.084a.396.396 0 0 0-.175.175.518.518 0 0 0-.063.245c0 .14.054.25.161.329.107.08.324.119.651.119h1.12c.57 0 1.069.093 1.498.28.43.187.76.443.994.77.233.327.35.695.35 1.106 0 .775-.334 1.379-1.001 1.813-.667.434-1.631.651-2.891.651-.905 0-1.62-.096-2.142-.287-.523-.191-.889-.46-1.099-.805-.21-.345-.315-.78-.315-1.302h1.988c0 .224.044.401.133.532.089.13.25.229.483.294.233.065.57.098 1.008.098.607 0 1.027-.072 1.26-.217a.692.692 0 0 0 .35-.623.626.626 0 0 0-.266-.532c-.177-.13-.443-.196-.798-.196h-1.078c-.765 0-1.337-.138-1.715-.413-.378-.275-.567-.628-.567-1.057 0-.27.08-.534.238-.791.159-.257.373-.469.644-.637-.467-.252-.805-.548-1.015-.889-.21-.34-.315-.754-.315-1.239 0-.83.299-1.491.896-1.981s1.386-.735 2.366-.735c.747.019 1.379-.056 1.897-.224a7.995 7.995 0 0 0 1.603-.742l.518 1.638zm-3.962.784c-.345 0-.618.11-.819.329-.2.22-.301.52-.301.903 0 .401.1.712.301.931.2.22.474.329.819.329.364 0 .642-.107.833-.322.191-.215.287-.537.287-.966 0-.803-.373-1.204-1.12-1.204zM82.668 144l-.098-.938c-.541.784-1.293 1.176-2.254 1.176-.681 0-1.197-.205-1.547-.616-.35-.41-.525-.985-.525-1.722v-5.334h2.212v5.054c0 .364.058.618.175.763.117.145.296.217.539.217.467 0 .868-.29 1.204-.868v-5.166h2.212V144h-1.918zm7.756.014c-.299.961-.786 1.701-1.463 2.219-.677.518-1.584.81-2.723.875L86 145.554c.71-.093 1.234-.252 1.575-.476.34-.224.614-.583.819-1.078h-.756l-2.268-7.434h2.352l1.33 6.02 1.456-6.02h2.282l-2.366 7.448zm9.632-3.878c0 .308-.014.574-.042.798h-4.592c.065.625.238 1.064.518 1.316s.667.378 1.162.378c.299 0 .588-.054.868-.161.28-.107.583-.273.91-.497l.91 1.232c-.868.69-1.834 1.036-2.898 1.036-1.204 0-2.128-.355-2.772-1.064-.644-.71-.966-1.661-.966-2.856 0-.756.135-1.435.406-2.037a3.311 3.311 0 0 1 1.19-1.428c.523-.35 1.148-.525 1.876-.525 1.073 0 1.913.336 2.52 1.008.607.672.91 1.605.91 2.8zm-2.17-.63c-.019-1.139-.42-1.708-1.204-1.708-.383 0-.677.138-.882.413-.205.275-.336.74-.392 1.393h2.478v-.098zm7.798-3.178c.644 0 1.148.196 1.512.588.364.392.546.943.546 1.652V144h-2.212v-5.054c0-.373-.058-.632-.175-.777-.117-.145-.292-.217-.525-.217-.448 0-.877.322-1.288.966V144h-2.212v-7.434h1.932l.154.882a3.506 3.506 0 0 1 1.043-.84c.369-.187.777-.28 1.225-.28zm14.91 7.672l-.336-4.354c-.14-1.708-.22-3.02-.238-3.934l-2.086 7.196h-1.246l-2.198-7.21c0 1.167-.06 2.515-.182 4.046l-.322 4.256h-1.26l.798-9.646h1.792l2.03 7.014 1.932-7.014h1.806l.798 9.646h-1.288zm6.692.042c-.29.859-.693 1.538-1.211 2.037-.518.5-1.258.8-2.219.903l-.14-1.008c.485-.084.873-.205 1.162-.364.29-.159.52-.362.693-.609.173-.247.334-.581.483-1.001h-.434l-2.478-7.378h1.372l1.974 6.44 1.932-6.44h1.33l-2.464 7.42zm12.614-1.764c0 .299.051.52.154.665a.939.939 0 0 0 .462.329l-.294.896c-.383-.047-.69-.154-.924-.322-.233-.168-.406-.43-.518-.784-.495.737-1.227 1.106-2.198 1.106-.728 0-1.302-.205-1.722-.616-.42-.41-.63-.947-.63-1.61 0-.784.282-1.386.847-1.806.565-.42 1.365-.63 2.401-.63h1.134v-.546c0-.523-.126-.896-.378-1.12-.252-.224-.64-.336-1.162-.336-.541 0-1.204.13-1.988.392l-.322-.938c.915-.336 1.764-.504 2.548-.504.868 0 1.517.212 1.946.637.43.425.644 1.029.644 1.813v3.374zm-3.024.924c.737 0 1.316-.383 1.736-1.148v-1.694h-.966c-1.363 0-2.044.504-2.044 1.512 0 .439.107.77.322.994.215.224.532.336.952.336zm9.058-6.748c.943 0 1.633.336 2.072 1.008.439.672.658 1.62.658 2.842 0 1.157-.252 2.09-.756 2.8s-1.218 1.064-2.142 1.064c-.821 0-1.465-.28-1.932-.84v3.5l-1.288.154v-10.36h1.106l.098.994c.27-.373.597-.66.98-.861.383-.2.784-.301 1.204-.301zm-.476 6.664c1.213 0 1.82-.938 1.82-2.814 0-1.885-.555-2.828-1.666-2.828-.364 0-.695.107-.994.322-.299.215-.56.49-.784.826v3.598c.187.29.42.511.7.665.28.154.588.231.924.231zm10.374-.84c0 .299.051.52.154.665a.939.939 0 0 0 .462.329l-.294.896c-.383-.047-.69-.154-.924-.322-.233-.168-.406-.43-.518-.784-.495.737-1.227 1.106-2.198 1.106-.728 0-1.302-.205-1.722-.616-.42-.41-.63-.947-.63-1.61 0-.784.282-1.386.847-1.806.565-.42 1.365-.63 2.401-.63h1.134v-.546c0-.523-.126-.896-.378-1.12-.252-.224-.64-.336-1.162-.336-.541 0-1.204.13-1.988.392l-.322-.938c.915-.336 1.764-.504 2.548-.504.868 0 1.517.212 1.946.637.43.425.644 1.029.644 1.813v3.374zm-3.024.924c.737 0 1.316-.383 1.736-1.148v-1.694h-.966c-1.363 0-2.044.504-2.044 1.512 0 .439.107.77.322.994.215.224.532.336.952.336zm8.876-6.748c.261 0 .504.028.728.084l-.238 1.26a2.655 2.655 0 0 0-.644-.084c-.457 0-.826.168-1.106.504-.28.336-.5.859-.658 1.568V144h-1.288v-7.378h1.106l.126 1.498c.196-.55.462-.966.798-1.246s.728-.42 1.176-.42zm5.922 7.21a2.833 2.833 0 0 1-1.652.504c-.625 0-1.113-.18-1.463-.539-.35-.36-.525-.88-.525-1.561v-4.452h-1.288v-.994h1.288v-1.666l1.288-.154v1.82h1.75l-.14.994h-1.61v4.396c0 .383.068.66.203.833.135.173.362.259.679.259.308 0 .635-.107.98-.322l.49.882zm8.736-7.21c.607 0 1.092.203 1.456.609.364.406.546.954.546 1.645V144h-1.288v-5.11c0-.952-.345-1.428-1.036-1.428-.364 0-.672.105-.924.315-.252.21-.523.539-.812.987V144h-1.288v-5.11c0-.952-.345-1.428-1.036-1.428-.373 0-.686.107-.938.322-.252.215-.518.541-.798.98V144h-1.288v-7.378h1.106l.112 1.078c.55-.83 1.26-1.246 2.128-1.246.457 0 .847.117 1.169.35.322.233.553.56.693.98.29-.43.609-.758.959-.987.35-.229.763-.343 1.239-.343zm10.164 3.64c0 .215-.01.434-.028.658h-4.704c.056.812.261 1.41.616 1.792.355.383.812.574 1.372.574.355 0 .681-.051.98-.154.299-.103.611-.266.938-.49l.56.77c-.784.616-1.643.924-2.576.924-1.027 0-1.827-.336-2.401-1.008-.574-.672-.861-1.596-.861-2.772 0-.765.124-1.444.371-2.037s.602-1.057 1.064-1.393c.462-.336 1.006-.504 1.631-.504.98 0 1.731.322 2.254.966.523.644.784 1.535.784 2.674zm-1.274-.378c0-.728-.145-1.283-.434-1.666-.29-.383-.723-.574-1.302-.574-1.055 0-1.629.775-1.722 2.324h3.458v-.084zm6.874-3.262c.672 0 1.197.2 1.575.602.378.401.567.952.567 1.652V144h-1.288v-5.11c0-.523-.098-.891-.294-1.106-.196-.215-.485-.322-.868-.322a1.68 1.68 0 0 0-1.036.336c-.299.224-.579.546-.84.966V144h-1.288v-7.378h1.106l.112 1.092c.261-.392.586-.7.973-.924a2.513 2.513 0 0 1 1.281-.336zm8.456 7.21a2.833 2.833 0 0 1-1.652.504c-.625 0-1.113-.18-1.463-.539-.35-.36-.525-.88-.525-1.561v-4.452h-1.288v-.994h1.288v-1.666l1.288-.154v1.82h1.75l-.14.994h-1.61v4.396c0 .383.068.66.203.833.135.173.362.259.679.259.308 0 .635-.107.98-.322l.49.882zm5.04.336v-7.378h1.288V144h-1.288zm.63-10.92c.27 0 .49.084.658.252a.855.855 0 0 1 .252.63c0 .252-.084.46-.252.623-.168.163-.387.245-.658.245a.886.886 0 0 1-.644-.245.832.832 0 0 1-.252-.623c0-.252.084-.462.252-.63a.872.872 0 0 1 .644-.252zm5.32 3.374c.504 0 .957.07 1.358.21.401.14.784.35 1.148.63l-.56.854a3.864 3.864 0 0 0-.945-.511 2.853 2.853 0 0 0-.959-.161c-.42 0-.751.086-.994.259a.822.822 0 0 0-.364.707.82.82 0 0 0 .343.7c.229.168.642.331 1.239.49.821.205 1.435.485 1.841.84.406.355.609.84.609 1.456 0 .728-.282 1.283-.847 1.666s-1.253.574-2.065.574c-1.12 0-2.049-.322-2.786-.966l.714-.812c.579.495 1.26.742 2.044.742.476 0 .859-.098 1.148-.294.29-.196.434-.457.434-.784 0-.261-.051-.474-.154-.637-.103-.163-.278-.303-.525-.42-.247-.117-.618-.24-1.113-.371-.784-.205-1.351-.483-1.701-.833-.35-.35-.525-.791-.525-1.323 0-.383.114-.728.343-1.036.229-.308.546-.548.952-.721a3.455 3.455 0 0 1 1.365-.259zm9.464 6.062c0 .205.035.355.105.448.07.093.189.14.357.14.177 0 .336-.028.476-.084l.336.896c-.345.168-.71.252-1.092.252-.476 0-.84-.138-1.092-.413-.252-.275-.378-.679-.378-1.211v-8.89l1.288-.154v9.016zM223.9 144v-7.378h1.288V144H223.9zm.63-10.92c.27 0 .49.084.658.252a.855.855 0 0 1 .252.63c0 .252-.084.46-.252.623-.168.163-.387.245-.658.245a.886.886 0 0 1-.644-.245.832.832 0 0 1-.252-.623c0-.252.084-.462.252-.63a.872.872 0 0 1 .644-.252zm7.042 10.584a2.833 2.833 0 0 1-1.652.504c-.625 0-1.113-.18-1.463-.539-.35-.36-.525-.88-.525-1.561v-4.452h-1.288v-.994h1.288v-1.666l1.288-.154v1.82h1.75l-.14.994h-1.61v4.396c0 .383.068.66.203.833.135.173.362.259.679.259.308 0 .635-.107.98-.322l.49.882zm6.902-3.57c0 .215-.01.434-.028.658h-4.704c.056.812.261 1.41.616 1.792.355.383.812.574 1.372.574.355 0 .681-.051.98-.154.299-.103.611-.266.938-.49l.56.77c-.784.616-1.643.924-2.576.924-1.027 0-1.827-.336-2.401-1.008-.574-.672-.861-1.596-.861-2.772 0-.765.124-1.444.371-2.037s.602-1.057 1.064-1.393c.462-.336 1.006-.504 1.631-.504.98 0 1.731.322 2.254.966.523.644.784 1.535.784 2.674zm-1.274-.378c0-.728-.145-1.283-.434-1.666-.29-.383-.723-.574-1.302-.574-1.055 0-1.629.775-1.722 2.324h3.458v-.084zm6.608-3.262c.261 0 .504.028.728.084l-.238 1.26a2.655 2.655 0 0 0-.644-.084c-.457 0-.826.168-1.106.504-.28.336-.5.859-.658 1.568V144h-1.288v-7.378h1.106l.126 1.498c.196-.55.462-.966.798-1.246s.728-.42 1.176-.42zm7.168 5.824c0 .299.051.52.154.665a.939.939 0 0 0 .462.329l-.294.896c-.383-.047-.69-.154-.924-.322-.233-.168-.406-.43-.518-.784-.495.737-1.227 1.106-2.198 1.106-.728 0-1.302-.205-1.722-.616-.42-.41-.63-.947-.63-1.61 0-.784.282-1.386.847-1.806.565-.42 1.365-.63 2.401-.63h1.134v-.546c0-.523-.126-.896-.378-1.12-.252-.224-.64-.336-1.162-.336-.541 0-1.204.13-1.988.392l-.322-.938c.915-.336 1.764-.504 2.548-.504.868 0 1.517.212 1.946.637.43.425.644 1.029.644 1.813v3.374zm-3.024.924c.737 0 1.316-.383 1.736-1.148v-1.694h-.966c-1.363 0-2.044.504-2.044 1.512 0 .439.107.77.322.994.215.224.532.336.952.336zm6.888-.686c0 .205.035.355.105.448.07.093.189.14.357.14.177 0 .336-.028.476-.084l.336.896c-.345.168-.71.252-1.092.252-.476 0-.84-.138-1.092-.413-.252-.275-.378-.679-.378-1.211v-8.89l1.288-.154v9.016zm4.102 0c0 .205.035.355.105.448.07.093.189.14.357.14.177 0 .336-.028.476-.084l.336.896c-.345.168-.71.252-1.092.252-.476 0-.84-.138-1.092-.413-.252-.275-.378-.679-.378-1.211v-8.89l1.288-.154v9.016zm5.838 1.526c-.29.859-.693 1.538-1.211 2.037-.518.5-1.258.8-2.219.903l-.14-1.008c.485-.084.873-.205 1.162-.364.29-.159.52-.362.693-.609.173-.247.334-.581.483-1.001h-.434l-2.478-7.378h1.372l1.974 6.44 1.932-6.44h1.33l-2.464 7.42zm9.506-9.548c.56 0 1.052.112 1.477.336.425.224.754.53.987.917.233.387.35.824.35 1.309 0 .57-.128 1.115-.385 1.638-.257.523-.651 1.087-1.183 1.694s-1.34 1.451-2.422 2.534h4.214L277.17 144h-5.53v-1.022c1.25-1.297 2.137-2.247 2.66-2.849.523-.602.896-1.127 1.12-1.575a3.18 3.18 0 0 0 .336-1.442c0-.485-.14-.866-.42-1.141-.28-.275-.653-.413-1.12-.413-.383 0-.719.08-1.008.238-.29.159-.588.42-.896.784l-.868-.672c.383-.476.807-.83 1.274-1.064.467-.233.99-.35 1.568-.35zm-242.55 21.96c.607 0 1.092.203 1.456.609.364.406.546.954.546 1.645V164H32.45v-5.11c0-.952-.345-1.428-1.036-1.428-.364 0-.672.105-.924.315-.252.21-.523.539-.812.987V164H28.39v-5.11c0-.952-.345-1.428-1.036-1.428-.373 0-.686.107-.938.322-.252.215-.518.541-.798.98V164H24.33v-7.378h1.106l.112 1.078c.55-.83 1.26-1.246 2.128-1.246.457 0 .847.117 1.169.35.322.233.553.56.693.98.29-.43.609-.758.959-.987.35-.229.763-.343 1.239-.343zM36.328 164v-7.378h1.288V164h-1.288zm.63-10.92c.27 0 .49.084.658.252a.855.855 0 0 1 .252.63c0 .252-.084.46-.252.623-.168.163-.387.245-.658.245a.886.886 0 0 1-.644-.245.832.832 0 0 1-.252-.623c0-.252.084-.462.252-.63a.872.872 0 0 1 .644-.252zm6.79 3.374c.672 0 1.197.2 1.575.602.378.401.567.952.567 1.652V164h-1.288v-5.11c0-.523-.098-.891-.294-1.106-.196-.215-.485-.322-.868-.322a1.68 1.68 0 0 0-1.036.336c-.299.224-.579.546-.84.966V164h-1.288v-7.378h1.106l.112 1.092c.261-.392.586-.7.973-.924a2.513 2.513 0 0 1 1.281-.336zm13.412 5.824c0 .299.051.52.154.665a.939.939 0 0 0 .462.329l-.294.896c-.383-.047-.69-.154-.924-.322-.233-.168-.406-.43-.518-.784-.495.737-1.227 1.106-2.198 1.106-.728 0-1.302-.205-1.722-.616-.42-.41-.63-.947-.63-1.61 0-.784.282-1.386.847-1.806.565-.42 1.365-.63 2.401-.63h1.134v-.546c0-.523-.126-.896-.378-1.12-.252-.224-.64-.336-1.162-.336-.541 0-1.204.13-1.988.392l-.322-.938c.915-.336 1.764-.504 2.548-.504.868 0 1.517.212 1.946.637.43.425.644 1.029.644 1.813v3.374zm-3.024.924c.737 0 1.316-.383 1.736-1.148v-1.694h-.966c-1.363 0-2.044.504-2.044 1.512 0 .439.107.77.322.994.215.224.532.336.952.336zm10.668.798l-1.288-6.216-1.33 6.216h-1.708l-1.722-7.378h1.288l1.33 6.482 1.456-6.482h1.442l1.386 6.482 1.344-6.482h1.232L66.554 164h-1.75zm10.01-1.722c0 .299.051.52.154.665a.939.939 0 0 0 .462.329l-.294.896c-.383-.047-.69-.154-.924-.322-.233-.168-.406-.43-.518-.784-.495.737-1.227 1.106-2.198 1.106-.728 0-1.302-.205-1.722-.616-.42-.41-.63-.947-.63-1.61 0-.784.282-1.386.847-1.806.565-.42 1.365-.63 2.401-.63h1.134v-.546c0-.523-.126-.896-.378-1.12-.252-.224-.64-.336-1.162-.336-.541 0-1.204.13-1.988.392l-.322-.938c.915-.336 1.764-.504 2.548-.504.868 0 1.517.212 1.946.637.43.425.644 1.029.644 1.813v3.374zm-3.024.924c.737 0 1.316-.383 1.736-1.148v-1.694h-.966c-1.363 0-2.044.504-2.044 1.512 0 .439.107.77.322.994.215.224.532.336.952.336zm8.624.84c-.29.859-.693 1.538-1.211 2.037-.518.5-1.258.8-2.219.903l-.14-1.008c.485-.084.873-.205 1.162-.364.29-.159.52-.362.693-.609.173-.247.334-.581.483-1.001h-.434l-2.478-7.378h1.372l1.974 6.44 1.932-6.44h1.33l-2.464 7.42zm4.27-1.82a.95.95 0 0 1 .7.28c.187.187.28.415.28.686 0 .27-.093.502-.28.693a.938.938 0 0 1-.7.287c-.27 0-.5-.096-.686-.287a.956.956 0 0 1-.28-.693c0-.27.093-.5.28-.686a.933.933 0 0 1 .686-.28zM94.61 164h-1.344v-3.696l-3.108-5.95h1.47l2.352 4.774 2.352-4.774h1.386l-3.108 5.936V164zm7.28-7.546c1.036 0 1.841.345 2.415 1.036.574.69.861 1.629.861 2.814 0 .765-.13 1.44-.392 2.023-.261.583-.64 1.036-1.134 1.358-.495.322-1.083.483-1.764.483-1.036 0-1.843-.345-2.422-1.036-.579-.69-.868-1.629-.868-2.814 0-.765.13-1.44.392-2.023.261-.583.64-1.036 1.134-1.358.495-.322 1.087-.483 1.778-.483zm0 1.036c-1.279 0-1.918.943-1.918 2.828 0 1.876.635 2.814 1.904 2.814 1.27 0 1.904-.943 1.904-2.828 0-1.876-.63-2.814-1.89-2.814zm9.786 6.51l-.098-1.148c-.28.457-.602.791-.966 1.001-.364.21-.807.315-1.33.315-.644 0-1.148-.196-1.512-.588-.364-.392-.546-.947-.546-1.666v-5.292h1.288v5.152c0 .504.089.861.266 1.071.177.21.467.315.868.315.719 0 1.335-.425 1.848-1.274v-5.264h1.288V164h-1.106zm9.478-7.546c.504 0 .957.07 1.358.21.401.14.784.35 1.148.63l-.56.854a3.864 3.864 0 0 0-.945-.511 2.853 2.853 0 0 0-.959-.161c-.42 0-.751.086-.994.259a.822.822 0 0 0-.364.707.82.82 0 0 0 .343.7c.229.168.642.331 1.239.49.821.205 1.435.485 1.841.84.406.355.609.84.609 1.456 0 .728-.282 1.283-.847 1.666s-1.253.574-2.065.574c-1.12 0-2.049-.322-2.786-.966l.714-.812c.579.495 1.26.742 2.044.742.476 0 .859-.098 1.148-.294.29-.196.434-.457.434-.784 0-.261-.051-.474-.154-.637-.103-.163-.278-.303-.525-.42-.247-.117-.618-.24-1.113-.371-.784-.205-1.351-.483-1.701-.833-.35-.35-.525-.791-.525-1.323 0-.383.114-.728.343-1.036.229-.308.546-.548.952-.721a3.455 3.455 0 0 1 1.365-.259zm8.008 0c.672 0 1.197.2 1.575.602.378.401.567.952.567 1.652V164h-1.288v-5.11c0-.523-.1-.891-.301-1.106-.2-.215-.492-.322-.875-.322s-.723.112-1.022.336c-.299.224-.579.541-.84.952V164h-1.288v-10.332l1.288-.14v4.116c.579-.793 1.307-1.19 2.184-1.19zm7.504 0c1.036 0 1.841.345 2.415 1.036.574.69.861 1.629.861 2.814 0 .765-.13 1.44-.392 2.023-.261.583-.64 1.036-1.134 1.358-.495.322-1.083.483-1.764.483-1.036 0-1.843-.345-2.422-1.036-.579-.69-.868-1.629-.868-2.814 0-.765.13-1.44.392-2.023.261-.583.64-1.036 1.134-1.358.495-.322 1.087-.483 1.778-.483zm0 1.036c-1.279 0-1.918.943-1.918 2.828 0 1.876.635 2.814 1.904 2.814 1.27 0 1.904-.943 1.904-2.828 0-1.876-.63-2.814-1.89-2.814zm9.786 6.51l-.098-1.148c-.28.457-.602.791-.966 1.001-.364.21-.807.315-1.33.315-.644 0-1.148-.196-1.512-.588-.364-.392-.546-.947-.546-1.666v-5.292h1.288v5.152c0 .504.089.861.266 1.071.177.21.467.315.868.315.719 0 1.335-.425 1.848-1.274v-5.264h1.288V164h-1.106zm4.984-1.484c0 .205.035.355.105.448.07.093.189.14.357.14.177 0 .336-.028.476-.084l.336.896c-.345.168-.71.252-1.092.252-.476 0-.84-.138-1.092-.413-.252-.275-.378-.679-.378-1.211v-8.89l1.288-.154v9.016zm8.596 1.484h-1.134l-.126-1.022a2.67 2.67 0 0 1-.91.875c-.364.21-.77.315-1.218.315-.877 0-1.561-.345-2.051-1.036-.49-.69-.735-1.62-.735-2.786 0-.756.117-1.428.35-2.016.233-.588.57-1.048 1.008-1.379.439-.331.952-.497 1.54-.497.756 0 1.419.303 1.988.91V153.5l1.288.154V164zm-3.108-.854c.392 0 .728-.091 1.008-.273.28-.182.55-.455.812-.819v-3.612a2.788 2.788 0 0 0-.777-.721 1.79 1.79 0 0 0-.931-.245c-.57 0-1.01.238-1.323.714-.313.476-.469 1.185-.469 2.128 0 .952.145 1.661.434 2.128.29.467.705.7 1.246.7zm11.48-6.692c.504 0 .957.07 1.358.21.401.14.784.35 1.148.63l-.56.854a3.864 3.864 0 0 0-.945-.511 2.853 2.853 0 0 0-.959-.161c-.42 0-.751.086-.994.259a.822.822 0 0 0-.364.707.82.82 0 0 0 .343.7c.229.168.642.331 1.239.49.821.205 1.435.485 1.841.84.406.355.609.84.609 1.456 0 .728-.282 1.283-.847 1.666s-1.253.574-2.065.574c-1.12 0-2.049-.322-2.786-.966l.714-.812c.579.495 1.26.742 2.044.742.476 0 .859-.098 1.148-.294.29-.196.434-.457.434-.784 0-.261-.051-.474-.154-.637-.103-.163-.278-.303-.525-.42-.247-.117-.618-.24-1.113-.371-.784-.205-1.351-.483-1.701-.833-.35-.35-.525-.791-.525-1.323 0-.383.114-.728.343-1.036.229-.308.546-.548.952-.721a3.455 3.455 0 0 1 1.365-.259zm8.26 7.21a2.833 2.833 0 0 1-1.652.504c-.625 0-1.113-.18-1.463-.539-.35-.36-.525-.88-.525-1.561v-4.452h-1.288v-.994h1.288v-1.666l1.288-.154v1.82h1.75l-.14.994h-1.61v4.396c0 .383.068.66.203.833.135.173.362.259.679.259.308 0 .635-.107.98-.322l.49.882zm4.102-7.21c1.036 0 1.841.345 2.415 1.036.574.69.861 1.629.861 2.814 0 .765-.13 1.44-.392 2.023-.261.583-.64 1.036-1.134 1.358-.495.322-1.083.483-1.764.483-1.036 0-1.843-.345-2.422-1.036-.579-.69-.868-1.629-.868-2.814 0-.765.13-1.44.392-2.023.261-.583.64-1.036 1.134-1.358.495-.322 1.087-.483 1.778-.483zm0 1.036c-1.279 0-1.918.943-1.918 2.828 0 1.876.635 2.814 1.904 2.814 1.27 0 1.904-.943 1.904-2.828 0-1.876-.63-2.814-1.89-2.814zm8.792-1.036c.943 0 1.633.336 2.072 1.008.439.672.658 1.62.658 2.842 0 1.157-.252 2.09-.756 2.8s-1.218 1.064-2.142 1.064c-.821 0-1.465-.28-1.932-.84v3.5l-1.288.154v-10.36h1.106l.098.994c.27-.373.597-.66.98-.861.383-.2.784-.301 1.204-.301zm-.476 6.664c1.213 0 1.82-.938 1.82-2.814 0-1.885-.555-2.828-1.666-2.828-.364 0-.695.107-.994.322-.299.215-.56.49-.784.826v3.598c.187.29.42.511.7.665.28.154.588.231.924.231zm12.488-6.664c.84 0 1.507.338 2.002 1.015.495.677.742 1.622.742 2.835 0 .765-.117 1.44-.35 2.023-.233.583-.57 1.036-1.008 1.358-.439.322-.952.483-1.54.483-.775 0-1.428-.327-1.96-.98l-.126.812h-1.134v-10.346l1.288-.154v4.046c.532-.728 1.227-1.092 2.086-1.092zm-.462 6.692c.57 0 1.015-.231 1.337-.693.322-.462.483-1.178.483-2.149 0-.999-.15-1.72-.448-2.163-.299-.443-.723-.665-1.274-.665-.653 0-1.227.383-1.722 1.148v3.528c.196.308.436.55.721.728.285.177.586.266.903.266zm8.358.896c-.29.859-.693 1.538-1.211 2.037-.518.5-1.258.8-2.219.903l-.14-1.008c.485-.084.873-.205 1.162-.364.29-.159.52-.362.693-.609.173-.247.334-.581.483-1.001h-.434l-2.478-7.378h1.372l1.974 6.44 1.932-6.44h1.33l-2.464 7.42zm3.71-3.262l-.154-6.426h1.428l-.14 6.426h-1.134zm.574 1.442a.95.95 0 0 1 .7.28c.187.187.28.415.28.686 0 .27-.093.502-.28.693a.938.938 0 0 1-.7.287c-.27 0-.5-.096-.686-.287a.956.956 0 0 1-.28-.693c0-.27.093-.5.28-.686a.933.933 0 0 1 .686-.28z" fill="#1A4A44"/><path d="M189.07 100.643c-4.023 0-7.287 3.293-7.287 7.357s3.264 7.357 7.288 7.357c4.024 0 7.287-3.293 7.287-7.357s-3.263-7.357-7.287-7.357z" stroke="url(#c)" fill="url(#d)"/><path d="M187.32 107.698c-.074-.134-.293-.872-.867-.872-.574 0-.792.738-.866.872-.073.134-.34.269-.34 0 0-2.175.83-2.412 1.206-2.412.377 0 1.2.237 1.2 2.418 0 .269-.26.128-.333-.006zM192.417 107.698c-.074-.134-.292-.872-.866-.872-.574 0-.792.738-.866.872-.074.134-.342.269-.342 0 0-2.175.832-2.412 1.208-2.412s1.2.237 1.2 2.418c0 .269-.26.128-.334-.006zM189 113.143c-3.593 0-5.027-2.939-5.027-3.853 0-.48.37-.489.42-.286.05.203 1.156 3.853 4.607 3.853v-.001c3.45 0 4.558-3.67 4.608-3.873.05-.204.419-.195.419.287 0 .919-1.434 3.873-5.027 3.873z" fill="#730000"/><path d="M194.197 109.911l.923.65c.349.247.996 1.04.346 1.976-.651.935-1.613.594-1.962.348l-.923-.65s-.538-.38-.43-.535c.107-.155.414-.432.776-.953.362-.52.516-.906.624-1.06.107-.155.646.224.646.224z" stroke="#D62E7F" fill="url(#e)"/><path d="M208.07 100.643c-4.023 0-7.287 3.293-7.287 7.357s3.264 7.357 7.288 7.357c4.024 0 7.287-3.293 7.287-7.357s-3.263-7.357-7.287-7.357z" stroke="url(#c)" fill="url(#d)"/><path d="M206.32 107.698c-.074-.134-.293-.872-.867-.872-.574 0-.792.738-.866.872-.073.134-.34.269-.34 0 0-2.175.83-2.412 1.206-2.412.377 0 1.2.237 1.2 2.418 0 .269-.26.128-.333-.006zM211.417 107.698c-.074-.134-.292-.872-.866-.872-.574 0-.792.738-.866.872-.074.134-.342.269-.342 0 0-2.175.832-2.412 1.208-2.412s1.2.237 1.2 2.418c0 .269-.26.128-.334-.006zM208 113.143c-3.593 0-5.027-2.939-5.027-3.853 0-.48.37-.489.42-.286.05.203 1.156 3.853 4.607 3.853v-.001c3.45 0 4.558-3.67 4.608-3.873.05-.204.419-.195.419.287 0 .919-1.434 3.873-5.027 3.873z" fill="#730000"/><path d="M213.197 109.911l.923.65c.349.247.996 1.04.346 1.976-.651.935-1.613.594-1.962.348l-.923-.65s-.538-.38-.43-.535c.107-.155.414-.432.776-.953.362-.52.516-.906.624-1.06.107-.155.646.224.646.224z" stroke="#D62E7F" fill="url(#e)"/><path d="M227.07 100.643c-4.023 0-7.287 3.293-7.287 7.357s3.264 7.357 7.288 7.357c4.024 0 7.287-3.293 7.287-7.357s-3.263-7.357-7.287-7.357z" stroke="url(#c)" fill="url(#d)"/><path d="M225.32 107.698c-.074-.134-.293-.872-.867-.872-.574 0-.792.738-.866.872-.073.134-.34.269-.34 0 0-2.175.83-2.412 1.206-2.412.377 0 1.2.237 1.2 2.418 0 .269-.26.128-.333-.006zM230.417 107.698c-.074-.134-.292-.872-.866-.872-.574 0-.792.738-.866.872-.074.134-.342.269-.342 0 0-2.175.832-2.412 1.208-2.412s1.2.237 1.2 2.418c0 .269-.26.128-.334-.006zM227 113.143c-3.593 0-5.027-2.939-5.027-3.853 0-.48.37-.489.42-.286.05.203 1.156 3.853 4.607 3.853v-.001c3.45 0 4.558-3.67 4.608-3.873.05-.204.419-.195.419.287 0 .919-1.434 3.873-5.027 3.873z" fill="#730000"/><path d="M232.197 109.911l.923.65c.349.247.996 1.04.346 1.976-.651.935-1.613.594-1.962.348l-.923-.65s-.538-.38-.43-.535c.107-.155.414-.432.776-.953.362-.52.516-.906.624-1.06.107-.155.646.224.646.224z" stroke="#D62E7F" fill="url(#e)"/><path d="M26.206 105.936v2.576h2.828v1.638h-2.828V114H23.91v-9.702h5.782l-.238 1.638h-3.248zm4.48 8.064v-7.434h2.212V114h-2.212zm1.092-11.354c.383 0 .698.119.945.357a1.2 1.2 0 0 1 .371.903 1.2 1.2 0 0 1-.371.903c-.247.238-.562.357-.945.357-.383 0-.695-.119-.938-.357a1.211 1.211 0 0 1-.364-.903c0-.364.121-.665.364-.903s.555-.357.938-.357zm6.076 3.682c1.139 0 2.03.348 2.674 1.043.644.695.966 1.668.966 2.919 0 .793-.147 1.486-.441 2.079a3.25 3.25 0 0 1-1.26 1.379c-.546.327-1.192.49-1.939.49-1.13 0-2.018-.348-2.667-1.043s-.973-1.668-.973-2.919c0-.793.147-1.486.441-2.079a3.25 3.25 0 0 1 1.26-1.379c.546-.327 1.192-.49 1.939-.49zm0 1.624c-.448 0-.784.189-1.008.567-.224.378-.336.964-.336 1.757 0 .812.11 1.405.329 1.778.22.373.558.56 1.015.56.448 0 .784-.189 1.008-.567.224-.378.336-.964.336-1.757 0-.812-.11-1.405-.329-1.778-.22-.373-.558-.56-1.015-.56zm9.31-1.624c.644 0 1.148.196 1.512.588.364.392.546.943.546 1.652V114H47.01v-5.054c0-.373-.058-.632-.175-.777-.117-.145-.292-.217-.525-.217-.448 0-.877.322-1.288.966V114H42.81v-7.434h1.932l.154.882a3.506 3.506 0 0 1 1.043-.84c.369-.187.777-.28 1.225-.28zm9.632 5.516c0 .28.04.485.119.616a.72.72 0 0 0 .385.294l-.462 1.442c-.457-.037-.828-.135-1.113-.294-.285-.159-.511-.415-.679-.77-.485.737-1.232 1.106-2.24 1.106-.737 0-1.325-.215-1.764-.644-.439-.43-.658-.99-.658-1.68 0-.812.299-1.433.896-1.862.597-.43 1.46-.644 2.59-.644h.756v-.322c0-.439-.093-.74-.28-.903-.187-.163-.513-.245-.98-.245-.243 0-.537.035-.882.105-.345.07-.7.166-1.064.287l-.504-1.456a8.52 8.52 0 0 1 1.435-.406c.49-.093.945-.14 1.365-.14 1.064 0 1.843.22 2.338.658.495.439.742 1.097.742 1.974v2.884zm-3.346.812c.243 0 .464-.06.665-.182.2-.121.371-.294.511-.518v-1.33h-.546c-.504 0-.88.089-1.127.266-.247.177-.371.453-.371.826 0 .299.077.53.231.693.154.163.366.245.637.245zm11.172-8.358c1.521 0 2.742.343 3.661 1.029.92.686 1.379 1.944 1.379 3.773 0 1.801-.448 3.068-1.344 3.801-.896.733-2.058 1.099-3.486 1.099H61.92v-9.702h2.702zm-.406 8.036h.756c.756 0 1.33-.236 1.722-.707.392-.471.588-1.314.588-2.527 0-.83-.098-1.475-.294-1.932-.196-.457-.462-.772-.798-.945-.336-.173-.751-.259-1.246-.259h-.728v6.37zm12.684-.49c0 .28.04.485.119.616a.72.72 0 0 0 .385.294l-.462 1.442c-.457-.037-.828-.135-1.113-.294-.285-.159-.511-.415-.679-.77-.485.737-1.232 1.106-2.24 1.106-.737 0-1.325-.215-1.764-.644-.439-.43-.658-.99-.658-1.68 0-.812.299-1.433.896-1.862.597-.43 1.46-.644 2.59-.644h.756v-.322c0-.439-.093-.74-.28-.903-.187-.163-.513-.245-.98-.245-.243 0-.537.035-.882.105-.345.07-.7.166-1.064.287l-.504-1.456a8.52 8.52 0 0 1 1.435-.406c.49-.093.945-.14 1.365-.14 1.064 0 1.843.22 2.338.658.495.439.742 1.097.742 1.974v2.884zm-3.346.812c.243 0 .464-.06.665-.182.2-.121.371-.294.511-.518v-1.33h-.546c-.504 0-.88.089-1.127.266-.247.177-.371.453-.371.826 0 .299.077.53.231.693.154.163.366.245.637.245zM84.026 114l-.994-5.46-.98 5.46h-2.618l-1.582-7.434h2.24l.77 5.782 1.162-5.782h2.156l1.022 5.782.896-5.782h2.114L86.672 114h-2.646zm7.742-7.672c.532 0 1.031.08 1.498.238a3.93 3.93 0 0 1 1.232.672l-.812 1.26c-.597-.392-1.185-.588-1.764-.588-.327 0-.57.049-.728.147a.46.46 0 0 0-.238.413c0 .14.035.254.105.343.07.089.212.18.427.273.215.093.546.205.994.336.775.224 1.351.516 1.729.875.378.36.567.856.567 1.491 0 .504-.145.94-.434 1.309-.29.369-.686.651-1.19.847a4.6 4.6 0 0 1-1.68.294 5.043 5.043 0 0 1-1.743-.294 4.005 4.005 0 0 1-1.365-.812l1.092-1.218c.28.233.588.415.924.546.336.13.677.196 1.022.196s.614-.06.805-.182a.567.567 0 0 0 .287-.504.734.734 0 0 0-.112-.427c-.075-.107-.22-.205-.434-.294a10.003 10.003 0 0 0-1.022-.329c-.737-.215-1.288-.513-1.652-.896-.364-.383-.546-.859-.546-1.428 0-.43.124-.814.371-1.155.247-.34.602-.611 1.064-.812.462-.2.996-.301 1.603-.301zm7.364 0c1.139 0 2.03.348 2.674 1.043.644.695.966 1.668.966 2.919 0 .793-.147 1.486-.441 2.079a3.25 3.25 0 0 1-1.26 1.379c-.546.327-1.192.49-1.939.49-1.13 0-2.018-.348-2.667-1.043s-.973-1.668-.973-2.919c0-.793.147-1.486.441-2.079a3.25 3.25 0 0 1 1.26-1.379c.546-.327 1.192-.49 1.939-.49zm0 1.624c-.448 0-.784.189-1.008.567-.224.378-.336.964-.336 1.757 0 .812.11 1.405.329 1.778.22.373.558.56 1.015.56.448 0 .784-.189 1.008-.567.224-.378.336-.964.336-1.757 0-.812-.11-1.405-.329-1.778-.22-.373-.558-.56-1.015-.56zm9.31-1.624c.644 0 1.148.196 1.512.588.364.392.546.943.546 1.652V114h-2.212v-5.054c0-.373-.058-.632-.175-.777-.117-.145-.292-.217-.525-.217-.448 0-.877.322-1.288.966V114h-2.212v-7.434h1.932l.154.882a3.506 3.506 0 0 1 1.043-.84c.369-.187.777-.28 1.225-.28zm8.904-.91v3.29h3.15v1.05h-3.15V114h-1.33v-9.646h5.124l-.154 1.064h-3.64zm6.692 7.098c0 .205.035.355.105.448.07.093.189.14.357.14.177 0 .336-.028.476-.084l.336.896c-.345.168-.71.252-1.092.252-.476 0-.84-.138-1.092-.413-.252-.275-.378-.679-.378-1.211v-8.89l1.288-.154v9.016zm7.854-.238c0 .299.051.52.154.665a.939.939 0 0 0 .462.329l-.294.896c-.383-.047-.69-.154-.924-.322-.233-.168-.406-.43-.518-.784-.495.737-1.227 1.106-2.198 1.106-.728 0-1.302-.205-1.722-.616-.42-.41-.63-.947-.63-1.61 0-.784.282-1.386.847-1.806.565-.42 1.365-.63 2.401-.63h1.134v-.546c0-.523-.126-.896-.378-1.12-.252-.224-.64-.336-1.162-.336-.541 0-1.204.13-1.988.392l-.322-.938c.915-.336 1.764-.504 2.548-.504.868 0 1.517.212 1.946.637.43.425.644 1.029.644 1.813v3.374zm-3.024.924c.737 0 1.316-.383 1.736-1.148v-1.694h-.966c-1.363 0-2.044.504-2.044 1.512 0 .439.107.77.322.994.215.224.532.336.952.336zm9.394.462a2.833 2.833 0 0 1-1.652.504c-.625 0-1.113-.18-1.463-.539-.35-.36-.525-.88-.525-1.561v-4.452h-1.288v-.994h1.288v-1.666l1.288-.154v1.82h1.75l-.14.994h-1.61v4.396c0 .383.068.66.203.833.135.173.362.259.679.259.308 0 .635-.107.98-.322l.49.882zm4.704-7.21c.84 0 1.507.338 2.002 1.015.495.677.742 1.622.742 2.835 0 .765-.117 1.44-.35 2.023-.233.583-.57 1.036-1.008 1.358-.439.322-.952.483-1.54.483-.775 0-1.428-.327-1.96-.98l-.126.812h-1.134v-10.346l1.288-.154v4.046c.532-.728 1.227-1.092 2.086-1.092zm-.462 6.692c.57 0 1.015-.231 1.337-.693.322-.462.483-1.178.483-2.149 0-.999-.15-1.72-.448-2.163-.299-.443-.723-.665-1.274-.665-.653 0-1.227.383-1.722 1.148v3.528c.196.308.436.55.721.728.285.177.586.266.903.266zm8.61-6.692c.261 0 .504.028.728.084l-.238 1.26a2.655 2.655 0 0 0-.644-.084c-.457 0-.826.168-1.106.504-.28.336-.5.859-.658 1.568V114h-1.288v-7.378h1.106l.126 1.498c.196-.55.462-.966.798-1.246s.728-.42 1.176-.42zm7.77 3.64c0 .215-.01.434-.028.658h-4.704c.056.812.261 1.41.616 1.792.355.383.812.574 1.372.574.355 0 .681-.051.98-.154.299-.103.611-.266.938-.49l.56.77c-.784.616-1.643.924-2.576.924-1.027 0-1.827-.336-2.401-1.008-.574-.672-.861-1.596-.861-2.772 0-.765.124-1.444.371-2.037s.602-1.057 1.064-1.393c.462-.336 1.006-.504 1.631-.504.98 0 1.731.322 2.254.966.523.644.784 1.535.784 2.674zm-1.274-.378c0-.728-.145-1.283-.434-1.666-.29-.383-.723-.574-1.302-.574-1.055 0-1.629.775-1.722 2.324h3.458v-.084zm8.372 2.562c0 .299.051.52.154.665a.939.939 0 0 0 .462.329l-.294.896c-.383-.047-.69-.154-.924-.322-.233-.168-.406-.43-.518-.784-.495.737-1.227 1.106-2.198 1.106-.728 0-1.302-.205-1.722-.616-.42-.41-.63-.947-.63-1.61 0-.784.282-1.386.847-1.806.565-.42 1.365-.63 2.401-.63h1.134v-.546c0-.523-.126-.896-.378-1.12-.252-.224-.64-.336-1.162-.336-.541 0-1.204.13-1.988.392l-.322-.938c.915-.336 1.764-.504 2.548-.504.868 0 1.517.212 1.946.637.43.425.644 1.029.644 1.813v3.374zm-3.024.924c.737 0 1.316-.383 1.736-1.148v-1.694h-.966c-1.363 0-2.044.504-2.044 1.512 0 .439.107.77.322.994.215.224.532.336.952.336zm11.382.798h-1.134l-.126-1.022a2.67 2.67 0 0 1-.91.875c-.364.21-.77.315-1.218.315-.877 0-1.561-.345-2.051-1.036-.49-.69-.735-1.62-.735-2.786 0-.756.117-1.428.35-2.016.233-.588.57-1.048 1.008-1.379.439-.331.952-.497 1.54-.497.756 0 1.419.303 1.988.91V103.5l1.288.154V114zm-3.108-.854c.392 0 .728-.091 1.008-.273.28-.182.55-.455.812-.819v-3.612a2.788 2.788 0 0 0-.777-.721 1.79 1.79 0 0 0-.931-.245c-.57 0-1.01.238-1.323.714-.313.476-.469 1.185-.469 2.128 0 .952.145 1.661.434 2.128.29.467.705.7 1.246.7zM26.584 82.53c0 .775-.138 1.414-.413 1.918-.275.504-.64.898-1.092 1.183-.453.285-.992.53-1.617.735l-.616-1.624c.41-.159.719-.34.924-.546.205-.205.343-.443.413-.714.07-.27.105-.616.105-1.036v-8.148h2.296v8.232zm4.942-6.202c1.139 0 2.03.348 2.674 1.043.644.695.966 1.668.966 2.919 0 .793-.147 1.486-.441 2.079a3.25 3.25 0 0 1-1.26 1.379c-.546.327-1.192.49-1.939.49-1.13 0-2.018-.348-2.667-1.043s-.973-1.668-.973-2.919c0-.793.147-1.486.441-2.079a3.25 3.25 0 0 1 1.26-1.379c.546-.327 1.192-.49 1.939-.49zm0 1.624c-.448 0-.784.189-1.008.567-.224.378-.336.964-.336 1.757 0 .812.11 1.405.329 1.778.22.373.558.56 1.015.56.448 0 .784-.189 1.008-.567.224-.378.336-.964.336-1.757 0-.812-.11-1.405-.329-1.778-.22-.373-.558-.56-1.015-.56zm11.438 2.184c0 .308-.014.574-.042.798H38.33c.065.625.238 1.064.518 1.316s.667.378 1.162.378c.299 0 .588-.054.868-.161.28-.107.583-.273.91-.497l.91 1.232c-.868.69-1.834 1.036-2.898 1.036-1.204 0-2.128-.355-2.772-1.064-.644-.71-.966-1.661-.966-2.856 0-.756.135-1.435.406-2.037a3.311 3.311 0 0 1 1.19-1.428c.523-.35 1.148-.525 1.876-.525 1.073 0 1.913.336 2.52 1.008.607.672.91 1.605.91 2.8zm-2.17-.63c-.019-1.139-.42-1.708-1.204-1.708-.383 0-.677.138-.882.413-.205.275-.336.74-.392 1.393h2.478v-.098zm9.478 3.024c0 .775-.138 1.414-.413 1.918-.275.504-.64.898-1.092 1.183-.453.285-.992.53-1.617.735l-.616-1.624c.41-.159.719-.34.924-.546.205-.205.343-.443.413-.714.07-.27.105-.616.105-1.036v-8.148h2.296v8.232zm4.942-6.202c1.139 0 2.03.348 2.674 1.043.644.695.966 1.668.966 2.919 0 .793-.147 1.486-.441 2.079a3.25 3.25 0 0 1-1.26 1.379c-.546.327-1.192.49-1.939.49-1.13 0-2.018-.348-2.667-1.043s-.973-1.668-.973-2.919c0-.793.147-1.486.441-2.079a3.25 3.25 0 0 1 1.26-1.379c.546-.327 1.192-.49 1.939-.49zm0 1.624c-.448 0-.784.189-1.008.567-.224.378-.336.964-.336 1.757 0 .812.11 1.405.329 1.778.22.373.558.56 1.015.56.448 0 .784-.189 1.008-.567.224-.378.336-.964.336-1.757 0-.812-.11-1.405-.329-1.778-.22-.373-.558-.56-1.015-.56zm9.31-1.624c.644 0 1.148.196 1.512.588.364.392.546.943.546 1.652V84H64.37v-5.054c0-.373-.06-.632-.182-.777-.121-.145-.294-.217-.518-.217-.448 0-.877.317-1.288.952V84H60.17V73.612l2.212-.224v3.962a3.21 3.21 0 0 1 .98-.77 2.621 2.621 0 0 1 1.162-.252zm8.078 0c.644 0 1.148.196 1.512.588.364.392.546.943.546 1.652V84h-2.212v-5.054c0-.373-.058-.632-.175-.777-.117-.145-.292-.217-.525-.217-.448 0-.877.322-1.288.966V84h-2.212v-7.434h1.932l.154.882a3.506 3.506 0 0 1 1.043-.84c.369-.187.777-.28 1.225-.28zm6.342 0c.532 0 1.031.08 1.498.238a3.93 3.93 0 0 1 1.232.672l-.812 1.26c-.597-.392-1.185-.588-1.764-.588-.327 0-.57.049-.728.147a.46.46 0 0 0-.238.413c0 .14.035.254.105.343.07.089.212.18.427.273.215.093.546.205.994.336.775.224 1.351.516 1.729.875.378.36.567.856.567 1.491 0 .504-.145.94-.434 1.309-.29.369-.686.651-1.19.847a4.6 4.6 0 0 1-1.68.294 5.043 5.043 0 0 1-1.743-.294 4.005 4.005 0 0 1-1.365-.812l1.092-1.218c.28.233.588.415.924.546.336.13.677.196 1.022.196s.614-.06.805-.182a.567.567 0 0 0 .287-.504.734.734 0 0 0-.112-.427c-.075-.107-.22-.205-.434-.294a10.003 10.003 0 0 0-1.022-.329c-.737-.215-1.288-.513-1.652-.896-.364-.383-.546-.859-.546-1.428 0-.43.124-.814.371-1.155.247-.34.602-.611 1.064-.812.462-.2.996-.301 1.603-.301zm8.806 7.322c-.27.187-.586.331-.945.434-.36.103-.716.154-1.071.154-1.624-.01-2.436-.905-2.436-2.688v-3.444h-1.05v-1.54h1.05v-1.61l2.212-.252v1.862h1.708l-.238 1.54h-1.47v3.416c0 .345.056.593.168.742.112.15.29.224.532.224.261 0 .527-.084.798-.252l.742 1.414zm3.962-7.322c1.139 0 2.03.348 2.674 1.043.644.695.966 1.668.966 2.919 0 .793-.147 1.486-.441 2.079a3.25 3.25 0 0 1-1.26 1.379c-.546.327-1.192.49-1.939.49-1.13 0-2.018-.348-2.667-1.043s-.973-1.668-.973-2.919c0-.793.147-1.486.441-2.079a3.25 3.25 0 0 1 1.26-1.379c.546-.327 1.192-.49 1.939-.49zm0 1.624c-.448 0-.784.189-1.008.567-.224.378-.336.964-.336 1.757 0 .812.11 1.405.329 1.778.22.373.558.56 1.015.56.448 0 .784-.189 1.008-.567.224-.378.336-.964.336-1.757 0-.812-.11-1.405-.329-1.778-.22-.373-.558-.56-1.015-.56zm9.31-1.624c.644 0 1.148.196 1.512.588.364.392.546.943.546 1.652V84h-2.212v-5.054c0-.373-.058-.632-.175-.777-.117-.145-.292-.217-.525-.217-.448 0-.877.322-1.288.966V84h-2.212v-7.434H98.6l.154.882a3.506 3.506 0 0 1 1.043-.84c.369-.187.777-.28 1.225-.28zM114.742 84l-1.778-8.078L111.172 84h-1.666l-1.96-9.646h1.302l1.554 8.484 1.862-8.484h1.414l1.904 8.484 1.61-8.484h1.218L116.45 84h-1.708zm8.82-7.546c.672 0 1.197.2 1.575.602.378.401.567.952.567 1.652V84h-1.288v-5.11c0-.523-.1-.891-.301-1.106-.2-.215-.492-.322-.875-.322s-.723.112-1.022.336c-.299.224-.579.541-.84.952V84h-1.288V73.668l1.288-.14v4.116c.579-.793 1.307-1.19 2.184-1.19zm7.504 0c1.036 0 1.841.345 2.415 1.036.574.69.861 1.629.861 2.814 0 .765-.13 1.44-.392 2.023-.261.583-.64 1.036-1.134 1.358-.495.322-1.083.483-1.764.483-1.036 0-1.843-.345-2.422-1.036-.579-.69-.868-1.629-.868-2.814 0-.765.13-1.44.392-2.023.261-.583.64-1.036 1.134-1.358.495-.322 1.087-.483 1.778-.483zm0 1.036c-1.279 0-1.918.943-1.918 2.828 0 1.876.635 2.814 1.904 2.814 1.27 0 1.904-.943 1.904-2.828 0-1.876-.63-2.814-1.89-2.814zm10.374 4.788c0 .299.051.52.154.665a.939.939 0 0 0 .462.329l-.294.896c-.383-.047-.69-.154-.924-.322-.233-.168-.406-.43-.518-.784-.495.737-1.227 1.106-2.198 1.106-.728 0-1.302-.205-1.722-.616-.42-.41-.63-.947-.63-1.61 0-.784.282-1.386.847-1.806.565-.42 1.365-.63 2.401-.63h1.134v-.546c0-.523-.126-.896-.378-1.12-.252-.224-.64-.336-1.162-.336-.541 0-1.204.13-1.988.392l-.322-.938c.915-.336 1.764-.504 2.548-.504.868 0 1.517.212 1.946.637.43.425.644 1.029.644 1.813v3.374zm-3.024.924c.737 0 1.316-.383 1.736-1.148V80.36h-.966c-1.363 0-2.044.504-2.044 1.512 0 .439.107.77.322.994.215.224.532.336.952.336zm6.006-.98a.95.95 0 0 1 .7.28c.187.187.28.415.28.686 0 .29-.084.62-.252.994l-.938 2.142h-.924l.56-2.324a.999.999 0 0 1-.392-.812c0-.27.093-.5.28-.686a.933.933 0 0 1 .686-.28zM151.156 84v-7.378h1.288V84h-1.288zm.63-10.92c.27 0 .49.084.658.252a.855.855 0 0 1 .252.63c0 .252-.084.46-.252.623-.168.163-.387.245-.658.245a.886.886 0 0 1-.644-.245.832.832 0 0 1-.252-.623c0-.252.084-.462.252-.63a.872.872 0 0 1 .644-.252zm5.32 3.374c.504 0 .957.07 1.358.21.401.14.784.35 1.148.63l-.56.854a3.864 3.864 0 0 0-.945-.511 2.853 2.853 0 0 0-.959-.161c-.42 0-.751.086-.994.259a.822.822 0 0 0-.364.707.82.82 0 0 0 .343.7c.229.168.642.331 1.239.49.821.205 1.435.485 1.841.84.406.355.609.84.609 1.456 0 .728-.282 1.283-.847 1.666s-1.253.574-2.065.574c-1.12 0-2.049-.322-2.786-.966l.714-.812c.579.495 1.26.742 2.044.742.476 0 .859-.098 1.148-.294.29-.196.434-.457.434-.784 0-.261-.051-.474-.154-.637-.103-.163-.278-.303-.525-.42-.247-.117-.618-.24-1.113-.371-.784-.205-1.351-.483-1.701-.833-.35-.35-.525-.791-.525-1.323 0-.383.114-.728.343-1.036.229-.308.546-.548.952-.721a3.455 3.455 0 0 1 1.365-.259zm11.97 7.21a2.833 2.833 0 0 1-1.652.504c-.625 0-1.113-.18-1.463-.539-.35-.36-.525-.88-.525-1.561v-4.452h-1.288v-.994h1.288v-1.666l1.288-.154v1.82h1.75l-.14.994h-1.61v4.396c0 .383.068.66.203.833.135.173.362.259.679.259.308 0 .635-.107.98-.322l.49.882zm4.802-7.21c.672 0 1.197.2 1.575.602.378.401.567.952.567 1.652V84h-1.288v-5.11c0-.523-.1-.891-.301-1.106-.2-.215-.492-.322-.875-.322s-.723.112-1.022.336c-.299.224-.579.541-.84.952V84h-1.288V73.668l1.288-.14v4.116c.579-.793 1.307-1.19 2.184-1.19zM178.61 84v-7.378h1.288V84h-1.288zm.63-10.92c.27 0 .49.084.658.252a.855.855 0 0 1 .252.63c0 .252-.084.46-.252.623-.168.163-.387.245-.658.245a.886.886 0 0 1-.644-.245.832.832 0 0 1-.252-.623c0-.252.084-.462.252-.63a.872.872 0 0 1 .644-.252zm5.32 3.374c.504 0 .957.07 1.358.21.401.14.784.35 1.148.63l-.56.854a3.864 3.864 0 0 0-.945-.511 2.853 2.853 0 0 0-.959-.161c-.42 0-.751.086-.994.259a.822.822 0 0 0-.364.707.82.82 0 0 0 .343.7c.229.168.642.331 1.239.49.821.205 1.435.485 1.841.84.406.355.609.84.609 1.456 0 .728-.282 1.283-.847 1.666s-1.253.574-2.065.574c-1.12 0-2.049-.322-2.786-.966l.714-.812c.579.495 1.26.742 2.044.742.476 0 .859-.098 1.148-.294.29-.196.434-.457.434-.784 0-.261-.051-.474-.154-.637-.103-.163-.278-.303-.525-.42-.247-.117-.618-.24-1.113-.371-.784-.205-1.351-.483-1.701-.833-.35-.35-.525-.791-.525-1.323 0-.383.114-.728.343-1.036.229-.308.546-.548.952-.721a3.455 3.455 0 0 1 1.365-.259zm11.634 0c.943 0 1.633.336 2.072 1.008.439.672.658 1.62.658 2.842 0 1.157-.252 2.09-.756 2.8s-1.218 1.064-2.142 1.064c-.821 0-1.465-.28-1.932-.84v3.5l-1.288.154v-10.36h1.106l.098.994c.27-.373.597-.66.98-.861.383-.2.784-.301 1.204-.301zm-.476 6.664c1.213 0 1.82-.938 1.82-2.814 0-1.885-.555-2.828-1.666-2.828-.364 0-.695.107-.994.322-.299.215-.56.49-.784.826v3.598c.187.29.42.511.7.665.28.154.588.231.924.231zm6.622-.602c0 .205.035.355.105.448.07.093.189.14.357.14.177 0 .336-.028.476-.084l.336.896c-.345.168-.71.252-1.092.252-.476 0-.84-.138-1.092-.413-.252-.275-.378-.679-.378-1.211v-8.89l1.288-.154v9.016zm7.854-.238c0 .299.051.52.154.665a.939.939 0 0 0 .462.329l-.294.896c-.383-.047-.69-.154-.924-.322-.233-.168-.406-.43-.518-.784-.495.737-1.227 1.106-2.198 1.106-.728 0-1.302-.205-1.722-.616-.42-.41-.63-.947-.63-1.61 0-.784.282-1.386.847-1.806.565-.42 1.365-.63 2.401-.63h1.134v-.546c0-.523-.126-.896-.378-1.12-.252-.224-.64-.336-1.162-.336-.541 0-1.204.13-1.988.392l-.322-.938c.915-.336 1.764-.504 2.548-.504.868 0 1.517.212 1.946.637.43.425.644 1.029.644 1.813v3.374zm-3.024.924c.737 0 1.316-.383 1.736-1.148V80.36h-.966c-1.363 0-2.044.504-2.044 1.512 0 .439.107.77.322.994.215.224.532.336.952.336zm8.358-6.748c.439 0 .84.063 1.204.189a3.36 3.36 0 0 1 1.05.609l-.63.84c-.252-.196-.5-.34-.742-.434a2.288 2.288 0 0 0-.826-.14c-.597 0-1.062.238-1.393.714-.331.476-.497 1.18-.497 2.114 0 .933.163 1.622.49 2.065.327.443.793.665 1.4.665.299 0 .567-.047.805-.14.238-.093.497-.247.777-.462l.616.882c-.672.541-1.423.812-2.254.812-.999 0-1.785-.336-2.359-1.008-.574-.672-.861-1.6-.861-2.786 0-.784.13-1.47.392-2.058.261-.588.632-1.045 1.113-1.372.48-.327 1.052-.49 1.715-.49zm9.576 3.64c0 .215-.01.434-.028.658h-4.704c.056.812.261 1.41.616 1.792.355.383.812.574 1.372.574.355 0 .681-.051.98-.154.299-.103.611-.266.938-.49l.56.77c-.784.616-1.643.924-2.576.924-1.027 0-1.827-.336-2.401-1.008-.574-.672-.861-1.596-.861-2.772 0-.765.124-1.444.371-2.037s.602-1.057 1.064-1.393c.462-.336 1.006-.504 1.631-.504.98 0 1.731.322 2.254.966.523.644.784 1.535.784 2.674zm-1.274-.378c0-.728-.145-1.283-.434-1.666-.29-.383-.723-.574-1.302-.574-1.055 0-1.629.775-1.722 2.324h3.458v-.084zm10.584-3.262c.672 0 1.197.2 1.575.602.378.401.567.952.567 1.652V84h-1.288v-5.11c0-.523-.098-.891-.294-1.106-.196-.215-.485-.322-.868-.322a1.68 1.68 0 0 0-1.036.336c-.299.224-.579.546-.84.966V84h-1.288v-7.378h1.106l.112 1.092c.261-.392.586-.7.973-.924a2.513 2.513 0 0 1 1.281-.336zm10.304 3.64c0 .215-.01.434-.028.658h-4.704c.056.812.261 1.41.616 1.792.355.383.812.574 1.372.574.355 0 .681-.051.98-.154.299-.103.611-.266.938-.49l.56.77c-.784.616-1.643.924-2.576.924-1.027 0-1.827-.336-2.401-1.008-.574-.672-.861-1.596-.861-2.772 0-.765.124-1.444.371-2.037s.602-1.057 1.064-1.393c.462-.336 1.006-.504 1.631-.504.98 0 1.731.322 2.254.966.523.644.784 1.535.784 2.674zm-1.274-.378c0-.728-.145-1.283-.434-1.666-.29-.383-.723-.574-1.302-.574-1.055 0-1.629.775-1.722 2.324h3.458v-.084zm8.4 4.284l-1.288-6.216-1.33 6.216h-1.708l-1.722-7.378h1.288l1.33 6.482 1.456-6.482h1.442l1.386 6.482 1.344-6.482h1.232L253.594 84h-1.75zm7.042-9.814c.56 0 1.043.1 1.449.301.406.2.712.469.917.805.205.336.308.695.308 1.078 0 .364-.063.674-.189.931a2.013 2.013 0 0 1-.455.623c-.177.159-.415.34-.714.546-.27.187-.483.348-.637.483a1.709 1.709 0 0 0-.385.497 1.49 1.49 0 0 0-.154.7v.63h-1.274v-.7c0-.401.068-.744.203-1.029a2.1 2.1 0 0 1 .497-.686c.196-.173.443-.357.742-.553.355-.243.614-.455.777-.637.163-.182.245-.422.245-.721 0-.383-.126-.679-.378-.889-.252-.21-.597-.315-1.036-.315-.747 0-1.395.336-1.946 1.008l-.882-.686c.784-.924 1.755-1.386 2.912-1.386zm-.462 8.036a.95.95 0 0 1 .7.28c.187.187.28.415.28.686 0 .27-.093.502-.28.693a.938.938 0 0 1-.7.287c-.27 0-.5-.096-.686-.287a.956.956 0 0 1-.28-.693c0-.27.093-.5.28-.686a.933.933 0 0 1 .686-.28z" fill="#1A4A44"/><g><use fill="#000" filter="url(#f)" xlink:href="#g"/><use fill="#FFF" xlink:href="#g"/></g><path d="M295.622 19.801v.91c0 .257-.028.464-.084.623-.056.159-.11.294-.161.406l-3.563 7.546c-.093.2-.231.37-.413.508-.182.137-.422.206-.721.206h-1.582l3.64-7.301c.098-.2.204-.38.319-.539.114-.159.239-.31.374-.455h-4.487a.456.456 0 0 1-.185-.038.501.501 0 0 1-.155-.106.556.556 0 0 1-.108-.154.408.408 0 0 1-.042-.178v-1.428h7.168z" fill="#32BBAB"/><g transform="translate(261 13)"><path d="M0 0h24v24H0z"/><circle fill="url(#h)" cx="12" cy="12" r="10"/><path d="M7.25 11.012a.257.257 0 0 0-.25.262v5.464c0 .144.112.262.25.262H8.5c.275 0 .5-.236.5-.525v-4.939a.514.514 0 0 0-.5-.524H7.25zm9 2.316h-.394a.797.797 0 0 1 .644.787c0 .432-.337.787-.75.787h-.164l-.019.076a.791.791 0 0 1 .433.71c0 .433-.338.787-.75.787h-.5a.695.695 0 0 1-.159-.019A11.09 11.09 0 0 1 10 15.951v-5.246c.997 0 .96-.604 1.622-1.296.62-.647 1.03-.9 1.03-1.85 0-.683.854-.725 1.226-.207.706.98-.998 2.816.644 2.816.066 0 .129.007.19.016.013 0 .025-.004.038-.004h1.5c.413 0 .75.354.75.787 0 .433-.337.787-.75.787.413 0 .75.354.75.787 0 .433-.337.787-.75.787z" fill="#FFF"/></g><path d="M57.692 27.838L57.538 29H52.4v-9.646h1.33v8.484h3.962zM59.302 29v-7.378h1.288V29h-1.288zm.63-10.92c.27 0 .49.084.658.252a.855.855 0 0 1 .252.63c0 .252-.084.46-.252.623-.168.163-.387.245-.658.245a.886.886 0 0 1-.644-.245.832.832 0 0 1-.252-.623c0-.252.084-.462.252-.63a.872.872 0 0 1 .644-.252zM63.25 29V18.654l1.288-.154V29H63.25zm5.838 0h-1.54l-2.926-4.032 2.716-3.346h1.442l-2.716 3.262L69.088 29zm6.902-3.906c0 .215-.01.434-.028.658h-4.704c.056.812.261 1.41.616 1.792.355.383.812.574 1.372.574.355 0 .681-.051.98-.154.299-.103.611-.266.938-.49l.56.77c-.784.616-1.643.924-2.576.924-1.027 0-1.827-.336-2.401-1.008-.574-.672-.861-1.596-.861-2.772 0-.765.124-1.444.371-2.037s.602-1.057 1.064-1.393c.462-.336 1.006-.504 1.631-.504.98 0 1.731.322 2.254.966.523.644.784 1.535.784 2.674zm-1.274-.378c0-.728-.145-1.283-.434-1.666-.29-.383-.723-.574-1.302-.574-1.055 0-1.629.775-1.722 2.324h3.458v-.084z" fill="#1A4A44"/><path d="M23 13h24v24H23z"/><path d="M26.5 22c-.275 0-.5.225-.5.5v11c0 .275.225.5.5.5H29c.55 0 1-.45 1-1V23c0-.55-.45-1-1-1h-2.5zm17 5h-.788c.724.125 1.288.747 1.288 1.5 0 .825-.675 1.5-1.5 1.5h-.327l-.039.146c.509.241.866.756.866 1.354 0 .825-.675 1.5-1.5 1.5h-1c-.109 0-.215-.013-.318-.036A23.206 23.206 0 0 1 31 32V22c1.994 0 1.919-1.151 3.244-2.469 1.24-1.234 2.059-1.718 2.059-3.528 0-1.301 1.708-1.382 2.453-.394 1.411 1.87-1.995 5.369 1.288 5.369.133 0 .258.013.38.03.026-.002.05-.008.076-.008h3c.825 0 1.5.675 1.5 1.5s-.675 1.5-1.5 1.5c.825 0 1.5.675 1.5 1.5s-.675 1.5-1.5 1.5z" fill="#B5BFBE"/></g></svg>