<svg width="96" height="76" viewBox="0 0 96 76" fill="none" xmlns="http://www.w3.org/2000/svg">
<path opacity="0.6" fill-rule="evenodd" clip-rule="evenodd" d="M88.5309 4.87428C79.7323 -2.52111 66.614 -1.37176 59.231 7.44243L47.9783 20.8762L60.3339 35.6274L61.7218 36.7941C70.5205 44.1895 83.638 43.0402 91.021 34.226L90.0976 35.3309C90.4429 34.9677 90.7784 34.6003 91.0945 34.226C98.5739 25.359 97.3296 12.2704 88.5309 4.87428" fill="white"/>
<path opacity="0.8" fill-rule="evenodd" clip-rule="evenodd" d="M60.3332 35.6272L38.1487 9.1416C40.3241 12.5535 41.5941 16.5939 41.5941 20.8378C41.5941 32.3306 20.8482 54.2188 20.7969 54.2702C20.7969 54.2702 20.7338 54.1973 20.6194 54.064C20.6748 54.1362 20.7261 54.2133 20.783 54.282C25.9338 60.4642 31.1927 66.3935 34.6118 69.2457C43.4028 76.5772 56.5315 75.4487 63.9117 66.6776L91.021 34.2258C83.638 43.04 70.5197 44.1893 61.7211 36.7939L60.3332 35.6272Z" fill="white"/>
<path fill-rule="evenodd" clip-rule="evenodd" d="M20.7205 27.7785C16.8917 27.7785 13.7881 24.6694 13.7881 20.8338C13.7881 16.999 16.8917 13.8892 20.7205 13.8892C24.5493 13.8892 27.6529 16.999 27.6529 20.8338C27.6529 24.6694 24.5493 27.7785 20.7205 27.7785V27.7785ZM38.1486 9.14151L36.7295 7.4477C29.3465 -1.36718 16.2282 -2.51653 7.42959 4.87886C-1.36906 12.2756 -2.51707 25.4171 4.86597 34.2312C4.86597 34.2312 12.2546 43.992 20.0972 53.4562C20.5423 53.9736 20.7974 54.2701 20.7974 54.2701C20.8487 54.2187 41.5947 32.3312 41.5947 20.8384C41.5947 16.5945 40.324 12.5534 38.1486 9.14151V9.14151Z" fill="white"/>
</svg>
