<svg width="32" height="32" viewBox="0 0 32 32" fill="none" xmlns="http://www.w3.org/2000/svg">
<path fill-rule="evenodd" clip-rule="evenodd" d="M15.8672 20.9987C14.6502 18.6975 13.4332 16.3966 12.2165 14.0953C10.9407 11.6832 9.66525 9.27102 8.3898 6.85851C8.03783 6.19263 7.32221 5.86236 6.6427 6.05398C5.85803 6.27547 5.41896 6.93317 5.51244 7.74658C5.54112 7.99402 5.64026 8.21621 5.75534 8.43343C8.70955 14.0175 11.6641 19.6008 14.6141 25.187C14.8885 25.7064 15.3031 25.9819 15.8831 25.999C16.4702 26.0168 16.9429 25.7988 17.2266 25.2634C19.0314 21.8583 20.8316 18.4507 22.6332 15.0438C23.8109 12.8169 24.9887 10.5903 26.1667 8.3634C26.3413 8.03348 26.421 7.68863 26.3732 7.31179C26.2599 6.41696 25.3983 5.90538 24.636 6.01807C24.1151 6.09522 23.7419 6.39776 23.4997 6.85531C21.0048 11.5673 18.5133 16.281 16.0205 20.9944C15.9979 21.0371 15.9741 21.0794 15.9426 21.1363C15.9129 21.0819 15.8892 21.0407 15.8672 20.9987Z" fill="white"/>
</svg>
