<svg width="449" height="300" viewBox="0 0 449 300" fill="none" xmlns="http://www.w3.org/2000/svg">
<g filter="url(#filter0_d)">
<rect x="228.529" y="15" width="200" height="260" rx="10" fill="white"/>
</g>
<path d="M334.529 55H398.529" stroke="#1A4A44" stroke-width="4" stroke-linecap="round" stroke-linejoin="round"/>
<path d="M354.529 115H398.529" stroke="#1A4A44" stroke-width="4" stroke-linecap="round" stroke-linejoin="round"/>
<path d="M334.529 175H398.529" stroke="#1A4A44" stroke-width="4" stroke-linecap="round" stroke-linejoin="round"/>
<path d="M354.529 235H398.529" stroke="#1A4A44" stroke-width="4" stroke-linecap="round" stroke-linejoin="round"/>
<rect x="258.529" y="43" width="24" height="24" rx="12" fill="url(#paint0_linear)"/>
<path fill-rule="evenodd" clip-rule="evenodd" d="M269.24 58.8672L265.29 54.9182L265.997 54.2112L269.24 55.4532L276.311 50.3832L277.018 51.0902L269.24 58.8672Z" fill="white"/>
<rect x="258.529" y="103" width="24" height="24" rx="12" fill="url(#paint1_linear)"/>
<path fill-rule="evenodd" clip-rule="evenodd" d="M269.24 118.867L265.29 114.918L265.997 114.211L269.24 115.453L276.311 110.383L277.018 111.09L269.24 118.867Z" fill="white"/>
<rect x="258.529" y="163" width="24" height="24" rx="12" fill="url(#paint2_linear)"/>
<path fill-rule="evenodd" clip-rule="evenodd" d="M269.24 178.867L265.29 174.918L265.997 174.211L269.24 175.453L276.311 170.383L277.018 171.09L269.24 178.867Z" fill="white"/>
<rect x="258.529" y="223" width="24" height="24" rx="12" fill="url(#paint3_linear)"/>
<path fill-rule="evenodd" clip-rule="evenodd" d="M269.24 238.867L265.29 234.918L265.997 234.211L269.24 235.453L276.311 230.383L277.018 231.09L269.24 238.867Z" fill="white"/>
<line x1="144.529" y1="115" x2="245.529" y2="115" stroke="#B5BFBE" stroke-width="2" stroke-linecap="round" stroke-linejoin="round" stroke-dasharray="6 6"/>
<line x1="144.529" y1="55" x2="245.529" y2="55" stroke="#B5BFBE" stroke-width="2" stroke-linecap="round" stroke-linejoin="round" stroke-dasharray="6 6"/>
<line x1="144.529" y1="175" x2="245.529" y2="175" stroke="#B5BFBE" stroke-width="2" stroke-linecap="round" stroke-linejoin="round" stroke-dasharray="6 6"/>
<line x1="144.529" y1="235" x2="245.529" y2="235" stroke="#B5BFBE" stroke-width="2" stroke-linecap="round" stroke-linejoin="round" stroke-dasharray="6 6"/>
<circle cx="245.529" cy="55" r="5" fill="#B5BFBE"/>
<circle cx="245.529" cy="115" r="5" fill="#B5BFBE"/>
<circle cx="245.529" cy="175" r="5" fill="#B5BFBE"/>
<circle cx="245.529" cy="235" r="5" fill="#B5BFBE"/>
<g filter="url(#filter1_d)">
<path d="M15.5437 26.0025C15.5437 20.4796 20.0209 16.0024 25.5437 16.0024H143.696C149.219 16.0024 153.696 20.4796 153.696 26.0024V93.214C153.696 98.7368 149.219 103.214 143.696 103.214H25.5437C20.0209 103.214 15.5437 98.7368 15.5437 93.214V26.0025Z" fill="url(#paint4_linear)"/>
</g>
<path d="M110.337 34.5104V36.8344C110.337 37.6184 110.029 37.8564 109.637 37.8564H106.893C106.529 37.8564 106.193 38.0524 106.193 38.5564C106.193 39.0604 106.529 39.2564 106.893 39.2564H109.637C110.029 39.2564 110.337 39.4944 110.337 40.2784V42.6024H105.521C105.157 42.6024 104.821 42.7984 104.821 43.3024C104.821 43.8064 105.157 44.0024 105.521 44.0024H110.337C111.135 44.0024 111.737 43.4004 111.737 42.6024V39.9144C111.737 39.3544 111.625 38.9484 111.191 38.5564C111.625 38.1644 111.737 37.7584 111.737 37.1984V34.5104C111.737 33.7124 111.135 33.1104 110.337 33.1104H105.521C105.157 33.1104 104.821 33.3064 104.821 33.8104C104.821 34.3144 105.157 34.5104 105.521 34.5104H110.337ZM117.683 34.5104H121.113C121.477 34.5104 121.813 34.3144 121.813 33.8104C121.813 33.3064 121.477 33.1104 121.113 33.1104H116.283V39.2564H120.413V42.6024H117.179C116.955 42.6024 116.633 42.4064 116.437 42.3224L116.017 42.1404C115.863 42.0704 115.737 42.0284 115.569 42.0284C115.205 42.0284 114.897 42.3644 114.897 42.7284C114.897 43.2184 115.317 43.3444 115.695 43.5124L116.227 43.7504C116.577 43.9044 116.787 44.0024 117.151 44.0024H120.259C120.763 44.0024 121.127 43.9464 121.477 43.5264C121.771 43.1764 121.813 42.8684 121.813 42.4344V39.4384C121.813 38.9484 121.771 38.6124 121.379 38.2484C121.043 37.9264 120.707 37.8564 120.259 37.8564H117.683V34.5104ZM126.373 34.5104C126.779 34.5104 127.073 34.2304 127.073 33.8104C127.073 33.4464 126.779 33.1104 126.415 33.1104H125.575C125.085 33.1104 124.973 33.4884 124.973 33.8104V43.1204C124.973 43.7644 125.225 44.0024 125.883 44.0024H130.979C131.609 44.0024 131.889 43.7784 131.889 43.1204V39.9844C131.889 39.3404 131.749 39.0464 131.049 39.0464H126.373V34.5104ZM130.489 40.4464V42.6024H126.373V40.4464H130.489ZM137.15 39.0464V33.8104C137.15 33.4604 136.982 33.1104 136.45 33.1104C135.918 33.1104 135.75 33.4604 135.75 33.8104V40.4464H139.866V43.3024C139.866 43.7504 140.062 44.0024 140.566 44.0024C141.07 44.0024 141.266 43.7504 141.266 43.3024V40.4464C141.63 40.4464 141.966 40.2504 141.966 39.7464C141.966 39.2424 141.63 39.0464 141.266 39.0464V35.0004C141.266 34.6504 141.098 34.3004 140.566 34.3004C140.034 34.3004 139.866 34.6504 139.866 35.0004V39.0464H137.15Z" fill="#F7FAFA"/>
<path d="M49.3466 26.0024H28.7413C26.9755 26.0024 25.5439 27.4545 25.5439 29.2457V46.7592C25.5439 48.5504 26.9755 50.0024 28.7413 50.0024H49.3466C51.1124 50.0024 52.5439 48.5504 52.5439 46.7592V29.2457C52.5439 27.4545 51.1124 26.0024 49.3466 26.0024Z" fill="#E1E6E5"/>
<path d="M25.5437 43.3538H33.4716C34.3105 43.3538 34.9851 42.693 34.9851 41.8848V33.7671C34.9851 32.9589 34.3105 32.2981 33.4716 32.2981H25.5437V31.6495H33.4716C34.6658 31.6495 35.6338 32.5976 35.6338 33.7671V41.8848C35.6338 43.0543 34.6658 44.0024 33.4716 44.0024H25.5437V43.3538ZM32.823 44.0024V49.8403H32.1743V44.0024H32.823ZM45.1473 44.0024V49.8403H44.4987V44.0024H45.1473ZM32.823 26.0024L32.8228 31.6489L33.4716 31.6495C34.6658 31.6495 35.6338 32.5976 35.6338 33.7671L35.6334 33.7862H42.4806L42.4806 33.7671C42.4806 32.645 43.3717 31.7268 44.4986 31.6541L44.4987 26.0024H45.1473L45.1472 31.6489L52.5437 31.6461V32.2947L44.6428 32.2981C43.8039 32.2981 43.1293 32.9589 43.1293 33.7671L43.1292 37.0295L52.5437 37.0261V37.6747L43.1292 37.6781L43.1293 41.8848C43.1293 42.6594 43.7489 43.2985 44.5388 43.3504L44.6428 43.3538L52.5437 43.3504V43.999L44.6428 44.0024C43.4487 44.0024 42.4806 43.0543 42.4806 41.8848L42.4806 40.9214H35.6334L35.6338 41.8848C35.6338 43.0543 34.6658 44.0024 33.4716 44.0024H25.5437V43.3538H33.4716C34.3105 43.3538 34.9851 42.693 34.9851 41.8848L34.9848 37.6781H25.5437V37.0295H34.9848L34.9851 33.7671C34.9851 32.9589 34.3105 32.2981 33.4716 32.2981H25.5437V31.6495L32.1742 31.6489L32.1743 26.0024H32.823ZM42.4806 34.4349H35.6334V40.2727H42.4806V34.4349Z" fill="#919998"/>
<g filter="url(#filter2_d)">
<path d="M2.86946 92.3048C2.38927 86.8028 6.46003 81.9515 11.9618 81.469L129.664 71.1464C135.166 70.6638 140.015 74.7329 140.495 80.2348L146.339 147.191C146.819 152.693 142.748 157.544 137.246 158.027L19.5444 168.349C14.0427 168.832 9.19334 164.763 8.71316 159.261L2.86946 92.3048Z" fill="url(#paint5_linear)"/>
</g>
<path d="M95.0316 97.3161L94.5763 92.0999C94.5459 91.7512 94.3481 91.4172 93.8181 91.4637C93.2882 91.5102 93.1513 91.8735 93.1817 92.2222L93.7587 98.8331L97.8589 98.4735L98.1072 101.319C98.1462 101.765 98.3634 101.999 98.8654 101.955C99.3675 101.911 99.5408 101.643 99.5019 101.196L99.2536 98.3512C99.6162 98.3193 99.9339 98.0947 99.89 97.5926C99.8462 97.0906 99.4945 96.9247 99.1318 96.9565L98.7801 92.9258C98.7496 92.5771 98.5518 92.2431 98.0219 92.2896C97.4919 92.3361 97.355 92.6994 97.3854 93.0481L97.7372 97.0788L95.0316 97.3161ZM103.978 91.9781C104.382 91.9426 104.65 91.638 104.614 91.2196C104.582 90.8569 104.26 90.5479 103.898 90.5797L103.061 90.6531C102.573 90.6959 102.494 91.0823 102.522 91.403L103.331 100.678C103.387 101.319 103.659 101.534 104.315 101.477L109.391 101.032C110.019 100.977 110.278 100.729 110.221 100.074L109.948 96.9494C109.892 96.3079 109.727 96.0272 109.03 96.0884L104.372 96.4969L103.978 91.9781ZM108.594 97.532L108.781 99.6798L104.681 100.039L104.494 97.8916L108.594 97.532ZM118.115 90.7382L118.317 93.0534C118.386 93.8344 118.1 94.0984 117.709 94.1326L114.976 94.3724C114.613 94.4042 114.295 94.6288 114.339 95.1309C114.383 95.633 114.735 95.7989 115.097 95.7671L117.831 95.5273C118.221 95.4931 118.549 95.7033 118.617 96.4843L118.819 98.7995L114.021 99.2203C113.659 99.2521 113.341 99.4767 113.385 99.9788C113.429 100.481 113.781 100.647 114.143 100.615L118.941 100.194C119.736 100.124 120.283 99.4722 120.214 98.6772L119.98 95.9994C119.931 95.4415 119.784 95.0468 119.318 94.6942C119.716 94.2658 119.792 93.8515 119.744 93.2937L119.51 90.6158C119.441 89.8209 118.789 89.2737 117.994 89.3435L113.196 89.7642C112.834 89.796 112.516 90.0206 112.56 90.5227C112.603 91.0248 112.955 91.1907 113.318 91.1589L118.115 90.7382ZM128.153 89.8578L128.321 91.7825C128.375 92.3962 128.401 92.3798 127.976 92.8246L126.197 94.6531C125.875 94.9905 125.864 95.0336 125.905 95.4938L126.198 98.8551C126.237 99.3014 126.454 99.5353 126.956 99.4912C127.458 99.4472 127.632 99.179 127.593 98.7327L127.356 96.027C127.314 95.5389 127.339 95.5085 127.674 95.156L129.479 93.2971C129.84 92.9282 129.822 92.8736 129.779 92.3855L129.426 88.3408L123.234 88.8839C122.787 88.923 122.571 89.3356 122.597 89.6424L122.658 90.3398C122.685 90.6466 122.97 91.0151 123.416 90.9759C123.863 90.9368 124.08 90.5243 124.053 90.2174L128.153 89.8578Z" fill="#F7FAFA"/>
<path d="M36.5431 89.3516L16.0167 91.1518C14.2576 91.3061 12.9578 92.8777 13.1135 94.6621L14.6363 112.109C14.792 113.894 16.3443 115.215 18.1034 115.061L38.6298 113.261C40.389 113.106 41.6888 111.535 41.533 109.75L40.0103 92.3032C39.8546 90.5188 38.3023 89.1973 36.5431 89.3516Z" fill="#E1E6E5"/>
<path d="M14.3399 108.717L22.2375 108.024C23.0732 107.951 23.6878 107.234 23.6175 106.428L22.9117 98.3416C22.8415 97.5364 22.112 96.9371 21.2763 97.0104L13.3787 97.703L13.3223 97.0568L21.2199 96.3642C22.4095 96.2599 23.4562 97.1198 23.5579 98.2849L24.2637 106.372C24.3654 107.537 23.4835 108.566 22.2939 108.67L14.3963 109.363L14.3399 108.717ZM21.6478 108.727L22.1553 114.543L21.5092 114.599L21.0016 108.784L21.6478 108.727ZM33.925 107.65L34.4325 113.466L33.7864 113.523L33.2788 107.707L33.925 107.65ZM20.0827 90.7952L20.5735 96.4203L21.2199 96.3642C22.4095 96.2599 23.4562 97.1198 23.5579 98.2849L23.5592 98.304L30.3802 97.7058L30.3786 97.6867C30.281 96.5689 31.0889 95.5763 32.2051 95.4054L31.7138 89.7751L32.3599 89.7185L32.8507 95.3436L40.2188 94.6946L40.2751 95.3407L32.4048 96.0344C31.5691 96.1077 30.9545 96.8249 31.0248 97.6301L31.3083 100.88L40.6865 100.054L40.7429 100.7L31.3647 101.526L31.7305 105.717C31.7979 106.489 32.4707 107.071 33.2621 107.054L33.366 107.048L41.2364 106.355L41.2928 107.001L33.4224 107.694C32.2328 107.799 31.1861 106.939 31.0844 105.774L31.0005 104.814L24.1796 105.412L24.2637 106.372C24.3654 107.537 23.4835 108.566 22.2939 108.67L14.3963 109.363L14.3399 108.717L22.2375 108.024C23.0732 107.951 23.6878 107.234 23.6175 106.428L23.2514 102.238L13.8465 103.063L13.7901 102.416L23.195 101.592L22.9117 98.3416C22.8415 97.5364 22.112 96.9371 21.2763 97.0104L13.3787 97.703L13.3223 97.0568L19.9274 96.477L19.4366 90.8519L20.0827 90.7952ZM30.4366 98.3519L23.6156 98.9502L24.1232 104.766L30.9441 104.168L30.4366 98.3519Z" fill="#919998"/>
<g filter="url(#filter3_d)">
<path d="M20.1486 138.115C20.8208 132.634 25.8094 128.736 31.291 129.41L148.563 143.828C154.045 144.502 157.944 149.493 157.271 154.974L149.091 221.684C148.419 227.166 143.43 231.064 137.949 230.39L20.6766 215.972C15.1951 215.298 11.2963 210.307 11.9685 204.826L20.1486 138.115Z" fill="url(#paint6_linear)"/>
</g>
<path d="M113.198 158.128L112.963 160.045C112.888 160.657 112.917 160.646 112.409 160.993L110.289 162.411C109.904 162.674 109.885 162.714 109.829 163.172L109.418 166.521C109.364 166.966 109.528 167.24 110.028 167.301C110.528 167.363 110.753 167.137 110.808 166.692L111.138 163.996C111.198 163.51 111.229 163.486 111.63 163.21L113.781 161.768C114.211 161.482 114.204 161.425 114.264 160.939L114.758 156.909L108.588 156.15C108.144 156.096 107.846 156.454 107.808 156.76L107.723 157.455C107.686 157.76 107.888 158.18 108.333 158.235C108.777 158.29 109.075 157.931 109.113 157.625L113.198 158.128ZM123.199 159.357L122.916 161.664C122.821 162.442 122.486 162.641 122.097 162.593L119.373 162.258C119.012 162.214 118.655 162.367 118.593 162.868C118.532 163.368 118.842 163.603 119.203 163.648L121.926 163.983C122.316 164.03 122.592 164.304 122.497 165.082L122.214 167.389L117.434 166.801C117.073 166.757 116.715 166.911 116.654 167.411C116.593 167.911 116.902 168.147 117.264 168.191L122.044 168.779C122.836 168.876 123.506 168.352 123.604 167.56L123.931 164.892C123.999 164.336 123.937 163.919 123.554 163.477C124.033 163.141 124.193 162.752 124.261 162.196L124.588 159.528C124.686 158.736 124.161 158.065 123.369 157.968L118.589 157.38C118.228 157.336 117.871 157.489 117.809 157.989C117.748 158.49 118.058 158.725 118.419 158.77L123.199 159.357ZM132.215 168.619C131.812 168.569 131.486 168.811 131.435 169.228C131.389 169.603 131.628 169.957 132.044 170.008L132.739 170.094C133.156 170.145 133.473 169.86 133.519 169.484L134.674 160.063C134.719 159.702 134.454 159.331 134.065 159.283L128.59 158.61C128.201 158.562 127.854 158.858 127.81 159.219L127.374 162.776C127.33 163.138 127.594 163.509 127.984 163.557L132.764 164.144L132.215 168.619ZM128.849 162.252L129.115 160.085L133.2 160.587L132.934 162.755L128.849 162.252ZM139.258 165.902L139.895 160.705C139.938 160.357 139.814 159.99 139.286 159.925C138.758 159.86 138.548 160.187 138.506 160.534L137.698 167.121L141.783 167.623L141.436 170.458C141.381 170.902 141.545 171.176 142.045 171.238C142.546 171.299 142.771 171.073 142.825 170.629L143.173 167.794C143.534 167.838 143.892 167.685 143.953 167.184C144.014 166.684 143.705 166.449 143.343 166.404L143.836 162.388C143.878 162.041 143.754 161.673 143.226 161.608C142.698 161.543 142.489 161.87 142.446 162.217L141.954 166.233L139.258 165.902Z" fill="#F7FAFA"/>
<path d="M53.6989 142.24L33.2477 139.726C31.495 139.511 29.8975 140.777 29.6795 142.555L27.5479 159.938C27.3299 161.716 28.574 163.332 30.3267 163.548L50.7779 166.062C52.5306 166.277 54.1281 165.011 54.3461 163.233L56.4777 145.85C56.6957 144.072 55.4516 142.456 53.6989 142.24Z" fill="#E1E6E5"/>
<path d="M27.9621 156.558L35.8308 157.526C36.6634 157.628 37.4134 157.054 37.5118 156.252L38.4998 148.195C38.5982 147.393 38.009 146.655 37.1764 146.552L29.3077 145.585L29.3867 144.941L37.2553 145.908C38.4406 146.054 39.286 147.113 39.1436 148.274L38.1556 156.331C38.0133 157.492 36.9371 158.315 35.7519 158.169L27.8832 157.202L27.9621 156.558ZM35.1081 158.09L34.3975 163.885L33.7537 163.806L34.4643 158.011L35.1081 158.09ZM47.3403 159.594L46.6298 165.389L45.986 165.309L46.6965 159.515L47.3403 159.594ZM37.2989 140.224L36.6115 145.829L37.2553 145.908C38.4406 146.054 39.286 147.113 39.1436 148.274L39.1409 148.293L45.9369 149.129L45.9393 149.11C46.0759 147.996 47.072 147.193 48.1994 147.259L48.8873 141.649L49.5311 141.728L48.8437 147.333L56.1853 148.232L56.1064 148.876L48.2641 147.915C47.4315 147.813 46.6815 148.386 46.5831 149.189L46.186 152.427L55.5305 153.572L55.4516 154.216L46.107 153.071L45.5951 157.246C45.5008 158.015 46.038 158.725 46.8157 158.873L46.9185 158.889L54.7608 159.85L54.6818 160.493L46.8395 159.533C45.6543 159.387 44.8089 158.328 44.9513 157.167L45.0685 156.211L38.2725 155.375L38.1556 156.331C38.0133 157.492 36.9371 158.315 35.7519 158.169L27.8832 157.202L27.9621 156.558L35.8308 157.526C36.6634 157.628 37.4134 157.054 37.5118 156.252L38.0234 152.077L28.6529 150.925L28.7319 150.281L38.1024 151.433L38.4998 148.195C38.5982 147.393 38.009 146.655 37.1764 146.552L29.3077 145.585L29.3867 144.941L35.9677 145.749L36.6551 140.145L37.2989 140.224ZM45.8579 149.772L39.062 148.937L38.3515 154.731L45.1474 155.567L45.8579 149.772Z" fill="#919998"/>
<g filter="url(#filter4_d)">
<path d="M10.7653 218.962C9.80746 213.523 13.44 208.335 18.8787 207.375L135.237 186.83C140.676 185.87 145.861 189.501 146.819 194.94L158.474 261.13C159.432 266.569 155.8 271.757 150.361 272.717L34.0028 293.261C28.564 294.221 23.3786 290.591 22.4208 285.151L10.7653 218.962Z" fill="url(#paint7_linear)"/>
</g>
<path d="M102.36 216.249L106.248 215.562C106.703 215.482 107.008 215.357 107.297 214.979C107.619 214.552 107.595 214.173 107.508 213.676L107.01 210.85C106.923 210.353 106.816 209.989 106.367 209.698C105.966 209.442 105.637 209.429 105.182 209.509L100.605 210.317C100.246 210.381 99.9494 210.632 100.037 211.129C100.124 211.625 100.489 211.76 100.848 211.696L105.59 210.859L106.17 214.154L102.296 214.838C101.262 215.021 100.831 215.637 101.013 216.671L101.804 221.166L107.926 220.085C108.284 220.022 108.581 219.771 108.494 219.274C108.406 218.778 108.041 218.643 107.683 218.707L102.94 219.544L102.36 216.249ZM112.936 214.168L112.028 209.011C111.967 208.667 111.741 208.351 111.217 208.444C110.693 208.536 110.588 208.91 110.649 209.255L111.8 215.79L115.853 215.075L116.348 217.887C116.426 218.329 116.663 218.543 117.159 218.455C117.655 218.367 117.805 218.085 117.727 217.644L117.232 214.831C117.59 214.768 117.887 214.517 117.8 214.02C117.712 213.524 117.347 213.389 116.989 213.452L116.287 209.468C116.227 209.123 116 208.808 115.476 208.9C114.953 208.993 114.848 209.367 114.909 209.711L115.61 213.696L112.936 214.168ZM126.839 215.324C126.439 215.395 126.198 215.722 126.271 216.135C126.337 216.508 126.668 216.776 127.082 216.703L127.771 216.581C128.185 216.508 128.405 216.143 128.339 215.77L126.693 206.422C126.63 206.064 126.268 205.786 125.882 205.854L120.45 206.814C120.064 206.882 119.819 207.266 119.882 207.625L120.504 211.154C120.567 211.513 120.928 211.79 121.314 211.722L126.057 210.885L126.839 215.324ZM121.761 210.222L121.382 208.071L125.436 207.355L125.814 209.506L121.761 210.222ZM132.67 206.078L136.048 205.481C136.406 205.418 136.703 205.167 136.616 204.67C136.528 204.174 136.163 204.039 135.805 204.103L131.048 204.942L132.114 210.995L136.181 210.277L136.762 213.572L133.577 214.135C133.356 214.174 133.005 214.037 132.798 213.988L132.352 213.882C132.189 213.84 132.057 213.82 131.892 213.849C131.533 213.913 131.288 214.297 131.352 214.656C131.436 215.138 131.872 215.189 132.273 215.289L132.838 215.431C133.21 215.522 133.434 215.582 133.792 215.518L136.853 214.978C137.349 214.89 137.698 214.772 137.97 214.297C138.198 213.902 138.186 213.591 138.111 213.164L137.592 210.213C137.507 209.73 137.407 209.407 136.958 209.116C136.571 208.858 136.228 208.847 135.787 208.925L133.25 209.373L132.67 206.078Z" fill="#F7FAFA"/>
<path d="M44.0533 213.085L23.762 216.667C22.023 216.974 20.8651 218.653 21.1757 220.417L24.213 237.665C24.5237 239.429 26.1852 240.611 27.9242 240.304L48.2156 236.721C49.9545 236.414 51.1124 234.735 50.8018 232.971L47.7645 215.723C47.4539 213.959 45.7923 212.778 44.0533 213.085Z" fill="#E1E6E5"/>
<path d="M23.6222 234.312L31.4294 232.933C32.2555 232.787 32.8052 232.019 32.6651 231.223L31.2573 223.229C31.1171 222.433 30.3381 221.899 29.512 222.045L21.7049 223.423L21.5924 222.785L29.3996 221.406C30.5755 221.199 31.6932 221.964 31.896 223.116L33.3038 231.11C33.5067 232.262 32.7178 233.364 31.5419 233.572L23.7347 234.95L23.6222 234.312ZM30.9031 233.685L31.9155 239.434L31.2768 239.547L30.2643 233.798L30.9031 233.685ZM43.0397 231.542L44.0521 237.291L43.4134 237.404L42.4009 231.655L43.0397 231.542ZM27.7814 215.957L28.7605 221.518L29.3996 221.406C30.5755 221.199 31.6932 221.964 31.896 223.116L31.899 223.135L38.6418 221.944L38.6386 221.925C38.444 220.82 39.1623 219.761 40.2594 219.493L39.2793 213.927L39.918 213.815L40.8971 219.376L48.1805 218.087L48.293 218.726L40.5131 220.103C39.687 220.249 39.1372 221.017 39.2774 221.813L39.8431 225.025L49.1136 223.385L49.2261 224.024L39.9556 225.664L40.6852 229.807C40.8195 230.57 41.5405 231.092 42.3274 231.006L42.4304 230.991L50.2104 229.614L50.3228 230.253L42.5429 231.63C41.3669 231.837 40.2492 231.072 40.0464 229.92L39.8792 228.971L33.1364 230.162L33.3038 231.11C33.5067 232.262 32.7178 233.364 31.5419 233.572L23.7347 234.95L23.6222 234.312L31.4294 232.933C32.2555 232.787 32.8052 232.019 32.6651 231.223L31.9352 227.08L22.6379 228.722L22.5254 228.083L31.8227 226.442L31.2573 223.229C31.1171 222.433 30.3381 221.899 29.512 222.045L21.7049 223.423L21.5924 222.785L28.1218 221.631L27.1427 216.07L27.7814 215.957ZM38.7543 222.583L32.0115 223.773L33.0239 229.523L39.7668 228.332L38.7543 222.583Z" fill="#919998"/>
<defs>
<filter id="filter0_d" x="208.529" y="0" width="240" height="300" filterUnits="userSpaceOnUse" color-interpolation-filters="sRGB">
<feFlood flood-opacity="0" result="BackgroundImageFix"/>
<feColorMatrix in="SourceAlpha" type="matrix" values="0 0 0 0 0 0 0 0 0 0 0 0 0 0 0 0 0 0 127 0"/>
<feOffset dy="5"/>
<feGaussianBlur stdDeviation="10"/>
<feColorMatrix type="matrix" values="0 0 0 0 0.101961 0 0 0 0 0.290196 0 0 0 0 0.266667 0 0 0 0.1 0"/>
<feBlend mode="normal" in2="BackgroundImageFix" result="effect1_dropShadow"/>
<feBlend mode="normal" in="SourceGraphic" in2="effect1_dropShadow" result="shape"/>
</filter>
<filter id="filter1_d" x="13.5437" y="16.0024" width="142.152" height="91.2115" filterUnits="userSpaceOnUse" color-interpolation-filters="sRGB">
<feFlood flood-opacity="0" result="BackgroundImageFix"/>
<feColorMatrix in="SourceAlpha" type="matrix" values="0 0 0 0 0 0 0 0 0 0 0 0 0 0 0 0 0 0 127 0"/>
<feOffset dy="2"/>
<feGaussianBlur stdDeviation="1"/>
<feColorMatrix type="matrix" values="0 0 0 0 0.0392157 0 0 0 0 0.0588235 0 0 0 0 0.0588235 0 0 0 0.8 0"/>
<feBlend mode="normal" in2="BackgroundImageFix" result="effect1_dropShadow"/>
<feBlend mode="normal" in="SourceGraphic" in2="effect1_dropShadow" result="shape"/>
</filter>
<filter id="filter2_d" x="0.831055" y="71.1075" width="147.546" height="101.281" filterUnits="userSpaceOnUse" color-interpolation-filters="sRGB">
<feFlood flood-opacity="0" result="BackgroundImageFix"/>
<feColorMatrix in="SourceAlpha" type="matrix" values="0 0 0 0 0 0 0 0 0 0 0 0 0 0 0 0 0 0 127 0"/>
<feOffset dy="2"/>
<feGaussianBlur stdDeviation="1"/>
<feColorMatrix type="matrix" values="0 0 0 0 0.0392157 0 0 0 0 0.0588235 0 0 0 0 0.0588235 0 0 0 0.8 0"/>
<feBlend mode="normal" in2="BackgroundImageFix" result="effect1_dropShadow"/>
<feBlend mode="normal" in="SourceGraphic" in2="effect1_dropShadow" result="shape"/>
</filter>
<filter id="filter3_d" x="9.89307" y="129.334" width="149.454" height="105.131" filterUnits="userSpaceOnUse" color-interpolation-filters="sRGB">
<feFlood flood-opacity="0" result="BackgroundImageFix"/>
<feColorMatrix in="SourceAlpha" type="matrix" values="0 0 0 0 0 0 0 0 0 0 0 0 0 0 0 0 0 0 127 0"/>
<feOffset dy="2"/>
<feGaussianBlur stdDeviation="1"/>
<feColorMatrix type="matrix" values="0 0 0 0 0.0392157 0 0 0 0 0.0588235 0 0 0 0 0.0588235 0 0 0 0.8 0"/>
<feBlend mode="normal" in2="BackgroundImageFix" result="effect1_dropShadow"/>
<feBlend mode="normal" in="SourceGraphic" in2="effect1_dropShadow" result="shape"/>
</filter>
<filter id="filter4_d" x="8.61206" y="186.676" width="152.016" height="110.739" filterUnits="userSpaceOnUse" color-interpolation-filters="sRGB">
<feFlood flood-opacity="0" result="BackgroundImageFix"/>
<feColorMatrix in="SourceAlpha" type="matrix" values="0 0 0 0 0 0 0 0 0 0 0 0 0 0 0 0 0 0 127 0"/>
<feOffset dy="2"/>
<feGaussianBlur stdDeviation="1"/>
<feColorMatrix type="matrix" values="0 0 0 0 0.0392157 0 0 0 0 0.0588235 0 0 0 0 0.0588235 0 0 0 0.8 0"/>
<feBlend mode="normal" in2="BackgroundImageFix" result="effect1_dropShadow"/>
<feBlend mode="normal" in="SourceGraphic" in2="effect1_dropShadow" result="shape"/>
</filter>
<linearGradient id="paint0_linear" x1="258.529" y1="54.7073" x2="282.529" y2="54.7073" gradientUnits="userSpaceOnUse">
<stop stop-color="#32BB94"/>
<stop offset="1" stop-color="#16B4BD"/>
</linearGradient>
<linearGradient id="paint1_linear" x1="258.529" y1="114.707" x2="282.529" y2="114.707" gradientUnits="userSpaceOnUse">
<stop stop-color="#32BB94"/>
<stop offset="1" stop-color="#16B4BD"/>
</linearGradient>
<linearGradient id="paint2_linear" x1="258.529" y1="174.707" x2="282.529" y2="174.707" gradientUnits="userSpaceOnUse">
<stop stop-color="#32BB94"/>
<stop offset="1" stop-color="#16B4BD"/>
</linearGradient>
<linearGradient id="paint3_linear" x1="258.529" y1="234.707" x2="282.529" y2="234.707" gradientUnits="userSpaceOnUse">
<stop stop-color="#32BB94"/>
<stop offset="1" stop-color="#16B4BD"/>
</linearGradient>
<linearGradient id="paint4_linear" x1="84.6199" y1="16.0024" x2="84.6199" y2="103.214" gradientUnits="userSpaceOnUse">
<stop stop-color="#2F3434"/>
<stop offset="1" stop-color="#232928"/>
</linearGradient>
<linearGradient id="paint5_linear" x1="70.8128" y1="76.3077" x2="78.4321" y2="163.185" gradientUnits="userSpaceOnUse">
<stop stop-color="#2F3434"/>
<stop offset="1" stop-color="#232928"/>
</linearGradient>
<linearGradient id="paint6_linear" x1="89.9271" y1="136.619" x2="79.285" y2="223.177" gradientUnits="userSpaceOnUse">
<stop stop-color="#2F3434"/>
<stop offset="1" stop-color="#232928"/>
</linearGradient>
<linearGradient id="paint7_linear" x1="77.0578" y1="197.102" x2="92.2208" y2="282.982" gradientUnits="userSpaceOnUse">
<stop stop-color="#2F3434"/>
<stop offset="1" stop-color="#232928"/>
</linearGradient>
</defs>
</svg>
