<svg width="228" height="415" xmlns="http://www.w3.org/2000/svg">
 <mask height="34" width="38" y="157" x="153" maskUnits="userSpaceOnUse" id="mask0">
  <path id="svg_1" fill="#6575BA" d="m153.889,183.214c0.889,1.156 2.364,1.536 3.833,2.169c2.025,0.872 4.067,1.706 6.124,2.499c4.377,1.703 9.231,3.184 13.498,1.364c2.609,-1.109 16.159,-16.936 12.323,-21.711l-2.055,-1.24c-7.775,-2.463 -15.251,-5.661 -22.958,-8.298c-0.247,-0.084 -0.495,-0.15 -0.737,-0.202c-4.025,-0.848 -7.528,2.786 -7.162,7.522l0.286,3.646c0.013,0.242 0.026,0.379 0.026,0.379l-3.007,7.091c-0.691,1.63 -1.289,3.676 -0.814,5.445c0.146,0.541 0.366,0.976 0.643,1.336z"/>
 </mask>
 <defs>
  <linearGradient y2="0.487805" x2="1.000002" y1="0.487805" x1="0.000001" id="paint0_linear">
   <stop stop-color="#2B86A5"/>
   <stop stop-color="#2671A7" offset="1"/>
  </linearGradient>
 </defs>
 <g>
  <title>background</title>
  <rect fill="none" id="canvas_background" height="417" width="230" y="-1" x="-1"/>
 </g>
 <g>
  <title>Layer 1</title>
  <path id="svg_2" fill="#5765A1" d="m149.925,142.541c-0.199,0.05 -1.429,-0.091 -2.999,-0.303c-4.789,-0.647 -9.381,1.994 -11.325,6.503c-3.048,7.067 -6.094,14.134 -9.142,21.201c-1.265,2.934 -3.158,6.079 -3.959,9.18c-1.136,4.4 1.997,8.022 6.397,8.293c5.181,0.319 7.843,-5.754 9.43,-9.996l15.18,-34.432l-3.582,-0.446z"/>
  <path id="svg_3" fill="#D18A73" d="m152.439,281.007c-0.034,0.323 -0.026,0.646 0.021,0.967c0.396,2.695 2.128,16.758 -1.822,34.444c-0.671,3.02 -1.51,6.14 -2.55,9.329c-0.634,1.944 -0.967,3.961 -1.328,5.969c-0.333,0.34 -0.67,0.683 -1.003,1.022c-0.809,0.175 -1.629,0.316 -2.453,0.408c0.307,-0.083 -1.603,-0.13 -2.054,-0.145c-0.173,-0.027 -0.325,-0.052 -0.455,-0.072c-0.54,-0.171 -1.075,-0.359 -1.599,-0.577c-0.075,-0.029 -0.15,-0.046 -0.225,-0.073c-0.145,-0.692 0.189,-1.505 0.13,-2.191l-1.302,-15.357l-1.505,-17.759l-3.114,-29.489c-0.008,-0.121 -0.015,-0.242 -0.021,-0.363l-0.381,-35.106c-0.008,-0.703 0.103,-2.32 0.273,-4.274c0.596,-6.849 2.059,-13.601 4.354,-20.083c0.095,-0.425 0.253,-0.839 0.489,-1.205c4.464,-6.977 12.991,-8.899 19.936,-4.858c1.232,0.716 1.934,2.088 1.861,3.512l-0.622,12.045l-6.63,63.856z"/>
  <path id="svg_4" fill="#D18A73" d="m160.973,203.548c8.043,-2.273 17.552,1.463 21.418,17.866c0.144,0.609 0.236,2.002 0.29,3.977l0.338,-3.977l0.523,64.473c3.661,15.874 3.725,32.365 0.188,48.267l-1.015,4.564c-0.611,7.139 -1.247,12.92 -1.55,16.206c-0.14,1.505 -1.271,2.689 -2.709,2.944l-0.011,0.05l-0.002,-0.048c-0.203,0.035 -0.411,0.052 -0.625,0.048c-1.508,-0.026 -2.811,-1.068 -3.155,-2.537c-2.914,-12.415 -7.524,-41.702 -7.524,-41.702l-17.241,-91.952c-1.33,-7.115 4.109,-16.211 11.075,-18.179z"/>
  <path id="svg_5" fill="#D18A73" d="m170.915,367.184c0,1.259 1.113,6.876 2.042,7.805c1.387,1.387 2.74,2.729 4.677,2.393c5.176,-0.908 6.42,-11.142 6.42,-11.142l-0.422,-2.287l-2.08,-11.294l-0.357,-2.144l-7.864,0l0.358,-1.43l-2.202,15.705l-0.257,0.672c-0.215,0.557 -0.315,1.143 -0.315,1.722z"/>
  <path id="svg_6" fill="#F2584D" d="m171.487,364.77l0.166,0.086c1.679,4.545 2.866,6.783 5.831,6.155c3.424,-0.726 4.51,-3.925 5.386,-5.501c0.531,-0.954 0.762,-1.577 0.762,-1.577l0.422,2.287c0,0 -1.244,10.233 -6.42,11.142c-1.937,0.336 -3.29,-1.006 -4.677,-2.393c-0.929,-0.929 -2.042,-6.546 -2.042,-7.805c0,-0.579 0.1,-1.165 0.314,-1.722l0.258,-0.672z"/>
  <path id="svg_7" fill="#D94F45" d="m145.871,344.607l-3.387,-2.971l5.951,-3.18l0,3.043l-1.391,2.854c-0.217,0.444 -0.792,0.568 -1.173,0.254z"/>
  <path id="svg_8" fill="#F2584D" d="m148.293,343.763c-0.259,0.19 -0.526,0.363 -0.788,0.545c-0.442,0.179 -0.89,0.36 -1.342,0.543c-0.084,-0.071 -0.147,-0.167 -0.145,-0.292c0.017,-1.434 -0.012,-2.867 -0.122,-4.295c-1.815,3.464 -4.549,6.116 -7.955,7.922c-1.454,0.589 -2.855,1.158 -4.151,1.683c-0.415,0.124 -0.835,0.24 -1.263,0.344c-1.134,0.273 -2.336,0.431 -3.462,0.126c-1.127,-0.302 -1.265,-0.248 -1.51,-1.391c-0.692,-3.254 5.647,-9.457 7.473,-11.797c0.782,-1.005 1.823,-2.424 3.028,-3.782c2.627,-2.969 6.046,-5.653 9.307,-3.135c0.362,0.276 0.72,0.618 1.076,1.029c1.561,1.81 2.029,4.26 1.51,6.557c-0.542,2.379 0.339,4.468 -1.656,5.943z"/>
  <path id="svg_9" fill="#D18A73" d="m133.241,340.234c0.087,-0.354 0.241,-0.683 0.422,-1l1.356,-1.932c0.7,-0.952 1.387,-1.917 2.038,-2.903l2.865,-4.079c1.978,-2.657 4.799,-3.911 6.729,-0.893c0.086,0.133 0.306,-0.068 0.457,-0.105c1.53,2.477 -0.182,5.648 -2.361,7.846c-1.73,1.745 -3.716,3.237 -5.875,4.411c-1.101,0.599 -2.285,1.126 -3.538,1.177c-0.497,0.02 -1.021,-0.044 -1.431,-0.327c-0.579,-0.401 -0.798,-1.163 -0.72,-1.873c0.013,-0.109 0.032,-0.217 0.058,-0.322z"/>
  <path id="svg_10" fill="#FF5655" d="m134.77,197.525c2.747,8.109 8.397,14.946 15.899,19.18l11.743,-0.326l15.663,-10.66c-7.294,-17.288 -15.063,-25.11 -15.063,-25.11l-15.964,-2.518l-4.051,2.277l-3.007,5.702c-1.971,3.724 -3.713,7.547 -5.22,11.455z"/>
  <path id="svg_11" fill="url(#paint0_linear)" d="m181.253,289.446c0.398,-0.173 0.79,-0.352 1.174,-0.536c0.198,-0.095 0.384,-0.194 0.575,-0.291c-0.191,0.097 -0.377,0.196 -0.575,0.291c-0.384,0.184 -0.776,0.363 -1.174,0.536zm-53.694,-46.15c0,0 0.269,28.429 0.549,36.472l0.119,0c0.698,3.436 3.756,6.779 9.188,9.406c12.522,6.057 32.96,6.054 45.559,0c6.354,-3.053 9.517,-7.07 9.492,-11.08c0.01,-0.136 0.005,-0.276 -0.018,-0.417l0,-0.003c-0.029,-0.477 -0.105,-0.954 -0.226,-1.429c-0.75,-4.824 -1.856,-12.529 -1.905,-13.417c-1.337,-25.032 -6.641,-43.788 -12.226,-57.005c-7.293,-17.288 -15.063,-25.11 -15.063,-25.11l-15.964,-2.518l-2.629,-0.417l-1.422,2.694l-3.007,5.702c-1.971,3.724 -3.712,7.548 -5.22,11.455c-5.63,14.49 -8.109,30.056 -7.227,45.667z"/>
  <path id="svg_12" fill="#73B0DD" d="m156.926,143.391c-0.098,0.202 -0.189,0.391 -0.274,0.574l2.532,0.157c-0.744,-0.281 -1.501,-0.529 -2.258,-0.731z"/>
  <path id="svg_13" fill="#73B0DD" d="m155.356,144.017l-0.032,0.058c0.332,0.092 0.665,0.164 1.011,0.223c0.072,0.013 0.143,0.026 0.215,0.032c0.039,-0.072 0.072,-0.15 0.111,-0.229l-1.305,-0.084z"/>
  <path id="svg_14" fill="#5765A1" d="m137.761,167.324l0.091,0.287l4.769,13.348c0.398,1.324 1.455,2.394 2.792,2.877c8.462,3.027 14.079,2.427 17.027,1.2c1.102,-0.463 3.34,-1.35 3.752,-2.439c2.453,-6.504 4.657,-11.913 8.2,-18.052c0.939,-1.631 1.996,-3.209 2.603,-4.991c0.607,-1.774 0.711,-3.829 -0.228,-5.46c-1.188,-2.068 -3.047,-3.125 -5.142,-3.797c-2.778,-0.88 -7.267,-2.381 -9.844,-3.327c-3.105,-1.141 -6.178,-2.362 -9.276,-3.523l-0.868,-0.326l-2.969,-1.122c-4.318,-1.488 -8.285,2.297 -7.899,7.32l0.312,4.025l-3.007,7.091c-0.901,2.153 -1.005,4.599 -0.313,6.889z"/>
  <path id="svg_15" fill="#6575BA" d="m137.889,167.214c0.889,1.156 2.364,1.536 3.833,2.169c2.025,0.872 4.067,1.706 6.124,2.499c4.377,1.703 9.231,3.184 13.498,1.364c2.609,-1.109 16.159,-16.936 12.323,-21.711l-2.055,-1.24c-7.775,-2.463 -15.251,-5.661 -22.958,-8.298c-0.247,-0.084 -0.495,-0.15 -0.737,-0.202c-4.025,-0.848 -7.528,2.786 -7.162,7.522l0.286,3.646c0.013,0.242 0.026,0.379 0.026,0.379l-3.007,7.091c-0.691,1.63 -1.289,3.676 -0.814,5.445c0.146,0.541 0.366,0.976 0.643,1.336z"/>
  <path id="svg_16" fill="#5765A1" d="m161.95,186.697c0.144,-0.064 0.286,-0.13 0.424,-0.198c0.072,-0.035 0.139,-0.071 0.208,-0.107c-0.069,0.036 -0.136,0.072 -0.208,0.107c-0.138,0.068 -0.28,0.134 -0.424,0.198zm-15.832,-0.101c4.522,2.229 11.904,2.228 16.454,0.001c4.552,-2.229 4.576,-5.856 0.053,-8.085c-4.522,-2.229 -11.902,-2.229 -16.454,0c-4.551,2.229 -4.576,5.855 -0.053,8.084z"/>
  <g id="svg_17" mask="url(#mask0)">
   <path id="svg_18" fill="#F4F8F9" d="m147.871,157.285c1.957,1.304 4.566,-1.305 4.566,-1.305c2.61,12.721 16.31,-9.459 16.31,-9.459l-0.013,-0.047l-0.091,-0.26c-0.066,0.091 -0.131,0.182 -0.209,0.28c-4.769,0.274 -9.538,0.522 -12.787,-3.04l-0.156,-0.176c-1.449,0.033 -0.783,-3.049 -2.193,-2.847c-0.15,0.02 -0.858,1.13 -1.704,2.342c-0.649,0.93 -1.178,1.939 -1.571,3.002c-1.996,5.405 -3.418,10.668 -2.152,11.51z"/>
   <path id="svg_19" fill="#D18A73" d="m153.079,154.423c6.856,2.512 12.271,-3.62 15.344,-7.854c0.268,-0.352 0.522,-0.698 0.783,-1.044c-5.128,-2.081 -10.349,-4.045 -16.462,-3.171c-2.718,5.546 -3.429,10.686 0.335,12.069z"/>
  </g>
  <path id="svg_20" fill="#6575BA" d="m171.528,190.42c-0.085,0.335 -0.166,0.672 -0.236,1.011c-0.407,1.97 -0.303,4.266 1.143,5.665c1.744,1.689 4.603,1.331 6.875,0.477c1.337,-0.501 2.645,-1.148 3.688,-2.123c2.704,-2.53 3.075,-6.64 3.04,-10.343c-0.075,-7.64 -1.138,-15.27 -3.156,-22.64c-0.72,-2.632 -1.59,-5.287 -3.228,-7.471c-1.198,-1.597 -2.938,-3.029 -4.905,-3.533c-0.585,-0.151 -1.213,-0.274 -1.821,-0.255c-7.023,0.222 -4.521,12.371 -3.808,16.476c0.692,3.983 1.651,7.911 2.579,11.845c0.329,1.392 0.797,2.839 0.95,4.263c0.245,2.281 -0.558,4.422 -1.121,6.628z"/>
  <path id="svg_21" fill="#D18A73" d="m143.958,199.245c-0.283,0.09 -0.564,0.183 -0.843,0.277c-0.921,0.31 -1.98,0.77 -2.18,1.721c-0.143,0.68 0.247,1.386 0.799,1.807c0.554,0.421 1.244,0.612 1.92,0.773c4.717,1.126 10.31,2.001 15.101,1.056c5.33,-1.053 10.731,-2.14 15.756,-4.269c4.027,-1.707 8.429,-2.762 8.565,-7.974c0.107,-4.11 -3.487,-8.708 -7.952,-7.46c-2.564,0.718 -4.842,2.953 -7.11,4.293c-2.76,1.633 -5.801,2.836 -8.627,4.357c-4.7,2.529 -10.276,3.758 -15.429,5.419z"/>
  <path id="svg_22" fill="#E0B475" d="m136.641,130.431c1.656,4.81 5.353,8.981 11.656,11.614c6.322,2.64 15.155,2.697 21.875,1.744c3.322,-0.472 6.614,-1.415 9.5,-3.125c5.05,-2.994 8.615,-8.372 9.405,-14.189c-6.208,0.392 -5.611,-8.645 -6.448,-12.597c-1.052,-4.961 -2.521,-10.502 -5.885,-14.449c-3.209,-3.773 -8.343,-5.496 -13.278,-5.427c-17.345,0.244 -31.986,21.442 -26.825,36.429z"/>
  <path id="svg_23" fill="#D18A73" d="m153.292,129.637l0,17.194c0,2.531 2.052,4.583 4.582,4.583l1.026,0c2.53,0 4.582,-2.052 4.582,-4.583l0,-17.194l-10.19,0z"/>
  <path id="svg_24" fill-opacity="0.1" fill="black" d="m153.292,129.637l0,13.093c3.973,-0.88 7.554,-3.353 10.19,-6.517l0,-6.576l-10.19,0z"/>
  <path id="svg_25" fill="#D18A73" d="m164.945,108.384c-0.291,-0.095 -0.581,-0.183 -0.871,-0.264c-5.596,-1.545 -17.693,-2.49 -21.022,3.714c-2.253,4.198 -2.922,16.876 -1.419,21.003c1.651,4.534 6.753,7.267 11.568,6.948c4.625,-0.307 8.842,-3.037 11.744,-6.665l0,-24.736z"/>
  <path id="svg_26" fill="#D18A73" d="m162.826,132.356c0,2.605 2.263,4.038 5.054,3.201c2.79,-0.838 5.053,-3.628 5.053,-6.232c0,-2.605 -2.263,-4.038 -5.053,-3.201c-2.791,0.837 -5.054,3.627 -5.054,6.232z"/>
  <path id="svg_27" fill="#E0B475" d="m164.871,127.221c0,0 -19.879,-0.779 -15.201,-19.49c0,0 -5.848,14.422 -11.305,13.643c-5.457,-0.779 2.729,-12.863 2.729,-12.863l9.745,-8.186l15.591,-1.949l4.678,4.288c0,0 3.508,7.406 3.118,8.575c-0.39,1.17 -2.339,4.678 -2.339,4.678l-7.016,11.304z"/>
  <path id="svg_28" fill="#D0E9F5" d="m31.6999,363.984c-0.9987,0 -1.8084,-0.81 -1.8084,-1.808l0,-150.392c0,-0.998 0.8097,-1.808 1.8084,-1.808c0.9987,0 1.8084,0.81 1.8084,1.808l0,150.392c0,0.998 -0.8097,1.808 -1.8084,1.808z"/>
  <path id="svg_29" fill="#D0E9F5" d="m86.249,331.786c-0.998,0 -1.808,-0.81 -1.808,-1.808l0,-150.392c0,-0.998 0.81,-1.808 1.808,-1.808c0.999,0 1.809,0.81 1.809,1.808l0,150.392c0,0.998 -0.81,1.808 -1.809,1.808z"/>
  <path id="svg_30" fill="#D0E9F5" d="m116.103,414c-0.999,0 -1.808,-0.809 -1.808,-1.808l0,-150.391c0,-0.999 0.809,-1.808 1.808,-1.808c0.999,0 1.808,0.809 1.808,1.808l0,150.391c0,0.999 -0.809,1.808 -1.808,1.808z"/>
  <path id="svg_31" fill="#D0E9F5" d="m171.551,378.989c-0.999,0 -1.808,-0.81 -1.808,-1.809l0,-150.391c0,-0.999 0.809,-1.808 1.808,-1.808c0.999,0 1.808,0.809 1.808,1.808l0,150.391c0,0.999 -0.809,1.809 -1.808,1.809z"/>
  <path id="svg_32" fill="#C4DFFC" d="m27.1926,207.163l-0.1926,6.88l10.1688,3.51l-0.5091,-3.654l-9.4671,-6.736z"/>
  <path id="svg_33" fill="#D0E9F5" d="m179.434,226.706l-3.209,2.062l-84.107,-48.038c-3.645,-2.082 -8.1253,-2.059 -11.7493,0.06l-51.8362,30.302c-2.0496,1.198 -2.0416,4.162 0.0137,5.349l84.7298,48.95c3.634,2.098 8.113,2.099 11.747,0l52.678,-30.422c0.588,-0.34 1.002,-0.826 1.254,-1.373l0.431,-0.096l0.048,-6.794z"/>
  <path id="svg_34" fill="#EBF7FC" d="m28.7275,205.465l51.8362,-30.302c3.6243,-2.119 8.1043,-2.142 11.7503,-0.059l85.569,48.872c2.074,1.184 2.081,4.172 0.013,5.366l-52.677,30.422c-3.635,2.099 -8.113,2.098 -11.747,-0.001l-84.7307,-48.949c-2.0554,-1.187 -2.0626,-4.151 -0.0138,-5.349z"/>
  <path id="svg_35" fill="#EB98A7" d="m150.12,207.401l-41.403,-22.589l-38.8903,23.283l43.6833,24.979c0.782,0.448 1.745,0.438 2.518,-0.025l35.059,-20.989c0.545,-0.326 0.879,-0.914 0.879,-1.549c0,-1.297 -0.708,-2.489 -1.846,-3.11z"/>
  <path id="svg_36" fill="#F09CAB" d="m113.057,231.638l-44.9496,-25.704l36.9996,-22.15c1.168,-0.7 2.623,-0.714 3.805,-0.039l41.302,23.619c0.776,0.444 0.787,1.558 0.02,2.017l-37.177,22.257z"/>
  <path id="svg_37" fill-opacity="0.1" fill="black" d="m77.3292,205.638l18.5628,-12.876c0.311,-0.181 0.696,-0.181 1.009,0l34.292,19.814c0.427,0.247 0.417,0.865 -0.016,1.098l-18.556,10.987c-0.549,0.295 -1.978,-0.134 -2.514,-0.45l-32.7778,-18.573z"/>
  <path id="svg_38" fill-opacity="0.1" fill="black" d="m131.311,200.032l-13.084,-7.555c-0.385,-0.223 -0.861,-0.216 -1.241,0.016l-7.15,4.406c-0.222,0.136 -0.352,0.373 -0.348,0.633c0.004,0.26 0.141,0.494 0.366,0.622l13.08,7.558c0.187,0.109 0.396,0.163 0.606,0.163c0.22,0 0.44,-0.06 0.635,-0.18l7.154,-4.408c0.221,-0.136 0.352,-0.372 0.348,-0.633c-0.004,-0.26 -0.14,-0.493 -0.366,-0.622z"/>
  <path id="svg_39" fill="#D18A73" d="m127.547,204.789c-0.078,0.841 0.01,1.693 0.277,2.497l0.043,0.123c-0.055,-0.152 4.653,-2.872 4.99,-2.875c-0.345,0.95 -1.091,1.824 -1.675,2.684c-0.217,0.321 -0.409,0.786 -0.201,1.05l0.098,0.1c0.237,0.162 0.549,0.058 0.804,-0.074l2.148,-2.226l0.032,-0.031l0.692,-0.71l0.056,-0.067l0.589,-0.603l0.851,-0.878c-0.211,0.217 2.558,2.291 2.788,2.389c1.776,0.753 4.014,0.344 5.611,-0.682c0.945,-0.608 3.166,-2.646 2.686,-3.973c-0.293,-0.812 -2.575,-1.668 -3.329,-2.122c-1.164,-0.708 -2.414,-1.336 -3.725,-1.8c-0.605,-0.217 -1.212,-0.402 -1.834,-0.545c-4.449,-1.024 -11.856,1.952 -10.901,7.743z"/>
  <path id="svg_40" fill-opacity="0.2" fill="black" d="m128.045,207.452l-0.426,-0.244c1.243,-2.165 2.976,-4.073 5.013,-5.516l0.284,0.401c-1.98,1.401 -3.663,3.255 -4.871,5.359z"/>
  <path id="svg_41" fill-opacity="0.2" fill="black" d="m127.762,204.898l-0.416,-0.26c0.928,-1.487 2.192,-2.775 3.656,-3.727l0.268,0.411c-1.405,0.913 -2.618,2.149 -3.508,3.576z"/>
  <path id="svg_42" fill="#D18A73" d="m90.668,209.443c-0.523,-0.757 -0.767,-1.632 -0.709,-2.516c0.013,-0.196 0.04,-0.392 0.084,-0.588c0.236,-1.077 0.903,-2.001 1.877,-2.601l21.948,-17.984c2.314,-2.018 4.628,-4.036 6.943,-6.054c1.798,-1.568 2.775,-2.7 5.176,-2.837c2.386,-0.136 4.658,0.307 6.38,2.108c7.337,7.673 -8.925,13.792 -13.956,16.383c-1.162,0.598 -13.901,6.722 -13.822,6.922c0.562,1.436 0.036,3.043 -1.283,3.915l-6.597,4.477c-2.008,1.235 -4.718,0.686 -6.041,-1.225z"/>
  <path id="svg_43" fill="#F7A1B0" d="m115.71,232.637l-10.56,-39.063c-0.225,-0.86 -0.905,-1.673 -1.786,-2.132l-22.3933,-11.375l-21.0655,-10.991c-0.5634,-0.295 -1.108,-0.387 -1.5933,-0.35l-0.0268,-0.014l-0.0427,0.021c-0.5207,0.057 -3.6942,1.879 -3.6942,1.879l2.3624,1.107l9.3099,35.647c0.2245,0.86 0.9045,1.672 1.7852,2.132l43.7253,25.148c1.392,0.604 3.89,-1.037 3.979,-2.009z"/>
  <path id="svg_44" fill="#F09CAB" d="m57.2612,170.495l21.0647,10.99l22.3941,11.376c0.88,0.459 1.56,1.272 1.786,2.131l9.493,36.35c0.483,1.852 1.413,4.192 -0.484,3.202l-46.1541,-23.628c-0.8807,-0.459 -1.5607,-1.272 -1.7852,-2.131l-9.4939,-36.351c-0.483,-1.852 1.2826,-2.929 3.1794,-1.939z"/>
  <path id="svg_45" fill="white" d="m80.0254,203.419c0,0.695 0.5576,1.257 1.2449,1.257c0.688,0 1.2457,-0.562 1.2457,-1.257c0,-0.695 -0.5577,-1.258 -1.2457,-1.258c-0.6873,0 -1.2449,0.563 -1.2449,1.258z"/>
  <path id="svg_46" fill="#1A4A44" d="m221.885,34.9876c0,-0.4478 -0.383,-0.6108 -0.774,-0.6108l-0.733,0l0,2.085l0.375,0l0,-0.8714l0.269,0l0.488,0.8714l0.456,0l-0.562,-0.9122c0.294,-0.0653 0.481,-0.2606 0.481,-0.562zm-1.132,0.3014l0,-0.5947l0.342,0c0.196,0 0.415,0.0572 0.415,0.2851c0,0.2525 -0.244,0.3096 -0.456,0.3096l-0.301,0zm0.35,-1.7104c-1.026,0 -1.857,0.8227 -1.857,1.8489c0,1.0261 0.831,1.8325 1.857,1.8325c1.026,0 1.857,-0.8064 1.857,-1.8325c0,-1.0262 -0.831,-1.8489 -1.857,-1.8489zm0,3.4126c-0.863,0 -1.564,-0.7087 -1.564,-1.5637c0,-0.8635 0.701,-1.5638 1.564,-1.5638c0.863,0 1.564,0.7003 1.564,1.5638c0,0.855 -0.701,1.5637 -1.564,1.5637z"/>
  <path id="svg_47" fill="#1A4A44" d="m101.64,33.8913c-2.716,0 -4.086,-2.4271 -4.086,-4.7737c0,-2.3465 1.486,-4.6703 3.956,-4.6703c1.156,0 2.618,0.5801 3.192,1.3956l2.876,-2.865c-1.392,-1.4666 -3.611,-2.3421 -6.068,-2.3421c-5.001,0 -8.631,3.5889 -8.631,8.5335c0,5.0246 3.589,8.5336 8.728,8.5336c2.446,0 4.706,-0.7158 6.046,-2.1562l-2.797,-3.0016c-0.646,0.7867 -2.001,1.3462 -3.216,1.3462zm-16.082,3.3567l4.462,0l0,-16.1574l-4.462,0l0,16.1574zm-8.1126,-7.299c0,1.8986 -1.2376,3.9423 -3.5443,3.9423c-1.7782,0 -2.7278,-1.2683 -2.7278,-3.8771l0,-8.9236l-4.4615,0l0,10.028c0,3.3366 1.665,6.5843 6.1173,6.5843c2.0997,0 3.8584,-1.6528 4.7446,-2.8728l0.0667,0l0,2.4179l4.2665,0l0,-16.1574l-4.4615,0l0,8.8584zm-18.7826,-6.807l-0.0988,0c-0.6303,-0.697 -2.3379,-2.5062 -5.1105,-2.5062c-4.549,0 -8.0545,3.5615 -8.0545,8.4686c0,4.9823 3.2348,8.5985 7.8406,8.5985c2.0912,0 4.0555,-1.1081 5.1943,-2.3971l0.0662,0l0,9.8986l4.4615,0l0,-24.1138l-4.2988,0l0,2.0514zm-4.332,10.7493c-2.7587,0 -4.3272,-2.4082 -4.3272,-4.7869c0,-2.2742 1.4402,-4.7221 4.3272,-4.7221c2.6557,0 4.2992,2.4848 4.2992,4.787c0,2.321 -1.6079,4.722 -4.2992,4.722zm101.6262,-13.2555c-5.077,0 -8.761,3.5615 -8.761,8.4686c0,5.0779 3.766,8.6419 8.761,8.6419c4.994,0 8.761,-3.5981 8.761,-8.6419c0,-4.9071 -3.685,-8.4686 -8.761,-8.4686zm0,13.2555c-2.909,0 -4.235,-2.4814 -4.235,-4.7869c0,-2.2742 1.326,-4.7221 4.235,-4.7221c2.909,0 4.234,2.4479 4.234,4.7221c0,2.3055 -1.325,4.7869 -4.234,4.7869zm55.779,-6.5879c-2.296,-0.548 -3.105,-0.843 -3.105,-1.7729c0,-1.2821 1.624,-1.5635 2.36,-1.5635c1.384,0 2.948,0.8268 3.536,1.6116l2.631,-2.524c-1.216,-1.5283 -3.609,-2.4188 -6.135,-2.4188c-3.229,0 -6.619,1.624 -6.619,5.2521c0,3.1154 2.441,4.0554 4.831,4.6279c2.518,0.5862 3.417,1.0149 3.417,2.0293c0,1.4954 -1.697,1.7395 -2.281,1.7395c-1.46,0 -3.151,-0.8356 -4.064,-1.9185l-2.708,2.7456c1.48,1.6409 4.012,2.6283 6.609,2.6283c4.362,0 6.95,-2.0793 6.95,-5.5104c0,-3.2827 -3.168,-4.3862 -5.422,-4.9262zm-8.434,-6.2128l-5.754,0l-5.761,6.7044l-0.099,0l0,-15.608l-4.461,0l0,25.061l4.461,0l0,-7.9692l0.099,0l5.977,7.9692l5.871,0l-6.946,-8.8299l6.613,-7.3275zm-66.16,-0.4548c-2.041,0 -3.544,0.8919 -4.963,2.2221l-0.084,0l0,-10.6709l-4.461,0l0,25.061l4.266,0l0,-2.2839l0.067,0c1.006,1.65 3.005,2.7388 5.078,2.7388c4.605,0 8.096,-3.6162 8.096,-8.5985c0,-4.9071 -3.45,-8.4686 -7.999,-8.4686zm-0.877,13.2555c-2.692,0 -4.3,-2.401 -4.3,-4.722c0,-2.3022 1.644,-4.787 4.3,-4.787c2.887,0 4.323,2.4479 4.323,4.7221c0,2.3787 -1.565,4.7869 -4.323,4.7869zm-10.31,-12.8007l-5.754,0l-5.76,6.7044l-0.099,0l0,-15.608l-4.462,0l0,25.061l4.462,0l0,-7.9692l0.099,0l5.976,7.9692l5.872,0l-6.946,-8.8299l6.612,-7.3275zm49.607,-0.4548c-5.076,0 -8.761,3.5615 -8.761,8.4686c0,5.0779 3.767,8.6419 8.761,8.6419c4.995,0 8.761,-3.5981 8.761,-8.6419c0,-4.9071 -3.685,-8.4686 -8.761,-8.4686zm0,13.2555c-2.909,0 -4.235,-2.4814 -4.235,-4.7869c0,-2.2742 1.326,-4.7221 4.235,-4.7221c2.91,0 4.235,2.4479 4.235,4.7221c0,2.3055 -1.325,4.7869 -4.235,4.7869z"/>
  <path id="svg_48" fill="#1A4A44" d="m40.3825,21.5881c0,10.3797 -8.4145,18.7942 -18.7942,18.7942c-10.3797,0 -18.7942,-8.4145 -18.7942,-18.7942c0,-10.3797 8.4145,-18.7942 18.7942,-18.7942c10.3797,0 18.7942,8.4145 18.7942,18.7942zm-25.0609,7.3086c-4.0365,0 -7.3088,-3.2723 -7.3088,-7.3087c0,-4.0365 3.2723,-7.3089 7.3088,-7.3089l5.2238,0l0,19.6294c-1.4992,0 -2.7147,-1.2155 -2.7147,-2.7147l0,-14.2l-2.5091,0c-2.5332,0 -4.5941,2.0609 -4.5941,4.5942c0,2.5331 2.0609,4.594 4.5941,4.594l1.0442,0l0,2.7147l-1.0442,0zm11.4891,-14.6165l1.0442,0c4.0365,0 7.3088,3.2723 7.3088,7.3088c0,4.0364 -3.2723,7.3088 -7.3088,7.3088l-5.2238,0l0,-19.6294c1.4992,0 2.7147,1.2154 2.7147,2.7147l0,14.2l2.5091,0c2.5332,0 4.5941,-2.0609 4.5941,-4.5941c0,-2.5332 -2.0609,-4.5941 -4.5941,-4.5941l-1.0442,0l0,-2.7147z" clip-rule="evenodd" fill-rule="evenodd"/>
  <path id="svg_49" fill="#1A4A44" d="m63.7997,7.0742c0.6859,0 1.2419,-0.5563 1.2419,-1.2419c0,-0.6857 -0.556,-1.242 -1.2419,-1.242c-0.6858,0 -1.2417,0.5563 -1.2417,1.242c0,0.6856 0.5559,1.2419 1.2417,1.2419zm-7.4104,0.8366c-1.2156,0 -2.1919,0.7367 -2.5513,1.5585l-0.0345,0l0,-1.3184l-1.9519,0l0,8.2205l2.0546,0l0,-4.5217c0,-1.0956 0.6169,-2.2264 1.918,-2.2264c1.3189,0 1.5417,1.2165 1.5417,2.1923l0,4.5558l2.0548,0l0,-5.138c0,-1.6784 -0.8901,-3.3226 -3.0314,-3.3226zm-8.6989,8.4606l2.0552,0l0,-8.2205l-2.0552,0l0,8.2205zm37.3726,-9.2972c0.686,0 1.242,-0.5563 1.242,-1.2419c0,-0.6857 -0.556,-1.242 -1.242,-1.242c-0.686,0 -1.242,0.5563 -1.242,1.242c0,0.6856 0.556,1.2419 1.242,1.2419zm-3.3321,1.0717l0,1.821l2.3041,0l0,6.4045l2.055,0l0,-6.4045l2.305,0l0,-1.821l-6.6641,0zm-3.4949,8.2255l2.0552,0l0,-8.2205l-2.0552,0l0,8.2205zm-17.7681,-6.4045l2.3042,0l0,6.4045l2.0551,0l0,-6.4045l2.3042,0l0,-1.821l-6.6635,0l0,1.821zm13.609,2.7052c0,1.0961 -0.6168,2.2264 -1.9179,2.2264c-1.3187,0 -1.5415,-1.216 -1.5415,-2.1923l0,-4.5553l-2.0551,0l0,5.1375c0,1.6789 0.8902,3.3225 3.0314,3.3225c1.2157,0 2.1923,-0.7361 2.5515,-1.5585l0.0344,0l0,1.319l1.9523,0l0,-8.2205l-2.0551,0l0,4.5212z"/>
 </g>
</svg>