<svg width="200" height="200" xmlns="http://www.w3.org/2000/svg"><g fill="none" fill-rule="evenodd"><path d="M0 200h200V0H0z"/><path d="M95.6 130.624l-14.707-8.494-11.313 6.534 14.707 8.493 11.314-6.533zm16.84 10.147l-13.576-7.84-11.314 6.534 13.576 7.84 11.314-6.534zm16.142 9.167l-11.88-6.86-11.313 6.533 11.879 6.861 11.314-6.534zm21.496-12.414l-17.536-10.127-15.84 9.147 17.537 10.128 15.839-9.148zm-24.061-11.127l-13.577-7.84-13.576 7.84 13.576 7.84 13.577-7.84zM95.6 124.091l-13.577-7.841 9.052-5.227 18.1 5.227-13.575 7.841z" fill="#90D98B" opacity=".3"/><path d="M113.44 114.805a3.226 3.226 0 1 1 0-6.453 3.226 3.226 0 0 1 0 6.453m0-11.828a8.602 8.602 0 0 0-8.602 8.6c0 6.722 6.519 12.905 8.602 12.905 2.082 0 8.602-6.183 8.602-12.904a8.601 8.601 0 0 0-8.603-8.601" fill="#90D98B" opacity=".8"/><path d="M70.885 85.013l-7.072 4.082c-2.135 1.232-3.92 4.37-4.33 7.399l-8.93 5.155.001 2.449 8.93-5.154c.41 2.555 2.195 3.632 4.33 2.4l7.072-4.082c2.135-1.232 3.92-4.37 4.331-7.4l14.233-8.214v-2.45l-14.234 8.215c-.41-2.555-2.196-3.631-4.33-2.4zm.792-29.854c-.412-2.556-2.197-3.632-4.332-2.4l-7.072 4.082c-2.135 1.233-3.92 4.37-4.33 7.4l-5.393 3.112v2.45l5.393-3.113c.411 2.555 2.196 3.632 4.332 2.4l7.071-4.082c2.136-1.233 3.92-4.37 4.331-7.4l17.77-10.256v-2.45L71.676 55.16zm12.377 10.004l5.393-3.113.001 2.45-5.394 3.113c-.41 3.029-2.194 6.167-4.33 7.399l-7.07 4.082c-2.137 1.232-3.922.155-4.333-2.4L50.552 86.95V84.5l17.77-10.256c.41-3.03 2.194-6.166 4.33-7.398l7.071-4.083c2.135-1.232 3.92-.155 4.331 2.4z" fill="#90D98B"/></g></svg>