<svg width="200" height="200" xmlns="http://www.w3.org/2000/svg"><g fill="none" fill-rule="evenodd"><path d="M0 200h200V0H0z"/><path d="M85.483 66.435c0-1.414-.835-2.09-1.856-1.5v-2.572c0-4.244-2.508-6.27-5.57-4.502-3.064 1.767-5.57 6.686-5.569 10.93v2.573c-1.02.59-1.856 2.229-1.856 3.643l.001 12.862c0 1.414.836 2.089 1.857 1.5l11.14-6.43c1.02-.59 1.854-2.23 1.854-3.643V66.435zm10.151-18.64c.004 38.502-17.573 53.792-17.573 53.792s-17.607 5.018-17.612-33.482c0-1.277.928-4.476 2.753-5.528 9.186-5.303 13.502-15.511 14.853-16.29 1.351-.781 5.401 4.598 13.883-.297 1.857-1.072 3.695-.767 3.696 1.806zM78.056 60.434c-2.042 1.179-3.712 4.458-3.712 7.287v2.572l7.426-4.286v-2.572c0-2.83-1.672-4.18-3.714-3.001zm2.787 13.825c0 1.678-.777 3.539-1.856 4.694v2.808c0 .707-.418 1.528-.928 1.822-.51.294-.929-.043-.929-.751v-2.808c-1.079.092-1.856-.872-1.856-2.55 0-2.131 1.246-4.578 2.784-5.466 1.537-.887 2.784.12 2.785 2.25z" fill="#E0B475"/><path d="M132.2 134.992c-.476.274-1.255.274-1.731 0l-2.511-1.45c-.476-.276-.476-.726 0-1l.389-.226c.477-.274 1.256-.274 1.732 0l2.51 1.45c.478.276.478.726 0 1l-.388.226zm7.107-2.063c-.106-.163-.584-.52-1.06-.795l-27.38-15.813c-.477-.275-.867-.95-.867-1.5v-5.92c0-.552-.45-1-1-1h-2c-.55 0-1 .448-1 1v3.61c0 .55-.186.892-.414.76a3.844 3.844 0 0 0-.927-.35c-.282-.063-1.291.337-1.767.611l-5.34 3.084c-.476.274-.953.633-1.06.796-.107.163.584.746 1.06 1.02l7.582 4.38c.477.274.866.95.866 1.5v1.266c0 .55-.39.775-.866.5l-10.41-6.012c-.476-.275-1.097-.55-1.378-.612-.282-.063-1.291.337-1.768.612l-5.34 3.083c-.475.276-.953.634-1.06.796-.106.163.585.746 1.06 1.022l18.896 10.912c.477.274.866.95.866 1.5v1.266c0 .55-.39.776-.866.5L83.41 126.6c-.476-.274-1.096-.55-1.378-.612-.282-.06-1.291.338-1.768.612l-5.34 3.084c-.475.275-.952.633-1.06.796-.106.163.585.745 1.06 1.021l30.21 17.446c.477.275.866.95.866 1.5v2.653c0 .551.45 1 1 1h2c.55 0 1-.449 1-1v-1.836c0-.55.39-1.225.867-1.5l4.752-2.746c.477-.275.954-.633 1.06-.796.108-.163-.583-.746-1.06-1.02l-4.752-2.745c-.477-.276-.867-.95-.867-1.5v-1.268c0-.55.39-.774.867-.5l7.58 4.38c.477.274 1.098.55 1.379.612.283.061 1.292-.338 1.768-.613l5.339-3.084c.476-.274.954-.633 1.06-.796.108-.163-.584-.745-1.06-1.02l-16.066-9.279c-.477-.275-.867-.95-.867-1.5v-1.267c0-.55.39-.775.867-.5l18.895 10.912c.476.275 1.096.551 1.378.612.282.063 1.29-.337 1.768-.612l5.339-3.083c.476-.275 1.167-.857 1.06-1.02z" fill="#E0B475" opacity=".5"/></g></svg>