<svg width="191" height="368" viewBox="0 0 191 368" fill="none" xmlns="http://www.w3.org/2000/svg">
<path d="M106.957 146.925C108.823 143.143 110.199 137.854 107.95 134.051C106.483 131.566 103.271 130.581 101.241 128.548C100.202 127.499 98.8109 126.918 97.3291 126.914C97.0658 126.912 96.795 126.931 96.5393 126.967C95.3584 127.132 94.2752 127.67 93.4101 128.522C88.1072 129.264 97.9384 145.566 98.7056 147.135C99.5481 148.867 100.774 150.854 102.7 150.878C104.475 150.899 105.746 149.22 106.581 147.661C106.709 147.423 106.837 147.177 106.957 146.925Z" fill="#F09CAB"/>
<path d="M86.3477 143.872L97.1492 148.899C98.1873 149.296 100.023 148.096 100.166 146.925L103.693 117.984C103.836 116.813 103.107 115.541 102.069 115.145L90.3945 110.689C89.3565 110.293 87.2053 110.957 87.0624 112.128L84.7305 141.033C84.5876 142.204 85.3097 143.475 86.3477 143.872Z" fill="#0D2623"/>
<path d="M85.0545 144.352L96.7286 148.808C97.7667 149.204 98.7219 148.576 98.8648 147.405L102.393 118.464C102.536 117.293 101.813 116.022 100.775 115.625L89.1014 111.169C88.0633 110.772 87.1005 111.4 86.9576 112.572L83.4298 141.513C83.2869 142.684 84.0165 143.955 85.0545 144.352Z" fill="#1A4A44"/>
<path d="M87.3191 138.975L95.9166 142.259C96.6613 142.543 97.3533 142.093 97.4511 141.254L100.144 119.163C100.249 118.325 99.7228 117.414 98.9856 117.13L90.3805 113.847C89.6358 113.562 88.9513 114.012 88.846 114.851L86.1531 136.942C86.0553 137.781 86.5744 138.691 87.3191 138.975Z" fill="url(#paint0_linear)"/>
<path d="M89.6501 142.603C89.5674 143.314 90.0037 144.087 90.6356 144.328C91.2674 144.569 91.8541 144.188 91.9368 143.476C92.0271 142.765 91.5833 141.992 90.9514 141.751C90.3196 141.51 89.7404 141.891 89.6501 142.603Z" fill="white"/>
<path d="M16.8781 124.031C18.1569 124.093 19.5635 124.41 21.0979 125.027C29.7858 128.509 21.2258 144.833 20.1577 150.98L48.4177 135.112C50.1478 134.137 52.2163 134.677 53.1189 136.338L56.0675 141.749C56.9927 143.462 56.3458 145.741 54.6083 146.848C44.5213 153.273 3.77487 191.279 0.871399 163.081C0.457692 159.038 1.27007 154.98 2.09748 150.998C3.82001 142.72 5.61025 123.486 16.8781 124.031Z" fill="#79807F"/>
<path d="M19.9564 161.773C21.7617 164.35 25.3648 165.138 28.4488 164.492C33.5637 163.414 37.0313 159.396 41.3263 156.811C46.2457 153.858 51.0372 150.678 55.6632 147.288C57.0172 146.298 59.9959 144.507 62.6286 142.549C65.171 140.657 67.3974 138.612 67.4802 137.016C67.5554 135.511 65.0957 132.583 64.3661 131.244C63.1174 128.966 57.5813 130.666 51.9022 133.164L51.8947 133.164C46.1931 135.671 40.341 138.98 38.5883 139.842C33.7367 142.217 28.9076 144.751 24.7028 148.142C23.3639 149.22 22.0777 150.404 21.0397 151.762C20.468 152.506 19.979 153.304 19.5954 154.159C18.5122 156.589 18.4295 159.594 19.9564 161.773Z" fill="#422B9C"/>
<path d="M70.2699 136.527C67.4417 139.708 63.1015 140.465 60.5817 138.219C58.0618 135.974 58.3176 131.575 61.1533 128.395C63.9816 125.215 68.3218 124.458 70.8416 126.703C73.3615 128.949 73.1057 133.348 70.2699 136.527Z" fill="#F09CAB"/>
<path d="M62.5629 129.968C61.7205 129.219 61.6453 127.932 62.3975 127.092L70.5362 117.96C71.2884 117.12 72.5747 117.047 73.4171 117.795C74.2521 118.543 74.3273 119.831 73.5751 120.671L65.4363 129.803C64.6917 130.643 63.4054 130.717 62.5629 129.968Z" fill="#F09CAB"/>
<path d="M51.9045 133.164C54.0483 132.912 59.8552 140.693 60.803 141.428C61.7658 142.179 62.157 142.591 62.6309 142.549C65.1733 140.657 67.3997 138.612 67.4825 137.016C67.5577 135.511 65.098 132.583 64.3684 131.244C63.1197 128.966 57.5836 130.666 51.9045 133.164Z" fill="#F09CAB"/>
<path d="M92.3003 131.227C93.0525 130.149 94.5344 129.888 95.6175 130.642L105.088 137.275C104.396 138.771 103.937 140.418 103.681 142.105L92.8795 134.547C91.8039 133.791 91.5406 132.306 92.3003 131.227Z" fill="#F09CAB"/>
<path d="M97.3822 136.403C97.3822 136.403 94.1403 147.171 100.865 150.546L105.092 137.285L97.3822 136.403Z" fill="#F09CAB"/>
<path d="M42.592 226.787L20.9438 214.748C18.6873 213.493 17.4611 210.95 17.8899 208.401L20.3722 193.739L53.2206 197.951L51.498 221.972C51.1821 226.349 46.4282 228.92 42.592 226.787Z" fill="#1A4A44"/>
<path d="M7.70178 333.22L7.09246 338.032L6.91947 341.2C6.85177 342.457 7.5513 343.628 8.68711 344.167C11.7636 345.622 15.9834 345.939 18.6311 343.506L25.4159 337.812L30.057 334.118C31.7118 332.801 33.4494 328.531 33.1335 326.456C32.3662 321.368 25.0098 323.659 21.813 324.793L11.0039 328.997C9.21371 329.693 7.95001 331.314 7.70178 333.22Z" fill="#1A4A44"/>
<path d="M8.68711 340.595C11.7636 342.05 15.9834 342.368 18.6311 339.934L25.4159 334.24L30.057 330.547C31.1703 329.66 32.3136 327.439 32.8551 325.447C32.983 325.747 33.0733 326.08 33.1335 326.456C33.4494 328.532 31.7118 332.801 30.057 334.119L25.4159 337.812L18.6311 343.506C15.9834 345.94 11.7636 345.622 8.68711 344.168C7.5513 343.629 6.85177 342.458 6.91947 341.201L7.05491 338.701C7.31065 339.519 7.88226 340.216 8.68711 340.595Z" fill="#919998"/>
<path d="M11.3146 314.817C13.3606 313.31 16.6703 313.31 18.7088 314.817C19.7242 315.57 20.2282 316.56 20.2207 317.55V330.351C20.2207 331.34 19.7016 332.33 18.6786 333.083C16.6402 334.59 13.323 334.59 11.2846 333.083C10.2691 332.33 9.76516 331.34 9.77268 330.351V317.55C9.77268 316.56 10.2916 315.57 11.3146 314.817Z" fill="#D0E9F5"/>
<path d="M78.5737 361.948C77.0618 364.005 74.6172 365.013 72.2177 365.352C69.8182 365.698 67.3811 365.466 64.959 365.519C60.3405 365.621 55.7596 367.35 51.1487 367.16C48.7041 367.058 45.9134 366.319 44.8152 363.945C44.1382 362.466 44.1457 358.572 44.3187 356.932C44.3864 356.264 44.4165 355.555 44.4541 354.84C44.5519 352.412 44.6272 349.842 45.9736 347.999C48.5085 344.541 55.4888 342.107 57.1437 345.149C57.2866 345.406 57.4295 345.655 57.5724 345.895C60.8745 351.392 65.3426 352.514 70.277 353.408C74.3539 354.154 83.3351 355.478 78.5737 361.948Z" fill="#1A4A44"/>
<path d="M44.2733 357.483C44.3486 358.679 44.514 359.805 44.8149 360.456C45.9131 362.831 48.7038 363.571 51.1484 363.672C55.7594 363.861 60.3477 362.132 64.9587 362.031C67.3808 361.978 69.8104 362.209 72.2174 361.866C74.6169 361.522 77.0615 360.515 78.5734 358.46C78.9495 357.951 79.2429 357.471 79.4535 357.027C80.2208 358.205 80.1605 359.793 78.5734 361.942C77.0615 363.997 74.6169 365.004 72.2174 365.347C69.8104 365.691 67.3808 365.46 64.9587 365.513C60.3477 365.614 55.7594 367.343 51.1484 367.154C48.7038 367.053 45.9131 366.313 44.8149 363.938C44.1981 362.606 44.153 359.319 44.2733 357.483Z" fill="#919998"/>
<path d="M48.2076 334.637C50.2536 333.13 53.5632 333.13 55.6017 334.637C56.6172 335.391 57.1211 336.381 57.1136 337.37V350.171C57.1136 351.161 56.5947 352.15 55.5717 352.904C53.5332 354.41 50.216 354.411 48.1775 352.904C47.1621 352.15 46.6581 351.161 46.6656 350.171V337.371C46.6656 336.381 47.1847 335.391 48.2076 334.637Z" fill="#D0E9F5"/>
<path d="M58.8254 344.401L60.3675 337.258L61.8493 330.107L63.286 322.953C63.7749 320.569 64.2262 318.181 64.6851 315.794L66.0691 308.634L67.4005 301.468C68.2806 296.689 69.1907 291.915 70.0256 287.131L70.0783 286.792L70.0858 285.439L70.2212 260.756L70.2512 236.078L70.2588 223.739C70.2588 221.682 70.2813 219.625 70.2512 217.569C70.2061 215.514 69.9429 213.466 69.4163 211.426C69.1681 210.405 68.8672 209.386 68.5739 208.367C68.4159 207.858 68.3031 207.347 68.1075 206.839C67.9044 206.331 67.5509 205.828 67.1597 205.326C66.7686 204.824 66.3624 204.322 66.0691 203.817C65.7757 203.312 65.6403 202.802 65.4899 202.293C65.1815 201.274 64.8956 200.254 64.6173 199.235C64.0607 197.196 63.5567 195.155 63.128 193.112C62.7067 191.068 62.3231 189.023 62.1125 186.974C61.7063 182.996 58.1485 180.105 54.1694 180.515C50.5438 180.889 47.8209 183.881 47.678 187.42C47.5952 189.479 47.3394 191.543 47.046 193.609C46.7452 195.674 46.3616 197.743 45.9403 199.813C45.7222 200.847 45.4965 201.883 45.2558 202.919C45.1355 203.436 45.0378 203.954 44.767 204.476C44.5112 204.998 44.1351 205.524 43.774 206.049C43.413 206.574 43.097 207.098 42.924 207.618C42.7585 208.137 42.6833 208.653 42.5555 209.172C42.3298 210.207 42.0891 211.242 41.9011 212.277C41.5024 214.345 41.367 216.406 41.4498 218.46C41.54 220.513 41.698 222.565 41.8183 224.618L42.5931 236.933L44.1501 261.563L45.8049 286.19L45.8651 284.498C45.647 289.348 45.5115 294.207 45.3385 299.063L45.0979 306.348L44.9023 313.638C44.8421 316.068 44.7669 318.497 44.7293 320.931L44.5939 328.226L44.4961 335.528L44.4661 342.836C44.451 346.845 47.6854 350.11 51.6946 350.128C55.1924 350.144 58.1184 347.685 58.8254 344.401Z" fill="#1A4A44"/>
<path d="M9.615 323.286L9.62253 323.159C9.38935 319.847 9.84071 315.926 9.85576 314.289C9.87832 309.594 9.5323 304.188 9.55486 299.492C9.58495 293.823 9.87082 289.282 10.6305 283.656C10.6305 283.656 11.127 279.993 11.7438 275.399L11.819 273.646L11.9844 273.625C12.9849 266.153 13.0676 262.971 13.0676 262.971L14.0004 209.528C14.0906 203.996 19.4312 200.152 24.5386 201.955C24.8094 202.051 25.0802 202.148 25.351 202.246C27.6376 203.07 29.9093 203.961 32.1207 204.974C32.384 205.094 34.5428 206.176 34.6481 206.195C35.6635 206.77 36.6564 207.384 37.6418 208.016C38.409 208.511 39.2064 208.896 40.0188 209.196L37.1379 230.165L32.5946 269.549C30.0597 281.027 29.7588 286.771 27.2164 298.248C26.8704 299.827 26.5168 301.405 26.1708 302.984L22.6355 325.967C21.9435 328.425 19.6719 330.062 17.1821 329.902L14.5269 329.732C11.33 329.528 9.03581 326.508 9.615 323.286Z" fill="#1A4A44"/>
<path d="M32.1216 114.724L30.7752 129.126C30.4818 132.262 32.5052 135.147 35.5591 135.936C39.7187 137.012 43.8784 134.183 44.4049 129.917L46.5036 112.955L32.1216 114.724Z" fill="#F09CAB"/>
<path d="M35.194 92.6624C31.6888 91.5214 26.6716 88.5013 29.7406 84.8592C31.8693 82.3423 37.1799 81.3336 40.3316 80.082C44.4085 78.4655 48.6884 76.8122 53.1489 76.992C57.6169 77.1717 62.2279 79.8563 62.3934 83.6301C62.9124 95.2169 43.4682 95.3515 35.194 92.6624Z" fill="#1A4A44"/>
<path d="M56.9109 91.1641C56.9109 91.1641 59.9874 104.218 57.3246 112.521C56.3468 115.58 53.684 117.824 50.4571 118.405C47.4182 118.951 42.8524 119.432 38.0534 118.709C27.6355 117.144 24.4913 112.699 24.4913 112.699L25.5745 91.9622L36.2632 86.687L56.9109 91.1641Z" fill="#F09CAB"/>
<path d="M54.6468 115.729L55.7601 115.35C41.1976 114.301 33.7358 89.1204 33.7358 89.1204L31.6748 89.9365L31.9531 88.812L25.5745 91.9607L24.4913 112.698C24.4913 112.698 27.6355 117.143 38.0534 118.708C42.8524 119.43 47.4182 118.949 50.4571 118.403C52.5708 118.023 54.4438 116.923 55.7601 115.35C55.3991 115.502 55.0229 115.623 54.6468 115.729Z" fill="black" fill-opacity="0.1"/>
<path d="M26.8347 75.9062C20.7945 78.0379 16.5371 84.4068 16.2363 91.0261C15.6571 103.962 25.2701 123.112 40.314 117.847C43.7741 116.637 45.632 114.322 45.632 114.322C50.4686 110.611 46.8355 109.684 48.6558 104.298C49.3855 102.12 50.7545 100.48 51.8001 98.527C52.8531 96.56 53.7933 94.9112 55.2376 93.1841C59.841 87.6946 58.7503 79.0158 50.6417 77.4512C44.2179 76.2131 35.0562 74.0964 28.5873 75.4203C27.9856 75.5429 27.4063 75.7054 26.8347 75.9062Z" fill="#1A4A44"/>
<path d="M51.0709 106.498C51.0709 106.498 51.8983 102.95 47.8666 100.748C43.8348 98.5467 42.1875 109.706 45.0684 111.912C47.9493 114.119 51.0709 106.498 51.0709 106.498Z" fill="#F09CAB"/>
<path d="M51.144 107.356C50.2113 107.352 49.4516 106.588 49.4591 105.658L49.4967 96.5794C49.4967 95.6489 50.2639 94.8899 51.1891 94.8937C52.1218 94.8975 52.8815 95.6624 52.874 96.5929L52.844 105.671C52.8365 106.602 52.0767 107.36 51.144 107.356Z" fill="#1A4A44"/>
<path d="M39.853 137.264C40.0035 137.232 40.1614 137.198 40.3119 137.159C40.3871 137.14 40.4622 137.117 40.5375 137.096C40.4622 137.117 40.3871 137.14 40.3119 137.159C40.1614 137.198 40.0035 137.232 39.853 137.264ZM25.7869 132.232C28.886 136.298 35.4677 138.587 40.4472 137.337C45.4267 136.086 48.3603 130.713 45.2613 126.646C42.1547 122.58 30.7966 119.398 28.4422 121.819C24.8618 125.503 22.6804 128.165 25.7869 132.232Z" fill="#D0E9F5"/>
<path d="M28.6427 217.547C25.3932 216.477 22.1664 215.288 18.9846 213.999C16.6452 213.052 9.80022 210.908 8.3184 208.776C6.98701 206.862 9.33389 200.824 9.37902 198.691C9.50689 191.917 7.64139 184.714 6.97194 177.994C5.77595 165.961 5.17427 153.864 5.45258 141.78C5.61054 134.541 7.06222 124.395 15.0731 122.42C23.0689 120.445 29.8011 125.353 41.6407 129.218C46.3645 130.761 64.0636 135.04 66.6963 138.872C67.4936 140.029 69.1785 141.186 69.2462 142.104C69.3891 144.031 66.8392 148.689 66.3954 150.953C65.4626 155.762 64.9061 159.292 65.6282 164.356C66.6888 171.835 68.2383 182.834 69.2989 190.314C70.0962 195.939 71.3524 207.895 70.2993 210.723C69.4719 212.967 67.2003 214.273 65.3198 215.673C62.672 217.655 59.8663 219.521 56.8199 220.718C55.6691 221.177 54.4881 221.535 53.2621 221.768C48.7414 222.63 44.0703 221.694 39.5646 220.633C35.8789 219.767 32.2457 218.729 28.6427 217.547Z" fill="#919998"/>
<path d="M56.8224 220.732C59.8687 219.535 62.6745 217.669 65.3222 215.687C67.2027 214.286 69.4743 212.981 70.3017 210.737C71.3548 207.908 70.0987 195.952 69.3013 190.327C68.2407 182.848 66.6912 171.849 65.6306 164.37C64.8859 159.134 67.4735 152.323 64.8709 147.535C61.5086 141.339 57.4993 143.606 54.9419 148.896C49.4584 160.206 53.6782 178.595 54.5733 190.573C55.3255 200.626 56.0702 210.679 56.8224 220.732Z" fill="black" fill-opacity="0.1"/>
<path d="M53.2654 139.093C53.5136 137.955 54.1229 136.97 55.2135 136.225C62.3669 131.343 70.9194 142.843 72.6118 148.682L78.9077 170.422C83.481 164.238 88.0544 158.052 92.6277 151.868C95.3657 148.168 96.5392 144.793 101.571 145.525C105.468 146.09 111.53 148.454 108.349 153.329C108.319 153.378 90.5066 180.671 85.4293 188.458C84.5793 189.761 84.0753 190.518 84.0753 190.518L84.0227 190.596C80.2617 196.295 72.0628 195.81 68.6929 189.741C67.9482 188.397 67.512 187.614 67.512 187.614C67.1058 186.876 66.662 185.985 66.2106 184.97C60.7497 172.875 52.4154 142.924 53.2654 139.093Z" fill="#919998"/>
<path d="M79.0058 9.99999C79.0064 4.47714 82.8845 2.23814 87.6677 4.99903L181.376 59.0876C186.159 61.8485 190.037 68.5638 190.036 74.0867L190.031 115.818C190.031 121.341 186.153 123.58 181.369 120.819L87.6608 66.7302C82.8776 63.9693 79.0005 57.254 79.0011 51.7311L79.0058 9.99999Z" fill="url(#paint1_linear)"/>
<rect width="13.0648" height="15.6778" rx="5" transform="matrix(0.866081 0.499903 -0.000112265 1 86.0778 13.8805)" fill="white"/>
<line x1="1" y1="-1" x2="23.4965" y2="-1" transform="matrix(0.866081 0.499903 -0.000112265 1 104.464 33.3124)" stroke="#919998" stroke-width="2" stroke-linecap="round" stroke-linejoin="round"/>
<path d="M88.9057 23.3522L94.5633 26.6177" stroke="url(#paint2_linear)" stroke-width="2" stroke-linecap="round" stroke-linejoin="round"/>
<path d="M87.4891 42.1331L112.241 56.4199" stroke="#1A4A44" stroke-width="4" stroke-linecap="round" stroke-linejoin="round"/>
<path d="M86.7806 53.4832L177.302 105.732" stroke="#1A4A44" stroke-width="2" stroke-linecap="round" stroke-linejoin="round"/>
<line x1="1" y1="-1" x2="10.4317" y2="-1" transform="matrix(0.866081 0.499903 -0.000112265 1 173.062 72.9073)" stroke="#919998" stroke-width="2" stroke-linecap="round" stroke-linejoin="round"/>
<defs>
<linearGradient id="paint0_linear" x1="86.1413" y1="127.704" x2="100.157" y2="127.704" gradientUnits="userSpaceOnUse">
<stop stop-color="#32BB94"/>
<stop offset="1" stop-color="#16B4BD"/>
</linearGradient>
<linearGradient id="paint1_linear" x1="79.0034" y1="31.3555" x2="190.041" y2="31.368" gradientUnits="userSpaceOnUse">
<stop stop-color="#E1E6E5"/>
<stop offset="1" stop-color="#EAF0EF"/>
</linearGradient>
<linearGradient id="paint2_linear" x1="88.9057" y1="23.84" x2="94.5636" y2="23.8406" gradientUnits="userSpaceOnUse">
<stop stop-color="#32BB94"/>
<stop offset="1" stop-color="#16B4BD"/>
</linearGradient>
</defs>
</svg>
