<svg width="180" height="292" viewBox="0 0 180 292" fill="none" xmlns="http://www.w3.org/2000/svg">
<path d="M104.922 248.855C106.54 248.821 107.949 250.105 108.579 251.596C109.206 253.087 109.22 254.755 109.223 256.373C109.223 257.79 109.163 259.37 108.152 260.364C107.499 261.006 106.577 261.266 105.695 261.507C104.034 261.956 102.364 262.406 100.652 262.555C98.7129 262.721 96.7455 262.495 94.821 262.79C93.5924 262.976 92.4068 263.371 91.2011 263.655C87.7845 264.457 84.1618 264.365 80.791 263.385C80.0407 263.168 79.2617 262.881 78.7691 262.271C77.9529 261.266 78.2365 259.697 79.0555 258.692C79.8775 257.688 81.0974 257.115 82.2745 256.574C85.8228 254.945 89.3711 253.316 92.9165 251.688C96.3961 250.09 99.9988 248.462 103.828 248.374C105.051 248.346 106.663 248.9 106.551 250.119L104.922 248.855Z" fill="#0D2623"/>
<path d="M78.5886 261.425C79.0811 262.032 79.8601 262.321 80.6104 262.539C83.9812 263.515 87.6039 263.61 91.0205 262.805C92.2262 262.521 93.4118 262.126 94.6404 261.94C96.5649 261.648 98.5324 261.874 100.471 261.705C102.184 261.559 103.856 261.107 105.514 260.657C106.396 260.419 107.319 260.156 107.972 259.517C108.733 258.764 108.957 257.678 109.017 256.58C109.037 257.065 109.04 257.552 109.043 258.034C109.043 259.451 108.982 261.032 107.972 262.026C107.319 262.667 106.396 262.928 105.514 263.169C103.856 263.618 102.184 264.068 100.471 264.217C98.5324 264.383 96.5649 264.157 94.6404 264.452C93.4118 264.638 92.2262 265.03 91.0205 265.317C87.6039 266.118 83.9812 266.024 80.6104 265.047C79.8601 264.83 79.0811 264.54 78.5886 263.933C77.9614 263.16 77.9871 262.057 78.4024 261.132C78.4597 261.233 78.5141 261.333 78.5886 261.425Z" fill="#FCF8EE"/>
<path d="M128.881 262.811L128.896 264.022C129.079 263.41 129.477 262.845 129.975 262.439C130.869 261.717 132.037 261.425 133.18 261.302L133.237 261.296C135.929 261.024 138.383 262.877 139.005 265.512L140.586 272.219L144.403 283.015C144.495 283.282 144.566 283.537 144.629 283.8C145.454 287.509 143.017 291.252 139.314 291.644L137.616 291.825C133.071 292.303 129.107 288.548 129.056 283.714L128.873 264.091L128.858 262.857L128.881 262.811Z" fill="#FCF8EE"/>
<path d="M128.895 264.036L129.055 280.798C129.107 285.635 133.07 289.378 137.615 288.903L139.314 288.731C142.023 288.442 144.056 286.362 144.629 283.814C144.566 283.55 144.494 283.295 144.403 283.029L140.585 272.232L138.391 262.916C137.257 261.559 135.052 261.115 133.179 261.315C132.037 261.438 130.868 261.731 129.975 262.452C129.476 262.859 129.078 263.423 128.895 264.036Z" fill="#0D2623"/>
<path d="M99.8466 235.664C101.777 234.242 104.904 234.242 106.82 235.664C107.779 236.374 108.255 237.308 108.252 238.241V250.313C108.246 251.246 107.762 252.179 106.797 252.89C104.87 254.311 101.74 254.311 99.8237 252.89C98.8672 252.179 98.3889 251.246 98.3946 250.313V238.241C98.3975 237.308 98.8815 236.374 99.8466 235.664Z" fill="#F09CAB"/>
<path d="M128.924 248.883C130.663 247.236 133.767 246.853 135.844 248.03C136.883 248.617 137.47 249.485 137.579 250.412L139.057 262.394C139.168 263.319 138.799 264.304 137.928 265.129C136.19 266.776 133.086 267.16 131.009 265.983C129.97 265.396 129.383 264.528 129.274 263.6L127.796 251.619C127.687 250.692 128.054 249.706 128.924 248.883Z" fill="#F09CAB"/>
<path d="M55.779 92.6918C63.4652 95.1974 83.082 78.7813 90.9489 80.7381C91.3957 87.2285 77.8698 112.484 74.3149 118.081C72.6917 120.636 70.6154 123.044 67.8197 124.468C65.0237 125.891 61.4033 126.167 58.7072 124.585C57.4792 123.864 56.5095 122.812 55.722 121.676C53.0082 117.763 52.3661 112.91 52.3882 108.25C52.4099 103.591 53.0225 98.9192 52.5196 94.283L55.779 92.6918Z" fill="#FCF8EE"/>
<path d="M66.2439 122.145C60.9881 123.308 56.6649 117.678 58.6899 112.222C63.4255 99.4715 69.4196 86.9393 73.4467 74.0959C75.7996 66.5892 78.2396 58.9149 82.9993 52.6509C85.5882 49.2437 91.777 43.612 95.4542 49.2987C98.2235 53.581 96.1186 63.89 95.3367 68.6062C93.1058 82.0897 87.3209 94.7631 80.7684 106.649C77.6783 112.255 73.6036 119.376 67.2803 121.829C66.9317 121.965 66.5858 122.069 66.2439 122.145Z" fill="#FCF8EE"/>
<path d="M107.909 97.1357L133.411 106.179L143.271 126.118L140.551 193.113V256.196C140.551 259.644 137.821 262.436 134.453 262.436H130.258C127.088 262.436 124.444 259.95 124.181 256.719L117.76 180.929L115.638 151.297L110.34 149.098L107.909 184.613L110.77 243.22C110.938 246.862 107.957 249.835 104.403 249.567L101.448 249.345C98.6726 249.136 96.4131 246.982 96.0121 244.165L86.3868 179.105V108.794L107.909 97.1357Z" fill="url(#paint0_linear)"/>
<path d="M86.3685 62.4479V118.779C86.3685 120.253 87.1732 121.623 88.4963 122.394L103.365 131.073C110.419 135.208 118.601 136.915 126.688 136.134C129.515 135.845 132.345 135.267 135.08 134.341L143.33 129.092L138.851 66.555C138.728 63.5471 137.482 60.7417 135.354 58.6015C134.564 57.7627 133.622 57.0396 132.556 56.4324L127.204 53.2218L125.715 52.3251C121.671 49.6357 113.827 46.096 106.77 45.2858C105.373 45.1122 104.035 45.789 102.758 45.789C99.9288 45.789 97.4057 46.2228 95.5814 47.2352C89.8967 50.3874 86.3685 56.1721 86.3685 62.4479Z" fill="url(#paint1_linear)"/>
<path d="M143.559 145.069L136.588 149.326C134.91 149.894 132.725 150.344 130.586 150.683C129.197 150.751 127.805 150.776 126.413 150.754C126.227 150.687 126.047 150.616 125.872 150.532C124.179 149.779 122.896 148.392 121.811 146.474C121.218 145.423 120.852 144.273 120.706 143.092C120.156 142.192 119.775 141.105 119.589 140.13C114.382 112.91 114.674 92.9762 120.451 65.8576C121.407 61.3705 122.381 54.0583 119.242 50.1248C118.635 49.3622 117.807 48.8031 116.945 48.3455C111.132 45.2586 100.086 45.5575 96.509 52.1381C95.6298 53.7539 95.3005 56.3439 95.0141 58.1404C92.219 75.7504 95.0313 84.5983 95.2747 102.313C95.4351 113.76 95.5926 125.208 95.753 136.655C95.773 138.128 94.9883 139.441 93.6452 140.171C92.6629 140.711 91.4314 140.662 90.4663 140.098L85.6436 137.283C83.9883 136.317 82.9774 134.599 82.9774 132.752V86.2662C82.9774 76.9031 79.4491 54.3641 87.3476 48.0912C91.7092 44.6277 96.8928 44.7436 102.071 44.8596C103.173 44.8843 104.276 44.9089 105.373 44.8991C114.276 44.8187 124.208 46.8288 132.399 50.5549C141.795 54.8295 142.319 64.7719 141.741 73.7291C140.907 86.6817 143.104 100.28 143.865 113.309C144.415 122.706 144.977 132.103 145.484 141.502C145.564 142.934 144.825 144.296 143.559 145.069Z" fill="#FCF8EE"/>
<path d="M145.483 141.443C144.758 127.98 141.11 66.4705 141.11 66.4577C141.098 66.2263 141.07 65.9971 141.049 65.7683H141.213L141.11 61.832C141.09 61.3612 141.047 60.8929 140.975 60.4324C138.684 59.2875 136.467 59.1425 134.368 61.374C133.999 61.7673 133.649 62.2386 133.314 62.7644V150.125C134.5 149.876 135.628 149.592 136.588 149.267L143.558 145.011C144.824 144.237 145.563 142.876 145.483 141.443Z" fill="black" fill-opacity="0.1"/>
<path d="M117.44 57.4945C117.961 56.2601 118.368 55.0084 118.62 53.7566C121.123 41.3347 96.4482 42.75 96.4482 56.5551V58.7113C96.4482 59.5745 97.1671 60.1676 97.9518 59.9502L104.375 58.1723L109.716 63.5037C110.49 64.6031 112.059 64.5641 112.941 63.42C114.293 61.6656 115.857 59.5833 117.44 57.4945Z" fill="#39D4C2"/>
<path d="M109.812 34.2372L109.889 34.277C109.912 34.1822 109.912 34.0659 109.912 33.9731C109.912 34.0659 109.889 34.161 109.812 34.2372Z" fill="#715154"/>
<path d="M179.363 203.376L177.453 204.468V214.937C177.453 215.991 176.886 216.968 175.969 217.494C175.969 217.494 131.548 243.086 131.46 243.135C130.182 243.87 128.435 243.925 126.691 243.492C123.246 242.652 119.772 239.925 119.772 236.803V202.136C119.772 201.615 119.893 201.121 120.107 200.671C120.388 200.034 120.886 199.48 121.511 199.118L170.027 171.173C171.39 170.383 173.111 170.607 174.225 171.705L177.046 174.459L177.201 174.613C178.856 176.254 179.79 178.492 179.79 180.825V200.589C179.79 201.746 180.354 202.794 179.363 203.376Z" fill="#0A1F1C"/>
<path d="M179.789 180.325V185.324L131.98 206.471C130.236 207.239 128.248 207.107 126.648 206.158C126.355 205.988 126.081 205.79 125.823 205.571L120.107 200.671C120.387 200.034 120.886 199.48 121.51 199.118L170.026 171.173C171.389 170.383 173.111 170.607 174.225 171.705L177.045 174.459L177.2 174.613L177.518 174.926C178.973 176.347 179.789 178.295 179.789 180.325Z" fill="#11332F"/>
<path d="M179.362 203.43L177.451 204.522V214.991C177.451 216.045 176.884 217.021 175.968 217.548C175.968 217.548 131.547 243.139 131.458 243.189C130.181 243.924 128.434 243.979 126.69 243.546C125.951 242.816 125.478 241.801 125.478 240.621V211.035C125.478 209.334 125.888 207.682 126.647 206.212C127.563 204.423 128.984 202.898 130.782 201.861L177.045 174.513L177.199 174.667L177.517 174.98C178.972 176.401 179.788 178.349 179.788 180.379V200.643C179.788 201.8 180.353 202.848 179.362 203.43Z" fill="#0D2623"/>
<path d="M160.695 215.347L152.639 219.988C151.98 220.368 151.448 220.06 151.448 219.301L151.445 213.912C151.445 213.153 151.98 212.23 152.639 211.85L160.695 207.21C161.354 206.83 161.887 207.138 161.887 207.897V213.286C161.887 214.045 161.354 214.968 160.695 215.347Z" fill="#E0B475"/>
<path d="M155.79 179.465C155.79 175.545 152.377 173.361 148.674 175.495L143.957 178.213C140.895 179.976 138.407 184.279 138.407 187.805V193.005L139.973 193.788L142.147 192.536V187.336C142.147 185.19 143.662 182.573 145.523 181.5L150.24 178.782C150.736 178.498 151.2 178.359 151.623 178.335C151.887 178.737 152.05 179.269 152.05 179.944V185.144L153.617 185.927L155.79 184.675V179.465Z" fill="#0D2623"/>
<path d="M140.692 167.625C140.724 168.176 140.752 168.716 140.784 169.24L141.6 168.771C141.208 168.408 140.904 168.023 140.692 167.625Z" fill="#4568C7"/>
<path d="M150.451 182.516C154.758 182.042 158.023 178.396 157.986 174.073C158.023 178.396 154.758 182.042 150.451 182.516Z" fill="#4568C7"/>
<path d="M157.985 173.939C157.985 173.795 157.979 173.65 157.97 173.505C157.967 173.481 157.967 173.448 157.964 173.413C157.964 173.386 157.962 173.354 157.959 173.321V173.313C157.959 173.275 157.956 173.234 157.953 173.188L157.95 173.168C157.942 172.981 157.927 172.734 157.91 172.427C157.904 172.335 157.899 172.236 157.893 172.134C157.827 170.949 157.721 169.088 157.586 166.746C157.46 166.791 157.337 166.843 157.208 166.884L157.143 166.904C156.882 167.899 156.089 168.856 154.76 169.621C151.455 171.525 146.097 171.525 142.795 169.621C142.328 169.353 140.99 167.388 140.655 167.08L140.781 169.223C140.89 171.08 140.988 172.841 141.082 174.47C141.337 178.957 145.071 182.43 149.522 182.43C149.676 182.43 149.845 182.418 150.017 182.418C150.163 182.41 150.307 182.397 150.45 182.382C154.757 181.907 158.022 178.262 157.985 173.939Z" fill="#F09CAB"/>
<path d="M157.182 159.838C156.228 143.265 154.73 108.889 154.524 106.247C154.487 105.801 154.415 105.343 154.307 104.896C153.118 98.8643 151.93 92.8325 150.741 86.8007C148.931 77.6121 148.699 66.1619 143.172 58.506C139.824 53.87 134.368 47.951 129.362 54.8657C127.785 57.0417 127.341 59.8783 127.616 62.5508C128.372 69.9562 131.685 77.5748 133.134 84.9575C134.655 92.6973 136.176 100.437 137.699 108.177C138.014 113.08 139.478 145.514 140.546 165.088C140.196 165.933 140.245 166.821 140.689 167.655C140.901 168.053 141.204 168.438 141.597 168.801C141.932 169.109 142.327 169.401 142.794 169.669C146.096 171.572 151.454 171.572 154.759 169.669C156.088 168.903 156.881 167.946 157.142 166.951L157.208 166.931C157.336 166.89 157.46 166.838 157.586 166.793C157.712 168.971 157.812 170.73 157.878 171.92C157.749 169.636 157.5 165.239 157.182 159.838Z" fill="#FCF8EE"/>
<path d="M157.879 171.875C157.885 171.963 157.891 172.055 157.894 172.137C157.891 172.053 157.885 171.965 157.879 171.875Z" fill="#5A3FBA"/>
<path d="M115.269 48.7879L115.186 48.8057C115.229 51.378 112.743 53.836 109.149 54.607C105.927 55.294 102.966 54.3833 101.651 52.4875C101.499 52.2661 101.371 52.0321 101.265 51.7852L101.184 51.8004L101.027 51.0627L101.024 51.0601L97.7908 35.9485C97.3727 33.9971 97.7908 32.0734 98.7903 30.529C99.6351 29.2236 100.892 28.1855 102.404 27.6562C102.768 27.5494 103.158 27.4349 103.553 27.3509C104.406 27.1983 105.234 27.1983 106.059 27.3177C106.715 27.4349 107.336 27.6411 107.92 27.9234C108.27 28.0915 108.605 28.2874 108.917 28.5085C110.377 29.5289 114.055 30.6853 114.455 32.5505L115.111 48.0451V48.0474L115.269 48.7879Z" fill="#F09CAB"/>
<path d="M101.655 52.4876C101.504 52.2662 101.375 52.0322 101.269 51.7854L101.188 51.8005L101.031 51.0628L101.028 51.0602L100.432 48.28L99.685 44.7844L97.7948 35.9486C97.686 35.438 97.6316 34.9291 97.6344 34.4285C97.6344 33.0163 98.0554 31.6695 98.7943 30.5291C99.6391 29.2237 100.896 28.1856 102.408 27.6564C102.772 27.5495 103.162 27.435 103.557 27.3511C104.009 27.27 104.456 27.2319 104.897 27.2319C105.289 27.2319 105.676 27.2617 106.063 27.3178C106.719 27.435 107.34 27.6412 107.924 27.9235L109.955 37.4117C111.172 43.1036 107.678 48.9891 101.655 52.4876Z" fill="black" fill-opacity="0.1"/>
<path d="M138.828 157.037L138.86 157.563C139.034 160.245 139.209 162.541 139.395 164.541L139.67 167.49L140.432 168.646L140.907 168.603C141.374 169.05 141.941 169.453 142.597 169.816C144.564 170.851 147.102 171.312 149.619 171.221C152.139 171.13 154.637 170.487 156.509 169.313C157.592 168.63 158.385 167.843 158.881 166.937L158.978 166.767L158.54 162.139C158.477 161.505 158.443 159.676 158.425 157.684C158.42 156.999 157.687 156.564 157.085 156.892C156.372 157.28 155.731 157.623 155.45 157.8C152.042 159.942 146.377 160.147 142.823 158.256C142.05 157.847 140.011 157.38 139.567 156.83C139.493 156.846 139.415 156.874 139.326 156.903L138.828 157.037Z" fill="white"/>
<path d="M51.2655 96.9093L51.2431 97.3506C51.1395 99.6016 51.071 101.532 51.0435 103.219L51 105.706L51.5413 106.773L51.9499 106.805C52.3059 107.242 52.7521 107.658 53.2779 108.051C54.8582 109.19 56.9797 109.933 59.1362 110.215C61.2927 110.497 63.4838 110.317 65.1929 109.608C66.1798 109.196 66.9318 108.655 67.4387 107.973L67.5375 107.845L67.5994 103.942C67.6046 103.406 67.7478 101.884 67.9199 100.227C67.9789 99.658 67.3941 99.1935 66.8502 99.3802C66.207 99.601 65.6271 99.794 65.3719 99.9014C62.2626 101.196 57.411 100.562 54.5569 98.4881C53.9354 98.0382 52.2423 97.3621 51.9147 96.8423C51.848 96.8446 51.7804 96.8575 51.7016 96.8686L51.2655 96.9093Z" fill="white"/>
<path d="M72.7702 105.618L68.4833 82.4004C68.4289 82.1223 68.2665 81.8829 68.0191 81.7362L56.3733 74.7467C55.869 74.444 55.2215 74.5314 54.8154 74.9567L53.8394 75.9788L53.8975 76.2929L58.0449 98.7695C58.1457 99.0782 58.9195 99.364 59.1902 99.5648L70.472 106.159L71.2999 106.645C72.0271 107.078 72.9246 106.452 72.7702 105.618Z" fill="#11332F"/>
<path d="M70.4734 106.192L59.1916 99.5975C58.9209 99.3968 58.1471 99.111 58.0463 98.8022L53.8989 76.3257L65.962 83.5681C66.202 83.7147 66.3724 83.9541 66.4185 84.2322L70.4734 106.192Z" fill="#0D2623"/>
<path d="M60.7522 84.9259C60.5604 85.3967 59.9045 85.5755 59.2877 85.3252C58.6705 85.0749 58.326 84.4901 58.5179 84.0192C58.7098 83.5484 59.3656 83.3697 59.9825 83.62C60.5996 83.8706 60.9441 84.4551 60.7522 84.9259Z" fill="#B5BFBE"/>
<path d="M70.1529 93.2144C70.0859 93.0687 70.0103 92.9252 69.9324 92.784L57.812 88.8597L57.0331 88.5421L55.2237 81.8945L53.353 82.3459L51.8564 90.8042L51.999 91.3418C51.8389 92.8519 51.8816 95.0278 51.8816 95.785C51.8816 99.9015 56.1003 103.238 61.3048 103.238C66.5092 103.238 70.7279 99.9015 70.7279 95.785C70.7279 94.882 70.524 94.0163 70.1529 93.2144Z" fill="#F09CAB"/>
<path d="M127.319 14.0044C126.033 9.2241 120.781 4.02051 120.738 3.98414C113.229 0.501705 104.683 -0.345133 97.2086 3.67799C95.2526 4.73017 93.4971 6.2165 91.7043 7.62007C88.2419 10.3318 85.4411 13.9056 85.7189 18.3872C85.9165 21.6225 86.1284 24.9222 87.3341 27.9319C89.5192 33.3952 91.0628 38.5779 97.3145 40.2616C102.667 41.7026 108.632 39.5917 113.658 37.8768C120.858 35.4194 126.531 31.3765 127.875 23.9122C128.459 20.6525 128.25 17.193 127.285 14.0036L127.319 14.0044Z" fill="#0D2623"/>
<path d="M112.242 14.219C111.933 14.1185 111.624 14.0246 111.317 13.9398C105.383 12.3014 92.559 11.2999 89.0308 17.8767C86.6423 22.3283 85.9321 35.7697 87.5244 40.1454C89.2742 44.9524 94.684 47.85 99.7902 47.5115C102.9 47.3056 105.833 46.0664 108.35 44.2063C110.807 42.3906 112.242 39.5039 112.242 36.4499V14.219Z" fill="#F09CAB"/>
<path d="M112.363 27.2164C112.615 27.131 112.865 27.042 113.108 26.9489C113.231 26.9008 113.351 26.8501 113.472 26.8005C113.351 26.8501 113.231 26.9008 113.108 26.9489C112.865 27.042 112.615 27.131 112.363 27.2164ZM90.1228 20.763C95.8161 27.0299 105.688 30.1057 113.429 27.1402C121.402 24.0853 121.989 18.0048 114.732 13.579C109.373 10.3114 81.1418 2.29379 86.7549 15.5677C87.5596 17.4661 88.7109 19.2122 90.1228 20.763Z" fill="#0D2623"/>
<path d="M110.018 36.2911C110.018 39.0527 112.418 40.5716 115.376 39.6841C118.334 38.7963 120.734 35.838 120.734 33.0767C120.734 30.3151 118.334 28.7958 115.376 29.6836C112.418 30.5711 110.018 33.5294 110.018 36.2911Z" fill="#F09CAB"/>
<path d="M101.11 30.09C101.11 30.09 110.607 28.0664 113.771 19.4648L108.376 32.0563L101.11 30.09Z" fill="#F09CAB"/>
<path d="M116.185 16.4041C110.443 20.2777 107.461 30.7494 111.184 35.5271C112.301 30.5243 114.323 25.6045 117.193 20.8966C116.021 20.7752 118.859 15.9227 117.691 15.8013L116.185 16.4041Z" fill="#0D2623"/>
<path d="M102.889 37.5985L102.493 36.9599L112.288 30.896L112.683 31.5343L102.889 37.5985Z" fill="#8F6658"/>
<path d="M92.696 32.4861C92.9251 31.7117 93.4234 31.4362 93.999 31.7687C94.5747 32.1006 95.073 32.9523 95.3021 33.9902L95.6716 33.9292C95.3794 32.5943 94.7379 31.5004 93.999 31.0739C93.2602 30.6472 92.6187 31.0009 92.3266 31.9964L92.696 32.4861Z" fill="#8F6658"/>
<path d="M92.696 32.4861C92.9251 31.7117 93.4234 31.4362 93.999 31.7687C94.5747 32.1006 95.073 32.9523 95.3021 33.9902L95.6716 33.9292C95.3794 32.5943 94.7379 31.5004 93.999 31.0739C93.2602 30.6472 92.6187 31.0009 92.3266 31.9964L92.696 32.4861Z" fill="#8F6658"/>
<path d="M95.681 34.7039C95.681 36.9892 97.2905 39.7789 99.2694 40.9221C100.157 41.4353 100.976 41.5301 101.566 41.1865C102.159 40.8443 102.485 40.0913 102.485 39.0661C102.485 36.7807 100.876 33.9911 98.8942 32.8478C98.0093 32.3361 97.1931 32.2413 96.6003 32.5829C96.0075 32.9252 95.681 33.6781 95.681 34.7039ZM100.77 42.1407C100.189 42.1407 99.5501 41.9503 98.8942 41.5722C96.7091 40.3099 94.9278 37.2284 94.9278 34.7039C94.9307 33.3986 95.3889 32.4142 96.2223 31.9328C97.0585 31.4491 98.141 31.5451 99.2694 32.1977C101.457 33.4601 103.236 36.5416 103.236 39.0661C103.236 40.3709 102.778 41.3549 101.941 41.8366C101.592 42.0396 101.194 42.1407 100.77 42.1407Z" fill="#8F6658"/>
<path d="M87.3441 26.5181C87.0492 26.5181 86.78 26.5851 86.5452 26.7205C85.9523 27.0622 85.6258 27.8157 85.6258 28.8409C85.6258 31.1263 87.2382 33.9159 89.2171 35.0592C90.1049 35.5712 90.9211 35.6649 91.5139 35.3235C92.1067 34.9819 92.4332 34.2284 92.4332 33.2031C92.4332 30.9178 90.8209 28.1281 88.842 26.9852C88.3064 26.675 87.7938 26.5181 87.3441 26.5181ZM90.7178 36.2778C90.1335 36.2778 89.4949 36.087 88.842 35.7093C86.6569 34.4469 84.8755 31.3654 84.8755 28.8409C84.8755 27.5362 85.3366 26.5519 86.17 26.0705C87.0034 25.5882 88.0888 25.6827 89.2171 26.3348C91.4051 27.5972 93.1835 30.6787 93.1835 33.2031C93.1835 34.5079 92.7224 35.4922 91.8891 35.9736C91.5368 36.1767 91.1416 36.2778 90.7178 36.2778Z" fill="#8F6658"/>
<path fill-rule="evenodd" clip-rule="evenodd" d="M11.2516 23.4898C11.2516 21.9102 12.1772 21.155 13.3089 21.8141V18.9408C13.3089 14.1995 16.0888 11.9361 19.4828 13.9113C22.879 15.8853 25.6568 21.3806 25.6557 26.1219V28.9963C26.7862 29.6555 27.7129 31.4865 27.7129 33.0662L27.7118 47.4351C27.7118 49.0148 26.7851 49.7688 25.6534 49.1108L13.3056 41.9275C12.175 41.2684 11.2505 39.4362 11.2505 37.8577V23.4898H11.2516ZM1.1922e-06 2.66594C-0.00443252 45.6789 19.4784 62.7603 19.4784 62.7603C19.4784 62.7603 38.9945 68.3662 39 25.3555C39 23.9289 37.9714 20.3551 35.9485 19.1798C25.7665 13.2555 20.9825 1.85153 19.485 0.981258C17.9876 0.108754 13.4984 6.11797 4.09675 0.649464C2.0384 -0.548134 0.00110962 -0.2074 1.1922e-06 2.66706V2.66594ZM19.4839 16.7857C21.7473 18.1029 23.5984 21.7661 23.5984 24.9265V27.7998L15.3672 23.0117V20.1384C15.3672 16.9768 17.2205 15.4686 19.4839 16.7857V16.7857ZM16.3947 32.2305C16.3947 34.1051 17.256 36.1842 18.452 37.4745V40.6115C18.452 41.4013 18.9153 42.3185 19.4806 42.6469C20.0459 42.9754 20.5103 42.5989 20.5103 41.8079V38.671C21.7063 38.7737 22.5676 37.6968 22.5676 35.8222C22.5676 33.4415 21.1865 30.7078 19.4817 29.7158C17.7781 28.7249 16.3959 29.8498 16.3947 32.2294V32.2305Z" fill="url(#paint2_linear)"/>
<defs>
<linearGradient id="paint0_linear" x1="86.3868" y1="177.77" x2="143.271" y2="177.77" gradientUnits="userSpaceOnUse">
<stop stop-color="#E0AE75"/>
<stop offset="1" stop-color="#E0B975"/>
</linearGradient>
<linearGradient id="paint1_linear" x1="86.3685" y1="89.6772" x2="143.33" y2="89.6772" gradientUnits="userSpaceOnUse">
<stop stop-color="#32BB94"/>
<stop offset="1" stop-color="#16B4BD"/>
</linearGradient>
<linearGradient id="paint2_linear" x1="39" y1="30.7317" x2="4.49126e-07" y2="30.7317" gradientUnits="userSpaceOnUse">
<stop stop-color="#E0AE75"/>
<stop offset="1" stop-color="#E0B975"/>
</linearGradient>
</defs>
</svg>
