<svg width="450" height="363" viewBox="0 0 450 363" fill="none" xmlns="http://www.w3.org/2000/svg">
<path d="M369.961 67.3774C369.029 68.2187 368.057 68.6401 366.5 68.3854C365.06 68.1492 364.16 67.6674 363.009 66.7276C361.911 65.8298 361.791 63.899 362.755 62.6704L376.667 44.9795C377.979 43.34 380.112 45.2158 381.419 46.6832C382.777 48.2084 387.459 46.3446 383.95 51.3363C383.724 51.5949 383.501 51.8548 383.276 52.1147C380.551 55.2609 377.828 58.4072 375.104 61.5534C373.805 63.0537 372.505 64.5553 371.206 66.0568C370.769 66.5622 370.368 67.0098 369.961 67.3774Z" fill="#D18A73"/>
<path d="M386.671 48.2903C386.981 46.3674 386.583 44.1951 385.335 42.91C384.94 42.5031 383.999 41.9269 383.53 41.7353C381.718 40.995 379.961 41.9978 378.159 43.0754C375.333 44.7647 373.238 47.5802 373.261 47.6642C373.014 47.7062 371.588 49.8838 371.466 50.0702C370.828 51.0376 372.302 53.6548 374.76 55.915C377.218 58.1766 379.728 59.2254 380.366 58.258L380.46 58.0598C380.805 57.8341 381.128 57.5256 381.422 57.2171C382.513 56.0726 383.518 54.8138 384.421 53.4605C385.449 51.9248 386.363 50.2132 386.671 48.2903Z" fill="#1A4A44"/>
<path d="M387.364 235.684C395.697 235.684 404.03 233.849 410.387 230.179C423.103 222.838 423.103 210.934 410.387 203.593C404.03 199.923 395.697 198.086 387.364 198.086C379.032 198.086 370.698 199.923 364.342 203.593C351.625 210.934 351.625 222.838 364.342 230.179C370.698 233.849 379.032 235.684 387.364 235.684Z" fill="#E8E7F4"/>
<path d="M365.165 202.742L366.161 202.19L366.156 202.347C366.156 202.347 362.23 206.082 371.694 203.855C376.885 202.633 381.284 200.848 382.16 199.514C382.331 200.298 382.465 201.111 382.517 201.888C382.369 203.323 381.355 204.562 379.905 204.947L378.236 205.386L378.018 205.409C375.675 205.653 373.058 206.215 370.889 206.946C369.893 207.275 368.839 207.599 368.049 207.757C366.021 208.163 363.581 207.757 362.77 207.216C362.564 207.081 362.449 206.794 362.385 206.437C362.12 204.955 363.851 203.478 365.165 202.742Z" fill="#222222"/>
<path d="M366.153 202.345L366.158 202.189L368.614 200.705C370.248 199.72 373.214 197.175 374.779 195.371C377.919 193.739 379.972 194.459 381.016 195.156C381.474 196.846 382.045 199 382.157 199.512C381.28 200.846 376.882 202.631 371.69 203.853C362.227 206.08 366.153 202.345 366.153 202.345Z" fill="#FF5655"/>
<path d="M369.301 108.689C369.801 102.94 371.03 97.2748 372.955 91.8355C373.035 91.4785 374.845 87.7363 375.042 87.4292C378.79 81.5751 384.267 83.3575 390.094 86.7479C391.128 87.3491 391.717 88.5002 391.656 89.6946L391.135 99.8029L390.34 107.443L391.66 107.537L388.155 128.497L385.571 153.386C385.542 153.657 385.548 153.927 385.588 154.198C385.661 154.694 385.788 155.652 385.907 157C391.514 170.617 383.54 189.939 381.34 194.794C381.822 195.444 381.533 196.201 380.471 196.722C379.166 197.362 377.139 197.423 375.688 196.918C375.273 196.784 374.861 196.638 374.458 196.47L374.269 196.409C374.235 196.246 374.234 196.074 374.247 195.898C374.049 195.525 374.092 195.126 374.382 194.764L374.378 194.571L373.286 181.684L372.023 166.783L369.41 142.038L369.392 141.732L369.073 112.275C369.066 111.684 369.158 110.328 369.301 108.689Z" fill="#90D98B"/>
<path d="M379.475 87.7379C376.243 87.4911 371.643 82.1581 369.443 79.4516C367.421 76.9577 365.678 74.1015 364.296 70.9802C363.682 69.5954 363.139 68.1555 362.673 66.6776C362.485 66.0816 362.396 65.5724 362.384 65.1431C362.334 62.6637 364.98 62.8094 367.036 63.4355C367.272 63.5077 367.5 63.5891 367.717 63.6691C370.564 64.7599 371.27 67.4809 372.366 70.1428C372.467 70.3974 372.576 70.652 372.693 70.9067C373.969 73.7313 375.96 77.2858 377.461 79.9254C378.29 81.3864 382.473 86.6813 381.345 86.0158L381.324 86.1956C381.177 87.1695 380.28 87.8022 379.475 87.7379Z" fill="#D18A73"/>
<path d="M370.847 80.0978C372.361 80.8446 373.944 81.5193 375.576 82.1086C376.233 82.3462 376.802 82.4722 377.285 82.5077C378.163 80.8696 378.92 79.2026 379.573 77.5067C380.946 73.947 381.83 70.277 382.203 66.5559L383.646 52.2094C383.812 50.4978 382.109 49.0158 379.878 48.9397L379.695 48.9358C377.717 48.9358 376.027 50.0659 375.77 51.5833L372.419 71.3061L370.983 79.7591L370.847 80.0978Z" fill="#D18A73"/>
<path d="M394.224 88.1479C397.665 87.1766 401.018 87.5651 403.923 89.2754C407.94 91.6394 410.915 96.5012 412.524 103.333C412.965 105.201 412.843 115.194 412.703 126.764C412.552 139.122 412.381 153.13 412.969 157.459C415.474 175.933 413.021 200.282 411.842 211.983C411.704 213.352 411.587 214.519 411.502 215.45C411.357 217.003 410.036 218.201 408.479 218.201H408.427C407.037 218.176 405.843 217.218 405.527 215.87C403.108 205.561 399.249 181.102 399.211 180.865L384.744 103.705C383.59 97.5316 388.286 89.8267 394.224 88.1479Z" fill="#90D98B"/>
<path d="M374.226 88.6222C375.439 85.4772 376.859 82.3599 378.446 79.358L380.909 74.6918L384.321 72.7727L397.37 74.8309L397.43 74.8925C397.493 74.9555 403.799 81.3951 409.632 95.2218L409.714 95.42L396.908 104.137L396.843 104.181L387.225 104.448L387.162 104.413C381.061 100.97 376.466 95.4253 374.222 88.802L374.191 88.7114L374.226 88.6222Z" fill="#90D98B"/>
<path d="M392.307 45.0639C392.227 45.2279 392.153 45.3801 392.085 45.5272L394.126 45.6532C393.526 45.4274 392.916 45.2279 392.307 45.0639Z" fill="#73B0DD"/>
<path d="M391.041 45.4604L391.015 45.5077C391.283 45.5812 391.551 45.6389 391.83 45.6862L392.004 45.7125L392.093 45.5287L391.041 45.4604Z" fill="#73B0DD"/>
<path d="M374.591 51.8292C374.334 52.9331 374.187 54.0107 374.148 54.9623C374.103 56.0977 374.529 57.3198 375.49 57.9235C376.833 58.7649 378.597 58.1283 379.959 57.3211C384.132 54.8508 387.504 50.0782 389.948 45.9607L389.958 45.9449C387.705 45.3385 385.736 43.8841 383.457 43.4457C382.948 43.3486 382.424 43.3014 381.878 43.325C377.893 43.4996 375.519 47.8442 374.591 51.8292Z" fill="#1A4A44"/>
<path d="M404.398 88.7945C404.124 88.2262 403.903 87.3416 403.73 87.0003C403.015 85.5906 403.06 83.6335 403.193 81.9403C403.282 80.7773 403.366 79.6144 403.44 78.4515C403.718 73.8968 403.851 69.325 403.835 64.7546C403.819 61.6609 402.577 55.2175 407.059 54.9379C415.102 54.4339 414.402 64.8439 414.35 71.3346C414.318 75.4797 414.051 79.8992 412.414 83.5232C411.924 84.6061 411.315 85.6168 410.551 86.5316C410.011 87.1787 409.332 87.8994 408.59 88.4782L404.398 88.7945Z" fill="#D18A73"/>
<path d="M376.866 64.3056L376.939 64.5379L380.785 75.2998C381.106 76.3683 381.957 77.2306 383.036 77.6204C389.859 80.0605 394.389 79.5761 396.766 78.5878C397.655 78.2137 399.459 77.4984 399.79 76.6203C401.768 71.3765 403.547 67.0148 406.403 62.0651C407.16 60.7499 408.012 59.4766 408.502 58.0407C408.991 56.6099 409.075 54.9535 408.318 53.6383C407.36 51.97 405.861 51.1182 404.173 50.5761C401.932 49.866 398.312 48.6558 396.234 47.8931C393.731 46.973 391.253 45.9899 388.754 45.0527L388.054 44.7902L385.661 43.8858C382.179 42.6861 378.981 45.7366 379.292 49.7872L379.544 53.0332L377.118 58.7508C376.393 60.4873 376.308 62.4601 376.866 64.3056Z" fill="#1A4A44"/>
<path d="M396.871 78.566L397.039 78.4794L396.871 78.566L396.527 78.7261L396.871 78.566ZM383.752 72.1003C387.437 70.2955 393.412 70.2955 397.074 72.1003C400.735 73.9051 400.717 76.84 397.031 78.6447C393.347 80.4482 387.37 80.4495 383.708 78.6447C380.047 76.84 380.067 73.9038 383.752 72.1003Z" fill="#1A4A44"/>
<path d="M396.71 79.7606L396.877 79.674L396.71 79.7606L396.368 79.9194L396.71 79.7606ZM383.644 73.3211C387.315 71.5229 393.266 71.5229 396.913 73.3211C400.559 75.118 400.539 78.0411 396.869 79.8394C393.199 81.635 387.248 81.6363 383.602 79.8394C379.954 78.0411 379.975 75.1167 383.644 73.3211Z" fill="#1A4A44"/>
<path d="M370.561 33.0512L370.568 33.0564C372.455 36.964 378.689 40.4161 381.391 41.5357C384.01 42.6226 386.751 43.4783 389.54 44.0427C391.811 44.51 394.12 44.7791 396.428 44.8329C396.854 44.8447 397.285 44.8447 397.711 44.8395C401.482 44.7948 405.237 44.153 408.823 42.7813C410.549 42.1172 419.866 38.7149 418.452 35.7236C416.268 31.1348 414.571 26.3163 413.408 21.3666C413.168 20.3677 412.955 19.3688 412.765 18.3594C411.852 13.5895 411.296 8.42589 408.152 4.73754C405.353 1.44559 400.871 -0.0586328 396.565 0.00174594C389.633 0.100189 383.203 3.91452 378.684 9.27641C377.973 10.1165 377.313 10.988 376.708 11.8937C376.539 12.1418 376.38 12.3886 376.222 12.6353C372.887 17.9145 371.08 23.9839 370.07 30.1911C369.913 31.1519 370.114 32.118 370.561 33.0512Z" fill="#E0B475"/>
<path d="M389.385 32.4099H397.601V49.9684H389.385V32.4099Z" fill="#D18A73"/>
<path d="M389.385 32.4099V42.9671C392.589 42.257 395.476 40.2632 397.601 37.7128V32.4099H389.385Z" fill="black" fill-opacity="0.1"/>
<path d="M397.861 12.6163C397.608 12.5336 397.353 12.4561 397.101 12.3866C392.217 11.0372 381.658 10.213 378.754 15.6261C376.787 19.2908 376.205 30.3558 377.516 33.9576C378.956 37.9137 383.409 40.2999 387.611 40.0203C391.648 39.7539 395.328 37.3702 397.861 34.2043V12.6163Z" fill="#D18A73"/>
<path d="M404.22 13.3781C405.144 11.0968 404.123 8.35876 402.271 6.73772C400.419 5.11537 397.913 4.44204 395.463 4.21234C390.027 3.70437 370.732 8.36271 377.759 16.8C383.957 24.2449 400.448 22.683 404.22 13.3781Z" fill="#E0B475"/>
<path d="M399.102 22.1822L399.391 22.0325L399.102 22.1822C398.909 22.2754 398.712 22.3673 398.514 22.4552C398.712 22.3673 398.909 22.2754 399.102 22.1822ZM376.621 11.1014C382.937 8.00893 393.176 8.00893 399.45 11.1014C405.724 14.1938 405.691 19.2236 399.375 22.3161C393.063 25.4085 382.822 25.4085 376.548 22.3161C370.272 19.2236 370.309 14.1925 376.621 11.1014Z" fill="#E0B475"/>
<path d="M396.021 33.4349C396.021 35.7083 397.994 36.9592 400.43 36.2281C402.866 35.4983 404.84 33.0635 404.84 30.7901C404.84 28.5167 402.866 27.2658 400.43 27.9969C397.994 28.7267 396.021 31.1629 396.021 33.4349Z" fill="#D18A73"/>
<mask id="mask0" mask-type="alpha" maskUnits="userSpaceOnUse" x="376" y="43" width="31" height="27">
<path d="M376.972 64.2244C377.69 65.1577 378.878 65.4635 380.063 65.9741C381.696 66.6777 383.342 67.3497 385.001 67.9903C388.531 69.3619 392.444 70.5564 395.885 69.0889C397.989 68.1951 408.914 55.4328 405.821 51.583L404.164 50.5829C397.896 48.5969 391.867 46.0177 385.654 43.8926C385.453 43.823 385.253 43.7705 385.059 43.7285C381.813 43.0447 378.988 45.9757 379.284 49.794L379.515 52.7342C379.525 52.9297 379.536 53.0399 379.536 53.0399L377.11 58.7576C376.554 60.0715 376.071 61.7214 376.454 63.1482C376.572 63.584 376.749 63.9344 376.972 64.2244Z" fill="#1A4A44"/>
</mask>
<g mask="url(#mask0)">
<path d="M389.227 53.8568C394.755 55.8821 399.122 50.9376 401.599 47.5236C401.814 47.2401 402.02 46.9605 402.23 46.6822C398.096 45.0048 393.885 43.4205 388.956 44.1253C386.766 48.5973 386.191 52.7424 389.227 53.8568Z" fill="#D18A73"/>
</g>
<path d="M402.344 51.918C404.917 51.032 407.734 51.6515 410.148 53.6716C412.259 55.437 413.897 57.8693 414.578 60.5653C415.165 62.8728 415.355 66.9063 413.115 68.152C410.693 69.5052 405.62 70.4306 403.195 68.7453C400.464 66.846 400.604 63.411 396.333 62.5171C395.859 62.4173 395.321 62.3215 395.052 61.9172C394.737 61.4447 394.962 60.8121 395.195 60.2949C396.212 58.053 397.339 55.8072 399.061 54.0497C400.066 53.0258 401.179 52.3183 402.344 51.918Z" fill="#1A4A44"/>
<path d="M402.904 224.236L403.12 223.671L404.713 212.312C404.891 212.491 405.13 212.66 405.432 212.808C406.923 213.543 409.357 213.543 410.857 212.808C411.067 212.706 411.244 212.593 411.396 212.475L411.566 213.492L413.311 222.97L413.666 224.889C413.666 224.889 412.622 229.268 408.279 230.029C406.654 230.312 404.992 229.712 403.828 228.549C403.048 227.769 402.64 226.737 402.64 225.681C402.64 225.195 402.724 224.703 402.904 224.236Z" fill="#FF5655"/>
<path d="M402.64 225.679C402.64 226.736 403.048 227.768 403.828 228.547C404.992 229.71 406.654 230.31 408.279 230.028C412.622 229.267 413.666 224.888 413.666 224.888L413.311 222.969C411.369 223.989 409.857 225.308 407.493 225.254C407.025 225.236 404.722 224.533 403.12 223.67L402.904 224.234C402.724 224.701 402.64 225.194 402.64 225.679Z" fill="#222222"/>
<path d="M411.437 151.068C417.242 164.932 418.458 181.035 414.829 195.982L410.579 213.488L406.372 159.588L411.437 151.068Z" fill="#8A67F7"/>
<path d="M368.743 70.0683C368.789 71.9939 370.013 73.7199 371.844 74.3172C372.847 74.644 374.018 74.8317 375.27 74.8317C376.682 74.8317 377.991 74.5928 379.071 74.1846C380.656 73.5874 381.75 72.1212 381.947 70.4398L381.967 70.2797C381.988 70.1012 381.998 69.9213 381.998 69.7402V60.728H381.821C381.135 59.0912 378.465 57.8692 375.27 57.8692C372.074 57.8692 369.405 59.0912 368.718 60.728H368.542V61.5484L368.743 70.0683Z" fill="#D0E9F5"/>
<path d="M381.998 61.1394C381.998 63.1752 378.986 64.8264 375.27 64.8264C371.554 64.8264 368.542 63.1752 368.542 61.1394C368.542 59.1023 371.554 57.451 375.27 57.451C378.986 57.451 381.998 59.1023 381.998 61.1394Z" fill="white"/>
<path d="M375.276 58.0639C372.379 58.0639 370.111 59.3804 370.111 61.0618C370.111 62.7432 372.379 64.0598 375.276 64.0598C378.171 64.0598 380.441 62.7432 380.441 61.0618C380.441 59.3804 378.171 58.0639 375.276 58.0639Z" fill="#1A4A44"/>
<path d="M371.16 68.5412C372.383 68.9455 375.024 69.7397 377.354 70.2857C379.269 70.3212 380.738 70.0822 381.646 69.867L381.867 66.7811C382.568 67.2838 383.336 68.2079 383.887 68.8445L384.069 69.0532C384.979 70.077 385.512 71.3883 385.402 72.7717C385.07 76.9208 381.226 76.9064 378.051 76.1713C375.884 75.6699 372.408 74.2563 371.501 71.9159C371.205 71.152 371.051 69.359 371.16 68.5412Z" fill="#D18A73"/>
<path d="M412.411 83.5229C412.311 83.2591 412.175 82.9861 412.007 82.7131C409.913 79.3358 406.709 79.1416 403.437 78.4512L403.369 78.4354C403.112 78.3829 402.848 78.3251 402.585 78.2621L402.422 78.2201C398.893 77.3315 394.332 75.7118 390.933 74.4806C389.581 73.991 385.463 71.7819 383.685 71.0718C382.996 70.7923 382.664 70.745 382.963 71.098L382.774 71.1716C381.744 71.6297 381.328 72.9646 381.655 73.991C381.87 74.6801 382.26 75.3745 382.764 76.0688C385.305 79.5564 390.923 82.9862 394.001 84.7542C397.072 86.5209 400.67 88.4202 404.395 88.7942C405.784 88.9308 407.187 88.8573 408.588 88.478L412.411 83.5229Z" fill="#D18A73"/>
<path d="M371.125 69.2758C373.862 70.7905 376.549 71.607 376.576 71.6227L376.466 72.044C376.428 72.0335 376.193 71.9627 375.81 71.8314C374.874 71.5085 373.057 70.8234 371.148 69.7957L371.125 69.2758Z" fill="black" fill-opacity="0.2"/>
<path d="M371.281 71.0423C373.65 72.75 375.943 73.8119 375.971 73.8276L375.801 74.2331C375.767 74.2226 375.544 74.1189 375.183 73.9326C374.394 73.5322 372.961 72.7552 371.423 71.6881L371.281 71.0423Z" fill="black" fill-opacity="0.2"/>
<path d="M151.779 79.1888L349.75 195.144L349.818 333.741L149.81 218.297L151.779 79.1888Z" fill="url(#paint0_linear)"/>
<path d="M349.75 195.144L406.5 160.811L449.754 137.421L449.768 275.73L349.764 333.452L349.75 195.144Z" fill="url(#paint1_linear)"/>
<path d="M249.884 21.6826L449.866 137.172L349.75 195.144L149.893 79.4274L249.884 21.6826Z" fill="url(#paint2_linear)"/>
<rect width="16.2743" height="11.6245" rx="1.41409" transform="matrix(0.866081 -0.499903 0.000112265 1 263.066 115.035)" fill="#1A4A44"/>
<path fill-rule="evenodd" clip-rule="evenodd" d="M266.561 119.733C266.561 119.52 266.711 119.262 266.895 119.155L274.228 114.922C274.412 114.816 274.562 114.902 274.562 115.115C274.562 115.328 274.412 115.586 274.228 115.692L266.895 119.925C266.711 120.032 266.561 119.945 266.561 119.733Z" fill="white"/>
<path d="M219.423 96.5316H228.919V116.826H219.423V96.5316Z" fill="#F09CAB"/>
<path d="M228.919 96.5316V108.734C225.217 107.913 221.879 105.609 219.423 102.66V96.5316H228.919Z" fill="black" fill-opacity="0.1"/>
<path d="M216.043 102.334C221.633 104.076 227.609 101.399 233.447 97.7475C233.852 97.4941 236.516 95.9416 234.36 97.1783C234.974 96.8266 235.545 96.3521 236.12 95.941C237.125 95.2219 238.12 94.4897 239.113 93.7541C239.903 90.7845 240.567 84.3383 241.12 81.3492C243.759 67.1008 206.379 58.2054 203.491 80.2161C202.662 86.5564 205.232 92.9156 209.342 97.6646C211.489 100.139 213.732 101.614 216.043 102.334Z" fill="#1A4A44"/>
<path d="M238.009 86.8143C237.542 88.7984 233.494 92.9141 229.691 96.4283C229.659 96.4942 229.63 96.56 229.596 96.6253C229.07 97.8437 228.295 98.8528 227.269 99.6526C226.955 99.9942 226.609 100.289 226.247 100.563L226.301 100.535L226.221 100.582C225.938 100.795 225.639 100.987 225.326 101.159L225.258 101.203C225.139 101.279 224.04 101.867 223.393 102.203C225.386 103.594 227.728 104.531 230.218 104.682C234.181 104.922 238.382 102.864 239.741 99.4503C240.824 96.73 240.537 89.0753 239.204 85.0895C238.861 85.7035 238.477 86.2968 238.009 86.8143Z" fill="#F09CAB"/>
<path d="M239.347 74.7714C235.487 73.867 227.57 71.7354 227.583 71.7189L222.668 77.7328V84.4642C225.227 88.0166 227.497 93.8812 232.178 93.0697C238.061 92.0501 244.934 86.1143 245.259 79.9621C245.339 78.4415 244.971 76.7373 243.716 75.8752C243.008 75.3889 242.124 75.2454 241.269 75.1648C240.981 75.1378 240.284 74.9908 239.347 74.7714Z" fill="#1A4A44"/>
<path d="M233.323 95.4044C233.323 98.0848 231.228 99.559 228.644 98.6975C226.059 97.836 223.964 94.9652 223.964 92.2842C223.964 89.6039 226.059 88.1297 228.644 88.9912C231.228 89.8527 233.323 92.7241 233.323 95.4044Z" fill="#F09CAB"/>
<path d="M269.431 129.997C268.41 133.294 265.467 135.311 262.855 134.502C260.244 133.694 258.955 130.367 259.974 127.071C260.995 123.775 263.938 121.758 266.549 122.566C269.161 123.374 270.45 126.701 269.431 129.997Z" fill="#F09CAB"/>
<path d="M261.542 127.759C260.672 127.49 260.184 126.566 260.453 125.696L262.319 120.063C262.589 119.192 265.086 115.382 265.956 115.651C266.827 115.921 266.804 116.335 266.535 117.206L263.605 126.671C263.336 127.542 262.412 128.029 261.542 127.759Z" fill="#F09CAB"/>
<path d="M251.095 140.73C252.548 139.338 255.233 136.449 257.775 133.525C257.941 133.331 258.108 133.143 258.275 132.949C259.687 131.313 261.023 129.703 262.048 128.368C262.194 128.41 262.341 128.451 262.494 128.478C262.75 128.524 263.007 128.551 263.264 128.571C263.385 128.617 263.514 128.667 263.651 128.724C264.71 129.172 266.144 129.978 266.844 131.262C266.809 131.409 266.774 131.55 266.732 131.692C266.22 133.707 265.555 135.682 264.755 137.598C264.677 137.781 264.599 137.969 264.516 138.153C261.365 145.45 256.245 151.899 249.797 156.548C245.187 159.879 240.287 158.044 240.488 154.264C240.751 149.367 248.242 143.465 251.095 140.73Z" fill="#F09CAB"/>
<path d="M247.258 139.981C244.33 141.808 240.784 141.408 239.337 139.089C237.89 136.77 239.09 133.41 242.017 131.583C244.945 129.757 248.49 130.156 249.938 132.475C251.385 134.794 250.185 138.154 247.258 139.981Z" fill="#F09CAB"/>
<path d="M226.367 136.11C228.377 136.007 232.297 135.577 236.134 135.027C236.386 134.989 236.635 134.956 236.887 134.919C239.026 134.604 241.089 134.26 242.738 133.92C242.821 134.047 242.906 134.175 243.004 134.295C243.167 134.498 243.344 134.686 243.525 134.869C243.587 134.984 243.651 135.105 243.717 135.238C244.226 136.27 244.784 137.817 244.473 139.246C244.351 139.334 244.232 139.418 244.108 139.499C242.403 140.688 240.608 141.747 238.75 142.673C238.571 142.761 238.389 142.852 238.206 142.937C231.051 146.397 222.96 147.928 215.041 147.228C209.375 146.733 206.868 142.14 209.492 139.412C212.894 135.879 222.421 136.314 226.367 136.11Z" fill="#F09CAB"/>
<path d="M203.11 283.038C204.316 284.261 206.48 283.832 208.161 283.25C209.39 282.826 210.708 282.362 212.025 281.827C213.183 281.356 214.34 280.833 215.43 280.227C217.343 279.163 219.046 277.852 220.179 276.176C220.352 275.929 220.389 275.593 220.362 275.229C220.249 273.676 218.128 273.453 216.634 273.647H216.602L215.93 273.747L215.495 273.806L212.795 274.064C212.131 274.129 208.873 273.623 206.397 273.476L206.286 273.406C206.109 273.359 205.939 273.312 205.774 273.265C205.521 273.312 205.286 273.376 205.062 273.441C204.21 273.459 203.61 273.565 203.528 273.835C203.287 274.588 203.092 275.352 202.922 276.123C202.74 276.946 202.604 277.787 202.51 278.622C202.451 279.116 202.41 279.604 202.381 280.092C202.316 281.121 202.351 282.268 203.11 283.038Z" fill="#F09CAB"/>
<path d="M202.381 280.093C202.41 279.581 202.434 279.087 202.581 278.611C203.816 279.358 205.068 280.004 206.58 279.928C207.432 279.881 208.261 279.634 209.079 279.393C211.49 278.676 215.286 278.217 217.015 276.176C217.268 275.882 217.526 275.565 217.628 275.188C217.998 273.842 216.553 274.248 215.93 273.748L216.602 273.648H216.634C218.128 273.454 220.249 273.677 220.362 275.23C220.389 275.594 220.352 275.929 220.179 276.176C219.046 277.852 217.343 279.164 215.43 280.228C214.899 280.469 214.394 280.687 213.958 280.898C213.319 281.204 212.672 281.516 212.025 281.827C210.708 282.363 209.39 282.827 208.161 283.251C206.48 283.833 204.316 284.262 203.11 283.039C202.351 282.268 202.316 281.122 202.381 280.093Z" fill="#F2584D"/>
<path d="M245.993 287.836L244.895 287.636L244.918 287.794C244.918 287.794 249.417 290.164 239.312 291.334C233.768 291.97 228.991 291.752 227.931 290.717C227.839 291.576 227.788 292.452 227.818 293.257C228.13 294.663 229.323 295.551 230.875 295.416L232.663 295.257L232.892 295.204C235.361 294.598 238.149 294.222 240.489 294.181C241.562 294.151 242.697 294.098 243.537 293.975C245.695 293.651 248.193 292.352 248.979 291.511C249.179 291.299 249.266 290.964 249.294 290.582C249.408 288.976 247.443 288.106 245.993 287.836Z" fill="#F2584D"/>
<path d="M244.919 287.792L244.896 287.634L242.174 287.016C240.363 286.61 236.994 285.099 235.165 283.835C231.717 283.317 229.656 284.793 228.643 285.875C228.351 287.763 227.993 290.156 227.932 290.715C228.993 291.75 233.769 291.968 239.313 291.332C249.418 290.162 244.919 287.792 244.919 287.792Z" fill="#F09CAB"/>
<path d="M215.904 180.301C216.521 179.502 216.906 178.563 216.899 177.543C216.83 168.388 225.527 161.062 234.657 160.201C235.198 160.15 234.554 160.154 235.399 160.178C236.014 160.195 236.62 160.251 237.228 160.332C237.35 160.348 237.439 160.359 237.508 160.366C237.523 160.377 237.566 160.396 237.66 160.427C238.095 160.569 238.522 160.719 238.944 160.896C239.056 160.943 239.14 160.975 239.212 161.002C239.275 161.053 239.356 161.114 239.479 161.201C239.834 161.452 240.18 161.709 240.514 161.988L240.571 162.034C240.609 162.085 240.666 162.156 240.746 162.255C241.041 162.615 241.326 162.973 241.597 163.35C241.687 163.491 241.838 163.73 241.915 163.886C242.123 164.302 242.324 164.72 242.503 165.15C242.686 165.591 242.852 166.04 242.999 166.495C243.032 166.595 243.049 166.641 243.057 166.658C243.067 166.717 243.09 166.832 243.138 167.051C243.578 169.079 243.808 171.759 243.773 173.14C243.724 175.043 244.355 176.831 245.6 178.024L242.799 207.528C242.652 216.335 242.26 226.986 241.477 239.772C240.741 247.124 240.006 254.475 239.27 261.831C238.831 266.224 238.444 270.622 237.939 275.009C237.639 277.62 237.315 280.225 236.902 282.824C236.566 284.935 237.015 288.252 235.717 289.987C234.163 292.069 231.444 291.316 230.151 289.552C229.353 288.47 229.269 286.947 229.004 285.594C228.266 281.819 227.534 278.044 226.857 274.251C224.999 263.848 223.452 253.351 222.786 242.762C222.498 238.18 222.374 233.575 222.578 228.97C222.64 227.554 222.54 225.209 222.333 222.265L215.904 180.301Z" fill="#F09CAB"/>
<path d="M200.806 236.856L200.812 236.815C201.236 233.906 201.677 231.919 201.871 231.096C201.941 230.806 201.976 230.51 201.971 230.209L201.953 228.28C201.941 226.437 201.929 224.588 201.912 222.746C201.753 200.505 202.018 178.218 212.373 157.89C213.834 155.009 216.558 151.805 219.529 152.906C221.11 153.492 222.056 155.149 222.759 156.725C228.493 169.59 224.341 181.202 222.99 194.2C222.129 202.487 221.656 210.93 220.39 219.158C220.379 219.263 220.362 219.367 220.345 219.465L217.785 232.382L217.616 233.24L216.051 241.132L215.028 246.327L212.156 262.533L209.674 276.553C209.633 276.811 209.645 277.099 209.656 277.399C209.792 277.664 209.798 277.946 209.668 278.211C209.656 278.34 209.639 278.464 209.603 278.581C209.533 278.593 209.468 278.599 209.392 278.622L209.327 278.646C209.18 278.775 209.004 278.905 208.786 279.011C207.481 279.675 205.352 279.675 204.052 279.011C203.435 278.699 203.123 278.293 203.1 277.882C202.964 277.717 202.829 277.54 202.694 277.376C202.541 275.488 202.417 273.606 202.018 271.76C201.365 268.732 200.883 265.791 200.542 262.951C199.207 251.937 199.971 242.61 200.806 236.856Z" fill="#F09CAB"/>
<path d="M222.382 159.122C222.382 159.122 223.614 165.176 235.166 166.345L232.294 160.755L223.641 156.779L222.382 159.122Z" fill="#FFA0A8"/>
<path d="M213.027 151.148L212.952 151.162C209.905 151.72 207.117 149.321 206.9 146.179L204.999 118.449C204.786 115.349 207.077 112.635 210.125 112.399C213.168 112.153 215.81 114.48 216.021 117.58L216.771 128.512L217.516 139.28C217.777 144.419 219.196 149.946 213.027 151.148Z" fill="#E1E6E5"/>
<path d="M210.912 131.76C212.053 136.429 211.988 142.852 213.705 147.16C213.756 147.282 213.807 147.399 213.858 147.517C215.565 151.441 218.283 151.747 223.186 151.875C225.357 151.93 227.564 151.926 229.685 151.513C230.251 151.401 230.817 151.258 231.367 151.084C233.992 150.259 236.454 148.516 237.545 145.992C238.988 142.669 237.887 138.576 239.599 135.39V134.217C241.098 130.14 243.85 127.234 242.48 122.055C242.337 121.52 242.174 121.016 242 120.521C241.954 120.465 241.913 120.414 241.867 120.363C239.452 117.411 235.634 114.796 231.444 113.048C227.111 111.229 222.371 110.331 218.364 110.928C215.841 111.305 213.605 112.274 211.935 113.976C211.706 114.2 211.482 114.455 211.288 114.715C207.719 119.608 209.618 126.449 210.912 131.76Z" fill="white"/>
<path d="M232.402 98.7985L232.349 98.8378C232.331 98.7592 232.331 98.6612 232.331 98.5826C232.331 98.6612 232.349 98.7398 232.402 98.7985Z" fill="#D7E9F9"/>
<path d="M218.567 114.547C220.306 117.096 225.877 116.387 231.438 113.048C227.105 111.229 222.365 110.331 218.358 110.928C217.884 112.35 217.925 113.619 218.567 114.547Z" fill="#F09CAB"/>
<path d="M231.396 124.098C227.369 130.774 229.685 144.127 229.685 151.513C230.251 151.401 230.817 151.258 231.367 151.084C233.992 150.259 236.454 148.516 237.545 145.992C238.988 142.669 237.887 138.576 239.599 135.39V134.217C241.098 130.14 243.85 127.234 242.48 122.055C242.337 121.52 242.174 121.015 242 120.521L241.954 120.389L241.872 120.363C236.463 119.36 233.254 121.018 231.396 124.098Z" fill="#F7FAFA"/>
<path d="M213.351 100.578C215.281 102.071 216.834 102.381 216.943 99.7593C216.994 98.5238 216.253 97.4189 215.72 96.3033C211.398 87.2574 222.952 87.3662 221.981 79.2C221.869 78.2567 221.599 77.4105 221.202 76.6667C219.953 74.3115 217.46 72.9249 214.723 72.4815C213.086 72.2216 211.363 72.298 209.769 72.7055C208.482 73.0372 207.106 73.4447 205.771 73.9852C201.225 75.824 204.342 88.5676 205.565 91.429C206.041 92.5345 210.199 98.1374 213.351 100.578Z" fill="black" fill-opacity="0.2"/>
<path d="M200.772 223.516C201.102 223.666 201.437 223.811 201.778 223.952C201.437 223.811 201.102 223.666 200.772 223.516C200.608 223.439 200.449 223.359 200.284 223.28C200.449 223.359 200.608 223.439 200.772 223.516ZM192.216 213.316C192.628 211.376 192.987 210.634 193.04 209.669C194.204 189.328 198.808 174.087 203.654 163.347C207.053 155.814 210.563 150.495 213.092 147.18C212.992 147.018 212.898 146.855 212.827 146.691C212.61 146.211 213.051 145.694 213.551 145.857C220.215 148.028 227.871 147.461 234.591 145.911C235.518 145.697 236.37 145.312 237.098 144.796C237.484 144.523 238.025 144.652 238.206 145.088C238.328 145.384 238.196 145.51 237.519 146.227C239.002 148.746 239.834 152.903 240.814 155.673C244.903 167.238 247.661 179.624 248.098 191.851C248.131 192.789 248.123 193.753 248.09 194.733L248.019 222.235L247.713 223.706C247.442 225.013 243.282 227.026 242.136 227.599C236.13 230.603 227.394 230.556 220.865 229.701C213.797 228.775 206.788 226.7 200.308 223.731C194.116 220.892 191.481 217.028 192.405 213.321L192.216 213.316Z" fill="url(#paint3_linear)"/>
<path d="M245.471 159.805C245.352 159.827 245.23 159.843 245.107 159.855C243.081 160.048 241.125 158.823 239.911 157.189C238.698 155.555 238.094 153.558 237.557 151.594C235.757 145.024 234.443 138.331 233.131 131.647C232.518 128.527 231.922 125.206 233.08 122.245C234.238 119.285 237.888 117.074 240.674 118.605C245.39 121.197 245.295 130.246 246.228 134.971C246.699 137.358 247.239 139.742 247.644 142.142C248.283 145.937 250.281 149.975 250.059 153.798C249.902 156.512 248.103 159.33 245.471 159.805Z" fill="white"/>
<path d="M212.683 67.5155C204.75 65.8425 199.158 70.6803 198.305 78.5431C197.964 81.6733 198.564 84.9105 197.717 87.9437C196.541 92.1864 192.842 95.1425 189.608 98.1322C186.374 101.122 183.222 105.016 183.698 109.393C184.151 113.465 187.685 116.792 187.767 120.888C187.979 131.522 176.806 136.218 188.608 145.79C189.102 146.192 189.631 146.624 189.802 147.238C190.213 148.697 188.449 149.748 187.703 151.067C186.656 152.914 188.02 155.53 190.09 156.01C192.154 156.489 194.377 155.048 195.1 153.052C195.853 150.965 195.2 148.554 196.029 146.494C197.482 142.854 202.357 142.345 205.567 140.093C208.802 137.825 210.284 133.346 209.043 129.598C206.45 121.77 202.521 120.08 210.172 114.13C215.636 109.877 217.221 101.388 213.659 95.4495C212.436 93.406 210.631 91.4584 210.683 89.0757C210.836 82.4742 220.868 82.0585 219.935 74.2698C219.479 70.4686 216.34 68.2882 212.683 67.5155Z" fill="#1A4A44"/>
<path d="M304.298 69.7845C304.298 66.6605 306.492 65.3941 309.197 66.9557L339.401 84.3894C342.106 85.9511 344.299 89.7495 344.299 92.8734L344.296 118.51C344.296 121.634 342.102 122.901 339.397 121.339L309.193 103.905C306.487 102.344 304.294 98.5451 304.295 95.4212L304.298 69.7845Z" fill="white"/>
<path d="M313.565 110.166C313.709 110.092 313.898 110.109 314.096 110.216L330.156 118.814C330.942 119.235 331.31 120.589 330.697 120.804L324.054 123.127C323.492 123.324 322.796 123.214 322.075 122.815L314.589 118.669C311.603 117.015 310.11 111.94 312.281 110.825L313.565 110.166Z" fill="#E1E6E5"/>
<path d="M314.321 94.9757C314.569 94.4015 315.17 94.2778 315.839 94.6637L326.618 100.886C327.688 101.503 328.468 103.12 328.198 104.159L323.187 123.431L308.59 115.346C307.422 114.699 306.608 112.872 307.041 111.869L314.321 94.9757Z" fill="url(#paint4_linear)"/>
<path d="M0.000910173 81.0236C0.000407499 76.546 3.1437 71.1017 7.02165 68.8633L82.9947 25.0116C86.8727 22.7733 90.0167 24.5885 90.0173 29.0661L90.021 62.8991C90.0216 67.3767 86.8783 72.821 83.0003 75.0594L7.02726 118.911C3.14931 121.149 0.0052111 119.334 0.00470842 114.857L0.000910173 81.0236Z" fill="url(#paint5_linear)"/>
<rect width="10.5921" height="12.7105" rx="4.05369" transform="matrix(0.866081 -0.499903 0.000112265 1 5.73438 77.5509)" fill="white"/>
<line x1="0.810738" y1="-0.810738" x2="19.0495" y2="-0.810738" transform="matrix(0.866081 -0.499903 0.000112265 1 20.6424 76.0962)" stroke="#919998" stroke-width="1.62148" stroke-linecap="round" stroke-linejoin="round"/>
<path d="M8.02856 82.5824L12.6154 79.9349" stroke="url(#paint6_linear)" stroke-width="1.62148" stroke-linecap="round" stroke-linejoin="round"/>
<path d="M6.88361 99.1325L26.9509 87.5496" stroke="#1A4A44" stroke-width="3.24295" stroke-linecap="round" stroke-linejoin="round"/>
<path d="M6.31134 108.996L79.7005 66.6361" stroke="#1A4A44" stroke-width="1.62148" stroke-linecap="round" stroke-linejoin="round"/>
<line x1="0.810738" y1="-0.810738" x2="8.45738" y2="-0.810738" transform="matrix(0.866081 -0.499903 0.000112265 1 76.2576 43.995)" stroke="#919998" stroke-width="1.62148" stroke-linecap="round" stroke-linejoin="round"/>
<path d="M98.0733 176.781C91.8933 178.66 76.1212 166.344 69.7954 167.813C69.4354 172.682 80.3116 191.63 83.1698 195.828C84.4748 197.746 86.1444 199.552 88.3921 200.62C90.6398 201.688 93.5507 201.895 95.7185 200.708C96.7058 200.168 97.4853 199.378 98.119 198.526C100.301 195.59 100.817 191.949 100.8 188.453C100.782 184.958 100.289 181.453 100.694 177.975L98.0733 176.781Z" fill="#7CB8D6"/>
<path d="M90.8967 198.91C91.6577 198.817 92.4158 198.601 93.1415 198.252C96.4789 196.647 97.8371 192.839 96.1751 189.747C92.3539 182.64 88.5327 175.534 84.7115 168.428C80.932 161.4 75.0026 141.701 64.8891 145.264C54.7652 148.83 69.2774 168.02 72.1021 173.272C76.0969 180.702 80.0923 188.132 84.0877 195.562C85.3892 197.981 88.156 199.245 90.8967 198.91Z" fill="#7CB8D6"/>
<path d="M101.059 175.508V175.912C101.05 178.012 101.114 180.069 101.227 182.18C101.245 182.507 101.261 182.843 101.166 183.14C101.035 183.546 100.715 183.824 100.407 184.083C98.5389 185.655 96.5163 186.216 93.9775 185.964C92.1789 185.786 90.3705 185.183 88.9839 184.199C88.1841 183.627 87.5834 182.986 87.1916 182.268L87.1152 182.132L87.2287 178.588C87.2466 178.103 87.1916 176.696 87.1193 175.163C87.0938 174.636 87.5984 174.333 88.0411 174.611C88.5649 174.941 89.0371 175.232 89.2443 175.38C91.7657 177.177 95.8132 177.578 98.2651 176.274C98.7993 175.993 100.23 175.721 100.524 175.317C100.579 175.332 100.634 175.357 100.699 175.383L101.059 175.508Z" fill="white"/>
<path d="M95.638 176.968L99.4146 158.903C99.1513 158.807 98.4847 158.321 98.2318 158.473L88.4047 163.768C88.2172 163.88 88.094 164.061 88.0529 164.271L84.8052 181.862C84.6877 182.494 85.3683 182.968 85.9186 182.64L86.5465 182.271L95.0934 177.276C95.2086 177.191 95.4407 177.085 95.638 176.968Z" fill="#11302D"/>
<path d="M85.7943 182.585L94.7434 177.355C94.9581 177.195 95.5715 176.969 95.6519 176.724L99.4436 158.894L89.3724 164.639C89.182 164.755 89.0472 164.946 89.0107 165.166L85.7943 182.585Z" fill="#1A4A44"/>
<path d="M86.0632 171.987L86.0655 171.985L96.1194 168.872L96.7658 168.62L98.2664 163.347L98.7044 163.448C99.3809 163.604 99.9 164.146 100.026 164.828L101.06 170.415L100.941 170.841C101.074 172.039 101.039 173.765 101.039 174.365C101.039 177.631 97.5395 180.278 93.2224 180.278C88.9052 180.278 85.4058 177.631 85.4058 174.365C85.4058 173.519 85.6413 172.715 86.0632 171.987Z" fill="#A87868"/>
<path d="M59.8412 321.23C58.5136 321.201 57.3568 322.26 56.8406 323.481C56.3244 324.703 56.3145 326.074 56.3122 327.399C56.3105 328.563 56.3614 329.859 57.1901 330.675C57.7248 331.201 58.4824 331.416 59.2063 331.612C60.568 331.983 61.9384 332.353 63.3435 332.475C64.9355 332.608 66.5501 332.423 68.1294 332.666C69.1364 332.816 70.1086 333.14 71.0999 333.377C73.902 334.031 76.8742 333.956 79.6393 333.157C80.2556 332.978 80.8951 332.741 81.2996 332.243C81.9697 331.416 81.7365 330.131 81.0641 329.303C80.391 328.481 79.3893 328.007 78.4223 327.567C75.512 326.23 72.6011 324.894 69.6908 323.557C66.8354 322.243 63.88 320.912 60.7393 320.837C59.7353 320.814 58.4129 321.271 58.5032 322.272L59.8412 321.23Z" fill="#1A4A44"/>
<path d="M81.455 331.566C81.0505 332.07 80.411 332.301 79.7947 332.481C77.0296 333.285 74.0574 333.36 71.2553 332.701C70.2634 332.469 69.2918 332.145 68.2848 331.995C66.705 331.752 65.0909 331.937 63.4989 331.798C62.0938 331.676 60.7235 331.306 59.3618 330.941C58.6378 330.745 57.8803 330.53 57.3455 330.004C56.7194 329.385 56.5371 328.493 56.4867 327.596C56.4711 327.99 56.4682 328.389 56.4677 328.789C56.4653 329.952 56.5168 331.248 57.3455 332.064C57.8803 332.591 58.6378 332.805 59.3618 333.002C60.7235 333.366 62.0938 333.736 63.4989 333.858C65.0909 333.997 66.705 333.812 68.2848 334.049C69.2918 334.205 70.2634 334.529 71.2553 334.761C74.0574 335.421 77.0296 335.345 79.7947 334.541C80.411 334.362 81.0505 334.124 81.455 333.627C81.9695 332.996 81.9487 332.087 81.6078 331.329C81.5615 331.41 81.5158 331.491 81.455 331.566Z" fill="#7CB8D6"/>
<path d="M35.8107 339.107L35.8009 340.102C35.6493 339.604 35.3223 339.136 34.9143 338.806C34.1799 338.215 33.2228 337.972 32.2841 337.874L32.2378 337.868C30.0283 337.642 28.0138 339.164 27.5045 341.323L26.2083 346.832L23.0751 355.687C22.9993 355.906 22.9426 356.115 22.8905 356.335C22.2123 359.373 24.2129 362.446 27.2505 362.77L28.644 362.915C32.3744 363.308 35.6255 360.229 35.6684 356.259L35.82 340.16L35.8298 339.147L35.8107 339.107Z" fill="#7CB8D6"/>
<path d="M35.8008 340.105L35.6682 353.861C35.6254 357.831 32.3742 360.898 28.6439 360.51L27.2504 360.371C25.0275 360.134 23.3591 358.427 22.8904 356.338C22.9425 356.118 22.9992 355.91 23.075 355.69L26.2081 346.835L28.0091 339.191C28.9379 338.074 30.7481 337.709 32.284 337.877C33.2226 337.975 34.1798 338.219 34.9142 338.809C35.3222 339.139 35.6491 339.607 35.8008 340.105Z" fill="#1A4A44"/>
<path d="M64.0079 310.332C62.4252 309.169 59.8592 309.169 58.2863 310.332C57.5004 310.916 57.1092 311.68 57.1126 312.45V322.352C57.1161 323.121 57.5137 323.885 58.3054 324.47C59.8875 325.633 62.4541 325.633 64.0264 324.47C64.8129 323.885 65.2035 323.121 65.2001 322.352H65.2006V312.45H65.2001C65.1972 311.68 64.799 310.916 64.0079 310.332Z" fill="#D0E9F5"/>
<path d="M35.7818 327.699C34.3536 326.35 31.8072 326.032 30.1035 326.998C29.2517 327.479 28.7702 328.19 28.6793 328.954L27.4675 338.786C27.3767 339.545 27.6782 340.355 28.3923 341.026C29.82 342.38 32.3668 342.693 34.0706 341.726C34.9224 341.246 35.4039 340.534 35.4942 339.776L36.7066 329.944C36.7969 329.186 36.4959 328.376 35.7818 327.699Z" fill="#D0E9F5"/>
<path fill-rule="evenodd" clip-rule="evenodd" d="M56.2247 311.083L56.3902 316.002C56.4839 318.879 58.6402 321.35 61.5858 321.749C64.87 322.189 67.8902 319.886 68.3318 316.598L68.988 311.726C69.1831 310.175 69.4203 308.288 69.6923 306.13C69.9242 304.319 70.1568 302.316 70.4083 300.152C70.4574 299.728 70.5073 299.299 70.5581 298.863C70.6026 298.48 70.6479 298.093 70.6936 297.7C70.9658 295.368 71.2563 292.879 71.5297 290.267C71.7797 287.95 72.0397 285.538 72.3074 283.054L72.5645 280.669L72.8709 277.592C73.1056 275.234 73.3449 272.831 73.587 270.401C73.7195 269.058 73.8529 267.707 73.9869 266.351L74.1084 265.121L74.436 259.573C74.8339 252.606 75.2325 245.639 75.6072 239.089L75.6322 238.651C75.9939 231.974 76.311 225.74 76.5703 220.398C76.6015 219.772 76.6319 219.158 76.6617 218.557C76.6954 217.876 76.7284 217.211 76.7607 216.564C76.7654 216.469 76.7701 216.373 76.7748 216.278C76.7851 216.071 76.7953 215.866 76.8052 215.663C76.8341 215.367 76.8185 215.074 76.6333 214.78C76.4852 214.51 76.2067 214.239 75.9319 213.972C75.9093 213.95 75.8867 213.928 75.8642 213.907C75.561 213.618 75.2763 213.334 75.0905 213.058C74.9267 212.825 74.857 212.597 74.7882 212.372C74.7753 212.33 74.7625 212.289 74.7491 212.247C74.716 212.142 74.6832 212.037 74.6505 211.934C74.6008 211.776 74.5517 211.62 74.5031 211.465C74.4638 211.332 74.4245 211.201 74.3856 211.071C74.2743 210.699 74.1661 210.337 74.0697 209.986C73.8011 209.038 73.5859 208.169 73.4007 207.384C73.0355 205.814 72.8422 204.583 72.7265 203.744C72.6148 202.905 72.5986 202.459 72.5986 202.459C72.4909 199.49 70.1912 196.992 67.1547 196.716C63.8596 196.416 60.9458 198.844 60.646 202.139C60.646 202.139 60.6055 202.584 60.4493 203.416C60.289 204.247 60.0297 205.467 59.5812 207.015C59.3549 207.789 59.0933 208.645 58.7745 209.578C58.6637 209.91 58.5412 210.252 58.4153 210.604C58.3649 210.745 58.3139 210.887 58.2629 211.031C58.2339 211.108 58.2048 211.186 58.1756 211.264C58.1097 211.44 58.043 211.618 57.9753 211.798C57.9599 211.839 57.945 211.88 57.9301 211.92C57.8493 212.141 57.7674 212.366 57.591 212.59C57.3908 212.857 57.0916 213.125 56.7733 213.396C56.7505 213.416 56.7277 213.436 56.7049 213.456C56.4153 213.709 56.1215 213.965 55.9585 214.228C55.7577 214.511 55.7264 214.803 55.7397 215.1L55.7362 216.003C55.7344 216.482 55.7326 216.97 55.7308 217.468C55.7281 218.189 55.7253 218.929 55.7224 219.687L48.1887 222.216C47.8926 221.088 47.6257 219.961 47.4022 218.835C47.1354 217.473 46.9126 216.113 46.8195 214.755C46.6268 211.929 44.4468 209.548 41.5307 209.205C38.2372 208.817 35.2534 211.173 34.8657 214.466C34.7066 215.818 34.4184 217.166 34.0868 218.513C33.7511 219.86 33.3512 221.206 32.9137 222.55C32.6892 223.223 32.4623 223.895 32.2187 224.567C32.1963 224.627 32.1754 224.687 32.1544 224.747C32.1168 224.855 32.0792 224.963 32.0335 225.07C31.9571 225.238 31.8466 225.404 31.7152 225.571C31.5242 225.801 31.2742 226.03 31.0243 226.259C30.9138 226.36 30.8032 226.461 30.6979 226.563C30.3402 226.893 30.0885 227.226 30.0133 227.562C29.9696 227.784 29.9735 228.006 29.9775 228.229C29.9795 228.345 29.9816 228.462 29.9768 228.578L29.9716 230.611L29.949 246.873L29.956 255.005L29.9982 263.138L30.0896 279.29L28.9299 291.894C28.7175 294.15 28.5208 296.407 28.3385 298.666L27.7731 305.442C27.5207 308.368 27.3033 311.298 27.0857 314.23C26.9676 315.822 26.8494 317.415 26.7256 319.007L26.2661 325.796L26.0561 329.193L25.861 332.595C25.6932 335.477 27.633 338.139 30.5439 338.793C33.7772 339.511 36.9826 337.474 37.7037 334.245L38.4456 330.917L39.1713 327.59L40.5833 320.934C40.8979 319.375 41.2179 317.816 41.538 316.258C42.1302 313.374 42.7224 310.49 43.2795 307.601L44.5868 300.928C45.0284 298.705 45.4555 296.479 45.8669 294.252L48.3658 280.891L48.4057 280.676L48.4508 279.847L49.3293 263.605L49.7639 255.484L50.1644 247.362L50.7085 235.774L55.6841 232.885C55.6826 234.593 55.6824 236.34 55.6836 238.118C55.6949 241.156 55.7064 244.286 55.7182 247.466C55.7323 251.287 55.7466 255.18 55.7612 259.074C55.7705 260.709 55.7794 262.344 55.7883 263.973L55.7895 264.204C55.7866 265.981 55.7837 267.752 55.7802 269.509C55.7773 273.022 55.7744 276.481 55.771 279.828C55.7795 281.005 55.7879 282.169 55.7962 283.316C55.8115 285.431 55.8264 287.491 55.841 289.48C55.852 292.126 55.8927 294.65 55.9307 297.012C55.9368 297.39 55.9428 297.763 55.9486 298.131C55.9553 298.555 55.9618 298.973 55.9681 299.385C56.002 301.581 56.0333 303.612 56.0835 305.447L56.0961 305.951C56.1452 307.917 56.1884 309.643 56.2247 311.083Z" fill="url(#paint7_linear)"/>
<path d="M45.7847 205.631L46.6928 205.633L45.3166 204.376L45.7847 205.631Z" fill="#746ECE"/>
<path d="M72.9933 150.155V200.98C72.9933 202.347 72.043 203.693 70.5494 204.453L67.6448 205.922L56.3445 211.639L55.2519 212.192C47.8358 215.944 39.1412 216.635 32.0145 214.044C32.132 210.096 32.2593 206.172 32.1268 202.312C31.8577 194.47 30.54 177.571 25.9942 170.532C23.2216 166.236 23.8293 164.581 26.1267 162.964C27.2338 162.186 28.7327 161.411 30.437 160.358C34.0568 158.12 37.6766 155.877 41.3016 153.638L45.1812 150.954C46.1459 150.288 47.209 149.734 48.3305 149.308L52.0481 147.907L59.3422 145.164C59.4596 145.095 59.5673 145.032 59.6847 144.968C65.69 141.72 72.9933 144.498 72.9933 150.155Z" fill="#877AE3"/>
<path d="M72.4998 150.643V204.897C72.4998 206.263 72.0392 207.611 70.5455 208.37L67.641 209.839L56.3406 215.555L55.248 216.109C47.8319 219.861 39.1374 220.552 32.0107 217.961L31.8637 217.906C31.8637 213.998 32.0303 210.094 32.1229 206.229C32.3683 195.712 32.0304 172.255 26.1229 162.962C27.23 162.184 28.7288 161.41 30.4331 160.356C34.0529 158.118 37.6727 155.875 41.2977 153.636L45.1774 150.952C46.1421 150.286 47.2052 149.733 48.3267 149.306L52.0443 147.905L59.3383 145.162C59.4558 145.094 59.5634 145.03 59.6809 144.966C65.6862 141.719 72.4998 144.986 72.4998 150.643Z" fill="#D0E9F5"/>
<path d="M56.3392 206.981V227.226C56.3392 230.978 52.7095 234.431 48.154 235.019L36.8634 234.73L32.3425 234.617C30.2656 234.563 28.7424 233.251 28.7523 231.516L28.9085 182.539L28.3824 180.515C27.4496 176.929 25.7036 173.606 23.2806 170.803V170.802L22.3153 167.09C22.6243 165.84 23.4571 164.63 24.7302 163.886L41.2963 153.634C41.9236 158.483 43.5202 163.112 46.048 167.344L49.6869 173.443C54.0712 180.79 56.3392 198.365 56.3392 206.981Z" fill="#7CB8D6"/>
<path d="M36.8766 214.071V234.315C36.8766 234.457 36.8714 234.594 36.8616 234.731L32.3407 234.619C30.2637 234.565 28.7406 233.252 28.7504 231.518L28.9067 182.54L26.9622 175.065L32.534 180.73C36.9183 188.077 36.8766 205.45 36.8766 214.071Z" fill="black" fill-opacity="0.1"/>
<path d="M79.2813 217.283L72.8421 147.974L72.827 147.909C72.1401 146.121 70.6216 144.714 68.5515 143.949C65.7645 142.918 62.4057 143.22 59.5677 144.755C59.4502 144.819 59.3362 144.883 59.2558 144.934L51.199 147.968L56.0845 149.086C61.5747 150.342 65.3368 154.255 65.6684 159.057C65.827 161.36 65.875 163.759 65.9173 165.877C65.9421 167.11 65.9653 168.274 66.007 169.323L67.3976 213.697V221.119C67.3976 222.043 67.8814 222.859 68.7251 223.358C69.2836 223.689 69.9462 223.853 70.6343 223.853C71.3826 223.853 72.1609 223.658 72.871 223.267L78.2744 219.289C78.9821 218.768 79.3583 218.017 79.2813 217.283Z" fill="#7CB8D6"/>
<path d="M53.0707 208.76L45.7118 207.155L31.2946 204.011C28.261 207.743 24.9201 211.217 21.4062 214.511L25.0214 215.301C27.5411 215.851 30.0602 216.401 32.5798 216.951C34.1273 217.289 35.6001 217.5 37.055 217.64L38.5903 216.401L46.0735 217.899C45.7414 218.491 45.4086 219.084 45.0758 219.677L45.0845 219.678C46.2842 220.557 47.6847 220.979 49.0753 220.979C51.1534 220.979 55.0134 219.599 56.3438 217.787C58.5476 214.774 59.7472 212.72 53.0707 208.76Z" fill="#A87868"/>
<path d="M61.2437 220.072C60.4641 220.635 55.0897 214.53 54.5272 213.751C53.9647 212.971 54.1423 211.872 54.9219 211.31C55.702 210.747 56.7998 210.925 57.3629 211.705L61.6383 217.632C62.2014 218.411 62.0238 219.51 61.2437 220.072Z" fill="#A87868"/>
<path d="M45.7093 207.155C45.7093 207.155 45.3077 207.773 44.7099 208.701C42.9234 211.457 39.354 216.959 39.1885 217.215C38.1694 218.786 32.8186 217.892 27.7989 216.673C23.8938 215.729 20.189 214.59 18.8788 214.258C16.138 213.576 13.197 212.677 11.535 210.393C8.61368 206.362 11.1941 200.875 12.2028 196.604C13.5529 190.902 15.1693 185.255 17.0368 179.698C18.2868 175.993 20.3597 164.92 24.8476 164.619C31.6994 164.157 33.1948 176.059 32.0507 180.762C32.0304 180.837 26.6444 202.999 26.6444 202.999L33.7324 204.545L45.3077 207.07L45.7093 207.155Z" fill="#7CB8D6"/>
<path d="M58.2319 157.768L57.5821 164.209C57.1428 165.465 55.5381 165.519 54.5051 164.313L51.1602 160.619L58.2319 157.768Z" fill="#F09CAB"/>
<path d="M61.305 157.568V159.526C61.305 160.309 60.7078 160.907 60.0556 160.766L54.7343 159.641L50.3125 164.892C49.6695 165.951 48.3744 166.032 47.6417 165.063C46.5225 163.567 45.2274 161.795 43.912 160.018C43.4855 158.934 43.144 157.829 42.9386 156.71C42.2407 152.97 44.0977 150.42 46.8738 149.17C48.4953 148.433 50.4328 148.146 52.3501 148.322C54.6342 148.528 56.8929 149.391 58.5694 150.952C58.7807 151.143 58.9809 151.354 59.1719 151.57C60.4769 153.051 61.305 155.044 61.305 157.568Z" fill="white"/>
<path d="M46.117 152.11C46.117 152.316 46.1373 152.517 46.1772 152.713L46.1222 152.999L46.117 152.11Z" fill="#FF5655"/>
<path d="M60.2041 142.587L58.5675 150.955L58.472 151.457L57.7342 155.221L57.6086 155.844L57.5485 155.834C56.9564 159.835 47.0426 157.054 46.1792 152.717L46.8719 149.173L48.5936 140.368C48.8193 139.204 49.3719 138.18 50.1294 137.372C50.3858 137.095 50.6717 136.845 50.9732 136.619C51.6555 136.111 52.4437 135.756 53.3071 135.569C53.9848 135.454 54.6624 135.439 55.3702 135.544C55.6914 135.61 56.0178 135.695 56.3141 135.78C57.5635 136.192 58.6127 137.03 59.3204 138.095C60.159 139.36 60.5253 140.951 60.2041 142.587Z" fill="#A87868"/>
<path d="M55.8693 164.505L57.1823 186.116L61.2287 197.008L61.4793 196.117C63.4671 189.047 63.2188 181.535 60.7692 174.611L57.2119 164.557L55.8693 164.505Z" fill="#F09CAB"/>
<path d="M58.4771 151.457C56.5697 151.08 54.778 150.222 53.1918 149.052C52.8903 148.831 52.6143 148.591 52.3533 148.324C50.943 146.919 50.1345 144.986 50.1345 142.963V137.372C50.3909 137.096 50.6768 136.845 50.9783 136.619C51.6606 136.111 52.4488 135.755 53.3122 135.57C53.9898 135.454 54.6675 135.439 55.3753 135.544C55.6965 135.61 56.0229 135.695 56.3192 135.78C57.5686 136.192 58.6178 137.03 59.3255 138.095C60.1641 139.359 60.5304 140.951 60.2092 142.587L58.5726 150.955L58.4771 151.457Z" fill="black" fill-opacity="0.2"/>
<path d="M45.3102 207.064L44.7124 208.696C42.9259 211.452 39.3565 216.953 39.191 217.209C38.1719 218.78 32.8211 217.887 27.8015 216.667L33.7349 204.539L45.3102 207.064Z" fill="white"/>
<path d="M64.3222 112.275C59.4848 108.507 50.2614 107.404 45.5582 111.037C42.3725 113.497 39.9934 117.406 38.869 121.581L38.8979 121.581C38.0941 124.236 37.9199 127.117 38.4077 129.831C39.5246 136.046 44.248 139.412 50.2452 141.459C60.7047 145.028 66.0913 145.191 71.545 137.208C71.784 136.858 72.0236 136.508 72.2626 136.158C72.8372 135.316 73.4177 134.465 73.7782 133.508C74.1648 132.481 74.2858 131.365 74.3112 130.259C74.4727 123.322 69.7522 116.504 64.3222 112.275Z" fill="#1A4A44"/>
<path d="M51.4244 121.729C51.6802 121.645 51.9372 121.567 52.193 121.496C57.1328 120.132 67.8122 119.298 70.7503 124.775C72.7393 128.481 73.3302 139.673 72.0032 143.316C70.546 147.318 66.0414 149.731 61.7914 149.449C59.2023 149.278 56.7584 148.246 54.6634 146.697C52.6183 145.186 51.4244 142.782 51.4244 140.239V121.729Z" fill="#A87868"/>
<path d="M44.9904 122.503C44.0558 120.196 45.0893 117.427 46.962 115.786C48.8347 114.146 51.37 113.464 53.8486 113.233C59.3469 112.719 78.8632 117.43 71.7561 125.965C65.4864 133.495 48.8052 131.916 44.9904 122.503Z" fill="#1A4A44"/>
<path d="M50.6991 132.391C50.5949 132.351 50.4959 132.309 50.3952 132.268C50.4965 132.309 50.5949 132.351 50.6991 132.391C50.9016 132.469 51.1076 132.543 51.3171 132.614C51.1076 132.543 50.9016 132.469 50.6991 132.391ZM72.3409 119.191C65.698 116.648 55.3837 117.576 49.3431 121.261C43.3026 124.945 43.7928 130.009 50.4352 132.552C57.0752 135.094 67.3924 134.167 73.4329 130.482C79.4735 126.798 78.981 121.732 72.3409 119.191Z" fill="#1A4A44"/>
<path d="M53.2744 140.09C53.2744 142.39 51.2772 143.655 48.8137 142.916C46.3501 142.177 44.353 139.713 44.353 137.414C44.353 135.115 46.3501 133.85 48.8137 134.589C51.2772 135.328 53.2744 137.791 53.2744 140.09Z" fill="#A87868"/>
<path d="M52.1699 141.456C51.3927 141.456 50.7562 140.82 50.7562 140.042V130.555C50.7562 129.777 51.3927 129.14 52.1699 129.14C52.9477 129.14 53.5843 129.777 53.5843 130.555V140.042C53.5843 140.82 52.9477 141.456 52.1699 141.456Z" fill="#1A4A44"/>
<defs>
<linearGradient id="paint0_linear" x1="349.75" y1="257.364" x2="215.735" y2="143.263" gradientUnits="userSpaceOnUse">
<stop stop-color="#E1E6E5"/>
<stop offset="1" stop-color="white"/>
</linearGradient>
<linearGradient id="paint1_linear" x1="399.751" y1="164.706" x2="460.319" y2="269.64" gradientUnits="userSpaceOnUse">
<stop stop-color="#D9DEDD"/>
<stop offset="1" stop-color="#E1E6E5"/>
</linearGradient>
<linearGradient id="paint2_linear" x1="249.822" y1="21.6826" x2="399.879" y2="108.553" gradientUnits="userSpaceOnUse">
<stop stop-color="white"/>
<stop offset="1" stop-color="#EDF0F0"/>
</linearGradient>
<linearGradient id="paint3_linear" x1="248.119" y1="186.386" x2="192.216" y2="186.386" gradientUnits="userSpaceOnUse">
<stop stop-color="#32BB94"/>
<stop offset="1" stop-color="#16B4BD"/>
</linearGradient>
<linearGradient id="paint4_linear" x1="317.432" y1="95.5834" x2="306.641" y2="114.279" gradientUnits="userSpaceOnUse">
<stop stop-color="#F7FAFA"/>
<stop offset="1" stop-color="white"/>
</linearGradient>
<linearGradient id="paint5_linear" x1="0.00285407" y1="98.3373" x2="90.025" y2="98.3272" gradientUnits="userSpaceOnUse">
<stop stop-color="#E1E6E5"/>
<stop offset="1" stop-color="#EAF0EF"/>
</linearGradient>
<linearGradient id="paint6_linear" x1="8.02862" y1="83.0702" x2="12.6157" y2="83.0697" gradientUnits="userSpaceOnUse">
<stop stop-color="#32BB94"/>
<stop offset="1" stop-color="#16B4BD"/>
</linearGradient>
<linearGradient id="paint7_linear" x1="25.851" y1="266.079" x2="76.8166" y2="266.079" gradientUnits="userSpaceOnUse">
<stop stop-color="#2B86A5"/>
<stop offset="1" stop-color="#2671A7"/>
</linearGradient>
</defs>
</svg>
