<svg width="200" height="200" xmlns="http://www.w3.org/2000/svg"><g fill="none" fill-rule="evenodd"><path d="M0 200h200V0H0z"/><path d="M44.859 88.019l8.943-12.434c1.352-1.88 3.687-3.613 5.188-3.851l5.874-.934c1.5-.24 3.712-2.143 4.913-4.232l9.217-16.028" stroke="#F2584D" stroke-width="3" stroke-linecap="round" stroke-linejoin="round"/><path d="M80.177 36.799l.005 48.993M73.105 40.88l.006 48.992m-7.078-44.91l.005 48.992m-7.077-44.91l.006 48.992m-7.078-44.91l.006 48.992m-7.078-44.91l.006 48.992" stroke="#F2584D" opacity=".3" stroke-linecap="round" stroke-linejoin="round"/><path d="M91.915 60.18c-2.996-5.459-7.896-2.63-10.89 6.285L69.659 100.31c-2.994 8.916-.543 13.383 5.447 9.925l22.738-13.123c5.989-3.458 8.439-10.753 5.444-16.212L91.914 60.18z" fill="#F2584D"/><path d="M85 88.205l.913-13.747 3.615-2.087-1.784 14.25-2.743 1.584zm2.365 2.091c.326.284.49.768.49 1.452 0 .805-.216 1.634-.644 2.483-.427.852-.933 1.445-1.513 1.78-.508.293-.925.298-1.252.014-.328-.284-.49-.778-.49-1.483 0-.784.216-1.605.653-2.46.434-.855.944-1.449 1.525-1.785.492-.284.903-.284 1.23 0z" fill="#F09CAB"/><path d="M132.652 160.072c-3.11 1.797-8.202 1.797-11.313 0l-48.79-28.177c-3.112-1.797-3.112-4.737 0-6.533l19.798-11.435c3.112-1.796 8.202-1.796 11.314 0l48.79 28.177c3.112 1.797 3.112 4.737 0 6.533l-19.799 11.435z" fill="#F2584D" opacity=".5"/><path d="M112.003 123.568c-.216-1.442-2.415-2.507-4.911-2.379l-3.805.194-.37 2.413.034.227c.216 1.441 2.414 2.507 4.91 2.38l-.312.016c.109-.002.218-.005.324-.01 2.52-.124 4.345-1.4 4.13-2.84" fill="#F09CAB" opacity=".6"/><path d="M102.95 124.023l-.033-.228.664-4.332c-.191.498-.617.971-1.272 1.35-1.772 1.022-8.343 1.124-8.358 1.124 0 0 0-.012.004-.034l-.008.034c-.16 1.01-.264 2.005-.176 2.563.224 1.435 2.42 2.502 4.91 2.378l9.18-.476c-2.495.128-4.694-.938-4.91-2.379" fill="#F09CAB" opacity=".8"/><path d="M98.022 119.572c-.59-.34-.589-.894.002-1.235.591-.34 1.55-.342 2.14 0 .59.34.588.892-.002 1.234-.593.341-1.55.342-2.14.001m5.56-.108l.042-.278c.22-1.44-1.623-2.71-4.12-2.836-2.496-.124-4.699.944-4.92 2.385 0 0-.365 1.527-.617 3.067l-.016.135c.016 0 6.587-.102 8.359-1.125.653-.378 1.08-.85 1.272-1.348M125.582 139.654l-13.435-7.759c-.782-.45-.782-1.182 0-1.634.78-.45 2.046-.45 2.828 0l13.435 7.76c.78.45.78 1.182 0 1.633-.781.451-2.047.451-2.828 0M134.067 154.355c.78-.45.78-1.182 0-1.633l-48.791-28.178c-.781-.45-2.047-.45-2.828 0-.781.453-.781 1.184 0 1.635l48.79 28.175c.78.451 2.048.451 2.829 0M121.339 153.538c.78-.45.78-1.183 0-1.633l-41.72-24.094c-.78-.45-2.047-.45-2.828 0-.781.452-.781 1.183 0 1.634l41.719 24.093c.782.451 2.048.451 2.829 0" fill="#F09CAB"/></g></svg>