<svg width="321" height="194" viewBox="0 0 321 194" fill="none" xmlns="http://www.w3.org/2000/svg">
<path fill-rule="evenodd" clip-rule="evenodd" d="M59.7784 25.3107L56.8364 26.7301L53.8647 20.5768L56.8061 19.1567L59.7784 25.3107ZM108.978 114.19L112.56 114.779L113.793 107.287L110.212 106.698L108.978 114.19ZM131.813 56.8561L129.609 50.3884L126.517 51.4402L128.72 57.9092L131.813 56.8561ZM187.465 82.5718L183.868 82.0844L182.849 89.6084L186.446 90.0958L187.465 82.5718ZM242.082 168.465L239.182 169.968L242.328 176.035L245.228 174.531L242.082 168.465ZM168.657 146.983L166.269 140.581L169.33 139.44L171.717 145.843L168.657 146.983Z" fill="#F2584D"/>
<path fill-rule="evenodd" clip-rule="evenodd" d="M300.472 5.8244L298.041 5.08378L299.592 0L302.023 0.741278L300.472 5.8244ZM229.911 36.0409L233.462 35.2956L231.903 27.865L228.351 28.6095L229.911 36.0409ZM254.175 48.5902L256.559 47.7121L254.72 42.7256L252.336 43.6037L254.175 48.5902ZM232.245 123.881L235.843 123.395L234.823 115.87L231.226 116.357L232.245 123.881ZM218.805 66.1783L221.786 67.5135L218.991 73.7504L216.01 72.4145L218.805 66.1783ZM308.669 114.399L310.22 112.387L314.431 115.632L312.88 117.644L308.669 114.399ZM288.37 80.5754L285.584 82.8999L290.452 88.7283L293.238 86.4038L288.37 80.5754ZM303.842 75.9455L302.078 69.3443L305.233 68.5004L306.998 75.1029L303.842 75.9455ZM277.773 41.8196L281.392 42.1005L281.98 34.5311L278.362 34.2502L277.773 41.8196ZM317.823 17.1806L315.435 10.7781L318.496 9.63686L320.884 16.0407L317.823 17.1806ZM219.502 101.265L216.378 100.313L214.384 106.849L217.508 107.801L219.502 101.265ZM275.413 160.12L275.129 163.046L269.004 162.451L269.288 159.525L275.413 160.12ZM259.324 123.301L259.102 125.577L263.866 126.039L264.087 123.764L259.324 123.301ZM234.304 139.319L239.531 136.073L241.084 138.57L235.855 141.816L234.304 139.319ZM306.404 156.016L308.835 156.757L310.385 151.674L307.955 150.933L306.404 156.016ZM292.724 165.293L292.06 161.726L299.528 160.338L300.191 163.904L292.724 165.293ZM315.551 166.123L317.939 172.525L321 171.386L318.613 164.982L315.551 166.123ZM43.1206 4.64535L44.8973 6.98697L49.8009 3.27L48.0242 0.927734L43.1206 4.64535ZM127.678 24.3004L124.068 23.9169L123.264 31.4666L126.873 31.8501L127.678 24.3004ZM65.4012 71.635L61.7919 72.0191L62.5966 79.5688L66.2052 79.1853L65.4012 71.635ZM127.785 144.29L124.689 145.331L122.509 138.855L125.605 137.814L127.785 144.29ZM38.9102 147.098L41.3186 146.289L43.0137 151.326L40.606 152.136L38.9102 147.098ZM77.1904 129.597L74.249 128.178L77.2207 122.024L80.1627 123.444L77.1904 129.597ZM65.2177 159.525L61.6466 160.169L62.9929 167.641L66.5646 166.997L65.2177 159.525ZM10.919 111.154L8.06713 113.398L3.36816 107.433L6.21939 105.189L10.919 111.154ZM13.9289 151.979L17.5382 152.363L16.7334 159.912L13.1248 159.529L13.9289 151.979ZM80.568 95.6391L77.472 94.5978L79.652 88.1216L82.748 89.1622L80.568 95.6391ZM140.667 81.3851L138.258 80.5754L136.563 85.6132L138.971 86.4222L140.667 81.3851ZM102.357 78.6598L105.963 78.2533L106.815 85.7984L103.209 86.2043L102.357 78.6598ZM23.6268 31.2317L23.259 34.1475L29.3648 34.9178L29.7326 32.0006L23.6268 31.2317ZM38.5728 69.2153L38.2866 71.4839L33.5383 70.8853L33.8239 68.6167L38.5728 69.2153ZM63.7689 56.1795L58.4514 59.2755L56.9715 56.7353L62.2896 53.6393L63.7689 56.1795ZM167.808 52.9106L170.873 51.7819L173.237 58.1937L170.172 59.3217L167.808 52.9106ZM174.97 173.181L171.351 172.9L171.94 165.33L175.558 165.611L174.97 173.181ZM156.716 116.193L159.146 116.934L160.697 111.851L158.267 111.11L156.716 116.193ZM195.117 117.815L191.524 118.324L190.457 110.807L194.051 110.298L195.117 117.815ZM256.419 190.145L254.577 187.854L249.781 191.71L251.624 194L256.419 190.145Z" fill="#32BBAB"/>
<path fill-rule="evenodd" clip-rule="evenodd" d="M258.986 16.0721L265.411 18.4038L266.526 15.3347L260.1 13.0037L258.986 16.0721ZM168.98 28.1018L175.262 25.4077L173.974 22.4076L167.692 25.1012L168.98 28.1018ZM90.7388 30.2415L89.7143 33.3428L83.2216 31.1985L84.2468 28.0972L90.7388 30.2415ZM106.079 45.1031L102.926 43.3061L99.1632 49.9014L102.316 51.6984L106.079 45.1031ZM2.63342 91.7312L6.67763 86.2225L4.04488 84.2907L0 89.7994L2.63342 91.7312ZM51.3846 101.357L48.2314 103.154L51.9946 109.75L55.1472 107.953L51.3846 101.357ZM18.9588 133.634L12.6023 136.148L13.8032 139.184L20.1604 136.67L18.9588 133.634ZM101.922 152.996L103.226 146.289L106.432 146.912L105.128 153.62L101.922 152.996ZM119.548 171.675L125.903 169.162L127.105 172.197L120.748 174.711L119.548 171.675ZM29.2227 176.012L35.5792 178.525L34.3783 181.561L28.0212 179.048L29.2227 176.012ZM31.7566 98.7594L32.8443 92.7054L29.9503 92.1858L28.8633 98.2404L31.7566 98.7594ZM46.5596 44.1193L46.6273 47.3831L39.7911 47.5264L39.7234 44.2607L46.5596 44.1193ZM18.4465 53.9463L12.0907 51.4331L10.8891 54.4686L17.2456 56.9825L18.4465 53.9463ZM245.397 93.7072L248.497 91.8214L244.548 85.3353L241.447 87.2217L245.397 93.7072ZM283.194 57.9168L276.912 60.611L275.624 57.6103L281.907 54.9168L283.194 57.9168ZM192.287 50.2313L193.399 43.49L190.176 42.9579L189.064 49.6998L192.287 50.2313ZM290.521 107.56L294.406 101.938L297.093 103.794L293.207 109.416L290.521 107.56ZM195.548 153.186L192.345 151.48L195.918 144.78L199.12 146.486L195.548 153.186ZM209.019 162.776L208.083 165.905L214.634 167.864L215.57 164.735L209.019 162.776ZM264.184 101.867L265.098 95.7844L268.005 96.2205L267.091 102.304L264.184 101.867ZM251.697 147.556L251.859 150.817L258.688 150.48L258.527 147.218L251.697 147.556ZM286.115 142.517L279.69 140.186L280.804 137.117L287.229 139.448L286.115 142.517Z" fill="#E0B475"/>
<g filter="url(#filter0_d)">
<circle cx="160" cy="97" r="60" fill="url(#paint0_linear)"/>
</g>
<path d="M160.424 75C165.459 75 169.277 76.92 171.88 80.76C174.525 84.6 175.848 90.1253 175.848 97.336C175.848 104.589 174.525 110.157 171.88 114.04C169.277 117.88 165.459 119.8 160.424 119.8C155.389 119.8 151.549 117.88 148.904 114.04C146.301 110.157 145 104.589 145 97.336C145 90.1253 146.301 84.6 148.904 80.76C151.549 76.92 155.389 75 160.424 75ZM160.424 81.208C157.992 81.208 156.221 82.4453 155.112 84.92C154.003 87.352 153.448 91.4907 153.448 97.336C153.448 103.224 154.003 107.405 155.112 109.88C156.221 112.355 157.992 113.592 160.424 113.592C162.856 113.592 164.627 112.376 165.736 109.944C166.845 107.469 167.4 103.267 167.4 97.336C167.4 91.448 166.845 87.288 165.736 84.856C164.627 82.424 162.856 81.208 160.424 81.208Z" fill="white"/>
<path d="M142.678 86.596C142.678 88.0333 142.23 89.2467 141.334 90.236C140.438 91.2067 139.178 91.8413 137.554 92.14V96.424H134.81V92.28C132.421 92.1307 130.451 91.2907 128.902 89.76L130.806 87.66C132.169 88.9293 133.746 89.564 135.538 89.564C136.565 89.564 137.395 89.3213 138.03 88.836C138.665 88.3507 138.982 87.6693 138.982 86.792C138.982 86.2507 138.87 85.8027 138.646 85.448C138.441 85.0933 138.077 84.776 137.554 84.496C137.031 84.216 136.275 83.9267 135.286 83.628C133.289 83.0307 131.851 82.2933 130.974 81.416C130.097 80.5387 129.658 79.4093 129.658 78.028C129.658 76.6653 130.125 75.5267 131.058 74.612C132.01 73.6973 133.261 73.1373 134.81 72.932V68.844H137.554V72.96C138.487 73.0907 139.318 73.3427 140.046 73.716C140.793 74.0707 141.493 74.556 142.146 75.172L140.326 77.216C139.71 76.656 139.066 76.2453 138.394 75.984C137.722 75.7227 136.994 75.592 136.21 75.592C135.351 75.592 134.651 75.788 134.11 76.18C133.587 76.5533 133.326 77.0947 133.326 77.804C133.326 78.2707 133.429 78.6627 133.634 78.98C133.858 79.2787 134.241 79.568 134.782 79.848C135.323 80.1093 136.117 80.3987 137.162 80.716C139.01 81.2947 140.391 82.0133 141.306 82.872C142.221 83.7307 142.678 84.972 142.678 86.596Z" fill="white"/>
<defs>
<filter id="filter0_d" x="80" y="22" width="160" height="160" filterUnits="userSpaceOnUse" color-interpolation-filters="sRGB">
<feFlood flood-opacity="0" result="BackgroundImageFix"/>
<feColorMatrix in="SourceAlpha" type="matrix" values="0 0 0 0 0 0 0 0 0 0 0 0 0 0 0 0 0 0 127 0"/>
<feOffset dy="5"/>
<feGaussianBlur stdDeviation="10"/>
<feColorMatrix type="matrix" values="0 0 0 0 0.196078 0 0 0 0 0.733333 0 0 0 0 0.670588 0 0 0 0.3 0"/>
<feBlend mode="normal" in2="BackgroundImageFix" result="effect1_dropShadow"/>
<feBlend mode="normal" in="SourceGraphic" in2="effect1_dropShadow" result="shape"/>
</filter>
<linearGradient id="paint0_linear" x1="100" y1="95.5366" x2="220" y2="95.5366" gradientUnits="userSpaceOnUse">
<stop stop-color="#32BB94"/>
<stop offset="1" stop-color="#16B4BD"/>
</linearGradient>
</defs>
</svg>
