<svg width="305" height="473" xmlns="http://www.w3.org/2000/svg"><defs><linearGradient x1="0%" y1="20.809%" y2="79.471%" id="a"><stop stop-color="#FFF" offset="0%"/><stop stop-color="#E1E6E5" offset="26.007%"/><stop stop-color="#E1E6E5" offset="68.027%"/><stop stop-color="#FFF" offset="100%"/></linearGradient></defs><g fill="none" fill-rule="evenodd"><path fill="#EADCC7" d="M148.438 247.585l-35.36 20.41-.005-44.094 35.36-20.41z"/><path d="M0 256.206l123.037 71.054c7.778 4.491 7.778 8.575 0 13.067L70.71 370.545c-7.777 4.492-7.777 11.843 0 16.334l148.493 85.755 28.285-16.334-123.037-71.054c-7.779-4.492-7.779-8.576 0-13.067l52.326-30.219c7.778-4.49 7.778-11.842 0-16.334L28.284 239.872 0 256.206z" fill="url(#a)"/><path fill="#E0B475" d="M127.61 255.237l-1.768-1.021-.002 12.249 1.77 1.02z"/><path fill="#F9EDD4" d="M113.073 267.994l-35.36-20.41.005-44.093 35.36 20.41z"/><path fill="#38C6B1" d="M79.481 248.605l.002-22.047 10.608 6.123-.002 22.047z"/><path fill="#E0B475" d="M86.553 250.237l-3.536-2.04v-2.45l3.536 2.04z"/><path d="M111.309 235.129l-8.84-5.103-.001 7.35 8.84 5.102v-7.35zm-10.608-6.123l-8.84-5.103-.001 7.35 8.84 5.102v-7.35zm-12.377 5.105l-7.072-4.082-.002 12.248 7.072 4.082.002-12.248zm22.984 10.816L91.86 233.702l-.002 19.597 19.448 11.226.002-19.598zm-21.216-14.695l-10.608-6.123v-7.35l10.609 6.124-.001 7.349z" fill="#8ED2F4"/><path fill="#FFF" d="M86.555 237.989l-3.536-2.041v-2.45l3.536 2.042z"/><path fill="#90D98B" d="M98.931 240.233l-1.768-1.021-.002 17.148 1.768 1.021z"/><path fill="#2B7DA5" d="M107.77 252.685l-1.768 1.429-1.767-3.47-1.768 1.429-.001 2.45 1.768 1.02v4.899l3.536 2.04v-4.898l1.769 1.02v-2.45zM100.699 243.703l-2.652.92-2.652-3.982-1.768 1.43v2.45l1.768 1.02-.001 7.35 5.304 3.061v-7.35l1.769 1.021v-2.45z"/><path fill="#38C6B1" d="M114.84 220.014h-3.85l-31.874-18.435-3.168-4.024 33.59-19.398 40.021 21.806-3.439 4.424-27.166 15.627z"/><path fill="#32BBAB" d="M114.846 224.921L75.95 202.47v-4.899l38.896 22.451 1.515 2.09z"/><path d="M113.073 267.994l-35.357-44.906-.003 24.496 35.36 20.41zm.005-44.094l-35.36-20.409v4.9l35.36 22.858V223.9zm-1.77 16.005l-31.824-20.574.001-2.572 31.823 18.37v4.776z" fill="#000" opacity=".1"/><path fill="#E0B475" d="M72.179 230.846l-1.768-1.021-.002 19.598 1.768 1.02z"/><path d="M133.244 251.003a6.25 6.25 0 1 1-12.5 0 6.25 6.25 0 0 1 12.5 0M79.744 226.003a8.75 8.75 0 0 1-8.75 8.75 8.75 8.75 0 0 1-8.75-8.75 8.75 8.75 0 0 1 8.75-8.75 8.75 8.75 0 0 1 8.75 8.75" fill="#90D98B"/><path fill="#31AD9B" d="M149.56 204.882l-34.719 20.039v-4.899l34.718-20.059z"/><path d="M171.93 161.505c0 3.233-1.91 4.776-4.244 3.43l-62.233-35.922c-2.334-1.347-4.243-5.095-4.243-8.329l.007-61.73c.001-3.233 1.91-4.778 4.244-3.43l62.234 35.92c2.333 1.349 4.242 5.096 4.242 8.33l-.007 61.73z" fill="#D0E9F5"/><path d="M89.184 148.04c-.39-.225-.707-.846-.707-1.387l.017-146c0-.541.316-.796.707-.571.39.226.707.847.707 1.388l-.016 145.999c0 .542-.317.798-.708.572" fill="#E1E5E5"/><path d="M96.27 29.64c0 5.412-3.167 7.971-7.073 5.716-3.906-2.254-7.072-8.468-7.07-13.88 0-5.412 3.166-7.97 7.072-5.717 3.906 2.255 7.071 8.47 7.071 13.881" fill="#E1E5E5"/><path fill="#E0B475" d="M154.252 131.702l-1.413-.816-.002 9.798 1.415.817z"/><path d="M157.082 130.396c0 2.706-1.583 3.985-3.537 2.858-1.952-1.127-3.535-4.234-3.535-6.94 0-2.706 1.584-3.985 3.537-2.858 1.952 1.127 3.535 4.234 3.535 6.94" fill="#90D98B"/><path fill="#F9EDD4" d="M151.423 137.908l-28.288-16.328.004-35.275 28.288 16.328z"/><path fill="#38C6B1" d="M124.55 122.397l.001-17.638 8.486 4.9-.002 17.636z"/><path fill="#E0B475" d="M130.207 123.703l-2.829-1.633v-1.96l2.83 1.634z"/><path d="M150.011 111.616l-7.072-4.082v5.879l7.072 4.082v-5.88zm-8.486-4.898l-7.072-4.082v5.879l7.071 4.08.001-5.877zm-9.902 4.084l-5.658-3.266v9.798l5.657 3.266.001-9.798zm18.387 8.653l-15.558-8.981-.002 15.678 15.56 8.98v-15.677zm-16.972-11.756l-8.486-4.9v-5.878l8.486 4.898v5.88z" fill="#8ED2F4"/><path fill="#FFF" d="M130.208 113.904l-2.829-1.633.001-1.96 2.828 1.633z"/><path fill="#90D98B" d="M140.11 115.7l-1.416-.817v13.718l1.414.816z"/><path fill="#2B7DA5" d="M147.18 125.66l-1.414 1.144-1.414-2.776-1.414 1.143-.001 1.96 1.415.817-.001 3.919 2.829 1.633v-3.92l1.415.817v-1.96zM141.524 118.476l-2.123.735-2.12-3.184-1.416 1.143v1.96l1.415.816v5.88l4.243 2.448v-5.88l1.415.818v-1.96z"/><path fill="#32BBAB" d="M152.841 103.45l-31.117-17.96.001-3.92 31.116 17.96z"/><path d="M151.423 137.908l-28.286-35.925-.002 19.597 28.288 16.328zm.004-35.275l-28.288-16.328v3.92l28.287 18.287v-5.879zm-1.416 12.902L124.55 98.88v-1.96l25.46 14.696v3.92z" fill="#000" opacity=".1"/><path fill="#E0B475" d="M120.308 108.19l-1.415-.816-.002 15.677 1.415.817z"/><path d="M124.55 107.7c0 3.787-2.216 5.58-4.95 4-2.734-1.578-4.95-5.928-4.95-9.716 0-3.788 2.217-5.58 4.952-4.002 2.734 1.578 4.949 5.928 4.949 9.717" fill="#90D98B"/><path d="M161.32 180.408c0 .424-.24.633-.53.465l-.28-.161c.256.212.455.647.455 1.034 0 .424-.238.633-.53.465l-.116-.067-.014.067c.181.228.306.566.306.873 0 .424-.238.634-.53.465l-.353-.204a.71.71 0 0 1-.113-.083c-1.379-.607-2.482-1.583-3.247-2.37l.001-5.141c.705.407.68-.2 1.147-.607.44-.381.728-.463.728-1.393.001-.67.604-.362.868.298.5 1.25-.706 2.353.455 3.023.047.027.091.059.134.093.01.004.018.006.027.012l1.061.612c.292.168.53.653.53 1.077 0 .424-.238.633-.53.465.292.168.53.653.53 1.077zm-5.659.59c0 .283-.159.422-.354.31l-.884-.51c-.097-.057-.176-.218-.176-.36v-5.353c0-.142.08-.211.177-.155l.884.51c.195.112.354.435.354.718v4.84zm2.123-12.96c-3.905-2.254-7.072.306-7.073 5.717 0 5.412 3.166 11.626 7.071 13.88 3.906 2.255 7.073-.304 7.073-5.716.001-5.411-3.165-11.626-7.07-13.881z" fill="#32BBAB"/><path d="M129.508 46.866L101.22 30.538c-.586-.34-1.06-1.271-1.06-2.082 0-.812.474-1.196 1.06-.858l28.288 16.328c.586.338 1.061 1.27 1.061 2.082 0 .812-.475 1.196-1.06.858M138.702 58.051L101.22 36.417c-.39-.226-.707-.847-.707-1.388 0-.542.317-.798.708-.572l37.48 21.634c.392.226.708.847.708 1.388 0 .542-.317.797-.707.572" fill="#1A4A44"/><path d="M133.385 166.694l-16.266-9.389c-.586-.338-1.06-1.27-1.06-2.082 0-.811.475-1.196 1.06-.857l16.266 9.388c.586.338 1.06 1.271 1.06 2.083 0 .811-.474 1.195-1.06.857M112.523 150.243v1.959c0 .137-.018.256-.043.368-.203 2.234-1.142 3.02-1.143 5.32 0 1.958-1.085 1.332-3.058.192-1.974-1.14-3.059-1.765-3.059-3.723 0-.134-.015-.262-.021-.394-.692-1.957-1.526-2.19-2.135-5.141-.383-1.852-.745-3.696-1.632-5.486-.638-1.287.203-2.093 1.057-1.335.753.669 1.214 1.61 1.548 2.54l.001-7.037c0-.81.477-1.195 1.061-.858.583.337 1.06 1.274 1.06 2.082v4.9c0-.81.477-1.195 1.061-.858.583.337 1.06 1.274 1.06 2.082v1.96c0-.808.477-1.195 1.061-.858.583.337 1.061 1.274 1.06 2.082v.509l.061.037c.143-.496.536-.691 1-.423.584.336 1.061 1.273 1.061 2.082" fill="#E0B475"/><path d="M169.973 184.21a9.73 9.73 0 0 1 .043-.91l-1.634 2.226 1.59.918v-2.233zm1.146 2.896l.636.367v1.024c0 .089-.022.155-.066.196-.044.042-.107.039-.19-.008l-.38-.221v1.97l-1.146-.661v-1.97l-2.486-1.435a.65.65 0 0 1-.223-.235.884.884 0 0 1-.125-.336l-.136-.978 2.86-3.676 1.256.725v5.238z" fill="#32BBAB"/><path d="M171.94 74.297c0 1.617-.955 2.388-2.122 1.715l-7.072-4.082c-1.167-.674-2.121-2.548-2.121-4.164l.001-7.839c0-1.617.955-2.389 2.122-1.715l7.072 4.082c1.167.673 2.121 2.547 2.121 4.164l-.001 7.839z" fill="#7CB8D6"/><path d="M168.493 59.112l-1.5-2.948-.003 12.336c0 .539-.318.797-.707.572-.389-.225-.707-.85-.707-1.388l.001-12.332-1.499 1.212c-.275.222-.726-.038-1-.577-.275-.541-.275-1.164 0-1.386l2.708-2.188a.342.342 0 0 1 .234-.08c.17.002.363.113.533.307.085.097.164.214.233.35l2.707 5.314c.275.539.275 1.163 0 1.385-.275.223-.725-.037-1-.577" fill="#2B7DA5"/><path d="M304.804 316.505c0 3.233-1.91 4.777-4.244 3.43l-62.234-35.921c-2.333-1.347-4.242-5.095-4.242-8.328l.007-61.732c0-3.233 1.91-4.777 4.244-3.43l62.234 35.92c2.334 1.349 4.243 5.097 4.242 8.33l-.007 61.73zM222.058 303.04c-.39-.224-.707-.845-.707-1.387l.017-146c0-.541.316-.796.707-.57.39.225.707.846.707 1.388l-.016 145.999c0 .54-.317.797-.708.57" fill="#E1E5E5"/><path d="M229.144 184.64c0 5.413-3.167 7.972-7.073 5.718-3.906-2.256-7.072-8.47-7.071-13.882 0-5.41 3.167-7.97 7.073-5.715 3.906 2.254 7.071 8.468 7.071 13.88" fill="#E1E5E5"/><path d="M294.194 335.408c0 .424-.24.633-.531.465l-.28-.16c.257.211.457.646.457 1.033 0 .424-.24.634-.531.465l-.115-.067-.014.068c.18.227.306.565.306.872 0 .425-.238.634-.53.465l-.354-.204a.611.611 0 0 1-.112-.083c-1.38-.607-2.483-1.583-3.247-2.37v-5.14c.706.406.68-.2 1.147-.607.439-.382.729-.463.729-1.394 0-.669.604-.362.867.3.499 1.248-.705 2.351.455 3.021.048.027.092.06.135.093.009.004.017.006.027.012l1.06.612c.293.168.53.653.53 1.077 0 .424-.238.633-.53.465.292.168.53.653.53 1.077zm-5.658.59c0 .283-.16.422-.354.31l-.884-.51c-.097-.057-.177-.218-.177-.359v-5.354c0-.14.08-.21.177-.155l.884.51c.196.113.354.436.354.718v4.84zm2.123-12.959c-3.905-2.255-7.072.305-7.073 5.716 0 5.412 3.165 11.627 7.07 13.881 3.906 2.254 7.073-.305 7.074-5.717 0-5.41-3.166-11.626-7.071-13.88z" fill="#32BBAB"/><path d="M269.455 205.948l-35.36-20.41c-.586-.338-1.061-1.27-1.061-2.082 0-.81.476-1.195 1.062-.858l35.359 20.411c.586.337 1.06 1.27 1.06 2.082 0 .811-.474 1.195-1.06.857M264.503 208.97l-30.409-17.552c-.39-.226-.707-.846-.707-1.388 0-.542.316-.797.707-.572l30.41 17.553c.39.225.706.846.706 1.388 0 .54-.316.797-.707.57M264.844 320.878l-12.022-6.94c-.586-.337-1.06-1.27-1.06-2.081 0-.812.475-1.196 1.061-.858l12.022 6.94c.586.338 1.061 1.27 1.061 2.082 0 .81-.476 1.195-1.062.857" fill="#1A4A44"/><path d="M288.013 260.757l-3.3-3.753-27.72-15.84h-2.925v9.799l33.944 19.593.001-9.8zm-.004 35.275l-33.945-19.593.002-15.678 33.945 19.593-.002 15.678z" fill="#1E5750"/><path fill="#1A4A44" d="M266.795 268.109l8.487 4.898-.002 15.678-8.486-4.9z"/><path d="M275.024 257.179c-.585-1.476-2.14-3.194-3.983-4.26-1.845-1.064-3.4-1.14-3.984-.338l-3.09-1.783 1.415 2.776 1.675.966c.584 1.477 2.138 3.195 3.983 4.26 1.844 1.064 3.399 1.14 3.984.339l1.674.966 1.415-1.143-3.09-1.783z" fill="#32BBAB"/><path d="M285.182 282.64l-8.486-4.897v7.839l8.485 4.897.001-7.839zm-19.802-11.428l-8.486-4.9v7.84l8.485 4.899.001-7.84zm8.487 10.776l-5.659-3.264.001-9.8 5.66 3.267-.002 9.798z" fill="#8ED2F4"/><path d="M285.182 286.56v-3.92l-3.983-2.298c.584 2.615 2.137 5.154 3.983 6.218m-8.487-4.898l.001-3.92 3.983 2.299c-.585 1.94-2.139 2.686-3.984 1.62m-11.315-6.53v-3.92l-3.983-2.3c.585 2.617 2.14 5.155 3.983 6.22m-8.486-4.9v-3.918l3.983 2.299c-.585 1.94-2.138 2.685-3.983 1.62" fill="#FFF"/><path d="M285.182 278.721l-8.486-4.898v3.92l8.486 4.897v-3.919zm1.413 12.575l-11.314-6.53v1.958l11.314 6.532v-1.96zm-21.214-24.004l-8.486-4.899v3.92l8.485 4.898.001-3.919zm1.412 14.534l-11.314-6.53v-1.96l11.315 6.531v1.96z" fill="#277068"/><path fill="#000" opacity=".1" d="M288.01 286.233l-33.945-21.553.001-3.92 33.945 19.594z"/><path d="M292.254 286.723l-1.415-.817v5.88l1.414.815.001-5.878zm-42.433-20.572l-2.829-1.634.001-5.878 2.83 1.632-.002 5.88z" fill="#E0B475"/><path d="M291.548 274.556c-.707-.408-2.83 6.268-2.83 10.125 0 2.166 1.266 4.651 2.828 5.553 1.563.902 2.83-.122 2.83-2.287 0-3.858-2.12-12.983-2.828-13.391m-38.896-14.612c0 3.247-1.9 4.783-4.245 3.43-2.343-1.353-4.243-5.081-4.243-8.328.001-5.787 3.185-15.801 4.246-15.188 1.061.612 4.242 14.299 4.242 20.086" fill="#90D98B"/><path d="M294.375 293.827l-5.658-3.266 1.415 6.696 2.827 1.632 1.416-5.062zm-43.847-19.43l-4.243-2.448-1.413-8.656 7.07 4.082-1.415 7.023z" fill="#919998"/><path fill="#D88B99" d="M289.425 281.17l-36.773-21.226v-3.92l3.57.638 30.367 16.59 2.837 4z"/><path fill="#000" opacity=".1" d="M288.013 264.676l-33.945-21.553v-1.96l33.945 19.594z"/><path fill="#1E5750" d="M289.428 257.654l-36.774-21.226v3.919l36.774 21.226z"/><path fill="#F09CAB" d="M289.426 277.25l-36.774-21.225 1.415-5.062 33.945 19.593z"/><path d="M236.91 298.176l-2.474-1.429c-.194-.112-.353.016-.353.286l-.002 10.78c0 .268.159.58.353.693l2.476 1.428c.389.225.707-.032.707-.57v-9.8c0-.539-.316-1.163-.706-1.388m11.315 9.96c0 .81-.477 1.195-1.061.858l-.557-.32-.002.02c.514.397.912 1.236.912 1.974 0 .808-.477 1.194-1.06.858l-.232-.134c-.008.043-.018.085-.027.127.359.444.612 1.095.612 1.68 0 .81-.477 1.195-1.061.858l-.707-.408a1.423 1.423 0 0 1-.225-.165c-2.758-1.232-4.964-3.152-6.493-4.693v-9.799c1.41.814 1.357-.345 2.295-1.095.878-.703 1.456-.843 1.456-2.616 0-1.275 1.208-.657 1.735.615.997 2.408-1.411 4.447.91 5.787.095.054.183.118.27.184.018.01.035.013.053.023l2.122 1.225c.583.337 1.06 1.273 1.06 2.082 0 .81-.477 1.194-1.06.857.583.337 1.06 1.274 1.06 2.082" fill="#B5BFBE"/><path d="M302.423 339.507c.146.085.267.12.36.108a.307.307 0 0 0 .221-.137.754.754 0 0 0 .11-.312c.02-.13.03-.27.03-.42 0-.132-.013-.268-.038-.41a1.637 1.637 0 0 0-.35-.766 1.209 1.209 0 0 0-.333-.28c-.134-.077-.245-.112-.336-.105a.322.322 0 0 0-.222.104.567.567 0 0 0-.126.259 1.675 1.675 0 0 0-.038.367c0 .149.01.299.03.452.02.152.056.299.11.44.054.14.127.27.221.39.092.122.213.225.361.31m0 3.833a.779.779 0 0 0 .381.126.36.36 0 0 0 .265-.103.596.596 0 0 0 .153-.293 1.8 1.8 0 0 0 .05-.446 3.23 3.23 0 0 0-.043-.53 1.95 1.95 0 0 0-.14-.471 1.564 1.564 0 0 0-.665-.728c-.163-.094-.299-.142-.407-.143a.327.327 0 0 0-.26.102.658.658 0 0 0-.142.31 2.653 2.653 0 0 0 .007.983 1.947 1.947 0 0 0 .415.877c.107.124.235.23.385.316m0 1.375a4.106 4.106 0 0 1-.899-.701 4.641 4.641 0 0 1-1.149-1.98 4.206 4.206 0 0 1-.158-1.137c0-.232.02-.44.058-.623.038-.184.098-.337.181-.46a.75.75 0 0 1 .323-.268.947.947 0 0 1 .477-.06 3.558 3.558 0 0 1-.835-2.346c0-.333.05-.614.15-.841.097-.227.236-.393.415-.498a1.04 1.04 0 0 1 .633-.125c.245.022.514.118.805.286.291.168.56.382.804.643.245.26.456.546.633.857.18.31.318.636.417.978.1.34.148.678.148 1.01 0 .44-.069.777-.208 1.01a.732.732 0 0 1-.628.373c.184.196.342.4.474.608a3.644 3.644 0 0 1 .506 1.313c.04.229.06.458.06.69 0 .383-.054.702-.16.955-.107.25-.256.433-.449.542-.195.11-.427.147-.699.112-.27-.035-.57-.148-.899-.338" fill="#32BBAB"/><path fill="#1A4A44" d="M273.33 359.498l-43.434 23.492-1.88 2.002.882 23.31 2.004 19.781 42.432-24.492z"/><path fill="#919998" d="M184.462 401.078l-6.19 3.286-.883-9.003 7.458-4.304z"/><path fill="#919998" d="M178.462 396.078l-5.494 5.225-1.579-10.942 8.84-5.102zM240.17 417.306l-6.394 2.938 1.09 8.473 3.536-3.04z"/><path fill="#919998" d="M237.098 424.388l1.768 6.33 3.537-2.042 1.767-8.37z"/><path fill="#23635C" d="M229.125 329l-42.427 24.502 3.052 3.32 37.608 21.938 5.3 3.285 4.832-2.356 32.641-19.255 4.9-4.777z"/><path d="M230.897 383.99l-2.486-3.988-32.6-19.378-7.347-1.126v14.248l42.431 24.492.001-14.248zm-.005 44.094l-42.433-24.492.004-27.598 42.431 23.492-.002 28.598z" fill="#1E5750"/><path fill="#1A4A44" d="M204.375 393.18l10.608 6.122-.003 19.597-10.608-6.123z"/><path d="M214.66 379.517c-.73-1.846-2.673-3.993-4.98-5.324-2.305-1.33-4.248-1.426-4.978-.424l-3.861-2.229 1.768 3.471 2.093 1.208c.73 1.845 2.672 3.992 4.978 5.323 2.306 1.331 4.249 1.427 4.98.425l2.092 1.208 1.769-1.429-3.861-2.229z" fill="#32BBAB"/><path d="M227.358 411.344l-10.608-6.123-.001 9.8 10.608 6.122v-9.799zm-24.752-14.287l-10.608-6.123-.001 9.8 10.608 6.122v-9.799zm10.607 13.473l-7.072-4.083V394.2l7.073 4.082-.001 12.25z" fill="#8ED2F4"/><path fill="#919998" d="M243.849 421.327l-7.072-4.082 1.767 8.369 3.536 2.04z"/><path fill="#E0B475" d="M239.197 415.447l-1.768-1.021v7.349l1.768 1.02z"/><path d="M227.357 416.244v-4.9l-4.98-2.873c.732 3.269 2.674 6.442 4.98 7.773m-10.608-6.123v-4.9l4.98 2.875c-.731 2.425-2.674 3.356-4.98 2.025m-14.144-8.164v-4.9l-4.978-2.873c.73 3.269 2.672 6.442 4.978 7.773m-10.608-6.123v-4.9l4.98 2.875c-.731 2.426-2.674 3.356-4.98 2.025" fill="#FFF"/><path fill="#A7AFAE" d="M239.197 423.373l-5.42-3.128 1.09 8.472 4.213 1.938z"/><path d="M227.358 406.445l-10.608-6.123v4.899l10.608 6.123v-4.9zm1.767 15.719L214.98 414v2.449l14.144 8.164.001-2.45zm-26.519-30.006l-10.608-6.123v4.9l10.608 6.123v-4.9zm1.766 18.169l-14.144-8.165v-2.45l14.144 8.165v2.45z" fill="#277068"/><path fill="#000" opacity=".1" d="M230.894 415.835l-42.432-26.942v-4.899l42.433 24.491z"/><path fill="#919998" d="M183.46 400.055l-5.304-3.062-1.767-10.818 8.84 5.102z"/><path fill="#E0B475" d="M179.157 392.731l-3.536-2.04.001-7.35 3.536 2.041z"/><path fill="#A7AFAE" d="M178.272 404.364l-5.304-3.062-1.579-10.94 7.166 4.326z"/><path d="M238.75 398.635c-1.25 0-5 10.078-5 15a5 5 0 0 0 5 5 5 5 0 0 0 5-5c0-4.922-3.75-15-5-15" fill="#90D98B"/><path fill="#D88B99" d="M229.125 407.464l-46.524-26.854v-4.899l7.39 1.266 36.806 20.797 2.328 4.791z"/><path fill="#000" opacity=".1" d="M230.897 388.889l-42.433-26.941v-2.45l42.433 24.492z"/><path fill="#F09CAB" d="M229.125 402.565l-46.524-26.854 5.863-3.965 44.822 25.872z"/><path fill="#1E5750" d="M232.665 380.11l-45.967-26.532-.001 4.9 45.968 26.532 2-3.429z"/><path d="M185 379.635a7.5 7.5 0 0 1-15 0c0-7.383 5.625-22.5 7.5-22.5s7.5 15.117 7.5 22.5" fill="#90D98B"/><path fill="#1E5750" d="M275.032 355.657l-42.367 24.454.001 4.9 42.366-24.454z"/></g></svg>