<svg width="252" height="430" viewBox="0 0 252 430" fill="none" xmlns="http://www.w3.org/2000/svg">
<path d="M165.925 158.541C165.726 158.591 164.496 158.45 162.926 158.238C158.137 157.591 153.545 160.232 151.601 164.741C148.553 171.808 145.507 178.875 142.459 185.942C141.194 188.876 139.301 192.021 138.5 195.122C137.364 199.522 140.497 203.144 144.897 203.415C150.078 203.734 152.74 197.661 154.327 193.419L169.507 158.987L165.925 158.541Z" fill="#5765A1"/>
<path d="M168.439 297.007C168.405 297.33 168.413 297.653 168.46 297.974C168.856 300.669 170.588 314.732 166.638 332.418C165.967 335.438 165.128 338.558 164.088 341.747C163.454 343.691 163.121 345.708 162.76 347.716C162.427 348.056 162.09 348.399 161.757 348.738C160.948 348.913 160.128 349.054 159.304 349.146C159.611 349.063 157.701 349.016 157.25 349.001C157.077 348.974 156.925 348.949 156.795 348.929C156.255 348.758 155.72 348.57 155.196 348.352C155.121 348.323 155.046 348.306 154.971 348.279C154.826 347.587 155.16 346.774 155.101 346.088L153.799 330.731L152.294 312.972L149.18 283.483C149.172 283.362 149.165 283.241 149.159 283.12L148.778 248.014C148.77 247.311 148.881 245.694 149.051 243.74C149.647 236.891 151.11 230.139 153.405 223.657C153.5 223.232 153.658 222.818 153.894 222.452C158.358 215.475 166.885 213.553 173.83 217.594C175.062 218.31 175.764 219.682 175.691 221.106L175.069 233.151L168.439 297.007Z" fill="#D18A73"/>
<path d="M176.973 219.548C185.016 217.275 194.525 221.011 198.391 237.414C198.535 238.023 198.627 239.416 198.681 241.391L199.019 237.414L199.542 301.887C203.203 317.761 203.267 334.252 199.73 350.154L198.715 354.718C198.104 361.857 197.468 367.638 197.165 370.924C197.025 372.429 195.894 373.613 194.456 373.868L194.445 373.918L194.443 373.87C194.24 373.905 194.032 373.922 193.818 373.918C192.31 373.892 191.007 372.85 190.663 371.381C187.749 358.966 183.139 329.679 183.139 329.679L165.898 237.727C164.568 230.612 170.007 221.516 176.973 219.548Z" fill="#D18A73"/>
<path d="M186.915 383.184C186.915 384.443 188.028 390.06 188.957 390.989C190.344 392.376 191.697 393.718 193.634 393.382C198.81 392.474 200.054 382.24 200.054 382.24L199.632 379.953L197.552 368.659L197.195 366.515H189.331L189.689 365.085L187.487 380.79L187.23 381.462C187.015 382.019 186.915 382.605 186.915 383.184Z" fill="#D18A73"/>
<path d="M187.487 380.77L187.653 380.856C189.332 385.401 190.519 387.639 193.484 387.011C196.908 386.285 197.994 383.086 198.87 381.51C199.401 380.556 199.632 379.933 199.632 379.933L200.054 382.22C200.054 382.22 198.81 392.453 193.634 393.362C191.697 393.698 190.344 392.356 188.957 390.969C188.028 390.04 186.915 384.423 186.915 383.164C186.915 382.585 187.015 381.999 187.229 381.442L187.487 380.77Z" fill="#F2584D"/>
<path d="M161.871 360.607L158.484 357.636L164.435 354.456V357.499L163.044 360.353C162.827 360.797 162.252 360.921 161.871 360.607Z" fill="#D94F45"/>
<path d="M164.293 359.763C164.034 359.953 163.767 360.126 163.505 360.308C163.063 360.487 162.615 360.668 162.163 360.851C162.079 360.78 162.016 360.684 162.018 360.559C162.035 359.125 162.006 357.692 161.896 356.264C160.081 359.728 157.347 362.38 153.941 364.186C152.487 364.775 151.086 365.344 149.79 365.869C149.375 365.993 148.955 366.109 148.527 366.213C147.393 366.486 146.191 366.644 145.065 366.339C143.938 366.037 143.8 366.091 143.555 364.948C142.863 361.694 149.202 355.491 151.028 353.151C151.81 352.146 152.851 350.727 154.056 349.369C156.683 346.4 160.102 343.716 163.363 346.234C163.725 346.51 164.083 346.852 164.439 347.263C166 349.073 166.468 351.523 165.949 353.82C165.407 356.199 166.288 358.288 164.293 359.763Z" fill="#F2584D"/>
<path d="M149.241 356.234C149.328 355.88 149.482 355.551 149.663 355.234L151.019 353.302C151.719 352.35 152.406 351.385 153.057 350.399L155.922 346.32C157.9 343.663 160.721 342.409 162.651 345.427C162.737 345.56 162.957 345.359 163.108 345.322C164.638 347.799 162.926 350.97 160.747 353.168C159.017 354.913 157.031 356.405 154.872 357.579C153.771 358.178 152.587 358.705 151.334 358.756C150.837 358.776 150.313 358.712 149.903 358.429C149.324 358.028 149.105 357.266 149.183 356.556C149.196 356.447 149.215 356.339 149.241 356.234Z" fill="#D18A73"/>
<path d="M150.77 213.525C153.517 221.634 159.167 228.471 166.669 232.705L178.412 232.379L194.075 221.719C186.781 204.431 179.012 196.609 179.012 196.609L163.048 194.091L158.997 196.368L155.99 202.07C154.019 205.794 152.277 209.617 150.77 213.525Z" fill="#FF5655"/>
<path d="M197.253 305.446C197.651 305.273 198.043 305.094 198.427 304.91C198.625 304.815 198.811 304.716 199.002 304.619C198.811 304.716 198.625 304.815 198.427 304.91C198.043 305.094 197.651 305.273 197.253 305.446ZM143.559 259.296C143.559 259.296 143.828 287.725 144.108 295.768H144.227C144.925 299.204 147.983 302.547 153.415 305.174C165.937 311.231 186.375 311.228 198.974 305.174C205.328 302.121 208.491 298.104 208.466 294.094C208.476 293.958 208.471 293.818 208.448 293.677V293.674C208.419 293.197 208.343 292.72 208.222 292.245C207.472 287.421 206.366 279.716 206.317 278.828C204.98 253.796 199.676 235.04 194.091 221.823C186.798 204.535 179.028 196.713 179.028 196.713L163.064 194.195L160.435 193.778L159.013 196.472L156.006 202.174C154.035 205.898 152.294 209.722 150.786 213.629C145.156 228.119 142.677 243.685 143.559 259.296Z" fill="url(#paint0_linear)"/>
<path d="M172.926 159.391C172.828 159.593 172.737 159.782 172.652 159.965L175.184 160.122C174.44 159.841 173.683 159.593 172.926 159.391Z" fill="#73B0DD"/>
<path d="M171.356 160.017L171.324 160.075C171.656 160.167 171.989 160.239 172.335 160.298C172.407 160.311 172.478 160.324 172.55 160.33C172.589 160.258 172.622 160.18 172.661 160.101L171.356 160.017Z" fill="#73B0DD"/>
<path d="M153.761 183.324L153.852 183.611L158.621 196.959C159.019 198.283 160.076 199.353 161.413 199.836C169.875 202.863 175.492 202.263 178.44 201.036C179.542 200.573 181.78 199.686 182.192 198.597C184.645 192.093 186.849 186.684 190.392 180.545C191.331 178.914 192.388 177.336 192.995 175.554C193.602 173.78 193.706 171.725 192.767 170.094C191.579 168.026 189.72 166.969 187.625 166.297C184.847 165.417 180.358 163.916 177.781 162.97C174.676 161.829 171.603 160.608 168.505 159.447L167.637 159.121L164.668 157.999C160.35 156.511 156.383 160.296 156.769 165.319L157.081 169.344L154.074 176.435C153.173 178.588 153.069 181.034 153.761 183.324Z" fill="#5765A1"/>
<path d="M153.889 183.214C154.778 184.37 156.253 184.75 157.722 185.383C159.747 186.255 161.789 187.089 163.846 187.882C168.223 189.585 173.077 191.066 177.344 189.246C179.953 188.137 193.503 172.31 189.667 167.535L187.612 166.295C179.837 163.832 172.361 160.634 164.654 157.997C164.407 157.913 164.159 157.847 163.917 157.795C159.892 156.947 156.389 160.581 156.755 165.317L157.041 168.963C157.054 169.205 157.067 169.342 157.067 169.342L154.06 176.433C153.369 178.063 152.771 180.109 153.246 181.878C153.392 182.419 153.612 182.854 153.889 183.214Z" fill="#6575BA"/>
<path d="M177.95 202.697C178.094 202.633 178.236 202.567 178.374 202.499C178.446 202.464 178.513 202.428 178.582 202.392C178.513 202.428 178.446 202.464 178.374 202.499C178.236 202.567 178.094 202.633 177.95 202.697ZM162.118 202.596C166.64 204.825 174.022 204.824 178.572 202.597C183.124 200.368 183.148 196.741 178.625 194.512C174.103 192.283 166.723 192.283 162.171 194.512C157.62 196.741 157.595 200.367 162.118 202.596Z" fill="#5765A1"/>
<mask id="mask0" mask-type="alpha" maskUnits="userSpaceOnUse" x="153" y="157" width="38" height="34">
<path d="M153.889 183.214C154.778 184.37 156.253 184.75 157.722 185.383C159.747 186.255 161.789 187.089 163.846 187.882C168.223 189.585 173.077 191.066 177.344 189.246C179.953 188.137 193.503 172.31 189.667 167.535L187.612 166.295C179.837 163.832 172.361 160.634 164.654 157.997C164.407 157.913 164.159 157.847 163.917 157.795C159.892 156.947 156.389 160.581 156.755 165.317L157.041 168.963C157.054 169.205 157.067 169.342 157.067 169.342L154.06 176.433C153.369 178.063 152.771 180.109 153.246 181.878C153.392 182.419 153.612 182.854 153.889 183.214Z" fill="#6575BA"/>
</mask>
<g mask="url(#mask0)">
<path d="M163.871 173.285C165.828 174.589 168.437 171.98 168.437 171.98C171.047 184.701 184.747 162.521 184.747 162.521L184.734 162.474L184.643 162.214C184.577 162.305 184.512 162.396 184.434 162.494C179.665 162.768 174.896 163.016 171.647 159.454L171.491 159.278C170.042 159.311 170.708 156.229 169.298 156.431C169.148 156.451 168.44 157.561 167.594 158.773C166.945 159.703 166.416 160.712 166.023 161.775C164.027 167.18 162.605 172.443 163.871 173.285Z" fill="#F4F8F9"/>
<path d="M169.079 170.423C175.935 172.935 181.35 166.803 184.423 162.569C184.691 162.217 184.945 161.871 185.206 161.525C180.078 159.444 174.857 157.48 168.744 158.354C166.026 163.9 165.315 169.04 169.079 170.423Z" fill="#D18A73"/>
</g>
<path d="M187.528 206.42C187.443 206.755 187.362 207.092 187.292 207.431C186.885 209.401 186.989 211.697 188.435 213.096C190.179 214.785 193.038 214.427 195.31 213.573C196.647 213.072 197.955 212.425 198.998 211.45C201.702 208.92 202.073 204.81 202.038 201.107C201.963 193.467 200.9 185.837 198.882 178.467C198.162 175.835 197.292 173.18 195.654 170.996C194.456 169.399 192.716 167.967 190.749 167.463C190.164 167.312 189.536 167.189 188.928 167.208C181.905 167.43 184.407 179.579 185.12 183.684C185.812 187.667 186.771 191.595 187.699 195.529C188.028 196.921 188.496 198.368 188.649 199.792C188.894 202.073 188.091 204.214 187.528 206.42Z" fill="#6575BA"/>
<path d="M159.958 215.245C159.675 215.335 159.394 215.428 159.115 215.522C158.194 215.832 157.135 216.292 156.935 217.243C156.792 217.923 157.182 218.629 157.734 219.05C158.288 219.471 158.978 219.662 159.654 219.823C164.371 220.949 169.964 221.824 174.755 220.879C180.085 219.826 185.486 218.739 190.511 216.61C194.538 214.903 198.94 213.848 199.076 208.636C199.183 204.526 195.589 199.928 191.124 201.176C188.56 201.894 186.282 204.129 184.014 205.469C181.254 207.102 178.213 208.305 175.387 209.826C170.687 212.355 165.111 213.584 159.958 215.245Z" fill="#D18A73"/>
<path d="M152.641 146.431C154.297 151.241 157.994 155.412 164.297 158.045C170.619 160.685 179.452 160.742 186.172 159.789C189.494 159.317 192.786 158.374 195.672 156.664C200.722 153.67 204.287 148.292 205.077 142.475C198.869 142.867 199.466 133.83 198.629 129.878C197.577 124.917 196.108 119.376 192.744 115.429C189.535 111.656 184.401 109.933 179.466 110.002C162.121 110.246 147.48 131.444 152.641 146.431Z" fill="#E0B475"/>
<path d="M169.292 145.637V162.831C169.292 165.362 171.344 167.414 173.874 167.414H174.9C177.43 167.414 179.482 165.362 179.482 162.831V145.637H169.292Z" fill="#D18A73"/>
<path d="M169.292 145.637V158.73C173.265 157.85 176.846 155.377 179.482 152.213V145.637H169.292Z" fill="black" fill-opacity="0.1"/>
<path d="M180.945 124.384C180.654 124.289 180.364 124.201 180.074 124.12C174.478 122.575 162.381 121.63 159.052 127.834C156.799 132.032 156.13 144.71 157.633 148.837C159.284 153.371 164.386 156.104 169.201 155.785C173.826 155.478 178.043 152.748 180.945 149.12V124.384Z" fill="#D18A73"/>
<path d="M178.826 148.356C178.826 150.961 181.089 152.394 183.88 151.557C186.67 150.719 188.933 147.929 188.933 145.325C188.933 142.72 186.67 141.287 183.88 142.124C181.089 142.961 178.826 145.751 178.826 148.356Z" fill="#D18A73"/>
<path d="M180.871 143.221C180.871 143.221 160.992 142.442 165.67 123.731C165.67 123.731 159.822 138.153 154.365 137.374C148.908 136.595 157.094 124.511 157.094 124.511L166.839 116.325L182.43 114.376L187.108 118.664C187.108 118.664 190.616 126.07 190.226 127.239C189.836 128.409 187.887 131.917 187.887 131.917L180.871 143.221Z" fill="#E0B475"/>
<path d="M47.6999 379.984C46.7012 379.984 45.8915 379.174 45.8915 378.176V227.784C45.8915 226.786 46.7012 225.976 47.6999 225.976C48.6986 225.976 49.5083 226.786 49.5083 227.784V378.176C49.5083 379.174 48.6986 379.984 47.6999 379.984Z" fill="#D0E9F5"/>
<path d="M102.249 347.786C101.251 347.786 100.441 346.976 100.441 345.978V195.586C100.441 194.588 101.251 193.778 102.249 193.778C103.248 193.778 104.058 194.588 104.058 195.586V345.978C104.058 346.976 103.248 347.786 102.249 347.786Z" fill="#D0E9F5"/>
<path d="M132.103 430C131.104 430 130.295 429.191 130.295 428.192V277.801C130.295 276.802 131.104 275.993 132.103 275.993C133.102 275.993 133.911 276.802 133.911 277.801V428.192C133.911 429.191 133.102 430 132.103 430Z" fill="#D0E9F5"/>
<path d="M187.551 394.989C186.552 394.989 185.743 394.179 185.743 393.18V242.789C185.743 241.79 186.552 240.981 187.551 240.981C188.55 240.981 189.359 241.79 189.359 242.789V393.18C189.359 394.179 188.55 394.989 187.551 394.989Z" fill="#D0E9F5"/>
<path d="M43.1926 223.163L43 230.043L53.1688 233.553L52.6597 229.899L43.1926 223.163Z" fill="#C4DFFC"/>
<path d="M195.434 242.706L192.225 244.768L108.118 196.73C104.473 194.648 99.9927 194.671 96.3687 196.79L44.5325 227.092C42.4829 228.29 42.4909 231.254 44.5462 232.441L129.276 281.391C132.91 283.489 137.389 283.49 141.023 281.391L193.701 250.969C194.289 250.629 194.703 250.143 194.955 249.596L195.386 249.5L195.434 242.706Z" fill="#D0E9F5"/>
<path d="M44.7275 221.465L96.5637 191.163C100.188 189.044 104.668 189.021 108.314 191.104L193.883 239.976C195.957 241.16 195.964 244.148 193.896 245.342L141.219 275.764C137.584 277.863 133.106 277.862 129.472 275.763L44.7413 226.814C42.6859 225.627 42.6787 222.663 44.7275 221.465Z" fill="#EBF7FC"/>
<path d="M166.12 223.401L124.717 200.812L85.8267 224.095L129.51 249.074C130.292 249.522 131.255 249.512 132.028 249.049L167.087 228.06C167.632 227.734 167.966 227.146 167.966 226.511C167.966 225.214 167.258 224.022 166.12 223.401Z" fill="#EB98A7"/>
<path d="M129.057 247.638L84.1074 221.934L121.107 199.784C122.275 199.084 123.73 199.07 124.912 199.745L166.214 223.364C166.99 223.808 167.001 224.922 166.234 225.381L129.057 247.638Z" fill="#F09CAB"/>
<path d="M93.3292 221.638L111.892 208.762C112.203 208.581 112.588 208.581 112.901 208.762L147.193 228.576C147.62 228.823 147.61 229.441 147.177 229.674L128.621 240.661C128.072 240.956 126.643 240.527 126.107 240.211L93.3292 221.638Z" fill="black" fill-opacity="0.1"/>
<path d="M147.311 216.032L134.227 208.477C133.842 208.254 133.366 208.261 132.986 208.493L125.836 212.899C125.614 213.035 125.484 213.272 125.488 213.532C125.492 213.792 125.629 214.026 125.854 214.154L138.934 221.712C139.121 221.821 139.33 221.875 139.54 221.875C139.76 221.875 139.98 221.815 140.175 221.695L147.329 217.287C147.55 217.151 147.681 216.915 147.677 216.654C147.673 216.394 147.537 216.161 147.311 216.032Z" fill="black" fill-opacity="0.1"/>
<path d="M143.547 220.789C143.469 221.63 143.557 222.482 143.824 223.286L143.867 223.409C143.812 223.257 148.52 220.537 148.857 220.534C148.512 221.484 147.766 222.358 147.182 223.218C146.965 223.539 146.773 224.004 146.981 224.268L147.079 224.368C147.316 224.53 147.628 224.426 147.883 224.294L150.031 222.068L150.063 222.037L150.755 221.327L150.811 221.26L151.4 220.657L152.251 219.779C152.04 219.996 154.809 222.07 155.039 222.168C156.815 222.921 159.053 222.512 160.65 221.486C161.595 220.878 163.816 218.84 163.336 217.513C163.043 216.701 160.761 215.845 160.007 215.391C158.843 214.683 157.593 214.055 156.282 213.591C155.677 213.374 155.07 213.189 154.448 213.046C149.999 212.022 142.592 214.998 143.547 220.789Z" fill="#D18A73"/>
<path d="M144.045 223.452L143.619 223.208C144.862 221.043 146.595 219.135 148.632 217.692L148.916 218.093C146.936 219.494 145.253 221.348 144.045 223.452Z" fill="black" fill-opacity="0.2"/>
<path d="M143.762 220.898L143.346 220.638C144.274 219.151 145.538 217.863 147.002 216.911L147.27 217.322C145.865 218.235 144.652 219.471 143.762 220.898Z" fill="black" fill-opacity="0.2"/>
<path d="M106.668 225.443C106.145 224.686 105.901 223.811 105.959 222.927C105.972 222.731 105.999 222.535 106.043 222.339C106.279 221.262 106.946 220.338 107.92 219.738L129.868 201.754C132.182 199.736 134.496 197.718 136.811 195.7C138.609 194.132 139.586 193 141.987 192.863C144.373 192.727 146.645 193.17 148.367 194.971C155.704 202.644 139.442 208.763 134.411 211.354C133.249 211.952 120.51 218.076 120.589 218.276C121.151 219.712 120.625 221.319 119.306 222.191L112.709 226.668C110.701 227.903 107.991 227.354 106.668 225.443Z" fill="#D18A73"/>
<path d="M131.71 248.637L121.15 209.574C120.925 208.714 120.245 207.901 119.364 207.442L96.9707 196.067L75.9052 185.076C75.3418 184.781 74.7972 184.689 74.3119 184.726L74.2851 184.712L74.2424 184.733C73.7217 184.79 70.5482 186.612 70.5482 186.612L72.9106 187.719L82.2205 223.366C82.445 224.226 83.125 225.038 84.0057 225.498L127.731 250.646C129.123 251.25 131.621 249.609 131.71 248.637Z" fill="#F7A1B0"/>
<path d="M73.2612 186.495L94.3259 197.485L116.72 208.861C117.6 209.32 118.28 210.133 118.506 210.992L127.999 247.342C128.482 249.194 129.412 251.534 127.515 250.544L81.3609 226.916C80.4802 226.457 79.8002 225.644 79.5757 224.785L70.0818 188.434C69.5988 186.582 71.3644 185.505 73.2612 186.495Z" fill="#F09CAB"/>
<path d="M96.0254 219.419C96.0254 220.114 96.583 220.676 97.2703 220.676C97.9583 220.676 98.516 220.114 98.516 219.419C98.516 218.724 97.9583 218.161 97.2703 218.161C96.583 218.161 96.0254 218.724 96.0254 219.419Z" fill="white"/>
<path d="M237.885 50.9876C237.885 50.5398 237.502 50.3768 237.111 50.3768H236.378V52.4618H236.753V51.5904H237.022L237.51 52.4618H237.966L237.404 51.5496C237.698 51.4843 237.885 51.289 237.885 50.9876ZM236.753 51.289V50.6943H237.095C237.291 50.6943 237.51 50.7515 237.51 50.9794C237.51 51.2319 237.266 51.289 237.054 51.289H236.753ZM237.103 49.5786C236.077 49.5786 235.246 50.4013 235.246 51.4275C235.246 52.4536 236.077 53.26 237.103 53.26C238.129 53.26 238.96 52.4536 238.96 51.4275C238.96 50.4013 238.129 49.5786 237.103 49.5786ZM237.103 52.9912C236.24 52.9912 235.539 52.2825 235.539 51.4275C235.539 50.564 236.24 49.8637 237.103 49.8637C237.966 49.8637 238.667 50.564 238.667 51.4275C238.667 52.2825 237.966 52.9912 237.103 52.9912Z" fill="#1A4A44"/>
<path d="M117.64 49.8913C114.924 49.8913 113.554 47.4642 113.554 45.1176C113.554 42.7711 115.04 40.4473 117.51 40.4473C118.666 40.4473 120.128 41.0274 120.702 41.8429L123.578 38.9779C122.186 37.5113 119.967 36.6358 117.51 36.6358C112.509 36.6358 108.879 40.2247 108.879 45.1693C108.879 50.1939 112.468 53.7029 117.607 53.7029C120.053 53.7029 122.313 52.9871 123.653 51.5467L120.856 48.5451C120.21 49.3318 118.855 49.8913 117.64 49.8913ZM101.558 53.248H106.02V37.0906H101.558V53.248ZM93.4454 45.949C93.4454 47.8476 92.2078 49.8913 89.9011 49.8913C88.1229 49.8913 87.1733 48.623 87.1733 46.0142V37.0906H82.7118V47.1186C82.7118 50.4552 84.3768 53.7029 88.8291 53.7029C90.9288 53.7029 92.6875 52.0501 93.5737 50.8301H93.6404V53.248H97.9069V37.0906H93.4454V45.949ZM74.6628 39.142H74.564C73.9337 38.445 72.2261 36.6358 69.4535 36.6358C64.9045 36.6358 61.399 40.1973 61.399 45.1044C61.399 50.0867 64.6338 53.7029 69.2396 53.7029C71.3308 53.7029 73.2951 52.5948 74.4339 51.3058H74.5001V61.2044H78.9616V37.0906H74.6628V39.142ZM70.3308 49.8913C67.5721 49.8913 66.0036 47.4831 66.0036 45.1044C66.0036 42.8302 67.4438 40.3823 70.3308 40.3823C72.9865 40.3823 74.63 42.8671 74.63 45.1693C74.63 47.4903 73.0221 49.8913 70.3308 49.8913ZM171.957 36.6358C166.88 36.6358 163.196 40.1973 163.196 45.1044C163.196 50.1823 166.962 53.7463 171.957 53.7463C176.951 53.7463 180.718 50.1482 180.718 45.1044C180.718 40.1973 177.033 36.6358 171.957 36.6358ZM171.957 49.8913C169.048 49.8913 167.722 47.4099 167.722 45.1044C167.722 42.8302 169.048 40.3823 171.957 40.3823C174.866 40.3823 176.191 42.8302 176.191 45.1044C176.191 47.4099 174.866 49.8913 171.957 49.8913ZM227.736 43.3034C225.44 42.7554 224.631 42.4604 224.631 41.5305C224.631 40.2484 226.255 39.967 226.991 39.967C228.375 39.967 229.939 40.7938 230.527 41.5786L233.158 39.0546C231.942 37.5263 229.549 36.6358 227.023 36.6358C223.794 36.6358 220.404 38.2598 220.404 41.8879C220.404 45.0033 222.845 45.9433 225.235 46.5158C227.753 47.102 228.652 47.5307 228.652 48.5451C228.652 50.0405 226.955 50.2846 226.371 50.2846C224.911 50.2846 223.22 49.449 222.307 48.3661L219.599 51.1117C221.079 52.7526 223.611 53.74 226.208 53.74C230.57 53.74 233.158 51.6607 233.158 48.2296C233.158 44.9469 229.99 43.8434 227.736 43.3034ZM219.302 37.0906H213.548L207.787 43.795H207.688V28.187H203.227V53.248H207.688V45.2788H207.787L213.764 53.248H219.635L212.689 44.4181L219.302 37.0906ZM153.142 36.6358C151.101 36.6358 149.598 37.5277 148.179 38.8579H148.095V28.187H143.634V53.248H147.9V50.9641H147.967C148.973 52.6141 150.972 53.7029 153.045 53.7029C157.65 53.7029 161.141 50.0867 161.141 45.1044C161.141 40.1973 157.691 36.6358 153.142 36.6358ZM152.265 49.8913C149.573 49.8913 147.965 47.4903 147.965 45.1693C147.965 42.8671 149.609 40.3823 152.265 40.3823C155.152 40.3823 156.588 42.8302 156.588 45.1044C156.588 47.4831 155.023 49.8913 152.265 49.8913ZM141.955 37.0906H136.201L130.441 43.795H130.342V28.187H125.88V53.248H130.342V45.2788H130.441L136.417 53.248H142.289L135.343 44.4181L141.955 37.0906ZM191.562 36.6358C186.486 36.6358 182.801 40.1973 182.801 45.1044C182.801 50.1823 186.568 53.7463 191.562 53.7463C196.557 53.7463 200.323 50.1482 200.323 45.1044C200.323 40.1973 196.638 36.6358 191.562 36.6358ZM191.562 49.8913C188.653 49.8913 187.327 47.4099 187.327 45.1044C187.327 42.8302 188.653 40.3823 191.562 40.3823C194.472 40.3823 195.797 42.8302 195.797 45.1044C195.797 47.4099 194.472 49.8913 191.562 49.8913Z" fill="#1A4A44"/>
<path fill-rule="evenodd" clip-rule="evenodd" d="M56.3825 37.5881C56.3825 47.9678 47.968 56.3823 37.5883 56.3823C27.2086 56.3823 18.7941 47.9678 18.7941 37.5881C18.7941 27.2084 27.2086 18.7939 37.5883 18.7939C47.968 18.7939 56.3825 27.2084 56.3825 37.5881ZM31.3216 44.8967C27.2851 44.8967 24.0128 41.6244 24.0128 37.588C24.0128 33.5515 27.2851 30.2791 31.3216 30.2791H36.5454V49.9085C35.0462 49.9085 33.8307 48.693 33.8307 47.1938V32.9938H31.3216C28.7884 32.9938 26.7275 35.0547 26.7275 37.588C26.7275 40.1211 28.7884 42.182 31.3216 42.182H32.3658V44.8967H31.3216ZM42.8107 30.2802H43.8549C47.8914 30.2802 51.1637 33.5525 51.1637 37.589C51.1637 41.6254 47.8914 44.8978 43.8549 44.8978H38.6311V25.2684C40.1303 25.2684 41.3458 26.4838 41.3458 27.9831V42.1831H43.8549C46.3881 42.1831 48.449 40.1222 48.449 37.589C48.449 35.0558 46.3881 32.9949 43.8549 32.9949H42.8107V30.2802Z" fill="#1A4A44"/>
<path d="M79.7997 23.0742C80.4856 23.0742 81.0416 22.5179 81.0416 21.8323C81.0416 21.1466 80.4856 20.5903 79.7997 20.5903C79.1139 20.5903 78.558 21.1466 78.558 21.8323C78.558 22.5179 79.1139 23.0742 79.7997 23.0742ZM72.3893 23.9108C71.1737 23.9108 70.1974 24.6475 69.838 25.4693H69.8035V24.1509H67.8516V32.3714H69.9062V27.8497C69.9062 26.7541 70.5231 25.6233 71.8242 25.6233C73.1431 25.6233 73.3659 26.8398 73.3659 27.8156V32.3714H75.4207V27.2334C75.4207 25.555 74.5306 23.9108 72.3893 23.9108ZM63.6904 32.3714H65.7456V24.1509H63.6904V32.3714ZM101.063 23.0742C101.749 23.0742 102.305 22.5179 102.305 21.8323C102.305 21.1466 101.749 20.5903 101.063 20.5903C100.377 20.5903 99.821 21.1466 99.821 21.8323C99.821 22.5179 100.377 23.0742 101.063 23.0742ZM97.7309 24.1459V25.9669H100.035V32.3714H102.09V25.9669H104.395V24.1459H97.7309ZM94.236 32.3714H96.2912V24.1509H94.236V32.3714ZM76.4679 25.9669H78.7721V32.3714H80.8272V25.9669H83.1314V24.1459H76.4679V25.9669ZM90.0769 28.6721C90.0769 29.7682 89.4601 30.8985 88.159 30.8985C86.8403 30.8985 86.6175 29.6825 86.6175 28.7062V24.1509H84.5624V29.2884C84.5624 30.9673 85.4526 32.6109 87.5938 32.6109C88.8095 32.6109 89.7861 31.8748 90.1453 31.0524H90.1797V32.3714H92.132V24.1509H90.0769V28.6721Z" fill="#1A4A44"/>
<defs>
<linearGradient id="paint0_linear" x1="143.385" y1="250.333" x2="208.471" y2="250.333" gradientUnits="userSpaceOnUse">
<stop stop-color="#2B86A5"/>
<stop offset="1" stop-color="#2671A7"/>
</linearGradient>
</defs>
</svg>
