<svg width="533" height="363" xmlns="http://www.w3.org/2000/svg"><defs><linearGradient x1="10.3%" y1="7.179%" x2="10.3%" y2="83.875%" id="a"><stop stop-color="#FFF" offset="0%"/><stop stop-color="#E1E6E5" offset="51.199%"/><stop stop-color="#FFF" offset="100%"/></linearGradient></defs><g fill="none" fill-rule="evenodd"><path fill="#E1E6E5" d="M127.625 127.21v23l56.568 32.668 4-11.506-4-11.494-22.337-20.21z"/><path fill="#D9DEDD" d="M240.762 127.21v23l-56.568 32.668v-23l23.445-23.004z"/><path fill="#F7FAFA" d="M240.762 127.21l-56.568 32.668-56.57-32.668 56.57-32.668z"/><path fill="#E1E6E5" d="M224.86 48.51v58.4l45.255 26.135 5-30.633-5-27.767-17.87-16.168z"/><path fill="#D9DEDD" d="M315.37 48.51v58.4l-45.255 26.135v-58.4l18.756-18.404z"/><path fill="#F7FAFA" d="M315.37 48.51l-45.255 26.135L224.86 48.51l45.255-26.134z"/><path fill="#E1E6E5" d="M21.115 171.372v33l31.112 17.968 5.5-18.618-5.5-14.382L38 175.968z"/><path fill="#D9DEDD" d="M52.227 189.34v33l31.114-17.968 5.5-14.046-5.5-18.954-18.46 4.927z"/><path fill="#E1E6E5" d="M114.453 189.34l3.3 15.644-3.3 17.356-31.112-17.968v-33l16.86 4.159z"/><path fill="#D9DEDD" d="M145.566 171.372v33l-31.113 17.968v-33l13.901-14.761z"/><path fill="#F7FAFA" d="M21.115 171.372l31.112 17.968 31.114-17.968 31.112 17.968 31.113-17.968-31.113-17.968-31.112-17.967z"/><path fill="url(#a)" d="M0 313.222l70.711 40.836 424.264-245.013-70.711-40.835z"/><path fill="#F7FAFA" d="M435.997 82.684v90l35.355 20.417 7-67.891-7-22.11-14.259-14.966z"/><path fill="#E1E6E5" d="M471.353 103.101v90l48.296-7.474 5-71.735-5-18.265-24.072-3.429z"/><path fill="#D9DEDD" d="M520.655 77.684l-1.007 17.943v90l12.941-27.891v-90z"/><path fill="#F7FAFA" d="M448.938 54.792l-12.941 27.891 35.356 20.417 48.295-7.472 12.941-27.891-35.354-20.418z"/><path fill="#E1E6E5" d="M344.86 179.51v43.4l45.255 26.135 5-25.633-5-17.767-17.87-16.168z"/><path fill="#D9DEDD" d="M435.37 179.51v43.4l-45.255 26.135v-43.4l18.756-18.404z"/><path fill="#F7FAFA" d="M435.37 179.51l-45.255 26.135-45.255-26.135 45.255-26.134z"/><path d="M248.193 195.21v80c0 5.912 3.905 11.823 11.716 16.334 15.621 9.021 40.947 9.021 56.568 0 7.811-4.51 11.716-10.422 11.716-16.334v-80h-80z" fill="#E1E6E5"/><path d="M316.478 211.544c-15.622 9.021-40.947 9.021-56.569 0-15.62-9.02-15.62-23.647 0-32.668 15.622-9.02 40.947-9.02 56.569 0 15.62 9.021 15.62 23.647 0 32.668" fill="#F7FAFA"/><path fill="#E1E6E5" d="M228.19 321.96l-70.71 40.835-28.284-16.334 70.71-40.836z"/><path fill="#E1E6E5" d="M129.196 306.461v40l28.284 16.334 6-23.335-6-16.665-12.142-13.167z"/><path fill="#D9DEDD" d="M228.19 281.96v40l-70.71 40.835v-40l30.047-25.085z"/><path fill="#F7FAFA" d="M228.19 281.96l-70.71 40.835-28.284-16.334 70.71-40.835z"/></g></svg>