<svg width="555" height="459" viewBox="0 0 555 459" fill="none" xmlns="http://www.w3.org/2000/svg">
<g filter="url(#filter0_d)">
<rect width="244.965" height="154.328" rx="9" transform="matrix(0.865969 0.500097 -0.865969 0.500097 133.643 257)" fill="url(#paint0_linear)"/>
</g>
<path fill-rule="evenodd" clip-rule="evenodd" d="M192.817 412.346L179.252 415.844L180.846 414.461L186.112 409.866C186.79 409.206 186.389 408.66 185.587 408.161L179.402 404.589L179.056 404.733C180.196 405.826 180.972 406.919 181.481 407.994L172.42 417.157L176.484 419.497L196.881 414.692L192.817 412.346ZM212.794 434.597C213.362 434.093 216.061 431.685 216.061 431.685L217.043 430.819C216.308 431.019 215.099 431.328 215.161 431.319C215.161 431.319 210.758 432.463 209.611 432.759L212.794 434.597ZM212.34 440.231L208.782 438.176C208.782 438.176 210.081 437.018 210.47 436.661C209.911 436.338 206.004 434.074 205.565 433.821C205.027 433.959 202.594 434.602 202.594 434.602L198.567 432.277L217.447 427.952C218.789 427.643 219.732 427.893 220.65 428.424L223.614 430.135L212.34 440.231ZM204.236 425.601C203.562 424.442 203.185 423.712 203.869 423.327C204.466 422.982 205.801 423.013 207.302 423.88C208.576 424.594 209.206 425.28 209.62 425.857L209.8 426.152L213.437 424.651C212.969 424.044 212.09 423.176 210.604 422.317C206.813 420.128 202.193 419.713 199.374 421.315C197.286 422.496 198.058 424.276 198.826 425.513C199.613 426.783 199.665 427.333 199.03 427.692C198.055 428.244 196.431 427.815 195.328 427.178C193.794 426.292 193.197 425.694 192.475 424.657L192.208 424.239L188.45 425.789C188.945 426.538 190.252 427.696 191.955 428.699C195.987 431.027 200.534 431.424 203.549 429.718C205.2 428.782 205.424 427.472 204.236 425.601ZM198.444 415.584L202.279 417.799L185.493 424.721L181.659 422.507L198.444 415.584Z" fill="white"/>
<g filter="url(#filter1_d)">
<path d="M135.215 310.177L112.43 297.019C110.478 295.891 107.312 295.891 105.359 297.019L86.2672 308.045C84.3146 309.172 84.3146 311.001 86.2672 312.128L109.052 325.286C111.004 326.414 114.17 326.414 116.123 325.286L135.215 314.261C137.167 313.133 137.167 311.305 135.215 310.177Z" fill="#D0D6D9"/>
</g>
<path d="M89.9794 305.901L98.6218 310.892C99.5363 311.42 100.992 311.428 101.873 310.92L110.722 305.809C111.603 305.3 111.588 304.46 110.674 303.931L102.031 298.94L102.738 298.532L111.381 303.523C112.683 304.275 112.704 305.481 111.429 306.217L102.58 311.328C101.305 312.064 99.2164 312.052 97.9147 311.3L89.2723 306.309L89.9794 305.901ZM97.2076 310.892L90.8436 314.567L90.1365 314.158L96.5005 310.483L97.2076 310.892ZM110.643 318.65L104.279 322.325L103.572 321.917L109.935 318.242L110.643 318.65ZM116.83 299.56L110.674 303.114L111.381 303.523C112.683 304.275 112.704 305.481 111.429 306.217L111.408 306.229L118.872 310.54L118.893 310.528C120.117 309.821 122.089 309.804 123.397 310.468L129.558 306.91L130.265 307.318L124.109 310.873L132.594 315.774L131.887 316.182L122.852 310.964C121.975 310.458 120.602 310.429 119.713 310.875L119.6 310.936L116.044 312.99L126.729 319.161L126.022 319.569L115.337 313.398L110.751 316.047C109.907 316.534 109.886 317.327 110.69 317.857L110.8 317.924L119.835 323.142L119.128 323.55L110.093 318.333C108.836 317.607 108.772 316.457 109.917 315.716L110.044 315.638L111.094 315.032L103.63 310.721L102.58 311.328C101.305 312.064 99.2164 312.052 97.9147 311.3L89.2723 306.309L89.9794 305.901L98.6218 310.892C99.5363 311.42 100.992 311.428 101.873 310.92L106.458 308.271L96.1665 302.327L96.8737 301.919L107.166 307.863L110.722 305.809C111.603 305.3 111.588 304.46 110.674 303.931L102.031 298.94L102.738 298.532L109.967 302.706L116.123 299.151L116.83 299.56ZM118.165 310.948L110.701 306.638L104.337 310.313L111.801 314.623L118.165 310.948Z" fill="#879399"/>
<path fill-rule="evenodd" clip-rule="evenodd" d="M257.369 360.096C258.087 358.749 258.806 357.402 259.525 356.055C260.279 354.643 261.032 353.231 261.786 351.819C261.994 351.429 261.739 351.029 261.161 350.842C260.494 350.626 259.767 350.71 259.29 351.057C259.145 351.163 259.063 351.286 258.995 351.413C257.252 354.683 255.509 357.952 253.761 361.22C253.598 361.524 253.691 361.788 254.064 362.017C254.441 362.248 254.899 362.346 255.442 362.25C258.897 361.637 262.349 361.021 265.803 360.407C268.06 360.005 270.317 359.603 272.575 359.202C272.909 359.142 273.191 359.041 273.409 358.878C273.927 358.492 273.695 357.966 273.115 357.718C272.718 357.548 272.27 357.521 271.806 357.603C267.028 358.452 262.251 359.303 257.473 360.153C257.43 360.161 257.386 360.168 257.327 360.178C257.344 360.145 257.355 360.121 257.369 360.096ZM271.034 364.207C268.307 365.766 268.354 368.36 271.008 369.894C273.698 371.449 278.19 371.431 280.867 369.886C283.545 368.341 283.576 365.746 280.888 364.193C278.231 362.658 273.734 362.63 271.034 364.207ZM282.879 371.05C279.039 373.278 272.845 373.326 268.933 371.065C265.046 368.82 265.066 365.253 268.971 363.002C272.862 360.758 279.035 360.753 282.912 362.992C286.828 365.254 286.744 368.833 282.879 371.05ZM292.609 371.439C293.383 371.887 294.157 372.334 294.933 372.781C295.021 372.831 295.111 372.883 295.213 372.922C296.203 373.306 297.304 372.876 297.449 372.36C297.532 372.064 297.379 371.817 297.015 371.608C296.227 371.155 295.442 370.7 294.656 370.246C294.63 370.231 294.606 370.214 294.574 370.195L294.672 370.138C295.433 369.699 296.195 369.259 296.956 368.819C297.741 368.365 297.402 367.669 296.429 367.454C295.852 367.325 295.325 367.4 294.879 367.657C290.897 369.958 286.913 372.259 282.928 374.558C282.626 374.733 282.345 374.917 282.119 375.128C281.374 375.825 281.16 376.568 281.53 377.36C281.766 377.864 282.238 378.289 282.874 378.656C283.455 378.99 284.034 379.326 284.616 379.66C284.697 379.707 284.78 379.754 284.876 379.79C285.388 379.982 285.92 379.997 286.434 379.801C286.953 379.604 287.218 379.323 287.129 378.954C287.083 378.76 286.903 378.607 286.67 378.472C286.075 378.127 285.475 377.785 284.884 377.437C284.579 377.257 284.386 377.04 284.336 376.787C284.253 376.369 284.499 376.015 285.006 375.721C287.477 374.292 289.95 372.865 292.422 371.438L292.514 371.385L292.609 371.439ZM296.098 378.365C295.184 378.894 294.706 379.273 294.317 379.764C293.415 380.903 293.377 382.043 294.359 383.17C294.799 383.676 295.446 384.085 296.213 384.434C297.123 384.847 298.151 385.115 299.287 385.24C302.133 385.555 304.976 384.874 306.574 383.382C307.487 382.53 307.77 381.595 307.481 380.611C307.135 379.435 306.125 378.496 304.401 377.834C303.282 377.405 302.029 377.216 300.685 377.252C298.785 377.302 297.191 377.758 296.098 378.365ZM309.965 381.581L310.041 381.537C310.396 381.332 310.75 381.126 311.106 380.922C311.879 380.479 313.208 380.66 313.527 381.258C313.69 381.562 313.571 381.84 313.196 382.079C313.182 382.088 313.168 382.095 313.154 382.103C309.449 384.243 305.745 386.382 302.04 388.522C301.602 388.775 301.009 388.852 300.47 388.712C299.583 388.482 299.303 387.882 299.825 387.456C299.877 387.413 299.938 387.372 300.003 387.335C300.338 387.14 300.675 386.945 301.012 386.751L301.087 386.707C301.085 386.703 301.083 386.699 301.081 386.695C301.045 386.698 301.009 386.7 300.974 386.702C299.221 386.834 297.538 386.7 295.937 386.268C295.138 386.053 294.429 385.759 293.784 385.411C293.008 384.993 292.348 384.523 291.861 383.978C290.543 382.502 290.439 380.982 291.435 379.428C291.825 378.819 292.38 378.264 293.109 377.768C295.203 376.344 297.863 375.606 301.098 375.613C302.867 375.616 304.498 375.923 305.981 376.479C306.748 376.767 307.42 377.118 308.015 377.519C309.372 378.431 309.991 379.501 310.04 380.694C310.051 380.976 310.024 381.257 309.951 381.537C309.948 381.549 309.947 381.562 309.946 381.574C309.952 381.576 309.958 381.579 309.965 381.581Z" fill="white"/>
<g filter="url(#filter2_d)">
<rect width="218.094" height="137.399" rx="8.01276" transform="matrix(0.865969 -0.500097 0.865969 0.500097 247 259.506)" fill="url(#paint1_linear)"/>
</g>
<path fill-rule="evenodd" clip-rule="evenodd" d="M486.49 229.082L491.882 236.056L489.751 235.237L482.668 232.53C481.649 232.181 480.807 232.387 480.039 232.799L474.532 235.979L474.754 236.158C476.438 235.571 478.124 235.172 479.782 234.91L493.907 239.569L497.515 237.48L490.108 226.993L486.49 229.082ZM520.794 218.811C520.016 218.519 516.304 217.131 516.304 217.131L514.97 216.626C515.278 217.004 515.754 217.626 515.74 217.594C515.74 217.594 517.504 219.858 517.959 220.448L520.794 218.811ZM529.479 219.044L526.311 220.874C526.311 220.874 524.527 220.206 523.975 220.006C523.478 220.293 519.988 222.302 519.597 222.528C519.811 222.805 520.802 224.055 520.802 224.055L517.217 226.126L510.549 216.419C510.074 215.729 510.459 215.244 511.277 214.771L513.915 213.248L529.479 219.044ZM506.924 223.211C505.139 223.558 504.012 223.751 503.42 223.4C502.888 223.093 502.936 222.406 504.272 221.635C505.373 220.98 506.431 220.655 507.32 220.443L507.775 220.35L505.46 218.48C504.525 218.721 503.187 219.173 501.863 219.937C498.488 221.886 497.847 224.262 500.317 225.711C502.139 226.785 504.882 226.387 506.789 225.992C508.748 225.588 509.595 225.561 510.148 225.888C510.999 226.389 510.338 227.224 509.356 227.791C507.99 228.58 507.069 228.887 505.47 229.258L504.826 229.395L507.214 231.328C508.369 231.073 510.154 230.401 511.701 229.525C515.291 227.452 515.903 225.115 513.272 223.564C511.829 222.715 509.81 222.6 506.924 223.211ZM491.482 226.189L494.897 224.217L505.568 232.848L502.155 234.819L491.482 226.189Z" fill="white"/>
<path d="M328.98 258.698L308.695 270.413C306.957 271.417 306.957 273.045 308.695 274.049L325.693 283.865C327.431 284.869 330.25 284.869 331.988 283.865L352.273 272.15C354.012 271.146 354.012 269.518 352.273 268.514L335.276 258.698C333.537 257.694 330.719 257.694 328.98 258.698Z" fill="#D0D6D9"/>
<path d="M322.388 281.956L330.082 277.513C330.896 277.043 330.91 276.294 330.125 275.841L322.247 271.291C321.462 270.838 320.166 270.846 319.352 271.316L311.658 275.76L311.028 275.396L318.723 270.953C319.882 270.283 321.741 270.272 322.876 270.928L330.755 275.477C331.89 276.133 331.871 277.207 330.712 277.876L323.017 282.32L322.388 281.956ZM330.082 278.24L335.748 281.512L335.118 281.875L329.453 278.603L330.082 278.24ZM342.043 271.332L347.709 274.604L347.08 274.968L341.414 271.696L342.043 271.332ZM312.612 268.151L318.092 271.316L318.723 270.953C319.882 270.283 321.741 270.272 322.876 270.928L322.894 270.938L329.54 267.101L329.521 267.09C328.432 266.461 328.406 265.447 329.429 264.775L323.944 261.607L324.574 261.243L330.054 264.408L337.609 260.046L338.238 260.409L330.194 265.055C329.414 265.505 329.369 266.212 330.057 266.668L330.151 266.726L333.317 268.555L342.83 263.061L343.46 263.425L333.947 268.919L338.03 271.276C338.781 271.71 340.003 271.721 340.82 271.308L340.924 271.251L348.968 266.606L349.598 266.969L341.554 271.615C340.435 272.261 338.663 272.294 337.52 271.705L337.4 271.64L336.465 271.1L329.819 274.938L330.755 275.477C331.89 276.133 331.871 277.207 330.712 277.876L323.017 282.32L322.388 281.956L330.082 277.513C330.896 277.043 330.91 276.294 330.125 275.841L326.042 273.483L316.879 278.775L316.25 278.411L325.413 273.12L322.247 271.291C321.462 270.838 320.166 270.846 319.352 271.316L311.658 275.76L311.028 275.396L317.463 271.679L311.983 268.515L312.612 268.151ZM330.169 267.464L323.524 271.302L329.19 274.574L335.835 270.736L330.169 267.464Z" fill="#879399"/>
<path fill-rule="evenodd" clip-rule="evenodd" d="M405.939 195.893C403.862 195.523 401.785 195.153 399.709 194.784C397.532 194.396 395.355 194.009 393.178 193.621C392.577 193.514 391.96 193.646 391.672 193.943C391.34 194.286 391.469 194.659 392.004 194.905C392.167 194.979 392.357 195.021 392.553 195.056C397.593 195.953 402.633 196.849 407.671 197.747C408.14 197.831 408.547 197.784 408.9 197.592C409.257 197.398 409.407 197.162 409.259 196.883C408.314 195.107 407.365 193.332 406.418 191.556C405.798 190.396 405.179 189.235 404.56 188.074C404.468 187.902 404.312 187.758 404.061 187.645C403.466 187.379 402.656 187.498 402.272 187.797C402.01 188.001 401.968 188.231 402.095 188.469C403.404 190.926 404.716 193.382 406.027 195.839C406.039 195.861 406.05 195.884 406.064 195.914C406.015 195.905 405.976 195.899 405.939 195.893ZM412.276 188.867C414.679 190.269 418.679 190.244 421.044 188.88C423.44 187.497 423.413 185.187 421.032 183.811C418.649 182.434 414.65 182.418 412.255 183.8C409.888 185.166 409.845 187.478 412.276 188.867ZM422.826 182.776C426.261 184.751 426.334 187.935 422.849 189.947C419.387 191.945 413.889 191.935 410.418 189.927C406.959 187.927 406.952 184.753 410.404 182.759C413.89 180.746 419.408 180.789 422.826 182.776ZM423.426 177.774C424.116 177.375 424.806 176.977 425.494 176.579C425.572 176.534 425.651 176.487 425.712 176.435C426.303 175.926 425.641 175.359 424.845 175.285C424.389 175.242 424.008 175.321 423.686 175.508C422.988 175.913 422.286 176.317 421.587 176.721C421.563 176.735 421.537 176.747 421.507 176.763L421.42 176.713C420.742 176.321 420.065 175.93 419.387 175.539C418.686 175.135 417.614 175.309 417.281 175.809C417.084 176.106 417.198 176.377 417.595 176.606C421.143 178.654 424.689 180.702 428.234 182.751C428.504 182.907 428.787 183.051 429.112 183.167C430.187 183.55 431.333 183.66 432.553 183.47C433.331 183.348 433.986 183.106 434.551 182.779C435.067 182.48 435.585 182.182 436.1 181.883C436.172 181.842 436.245 181.799 436.3 181.75C436.595 181.486 436.618 181.213 436.317 180.948C436.013 180.681 435.581 180.546 435.012 180.591C434.712 180.615 434.476 180.707 434.268 180.827C433.737 181.133 433.209 181.442 432.672 181.745C432.395 181.902 432.061 182.001 431.67 182.027C431.026 182.07 430.48 181.944 430.027 181.683C427.824 180.412 425.624 179.141 423.423 177.87L423.342 177.823L423.426 177.774ZM434.104 175.98C434.919 176.45 435.503 176.696 436.259 176.895C438.016 177.359 439.773 177.379 441.511 176.874C442.291 176.648 442.922 176.315 443.459 175.921C444.096 175.453 444.509 174.924 444.702 174.34C445.188 172.877 444.139 171.415 441.837 170.593C440.524 170.124 439.082 169.979 437.565 170.127C435.753 170.305 434.305 170.824 433.284 171.711C432.623 172.286 432.331 172.93 432.386 173.621C432.465 174.598 433.167 175.418 434.104 175.98ZM439.06 168.85L438.993 168.811C438.677 168.629 438.36 168.446 438.045 168.263C437.362 167.866 437.641 167.183 438.563 167.018C439.031 166.935 439.461 166.996 439.829 167.189C439.842 167.196 439.854 167.203 439.866 167.21C443.165 169.115 446.463 171.02 449.761 172.924C450.151 173.15 450.271 173.455 450.055 173.732C449.7 174.188 448.776 174.332 448.118 174.064C448.051 174.037 447.989 174.005 447.931 173.972C447.631 173.8 447.331 173.626 447.032 173.453L446.964 173.414C446.958 173.415 446.951 173.416 446.946 173.418C446.949 173.436 446.952 173.455 446.956 173.473C447.16 174.374 446.953 175.24 446.287 176.063C445.955 176.473 445.501 176.838 444.966 177.169C444.321 177.568 443.597 177.908 442.757 178.158C440.482 178.836 438.138 178.889 435.741 178.377C434.803 178.177 433.947 177.891 433.183 177.517C430.987 176.44 429.85 175.072 429.86 173.409C429.865 172.499 430.339 171.661 431.196 170.898C431.64 170.504 432.181 170.159 432.799 169.852C434.205 169.155 435.854 168.837 437.693 168.812C438.128 168.806 438.562 168.819 438.993 168.857C439.012 168.859 439.031 168.859 439.051 168.86C439.054 168.857 439.057 168.853 439.06 168.85Z" fill="white"/>
<g filter="url(#filter3_d)">
<rect width="185.328" height="116.756" rx="6.80893" transform="matrix(0.865969 0.500097 -0.865969 0.500097 137.643 74.0001)" fill="url(#paint2_linear)"/>
</g>
<path fill-rule="evenodd" clip-rule="evenodd" d="M182.411 191.527L172.149 194.173L173.354 193.127L177.338 189.651C177.851 189.151 177.548 188.738 176.941 188.361L172.262 185.659L172 185.767C172.863 186.594 173.45 187.421 173.835 188.235L166.98 195.167L170.054 196.937L185.485 193.302L182.411 191.527ZM197.525 208.361C197.954 207.979 199.996 206.158 199.996 206.158L200.739 205.503C200.183 205.654 199.268 205.888 199.315 205.881C199.315 205.881 195.984 206.747 195.116 206.97L197.525 208.361ZM197.181 212.623L194.489 211.068C194.489 211.068 195.472 210.193 195.766 209.922C195.343 209.678 192.387 207.965 192.055 207.773C191.648 207.879 189.808 208.365 189.808 208.365L186.761 206.605L201.045 203.334C202.06 203.1 202.773 203.289 203.468 203.691L205.71 204.985L197.181 212.623ZM191.05 201.555C190.54 200.679 190.255 200.126 190.772 199.835C191.224 199.574 192.234 199.597 193.369 200.253C194.333 200.793 194.81 201.312 195.123 201.749L195.259 201.972L198.011 200.836C197.657 200.377 196.992 199.72 195.867 199.071C193 197.415 189.504 197.1 187.372 198.312C185.792 199.206 186.376 200.552 186.957 201.488C187.553 202.449 187.592 202.865 187.111 203.137C186.374 203.554 185.145 203.23 184.311 202.748C183.15 202.078 182.698 201.626 182.152 200.841L181.95 200.525L179.107 201.697C179.481 202.264 180.471 203.14 181.759 203.899C184.809 205.66 188.249 205.961 190.53 204.67C191.779 203.961 191.948 202.971 191.05 201.555ZM186.668 193.976L189.57 195.652L176.87 200.889L173.969 199.214L186.668 193.976Z" fill="white"/>
<g filter="url(#filter4_d)">
<path d="M138.832 114.231L121.595 104.276C120.117 103.423 117.722 103.423 116.245 104.276L101.801 112.618C100.324 113.471 100.324 114.854 101.801 115.707L119.039 125.662C120.516 126.515 122.911 126.515 124.388 125.662L138.832 117.32C140.309 116.467 140.309 115.084 138.832 114.231Z" fill="#D0D6D9"/>
</g>
<path d="M104.609 110.996L111.148 114.771C111.84 115.171 112.941 115.178 113.608 114.793L120.302 110.926C120.969 110.541 120.958 109.905 120.266 109.506L113.727 105.73L114.262 105.421L120.801 109.197C121.786 109.766 121.802 110.678 120.837 111.235L114.143 115.102C113.178 115.659 111.598 115.649 110.613 115.08L104.074 111.305L104.609 110.996ZM110.078 114.771L105.263 117.552L104.728 117.243L109.543 114.463L110.078 114.771ZM120.242 120.641L115.428 123.422L114.893 123.113L119.707 120.332L120.242 120.641ZM124.923 106.198L120.266 108.888L120.801 109.197C121.786 109.766 121.802 110.678 120.837 111.235L120.821 111.244L126.468 114.505L126.484 114.496C127.41 113.962 128.902 113.949 129.891 114.451L134.552 111.759L135.087 112.068L130.43 114.758L136.85 118.465L136.315 118.774L129.479 114.827C128.816 114.444 127.777 114.422 127.105 114.759L127.019 114.805L124.329 116.359L132.412 121.028L131.878 121.336L123.794 116.668L120.324 118.672C119.686 119.041 119.669 119.64 120.278 120.041L120.361 120.092L127.197 124.04L126.662 124.349L119.826 120.401C118.875 119.852 118.827 118.982 119.693 118.422L119.789 118.363L120.584 117.904L114.937 114.643L114.143 115.102C113.178 115.659 111.598 115.649 110.613 115.08L104.074 111.305L104.609 110.996L111.148 114.771C111.84 115.171 112.941 115.178 113.608 114.793L117.077 112.789L109.29 108.292L109.825 107.983L117.612 112.48L120.302 110.926C120.969 110.541 120.958 109.905 120.266 109.506L113.727 105.73L114.262 105.421L119.731 108.579L124.388 105.889L124.923 106.198ZM125.933 114.814L120.286 111.553L115.472 114.334L121.119 117.595L125.933 114.814Z" fill="#879399"/>
<path fill-rule="evenodd" clip-rule="evenodd" d="M231.247 151.997C231.791 150.978 232.335 149.959 232.879 148.94C233.449 147.872 234.019 146.803 234.589 145.735C234.747 145.44 234.554 145.137 234.117 144.996C233.612 144.833 233.062 144.896 232.701 145.159C232.591 145.239 232.529 145.332 232.478 145.428C231.159 147.901 229.84 150.375 228.518 152.847C228.395 153.077 228.465 153.277 228.747 153.45C229.033 153.625 229.379 153.699 229.79 153.626C232.403 153.163 235.015 152.697 237.628 152.232C239.336 151.928 241.043 151.624 242.751 151.32C243.004 151.275 243.217 151.199 243.382 151.076C243.774 150.784 243.599 150.386 243.16 150.198C242.86 150.069 242.521 150.049 242.17 150.111C238.555 150.753 234.941 151.397 231.326 152.04C231.294 152.046 231.26 152.051 231.216 152.059C231.229 152.034 231.237 152.016 231.247 151.997ZM241.586 155.107C239.523 156.286 239.559 158.249 241.566 159.41C243.601 160.586 246.999 160.572 249.025 159.404C251.051 158.234 251.075 156.272 249.041 155.097C247.03 153.935 243.628 153.914 241.586 155.107ZM250.547 160.284C247.642 161.97 242.956 162.006 239.996 160.295C237.056 158.597 237.07 155.898 240.025 154.195C242.968 152.498 247.639 152.494 250.572 154.188C253.535 155.899 253.471 158.607 250.547 160.284ZM257.908 160.579C258.494 160.917 259.08 161.256 259.667 161.594C259.733 161.632 259.801 161.671 259.879 161.701C260.627 161.991 261.461 161.666 261.57 161.275C261.633 161.051 261.517 160.864 261.242 160.706C260.646 160.363 260.052 160.019 259.457 159.676C259.437 159.664 259.419 159.652 259.395 159.637L259.469 159.594C260.045 159.262 260.622 158.929 261.197 158.596C261.791 158.252 261.535 157.727 260.799 157.563C260.362 157.466 259.963 157.523 259.626 157.717C256.613 159.458 253.599 161.198 250.585 162.938C250.355 163.07 250.143 163.21 249.972 163.369C249.408 163.896 249.246 164.459 249.527 165.058C249.705 165.439 250.062 165.761 250.544 166.038C250.983 166.291 251.421 166.545 251.861 166.798C251.923 166.833 251.985 166.869 252.058 166.896C252.445 167.041 252.848 167.053 253.237 166.905C253.63 166.755 253.829 166.543 253.763 166.264C253.728 166.117 253.592 166.002 253.416 165.899C252.965 165.638 252.511 165.379 252.064 165.116C251.834 164.98 251.687 164.816 251.649 164.625C251.587 164.308 251.772 164.04 252.156 163.818C254.025 162.737 255.897 161.657 257.767 160.577L257.836 160.537L257.908 160.579ZM260.548 165.819C259.856 166.219 259.494 166.505 259.201 166.876C258.518 167.739 258.49 168.601 259.232 169.453C259.565 169.836 260.054 170.146 260.635 170.409C261.324 170.722 262.101 170.925 262.961 171.02C265.114 171.258 267.265 170.743 268.474 169.614C269.164 168.969 269.378 168.262 269.159 167.517C268.898 166.628 268.134 165.917 266.829 165.417C265.983 165.092 265.035 164.949 264.018 164.976C262.581 165.014 261.375 165.359 260.548 165.819ZM271.039 168.251L271.096 168.218C271.365 168.063 271.633 167.907 271.902 167.753C272.487 167.417 273.492 167.554 273.734 168.007C273.857 168.237 273.767 168.448 273.483 168.628C273.473 168.635 273.462 168.64 273.452 168.647C270.649 170.265 267.846 171.884 265.044 173.502C264.712 173.694 264.263 173.753 263.855 173.647C263.184 173.472 262.973 173.019 263.367 172.696C263.407 172.663 263.453 172.633 263.502 172.604C263.756 172.457 264.011 172.31 264.265 172.163L264.323 172.13C264.321 172.127 264.32 172.123 264.318 172.121C264.291 172.122 264.264 172.124 264.237 172.126C262.911 172.226 261.637 172.124 260.426 171.798C259.821 171.634 259.286 171.412 258.798 171.149C258.211 170.833 257.711 170.477 257.342 170.065C256.346 168.948 256.266 167.798 257.02 166.622C257.315 166.162 257.735 165.742 258.286 165.367C259.871 164.289 261.883 163.731 264.33 163.736C265.669 163.739 266.903 163.971 268.025 164.392C268.605 164.609 269.113 164.875 269.564 165.178C270.59 165.868 271.059 166.678 271.095 167.58C271.104 167.793 271.084 168.006 271.028 168.218C271.026 168.227 271.026 168.237 271.024 168.246C271.029 168.248 271.034 168.25 271.039 168.251Z" fill="white"/>
<g filter="url(#filter5_d)">
<rect width="160.161" height="100.902" rx="5.88431" transform="matrix(0.865969 -0.500097 0.865969 0.500097 262.168 80.536)" fill="url(#paint3_linear)"/>
</g>
<path fill-rule="evenodd" clip-rule="evenodd" d="M438.042 58.1933L442.002 63.3151L440.437 62.7134L435.235 60.7252C434.487 60.4692 433.869 60.6205 433.304 60.9232L429.26 63.2585L429.423 63.3894C430.66 62.9588 431.898 62.6658 433.115 62.4734L443.489 65.8946L446.138 64.3604L440.698 56.6591L438.042 58.1933ZM463.234 50.6504C462.662 50.4361 459.936 49.417 459.936 49.417L458.956 49.0463C459.183 49.3236 459.532 49.7802 459.522 49.7568C459.522 49.7568 460.818 51.4193 461.152 51.8525L463.234 50.6504ZM469.611 50.8219L467.285 52.1654C467.285 52.1654 465.975 51.675 465.57 51.528C465.204 51.739 462.642 53.2143 462.354 53.3802C462.512 53.5833 463.239 54.5018 463.239 54.5018L460.606 56.0223L455.71 48.8938C455.361 48.3871 455.644 48.0309 456.244 47.6841L458.182 46.5653L469.611 50.8219ZM453.048 53.8817C451.737 54.1364 450.91 54.2785 450.474 54.0205C450.084 53.7949 450.119 53.291 451.101 52.7242C451.909 52.2432 452.686 52.0051 453.338 51.849L453.672 51.7811L451.973 50.4079C451.286 50.5844 450.303 50.9162 449.331 51.4776C446.853 52.9088 446.382 54.6533 448.196 55.7177C449.534 56.5061 451.548 56.2144 452.949 55.9244C454.387 55.6273 455.009 55.6076 455.416 55.8475C456.04 56.2156 455.555 56.8288 454.834 57.2452C453.831 57.8247 453.154 58.0499 451.98 58.3227L451.507 58.4235L453.261 59.8424C454.109 59.6554 455.42 59.1617 456.556 58.5189C459.192 56.9964 459.641 55.2798 457.709 54.1413C456.65 53.5179 455.167 53.4334 453.048 53.8817ZM441.708 56.0688L444.215 54.6206L452.052 60.9588L449.546 62.4064L441.708 56.0688Z" fill="white"/>
<path d="M322.372 79.9426L307.475 88.5454C306.198 89.2827 306.198 90.478 307.475 91.2153L319.958 98.424C321.234 99.1612 323.304 99.1612 324.581 98.424L339.477 89.8211C340.754 89.0838 340.754 87.8885 339.477 87.1512L326.995 79.9426C325.718 79.2053 323.648 79.2053 322.372 79.9426Z" fill="#D0D6D9"/>
<path d="M317.53 97.0224L323.181 93.7592C323.779 93.4139 323.789 92.8643 323.212 92.5316L317.427 89.1903C316.851 88.8577 315.899 88.8634 315.301 89.2087L309.65 92.4718L309.188 92.2049L314.839 88.9417C315.69 88.4502 317.055 88.442 317.889 88.9234L323.675 92.2646C324.508 92.746 324.494 93.5347 323.643 94.0262L317.993 97.2894L317.53 97.0224ZM323.181 94.2932L327.342 96.6961L326.879 96.9631L322.718 94.5602L323.181 94.2932ZM331.965 89.2204L336.126 91.6233L335.663 91.8903L331.502 89.4874L331.965 89.2204ZM310.351 86.8843L314.376 89.2085L314.839 88.9417C315.69 88.4502 317.055 88.442 317.889 88.9234L317.902 88.9314L322.783 86.113L322.769 86.1052C321.969 85.6433 321.95 84.8986 322.701 84.4048L318.673 82.0785L319.135 81.8115L323.16 84.1357L328.708 80.9321L329.17 81.199L323.263 84.6106C322.69 84.9414 322.657 85.46 323.162 85.7955L323.231 85.8382L325.556 87.181L332.543 83.1465L333.005 83.4135L326.019 87.448L329.017 89.1794C329.569 89.4983 330.466 89.5063 331.066 89.2025L331.143 89.1611L337.05 85.7496L337.513 86.0166L331.605 89.4281C330.783 89.9027 329.482 89.9267 328.643 89.4945L328.555 89.4464L327.868 89.0499L322.988 91.8682L323.675 92.2646C324.508 92.746 324.494 93.5347 323.643 94.0262L317.993 97.2894L317.53 97.0224L323.181 93.7592C323.779 93.4139 323.789 92.8643 323.212 92.5316L320.214 90.8003L313.485 94.6863L313.023 94.4193L319.752 90.5333L317.427 89.1903C316.851 88.8577 315.899 88.8634 315.301 89.2087L309.65 92.4718L309.188 92.2049L313.914 89.4755L309.889 87.1513L310.351 86.8843ZM323.245 86.38L318.365 89.1983L322.526 91.6012L327.406 88.7829L323.245 86.38Z" fill="#879399"/>
<path fill-rule="evenodd" clip-rule="evenodd" d="M378.888 33.8202C377.362 33.5488 375.837 33.2774 374.312 33.0059C372.714 32.7215 371.115 32.4369 369.517 32.1523C369.075 32.0737 368.622 32.1701 368.411 32.3882C368.166 32.6401 368.261 32.9147 368.654 33.0949C368.774 33.1496 368.913 33.1804 369.057 33.206C372.759 33.8644 376.46 34.5224 380.16 35.1824C380.504 35.2437 380.803 35.2089 381.062 35.068C381.324 34.9254 381.435 34.7525 381.325 34.5475C380.632 33.2433 379.935 31.9396 379.239 30.6357C378.784 29.7834 378.33 28.9312 377.875 28.0788C377.808 27.9525 377.693 27.8462 377.509 27.7638C377.072 27.5682 376.476 27.6558 376.195 27.8749C376.002 28.0246 375.972 28.1937 376.065 28.3689C377.026 30.1731 377.99 31.9768 378.952 33.7807C378.961 33.7971 378.969 33.8136 378.98 33.8358C378.943 33.8296 378.915 33.8252 378.888 33.8202ZM383.542 28.6605C385.306 29.6902 388.243 29.6722 389.98 28.6702C391.74 27.6548 391.72 25.9586 389.971 24.9478C388.222 23.9366 385.284 23.9248 383.526 24.9397C381.788 25.9432 381.756 27.6411 383.542 28.6605ZM391.289 24.1881C393.812 25.6381 393.865 27.9765 391.306 29.4539C388.764 30.9212 384.726 30.914 382.177 29.4396C379.637 27.9704 379.631 25.6396 382.167 24.1756C384.727 22.697 388.779 22.7287 391.289 24.1881ZM391.73 20.5144C392.236 20.2218 392.743 19.9296 393.248 19.6367C393.306 19.6035 393.364 19.5696 393.408 19.5309C393.843 19.1572 393.356 18.7413 392.772 18.6867C392.437 18.6555 392.157 18.7131 391.921 18.8505C391.408 19.148 390.893 19.4444 390.379 19.7412C390.362 19.7512 390.343 19.7604 390.32 19.7721L390.257 19.7354C389.759 19.4478 389.261 19.1601 388.763 18.873C388.249 18.5764 387.462 18.7044 387.217 19.0718C387.072 19.2897 387.156 19.4888 387.448 19.6571C390.053 21.1608 392.657 22.6649 395.26 24.1694C395.458 24.2837 395.667 24.3898 395.905 24.475C396.695 24.7564 397.536 24.8373 398.432 24.6973C399.003 24.6082 399.484 24.43 399.899 24.1898C400.279 23.9705 400.658 23.7518 401.037 23.5321C401.09 23.5016 401.143 23.4702 401.184 23.4342C401.401 23.2407 401.418 23.0397 401.197 22.8457C400.973 22.6497 400.656 22.5499 400.238 22.5833C400.018 22.6008 399.845 22.6686 399.692 22.7565C399.301 22.9814 398.914 23.208 398.52 23.431C398.316 23.546 398.071 23.619 397.784 23.6379C397.31 23.6692 396.91 23.5765 396.578 23.3849C394.96 22.4521 393.344 21.5183 391.728 20.5849L391.668 20.5502L391.73 20.5144ZM399.571 19.197C400.17 19.5421 400.598 19.7226 401.154 19.8692C402.444 20.2101 403.734 20.2241 405.01 19.8535C405.583 19.6874 406.047 19.4432 406.441 19.1535C406.909 18.8098 407.212 18.4218 407.354 17.9927C407.711 16.9182 406.94 15.8446 405.25 15.2412C404.286 14.8967 403.227 14.79 402.113 14.8991C400.782 15.0295 399.719 15.4109 398.969 16.062C398.483 16.4844 398.269 16.9574 398.31 17.4649C398.367 18.1824 398.883 18.7841 399.571 19.197ZM403.211 13.961L403.161 13.9324C402.929 13.7984 402.697 13.6646 402.465 13.5301C401.964 13.2385 402.168 12.7366 402.845 12.616C403.19 12.5547 403.505 12.5994 403.775 12.7412C403.785 12.7462 403.794 12.7517 403.803 12.7569C406.225 14.1557 408.647 15.5544 411.069 16.9532C411.356 17.1186 411.444 17.3425 411.285 17.5462C411.024 17.8812 410.346 17.9867 409.863 17.7898C409.814 17.7698 409.768 17.747 409.725 17.7226C409.505 17.596 409.285 17.4687 409.065 17.3416L409.015 17.313C409.011 17.3137 409.006 17.3145 409.002 17.3154C409.004 17.3289 409.006 17.3425 409.01 17.356C409.159 18.0177 409.007 18.6533 408.518 19.2578C408.274 19.5595 407.941 19.8269 407.548 20.0704C407.075 20.3634 406.542 20.6129 405.925 20.7968C404.255 21.2942 402.533 21.3337 400.774 20.9574C400.085 20.8102 399.456 20.6005 398.895 20.3256C397.282 19.5348 396.447 18.5304 396.454 17.3091C396.458 16.641 396.806 16.0251 397.436 15.4652C397.761 15.1756 398.159 14.9221 398.612 14.6972C399.645 14.1849 400.857 13.9512 402.207 13.9328C402.526 13.9284 402.845 13.9386 403.161 13.9663C403.176 13.9675 403.19 13.9677 403.204 13.9683C403.206 13.9659 403.209 13.9635 403.211 13.961Z" fill="white"/>
<defs>
<filter id="filter0_d" x="0.56543" y="259.636" width="340.644" height="198.412" filterUnits="userSpaceOnUse" color-interpolation-filters="sRGB">
<feFlood flood-opacity="0" result="BackgroundImageFix"/>
<feColorMatrix in="SourceAlpha" type="matrix" values="0 0 0 0 0 0 0 0 0 0 0 0 0 0 0 0 0 0 127 0"/>
<feOffset dx="-2" dy="2"/>
<feGaussianBlur stdDeviation="1"/>
<feColorMatrix type="matrix" values="0 0 0 0 0.101961 0 0 0 0 0.290196 0 0 0 0 0.266667 0 0 0 0.2 0"/>
<feBlend mode="normal" in2="BackgroundImageFix" result="effect1_dropShadow"/>
<feBlend mode="normal" in="SourceGraphic" in2="effect1_dropShadow" result="shape"/>
</filter>
<filter id="filter1_d" x="82.8028" y="296.173" width="53.8763" height="31.9585" filterUnits="userSpaceOnUse" color-interpolation-filters="sRGB">
<feFlood flood-opacity="0" result="BackgroundImageFix"/>
<feColorMatrix in="SourceAlpha" type="matrix" values="0 0 0 0 0 0 0 0 0 0 0 0 0 0 0 0 0 0 127 0"/>
<feOffset dx="-1" dy="1"/>
<feGaussianBlur stdDeviation="0.5"/>
<feColorMatrix type="matrix" values="0 0 0 0 0 0 0 0 0 0 0 0 0 0 0 0 0 0 0.25 0"/>
<feBlend mode="normal" in2="BackgroundImageFix" result="effect1_dropShadow"/>
<feBlend mode="normal" in="SourceGraphic" in2="effect1_dropShadow" result="shape"/>
</filter>
<filter id="filter2_d" x="249.284" y="152.785" width="303.278" height="176.648" filterUnits="userSpaceOnUse" color-interpolation-filters="sRGB">
<feFlood flood-opacity="0" result="BackgroundImageFix"/>
<feColorMatrix in="SourceAlpha" type="matrix" values="0 0 0 0 0 0 0 0 0 0 0 0 0 0 0 0 0 0 127 0"/>
<feOffset dy="1.78061"/>
<feGaussianBlur stdDeviation="0.890307"/>
<feColorMatrix type="matrix" values="0 0 0 0 0.101961 0 0 0 0 0.290196 0 0 0 0 0.266667 0 0 0 0.2 0"/>
<feBlend mode="normal" in2="BackgroundImageFix" result="effect1_dropShadow"/>
<feBlend mode="normal" in="SourceGraphic" in2="effect1_dropShadow" result="shape"/>
</filter>
<filter id="filter3_d" x="36.9636" y="75.9948" width="257.714" height="150.108" filterUnits="userSpaceOnUse" color-interpolation-filters="sRGB">
<feFlood flood-opacity="0" result="BackgroundImageFix"/>
<feColorMatrix in="SourceAlpha" type="matrix" values="0 0 0 0 0 0 0 0 0 0 0 0 0 0 0 0 0 0 127 0"/>
<feOffset dx="-1.51309" dy="1.51309"/>
<feGaussianBlur stdDeviation="0.756547"/>
<feColorMatrix type="matrix" values="0 0 0 0 0.101961 0 0 0 0 0.290196 0 0 0 0 0.266667 0 0 0 0.2 0"/>
<feBlend mode="normal" in2="BackgroundImageFix" result="effect1_dropShadow"/>
<feBlend mode="normal" in="SourceGraphic" in2="effect1_dropShadow" result="shape"/>
</filter>
<filter id="filter4_d" x="99.1801" y="103.636" width="40.76" height="24.1782" filterUnits="userSpaceOnUse" color-interpolation-filters="sRGB">
<feFlood flood-opacity="0" result="BackgroundImageFix"/>
<feColorMatrix in="SourceAlpha" type="matrix" values="0 0 0 0 0 0 0 0 0 0 0 0 0 0 0 0 0 0 127 0"/>
<feOffset dx="-0.756547" dy="0.756547"/>
<feGaussianBlur stdDeviation="0.378274"/>
<feColorMatrix type="matrix" values="0 0 0 0 0 0 0 0 0 0 0 0 0 0 0 0 0 0 0.25 0"/>
<feBlend mode="normal" in2="BackgroundImageFix" result="effect1_dropShadow"/>
<feBlend mode="normal" in="SourceGraphic" in2="effect1_dropShadow" result="shape"/>
</filter>
<filter id="filter5_d" x="263.845" y="2.1637" width="222.718" height="129.724" filterUnits="userSpaceOnUse" color-interpolation-filters="sRGB">
<feFlood flood-opacity="0" result="BackgroundImageFix"/>
<feColorMatrix in="SourceAlpha" type="matrix" values="0 0 0 0 0 0 0 0 0 0 0 0 0 0 0 0 0 0 127 0"/>
<feOffset dy="1.30763"/>
<feGaussianBlur stdDeviation="0.653813"/>
<feColorMatrix type="matrix" values="0 0 0 0 0.101961 0 0 0 0 0.290196 0 0 0 0 0.266667 0 0 0 0.2 0"/>
<feBlend mode="normal" in2="BackgroundImageFix" result="effect1_dropShadow"/>
<feBlend mode="normal" in="SourceGraphic" in2="effect1_dropShadow" result="shape"/>
</filter>
<linearGradient id="paint0_linear" x1="-3.04078e-06" y1="-4.08274" x2="244.965" y2="154.328" gradientUnits="userSpaceOnUse">
<stop stop-color="#1A4A44"/>
<stop offset="1" stop-color="#091A17"/>
</linearGradient>
<linearGradient id="paint1_linear" x1="94.5755" y1="3.58045" x2="148.676" y2="90.5209" gradientUnits="userSpaceOnUse">
<stop stop-color="#12332F"/>
<stop offset="1" stop-color="#091A17"/>
</linearGradient>
<linearGradient id="paint2_linear" x1="-2.30049e-06" y1="-3.08879" x2="185.328" y2="116.756" gradientUnits="userSpaceOnUse">
<stop stop-color="#1A4A44"/>
<stop offset="1" stop-color="#091A17"/>
</linearGradient>
<linearGradient id="paint3_linear" x1="69.4532" y1="2.62937" x2="109.183" y2="66.4756" gradientUnits="userSpaceOnUse">
<stop stop-color="#12332F"/>
<stop offset="1" stop-color="#091A17"/>
</linearGradient>
</defs>
</svg>
