<svg width="200" height="200" xmlns="http://www.w3.org/2000/svg"><g fill="none" fill-rule="evenodd"><path d="M0 200h200V0H0z"/><path d="M113.295 79.666c0 2.588-1.527 5.585-3.394 6.663l-32.814 18.94c-1.867 1.078-3.395-.157-3.395-2.744l-.003-25.085c0-2.585 1.527-5.584 3.394-6.662l32.814-18.94c1.867-1.078 3.395.157 3.395 2.745l.003 25.084z" fill="#32BBAB"/><path d="M89.53 69.865c0 .862-.509 1.862-1.13 2.221l-10.185 5.878c-.623.36-1.132-.052-1.132-.914 0-.863.51-1.862 1.132-2.222l10.183-5.878c.623-.359 1.132.053 1.132.915M82.743 88.678c0-.431-.254-.637-.566-.457l-4.526 2.612c-.311.18-.566.679-.565 1.11 0 .432.254.638.565.458l4.527-2.612c.31-.18.565-.68.565-1.111M91.795 83.453c0-.43-.254-.637-.566-.458l-4.526 2.613c-.311.18-.566.68-.566 1.111 0 .431.255.636.566.457l4.527-2.613c.31-.179.565-.679.565-1.11M100.847 78.228c0-.431-.255-.637-.566-.457l-4.526 2.612c-.31.18-.566.679-.566 1.111 0 .431.255.636.566.457l4.526-2.613c.312-.179.566-.679.566-1.11M109.9 73.003c0-.43-.256-.637-.567-.458l-4.526 2.613c-.31.18-.566.68-.566 1.11 0 .431.255.637.566.458l4.526-2.613c.311-.179.566-.679.566-1.11M82.742 80.055c0-.862-.51-1.274-1.131-.915l-3.395 1.96c-.622.36-1.132 1.358-1.131 2.221v3.135c0 .862.509 1.274 1.132.915l3.394-1.96c.623-.359 1.13-1.358 1.13-2.22v-3.136z" fill="#FCF8EE"/><path d="M68.599 92.922c0-.866-.507-1.275-1.132-.915l-22.63 13.062c-.625.361-1.132 1.355-1.132 2.222 0 .865.507 1.275 1.132.914l22.63-13.062c.625-.36 1.132-1.355 1.132-2.22m0 7.838c0-.866-.506-1.276-1.131-.915l-10.183 5.878c-.625.361-1.132 1.355-1.132 2.221 0 .866.507 1.275 1.132.915l10.183-5.878c.625-.36 1.132-1.355 1.13-2.22m-1.131-13.458l-15.842 9.143c-.625.361-1.131-.048-1.131-.914s.506-1.86 1.13-2.22l15.842-9.144c.625-.36 1.132.048 1.132.914s-.506 1.86-1.131 2.221" fill="#32BBAB"/><path d="M123.488 148.235c-1.144.66-3.015.66-4.158 0l-30.49-17.608c-1.144-.661-1.144-1.741 0-2.401l21.828-12.606c1.143-.66 3.014-.66 4.158 0l30.49 17.608c1.144.66 1.144 1.74 0 2.4l-21.828 12.607zM123.141 101.613a.763.763 0 0 0-.693 0l-5.232 3.021c-1.925-.908-4.753-.856-6.548.18-1.795 1.037-1.884 2.671-.312 3.782l-29.832 17.228c-.192.111.155.09.346.2.191.111.155.311.347.2l29.832-17.228c1.925.908 4.754.857 6.55-.18 1.793-1.036 1.882-2.67.31-3.78l5.232-3.023c.191-.11.191-.29 0-.4M134.575 117.82l-13.859-8.003c-.287-.165-.287-.434 0-.6.287-.166.752-.166 1.04 0l13.86 8.003c.286.166.285.435 0 .6-.289.167-.754.167-1.04 0M137 121.623l-18.364-10.605c-.19-.11-.19-.29 0-.4a.765.765 0 0 1 .695 0l18.362 10.605c.191.11.191.289 0 .4a.769.769 0 0 1-.693 0" fill="#32BBAB" opacity=".5"/></g></svg>