<svg width="200" height="200" xmlns="http://www.w3.org/2000/svg"><g fill="none" fill-rule="evenodd"><path d="M0 200h200V0H0z"/><path d="M69.696 106.627c0 3.377 1.982 4.98 4.42 3.573 2.438-1.407 4.42-5.298 4.42-8.676V100.3l-8.84 5.103v1.225zm19.447-16.125c0 .677-.395 1.453-.884 1.735l-28.288 16.328c-.488.282-.883-.038-.884-.714 0-.678.396-1.453.884-1.736 1.204-.694 2.652-5.29 2.651-7.655v-7.349c0-7.129 3.398-15.14 8.068-19.858a5.438 5.438 0 0 1-.13-1.128c0-2.7 1.587-5.815 3.536-6.94 1.95-1.126 3.536.157 3.536 2.858a8 8 0 0 1-.125 1.264c4.684-.693 8.098 3.395 8.1 10.538v7.35c0 2.363 1.45 5.287 2.652 4.593.49-.283.884.037.884.714z" fill="#1A4A44"/><path d="M92.146 61.227c0 5.413-3.166 11.627-7.071 13.882-3.906 2.254-7.073-.305-7.073-5.718-.001-5.412 3.165-11.626 7.071-13.88 3.906-2.255 7.072.304 7.073 5.716" fill="#F2584D" opacity=".8"/><path d="M133.863 130.946h5.347c.99 0 1.79-.46 1.79-1.029s-.8-1.029-1.79-1.029h-5.347c-.99 0-1.79.46-1.79 1.03 0 .284.2.54.524.727.323.186.77.301 1.266.301m-3.094-6.851l5.064-2.911c.7-.403.7-1.054 0-1.456-.699-.403-1.833-.403-2.532 0l-5.065 2.911c-.698.402-.698 1.054 0 1.456.7.401 1.834.401 2.533 0m-12.24-1.963c.99 0 1.79-.461 1.79-1.03v-3.073c.002-.568-.8-1.029-1.788-1.029-.99 0-1.79.461-1.79 1.029l-.002 3.074c0 .284.2.54.525.727.324.187.771.302 1.265.302m-19.016 2.463l-5.908-3.397c-.465-.266-1.224-.266-1.688 0l-18.569 10.675c-.464.266-.464.703 0 .97l5.908 3.397c.928.533 2.448.533 3.377 0l16.88-9.705c.929-.533.929-1.406 0-1.94m21.102 18.924c-1.393.8-3.672.8-5.065 0l-1.33-.764c-.013.004-.026.011-.04.017 1.05.805.953 1.956-.318 2.687-1.393.8-3.672.8-5.065 0l-.551-.317-.314.104c.455.726.188 1.574-.822 2.153-1.393.801-3.672.801-5.065 0l-1.688-.97a2.863 2.863 0 0 1-.476-.343c-7.203-3.428-11.355-7.094-13.873-9.846l16.88-9.705c3.368 1.936 5.184.745 9.644.751 4.178.008 6.378.332 9.432-1.423 2.197-1.263 5.216.315 4.806 1.996-.774 3.186-12.43 3.276-6.89 6.462.226.13.416.262.594.398.045.022.097.04.14.065l5.064 2.911c1.393.801 1.393 2.112 0 2.911-1.392.801-3.671.801-5.063 0 1.392.801 1.392 2.112 0 2.913" fill="#1A4A44" opacity=".3"/></g></svg>