<svg width="321" height="466" viewBox="0 0 321 466" fill="none" xmlns="http://www.w3.org/2000/svg">
<path fill-rule="evenodd" clip-rule="evenodd" d="M59.8641 25.2884L56.9259 26.7066L53.9581 20.5587L56.8957 19.1399L59.8641 25.2884ZM109 114.09L112.577 114.679L113.809 107.193L110.233 106.604L109 114.09ZM131.806 56.8063L129.605 50.3442L126.517 51.3951L128.717 57.8584L131.806 56.8063ZM187.386 82.4994L183.794 82.0125L182.777 89.5299L186.368 90.0169L187.386 82.4994ZM241.934 168.318L239.037 169.819L242.179 175.88L245.076 174.378L241.934 168.318ZM168.603 146.855L166.218 140.458L169.275 139.317L171.659 145.716L168.603 146.855Z" fill="#F2584D"/>
<path fill-rule="evenodd" clip-rule="evenodd" d="M300.248 5.8193L297.821 5.07933L299.37 0L301.797 0.740629L300.248 5.8193ZM229.778 36.0093L233.325 35.2647L231.767 27.8406L228.22 28.5845L229.778 36.0093ZM254.011 48.5476L256.392 47.6703L254.555 42.6882L252.174 43.5656L254.011 48.5476ZM232.109 123.773L235.702 123.286L234.683 115.769L231.091 116.255L232.109 123.773ZM218.687 66.1204L221.664 67.4544L218.872 73.6858L215.895 72.3511L218.687 66.1204ZM308.435 114.299L309.984 112.289L314.189 115.531L312.64 117.541L308.435 114.299ZM288.162 80.5049L285.38 82.8273L290.242 88.6506L293.024 86.3281L288.162 80.5049ZM303.614 75.879L301.852 69.2836L305.003 68.4404L306.766 75.0372L303.614 75.879ZM277.579 41.783L281.193 42.0636L281.781 34.5008L278.167 34.2202L277.579 41.783ZM317.577 17.1656L315.192 10.7686L318.249 9.62842L320.634 16.0267L317.577 17.1656ZM219.383 101.176L216.263 100.225L214.271 106.755L217.392 107.706L219.383 101.176ZM275.222 159.98L274.938 162.903L268.821 162.308L269.105 159.385L275.222 159.98ZM259.153 123.193L258.932 125.467L263.69 125.929L263.91 123.656L259.153 123.193ZM234.165 139.197L239.385 135.953L240.936 138.449L235.714 141.692L234.165 139.197ZM306.173 155.879L308.601 156.619L310.149 151.541L307.722 150.801L306.173 155.879ZM292.51 165.148L291.847 161.584L299.305 160.198L299.968 163.761L292.51 165.148ZM315.308 165.978L317.693 172.374L320.75 171.236L318.366 164.837L315.308 165.978ZM43.2278 4.64209L45.0022 6.98166L49.8995 3.26795L48.1251 0.927734L43.2278 4.64209ZM127.676 24.2791L124.072 23.896L123.269 31.4391L126.873 31.8222L127.676 24.2791ZM65.4798 71.5723L61.8751 71.956L62.6788 79.4992L66.2828 79.116L65.4798 71.5723ZM127.784 144.163L124.692 145.204L122.515 138.733L125.607 137.693L127.784 144.163ZM39.0229 146.97L41.4282 146.161L43.121 151.193L40.7164 152.002L39.0229 146.97ZM77.2538 129.484L74.3162 128.066L77.2841 121.917L80.2223 123.336L77.2538 129.484ZM65.2965 159.385L61.73 160.029L63.0746 167.494L66.6417 166.851L65.2965 159.385ZM11.0676 111.056L8.21941 113.299L3.52649 107.339L6.37405 105.097L11.0676 111.056ZM14.0737 151.845L17.6783 152.229L16.8745 159.772L13.2706 159.389L14.0737 151.845ZM80.6271 95.5553L77.535 94.515L79.7123 88.0444L82.8043 89.0841L80.6271 95.5553ZM140.649 81.3139L138.243 80.5049L136.551 85.5382L138.955 86.3465L140.649 81.3139ZM102.388 78.5909L105.989 78.1848L106.84 85.7233L103.239 86.1288L102.388 78.5909ZM23.7591 31.2043L23.3917 34.1176L29.4897 34.8872L29.857 31.9726L23.7591 31.2043ZM38.6859 69.1547L38.4 71.4213L33.6578 70.8232L33.9431 68.5566L38.6859 69.1547ZM63.8496 56.1303L58.5389 59.2236L57.0609 56.6856L62.3722 53.5923L63.8496 56.1303ZM167.755 52.8643L170.816 51.7366L173.177 58.1427L170.115 59.2698L167.755 52.8643ZM174.907 173.029L171.293 172.748L171.882 165.186L175.495 165.466L174.907 173.029ZM156.677 116.091L159.104 116.831L160.653 111.753L158.226 111.013L156.677 116.091ZM195.029 117.712L191.44 118.22L190.375 110.71L193.964 110.201L195.029 117.712ZM256.252 189.978L254.412 187.689L249.623 191.542L251.463 193.83L256.252 189.978Z" fill="#32BBAB"/>
<path fill-rule="evenodd" clip-rule="evenodd" d="M258.816 16.0579L265.232 18.3876L266.345 15.3212L259.928 12.9922L258.816 16.0579ZM168.925 28.0771L175.199 25.3853L173.913 22.3879L167.639 25.0791L168.925 28.0771ZM90.7848 30.2149L89.7615 33.3135L83.2772 31.1711L84.301 28.0725L90.7848 30.2149ZM106.105 45.0635L102.956 43.2681L99.1982 49.8576L102.347 51.653L106.105 45.0635ZM2.79257 91.6508L6.83159 86.1469L4.20221 84.2168L0.162537 89.7207L2.79257 91.6508ZM51.4811 101.269L48.3319 103.063L52.0903 109.653L55.2388 107.858L51.4811 101.269ZM19.097 133.517L12.7487 136.029L13.948 139.062L20.297 136.551L19.097 133.517ZM101.953 152.862L103.256 146.161L106.458 146.783L105.155 153.485L101.953 152.862ZM119.556 171.524L125.904 169.013L127.104 172.046L120.756 174.558L119.556 171.524ZM29.3477 175.858L35.696 178.369L34.4967 181.402L28.1477 178.891L29.3477 175.858ZM31.8783 98.6728L32.9646 92.6242L30.0744 92.105L28.9887 98.1543L31.8783 98.6728ZM46.6623 44.0806L46.73 47.3415L39.9025 47.4847L39.8348 44.2219L46.6623 44.0806ZM18.5853 53.899L12.2377 51.3879L11.0377 54.4208L17.386 56.9325L18.5853 53.899ZM245.244 93.6251L248.34 91.7409L244.396 85.2605L241.299 87.1453L245.244 93.6251ZM282.993 57.866L276.719 60.5578L275.433 57.5598L281.707 54.8687L282.993 57.866ZM192.202 50.1872L193.313 43.4518L190.094 42.9202L188.983 49.6562L192.202 50.1872ZM290.31 107.465L294.19 101.849L296.874 103.703L292.993 109.32L290.31 107.465ZM195.459 153.052L192.26 151.348L195.828 144.653L199.027 146.358L195.459 153.052ZM208.913 162.634L207.978 165.76L214.52 167.717L215.456 164.591L208.913 162.634ZM264.007 101.778L264.919 95.7004L267.823 96.1361L266.911 102.214L264.007 101.778ZM251.536 147.426L251.698 150.685L258.518 150.348L258.357 147.089L251.536 147.426ZM285.909 142.393L279.493 140.063L280.605 136.997L287.023 139.326L285.909 142.393Z" fill="#E0B475"/>
<path d="M74.5365 438.517C68.8256 438.386 69.816 447.943 72.2173 451.057C74.4648 453.972 80.0482 457.612 82.9589 459.745C87.5512 463.11 99.2109 464.421 92.8225 455.196C90.1188 451.293 86.5201 448.155 84.2003 443.966C83.2099 442.179 82.4128 440.154 80.8684 438.929C79.324 437.705 76.6874 437.831 75.9678 439.769L74.5365 438.517Z" fill="#1A4A44"/>
<path d="M110.052 426.901C108.434 426.867 107.025 428.15 106.396 429.64C105.768 431.131 105.755 432.799 105.752 434.417C105.75 435.833 105.813 437.413 106.822 438.406C107.474 439.047 108.397 439.309 109.278 439.548C110.937 439.997 112.607 440.448 114.319 440.596C116.259 440.763 118.225 440.538 120.149 440.83C121.376 441.017 122.56 441.411 123.768 441.695C127.182 442.497 130.803 442.404 134.172 441.427C134.923 441.209 135.702 440.921 136.194 440.314C137.011 439.307 136.727 437.739 135.907 436.735C135.088 435.731 133.867 435.158 132.689 434.618C129.143 432.989 125.597 431.361 122.051 429.733C118.573 428.135 114.972 426.509 111.146 426.421C109.923 426.392 108.311 426.946 108.422 428.164L110.052 426.901Z" fill="#1A4A44"/>
<path d="M111.602 432.388L111.254 432.357C108.909 432.143 107.18 430.067 107.394 427.721L108.05 420.553C108.265 418.206 110.34 416.479 112.686 416.693L113.034 416.725C115.38 416.939 117.108 419.015 116.894 421.361L116.239 428.529C116.024 430.876 113.948 432.603 111.602 432.388Z" fill="#D18A73"/>
<path d="M76.8138 444.236H76.4642C74.1082 444.236 72.1991 442.326 72.1991 439.97V432.772C72.1991 430.416 74.1082 428.507 76.4642 428.507H76.8138C79.1698 428.507 81.0795 430.416 81.0795 432.772V439.97C81.0795 442.326 79.1698 444.236 76.8138 444.236Z" fill="#D18A73"/>
<path d="M117.296 294.411C100.164 300.396 82.0559 303.301 65.1244 309.916L65.152 310.645L61.9331 311.738C62.9156 312.991 66.1272 336.605 66.1272 336.605L69.467 368.699L67.3338 432.588C67.3338 435.949 69.7982 438.674 72.839 438.674H76.625C79.487 438.674 81.8719 436.25 82.1111 433.098L90.0406 356.814L89.8211 332.628L98.8718 326.946L100.174 331.432C105.702 353.715 108.666 372.192 106.843 395.211L104.884 419.931C104.731 423.483 107.422 426.384 110.63 426.122L113.297 425.905C115.803 425.701 117.844 423.601 118.207 420.853L123.833 364.355C124.45 358.154 124.566 351.905 124.179 345.682L117.296 294.411Z" fill="url(#paint0_linear)"/>
<path d="M152.868 203.63C152.75 202.639 151.413 190.726 150.485 188.211C150.767 187.367 150.249 186.471 148.923 185.821C146.745 184.755 143.215 184.755 141.052 185.821C140.304 186.189 139.823 186.639 139.594 187.111L139.568 187.109L139.566 187.169C139.409 187.526 139.397 187.896 139.535 188.256L138.661 218.881L115.818 226.016L100.337 231.432C89.4908 235.167 86.5413 254.178 93.8524 255.544C105.308 257.685 130.787 241.498 140.228 235.905C143.847 233.761 147.438 231.342 149.856 227.901C155.097 220.44 153.858 211.967 152.868 203.63Z" fill="#90D98B"/>
<path d="M141.608 189.608L141.524 189.565L141.608 189.608L141.779 189.688L141.608 189.608ZM148.135 186.391C146.301 185.493 143.328 185.493 141.507 186.391C139.685 187.289 139.695 188.749 141.528 189.647C143.361 190.545 146.335 190.545 148.156 189.647C149.978 188.749 149.968 187.288 148.135 186.391Z" fill="black" fill-opacity="0.2"/>
<path d="M148.753 177.802C149.139 176.802 145.344 167.327 141.213 167.629C137.082 167.93 133.978 171.523 134.28 175.655C134.549 179.344 137.444 182.206 141 182.566L140.973 188.64L141.364 188.813C141.926 189.062 142.535 189.26 143.176 189.399C145.389 189.882 147.374 189.587 149.074 188.521L149.516 188.245L148.753 177.802Z" fill="#D18A73"/>
<path d="M77.3365 257.839L76.1857 258.99L71.2273 263.937L63.9734 256.677L62.8496 255.554L62.774 255.629L62.8063 254.738L65.1294 254.863L69.5528 255.106C70.768 255.17 71.9456 255.381 73.0582 255.721C74.6197 256.191 76.0563 256.915 77.3365 257.839Z" fill="white"/>
<path d="M119.228 305.572C119.056 307.96 118.008 310.098 115.561 311.482C104.736 317.59 88.5809 330.791 75.1153 327.108C73.9758 326.794 72.6036 326.486 71.1723 326.108C67.937 325.244 64.4047 324.018 62.5678 321.571C62.3523 321.285 62.1578 320.988 61.979 320.68C61.358 319.61 60.9637 318.395 60.8447 317.126C60.8342 317.012 60.8237 316.899 60.8178 316.786C60.8073 316.623 60.802 316.456 60.802 316.289C60.802 316.192 60.802 316.1 60.8073 316.002L60.8178 315.737L61.1904 304.249L62.7788 255.636L62.811 254.745L62.8491 253.503C62.9733 250.305 64.2318 247.324 66.3867 245.045C67.1865 244.153 68.142 243.386 69.2172 242.738L71.3937 241.366L72.7712 240.496L74.6297 239.324L76.1366 238.374C77.5134 237.412 79.3285 236.434 81.4026 235.538C81.9967 235.273 82.6124 235.025 83.2499 234.776C84.2652 234.382 85.3239 234.015 86.4096 233.669C87.4631 233.34 88.5382 233.032 89.6291 232.756C91.5192 232.286 93.4368 231.919 95.3006 231.697C96.2186 231.578 97.1098 231.498 97.974 231.46C98.0607 231.454 98.1521 231.449 98.2388 231.444C98.6167 231.427 98.9952 231.422 99.3619 231.422C102.219 231.422 104.774 231.881 106.622 232.956C112.369 236.31 115.939 242.463 115.939 249.139C115.934 249.581 115.912 250.014 115.901 250.457L119.056 302.677C119.228 303.66 119.299 304.638 119.228 305.572Z" fill="#90D98B"/>
<path d="M77.0318 304.26C76.6592 301.408 75.9304 298.75 75.4224 295.958C73.6559 286.251 74.6772 275.74 74.85 265.532C74.85 265.364 74.8553 265.203 74.8553 265.035C74.9473 257.025 74.1422 247.535 71.409 241.339C71.2848 241.042 71.1501 240.75 71.0094 240.47L67.9845 242.787C67.0716 243.457 66.2561 244.245 65.5759 245.169C63.7391 247.519 62.6699 250.597 62.5614 253.903L62.5292 255.183L62.5023 256.101L61.2057 304.222L60.86 317.099C60.9789 318.368 61.3733 319.583 61.9943 320.653C62.173 320.961 62.3676 321.258 62.5831 321.544C64.4199 323.991 67.9523 325.217 71.1875 326.082C72.6084 324.834 73.8826 323.062 74.8171 321.048C76.951 316.462 77.7882 310.056 77.0318 304.26Z" fill="black" fill-opacity="0.1"/>
<path d="M111.283 201.732C111.911 202.764 111.583 204.109 110.551 204.737L104.262 208.563C103.23 209.19 101.885 208.862 101.257 207.831C100.629 206.799 100.957 205.454 101.989 204.826L108.278 201C109.31 200.373 110.655 200.701 111.283 201.732Z" fill="#D18A73"/>
<path d="M81.0652 244.368C76.7804 242.245 92.2346 235.999 88.442 234.697C82.5964 232.691 59.5544 235.696 54.0611 235.272C54.0611 235.272 43.0244 234.553 38.5582 234.262C37.4535 234.189 36.5177 233.426 36.2239 232.358L31.0447 207.648C31.4732 206.631 30.8863 205.53 29.2782 204.743C26.7481 203.504 22.6467 203.504 20.1329 204.743C18.2652 205.663 17.7954 207.012 18.7141 208.153L20.1454 229.179C20.593 238.44 26.4208 246.582 35.0476 249.979C42.1793 252.786 82.4676 260.403 93.7882 257.836C93.867 257.838 93.9492 257.84 94.0247 257.842C93.9505 257.84 93.867 257.838 93.7882 257.836C99.4727 256.547 97.8554 252.691 81.0652 244.368Z" fill="#90D98B"/>
<path d="M96.0107 257.877C95.9305 257.875 95.8241 257.873 95.6893 257.87C95.8201 257.873 95.9286 257.875 96.0107 257.877Z" fill="#00C9FF"/>
<path d="M95.1035 257.894C94.8071 257.887 94.4588 257.879 94.0652 257.87C94.4733 257.879 94.819 257.888 95.1035 257.894Z" fill="#00C9FF"/>
<path d="M28.5188 208.596L28.6903 208.516L28.7738 208.474L28.6903 208.516L28.5188 208.596ZM22.1416 208.556C23.9633 209.454 26.9363 209.454 28.7699 208.556C30.6034 207.658 30.6133 206.197 28.7909 205.3C26.9692 204.401 23.9968 204.401 22.1633 205.3C20.3297 206.197 20.3199 207.658 22.1416 208.556Z" fill="black" fill-opacity="0.2"/>
<path d="M21.5446 196.71C21.1582 195.709 24.9528 186.235 29.0838 186.537C33.2148 186.838 36.3193 190.431 36.0177 194.563C35.7482 198.251 32.854 201.114 29.2974 201.473L29.3243 207.547L28.9333 207.721C28.3708 207.97 27.7616 208.167 27.1215 208.307C24.9081 208.79 22.9234 208.494 21.2226 207.429L20.7817 207.153L21.5446 196.71Z" fill="#D18A73"/>
<path d="M100.153 235.196C100.153 238.291 97.2104 240.71 92.4668 240.71C87.7279 240.71 84.7851 238.291 84.7851 235.196C84.7851 234.235 85.1097 233.344 85.6854 232.565C85.8754 232.31 86.0922 232.067 86.3301 231.842C87.7233 230.522 89.9354 229.682 92.4668 229.682C94.5232 229.682 96.3665 230.232 97.7341 231.145C98.0502 231.357 98.34 231.591 98.6042 231.838C99.5782 232.76 100.153 233.924 100.153 235.196Z" fill="#D0E9F5"/>
<path d="M98.628 221.979V234.923H98.5544C98.1292 236.937 95.626 238.444 92.49 238.444C89.3585 238.444 86.8501 236.937 86.4249 234.923H86.3513V221.979C86.3513 220.384 87.0426 218.956 88.1486 217.909C88.4306 217.653 88.7263 217.421 89.0523 217.218C89.8277 216.724 90.7169 216.389 91.6751 216.275C91.9958 216.25 92.3414 216.226 92.6871 216.226C93.4278 216.25 94.1145 216.389 94.7815 216.625C95.626 216.941 96.3568 217.426 96.9542 218.028C97.9813 219.07 98.628 220.448 98.628 221.979Z" fill="#D18A73"/>
<path d="M98.628 221.979V231.905C96.0256 231.762 93.596 231.012 91.497 229.792C91.1316 229.584 90.776 229.357 90.4304 229.12C88.8006 227.994 87.4126 226.572 86.3513 224.937V221.979C86.3513 220.384 87.0426 218.956 88.1486 217.909C88.4306 217.653 88.7263 217.421 89.0523 217.218C89.8277 216.724 90.7169 216.389 91.6751 216.275C91.9958 216.25 92.3414 216.226 92.6871 216.226C93.4278 216.25 94.1145 216.389 94.7815 216.625C95.626 216.941 96.3568 217.426 96.9542 218.028C97.9813 219.07 98.628 220.448 98.628 221.979Z" fill="black" fill-opacity="0.1"/>
<path d="M80.9915 223.398C86.9423 226.309 93.5929 226.202 100.113 226.298C100.371 226.302 100.622 226.321 100.876 226.335C103.652 225.155 106.122 223.37 107.858 220.914C111.983 215.078 110.891 206.538 107.446 200.656C104.342 195.358 98.9194 192.985 93.152 191.745C85.6936 190.142 77.1352 192.719 73.1724 199.768C68.8732 207.416 71.5012 217.445 78.7709 222.144C79.4991 222.615 80.2397 223.031 80.9915 223.398Z" fill="#1A4A44"/>
<path d="M108.144 197.519C104.838 209.051 84.5675 192.542 90.4223 188.154C91.9509 187.011 94.0374 186.967 95.9222 187.268C99.8081 187.89 109.657 192.24 108.144 197.519Z" fill="#1A4A44"/>
<path d="M111.056 209.678C111.056 218.88 104.007 226.332 95.2899 226.332C91.8246 226.332 88.6314 225.161 86.0296 223.15C82.0905 220.134 79.5361 215.214 79.5361 209.678C79.5361 208.495 79.6544 207.349 79.8791 206.225C80.2458 204.379 80.9082 202.653 81.7836 201.092C83.2379 198.549 85.2962 196.455 87.7679 195.036C90.0154 193.759 92.5699 193.025 95.2899 193.025C95.6212 193.025 95.9642 193.037 96.2954 193.061C98.4602 193.203 100.494 193.794 102.339 194.764C107.508 197.496 111.056 203.15 111.056 209.678Z" fill="#1A4A44"/>
<path d="M113.694 212.17C113.694 220.767 107.245 228.231 98.1737 228.231C94.5665 228.231 91.2306 227.131 88.5224 225.257C84.4301 222.428 81.7692 217.838 81.7692 212.664C81.7692 204.055 89.1139 197.085 98.1737 197.085C98.5168 197.085 98.8716 197.097 99.2147 197.119C107.801 197.624 113.694 203.887 113.694 212.17Z" fill="#D18A73"/>
<path d="M84.5833 208.502C84.791 207.496 85.2451 206.493 85.918 205.819L87.0615 204.676L87.1811 204.574C87.5078 200.915 89.9235 196.934 93.0221 195.229L87.5064 197.06L85.9292 199.473V196.682C81.7778 198.941 78.7141 202.939 77.7092 207.705H83.5634V208.502H84.5833Z" fill="#1A4A44"/>
<path d="M88.2901 215.326C86.7536 217.451 83.0347 217.386 79.9834 215.18C76.9321 212.973 75.7038 209.463 77.2403 207.337C78.7768 205.212 82.4965 205.278 85.5477 207.483C88.599 209.69 89.8266 213.201 88.2901 215.326Z" fill="#D18A73"/>
<path d="M102.379 197.439H98.0382C89.7485 197.438 88.7917 205.659 88.7917 211.925C88.7917 212.859 88.0004 213.605 87.0778 213.605C86.1551 213.605 85.3632 212.859 85.3632 211.925V206.201C84.2204 206.331 83.1137 206.378 83.0309 206.118C82.9717 205.941 82.4683 204.663 81.7112 202.948C83.1662 200.405 85.2561 198.312 87.7284 196.893C89.9753 195.615 92.5461 194.882 95.2662 194.882C95.5974 194.882 95.9483 194.893 96.2796 194.918C98.4443 195.059 100.482 195.847 102.328 196.816L102.379 197.439Z" fill="#1A4A44"/>
<path d="M101.409 217.337C104.286 218.142 107.249 216.764 108.482 214.205C108.718 213.715 108.467 213.129 107.934 212.979L98.0956 210.227C97.5903 210.086 97.056 210.408 97.0001 210.921C96.6873 213.773 98.5097 216.526 101.409 217.337Z" fill="white"/>
<path d="M288.57 184.558L288.611 184.599L288.667 184.629L288.57 184.558Z" fill="#FFA0A8"/>
<path d="M289.725 186.685L285.159 190.701C285.103 190.746 285.032 190.768 284.963 190.762L284.81 190.695C284.714 190.609 284.712 190.47 284.81 190.384L289.526 186.24C289.687 186.097 289.723 185.87 289.598 185.683C289.476 185.506 289.207 185.46 289.033 185.596L284.106 189.474C284.054 189.514 283.987 189.533 283.922 189.527L283.759 189.45C283.671 189.361 283.676 189.22 283.779 189.144L288.577 185.365C288.847 185.153 288.872 184.79 288.638 184.547C288.459 184.465 288.239 184.481 288.081 184.602L282.785 188.561C282.733 188.6 282.669 188.617 282.607 188.611C282.546 188.606 282.483 188.579 282.439 188.531C282.354 188.438 282.366 188.301 282.466 188.222L287.633 184.359C287.747 184.271 287.68 184.099 287.524 184.095C287.174 184.083 286.817 184.174 286.524 184.378C284.133 186 282.914 187.002 280.502 188.596C279.308 189.385 278.104 190.415 276.793 191.043C276.552 191.16 276.381 191.217 276.266 191.23C276.266 190.827 276.249 190.429 276.197 190.044C276.231 189.413 276.318 188.773 276.368 188.205C276.425 187.55 276.915 186.115 276.297 185.573C276.082 185.385 275.841 185.333 275.561 185.422C274.879 185.64 274.905 186.562 274.673 187.09C273.194 190.459 269.668 198.281 274.617 200.481C279.326 202.574 286.188 191.328 289.008 188.376C289.452 187.916 289.916 187.383 289.974 186.794C289.771 186.708 289.924 186.774 289.725 186.685Z" fill="#F09CAB"/>
<path d="M277.43 195.136C277.866 193.74 277.353 192.072 276.21 191.169L276.1 191.325C277.18 192.177 277.665 193.752 277.253 195.07L277.43 195.136Z" fill="black" fill-opacity="0.2"/>
<path d="M254.505 237.918C254.705 243.151 251.549 247.239 249.092 251.51C247.638 254.041 245.52 256.239 243.949 258.714C241.777 262.136 240.784 266.933 243.487 269.78C244.726 271.084 246.616 271.831 247.384 273.456C248.333 275.463 247.171 277.84 246.999 280.084C246.646 284.712 251.061 288.68 255.764 288.783C260.465 288.886 264.95 285.784 267.412 281.749C269.648 278.085 270.413 273.419 268.657 269.65C266.759 265.579 261.997 262.597 261.357 257.912C260.477 251.473 265.241 239.035 254.505 237.918Z" fill="#1A4A44"/>
<path d="M207.192 259.034C203.615 259.802 200.169 257.648 199.146 254.188C199.098 254.027 199.101 253.839 199.06 253.666L185.491 190.617L184.017 183.704L182.371 176.056L185.92 173.353C187.404 172.253 189.355 173.019 189.877 174.787L212.217 250.322C213.364 254.2 211.148 258.184 207.192 259.034Z" fill="#F09CAB"/>
<path d="M216.739 251.754L194.428 186.646L193.251 187.797C191.804 189.213 189.911 189.93 187.627 189.93C186.965 189.93 186.323 189.867 185.715 189.742L184.227 189.437L198.046 253.698C198.061 253.757 198.074 253.842 198.088 253.93C198.12 254.116 200.16 261.034 200.194 261.155C201.22 264.622 202.294 260.141 205.72 260.141C206.272 260.141 206.833 260.082 207.396 259.961C209.529 259.503 211.308 258.231 212.408 256.379C213.53 254.491 217.38 253.92 216.739 251.754Z" fill="#D0E9F5"/>
<path d="M195.403 172.493C195.043 172.533 194.075 176.771 193.936 177.302C193.261 179.873 192.04 182.222 189.05 182.67C188.149 182.805 187.089 182.647 186.61 181.89C186.297 181.396 186.315 180.743 186.543 180.2C186.772 179.656 187.187 179.208 187.638 178.82C188.791 177.828 190.02 177.487 191.328 177.121C191.811 176.344 192.295 175.565 192.779 174.788C193.412 173.771 194.207 172.645 195.403 172.493Z" fill="#F09CAB"/>
<path d="M180.429 168.181L182.712 173.903C182.739 173.968 182.792 174.016 182.854 174.037L183.016 174.034C183.136 173.987 183.195 173.851 183.147 173.732L180.791 167.826C180.71 167.622 180.776 167.386 180.962 167.255C181.144 167.129 181.397 167.193 181.489 167.394L184.144 173.123C184.172 173.183 184.223 173.226 184.281 173.246L184.438 173.242L184.412 173.125L183.313 170.218L181.983 167.349C181.838 167.035 181.98 166.676 182.286 166.529C182.473 166.525 182.652 166.624 182.739 166.8L182.909 167.145C182.957 167.194 182.999 167.246 183.035 167.306L185.758 171.969C185.796 172.034 185.844 172.09 185.896 172.142L185.732 171.809C185.915 172.009 186.114 172.195 186.331 172.37C186.464 172.394 186.604 172.388 186.74 172.345L186.974 172.446C187.342 172.327 187.354 171.867 187.325 171.481L186.897 165.766C187.325 165.745 187.7 166.049 187.768 166.472L189.565 175.906C189.786 176.306 190.018 176.694 190.272 177.055C193.387 181.478 187.507 186.141 184.554 182.24C181.728 178.5 181.709 174.626 180.339 170.111C180.149 169.487 179.967 168.786 180.167 168.189C180.379 168.183 180.218 168.187 180.429 168.181Z" fill="#F09CAB"/>
<path d="M187.069 180.693L187.431 180.736C187.526 179.887 188.075 178.696 188.939 178.064C189.478 177.671 190.068 177.534 190.691 177.658L190.76 177.3C190.043 177.157 189.339 177.319 188.724 177.768C187.731 178.495 187.17 179.793 187.069 180.693Z" fill="black" fill-opacity="0.2"/>
<path d="M206.424 218.282C209.351 212.402 213.245 203.89 220.661 203.277C227.465 202.715 239.12 207.735 244.221 211.581C251.112 216.777 254.118 235.485 247.73 240.653C243.815 243.819 235.972 235.433 229.783 235.433C216.705 237.185 200.05 231.086 206.424 218.282Z" fill="#1A4A44"/>
<path d="M240.94 255.436C240.94 255.436 227.32 276.868 228.227 292.049L222.238 293.989L213.923 287.372L214.721 274.231L218.582 260.609L225.72 253.169C225.72 253.169 229.191 251.743 230.314 251.843C231.438 251.944 240.94 255.436 240.94 255.436Z" fill="#B8E1F5"/>
<path d="M233.757 318.771L234.267 381.552C237.832 397.009 237.895 413.068 234.45 428.552L229.304 451.692L226.915 399.458L233.757 318.771Z" fill="#F09CAB"/>
<path d="M248.723 392.452C248.789 392.761 248.893 393.057 249.033 393.34C250.208 395.718 256.032 408.227 257.678 425.796C257.963 428.794 258.121 431.937 258.114 435.203C258.11 437.194 258.407 439.163 258.675 441.132C258.468 441.546 258.259 441.964 258.052 442.378C257.356 442.783 256.638 443.16 255.901 443.493C256.161 443.323 254.378 443.853 253.956 443.974C253.787 444.001 253.639 444.024 253.513 444.044C252.961 444.047 252.409 444.034 251.858 443.989C251.781 443.985 251.705 443.992 251.628 443.989C251.286 443.392 251.351 442.539 251.091 441.92L245.278 428.085L238.557 412.084L226.825 385.7C226.782 385.59 226.739 385.48 226.696 385.37L215.812 352.963C215.594 352.314 215.212 350.783 214.783 348.922C213.281 342.397 212.61 335.704 212.792 329.01C212.752 328.588 212.775 328.158 212.883 327.747C214.926 319.945 222.249 315.607 229.895 317.266C231.251 317.56 232.313 318.621 232.672 319.962L235.71 331.307L248.723 392.452Z" fill="#F09CAB"/>
<path d="M212.289 301.38C205.505 303.297 200.208 312.154 201.504 319.083L218.292 408.621C218.292 408.621 222.781 437.139 225.619 449.228C225.954 450.658 227.223 451.673 228.691 451.699C230.374 451.728 231.795 450.46 231.949 448.783C232.867 438.844 236.91 405.569 233.654 381.559C232.36 372.013 234.21 323.3 233.145 318.777C229.38 302.804 220.12 299.167 212.289 301.38Z" fill="#F09CAB"/>
<path d="M221.956 460.632C221.956 461.857 222.43 463.054 223.334 463.959C224.685 465.31 226.613 466.005 228.499 465.678C233.539 464.794 234.75 459.713 234.75 459.713L234.34 457.486L232.314 446.488L231.966 444.399H224.309L224.657 443.008L222.513 458.3L222.263 458.955C222.054 459.497 221.956 460.068 221.956 460.632Z" fill="#F09CAB"/>
<path d="M221.956 460.654C221.956 461.879 222.43 463.076 223.334 463.981C224.685 465.332 226.613 466.028 228.499 465.7C233.539 464.817 234.75 459.735 234.75 459.735L234.34 457.508C232.084 458.691 230.33 460.222 227.588 460.16C227.045 460.139 224.371 459.325 222.513 458.322L222.263 458.977C222.054 459.52 221.956 460.09 221.956 460.654Z" fill="#5765A1"/>
<path fill-rule="evenodd" clip-rule="evenodd" d="M198.148 372.673C196.836 364.697 194.431 349.335 194.431 349.335C191.593 334.613 192.637 319.483 197.441 304.952C198.724 301.034 200.287 297.166 202.125 293.36L204.93 287.535L206.256 284.782L209.338 284.826L228.049 285.072C228.049 285.072 237.926 291.463 248.358 306.916C256.343 318.728 264.65 335.845 269.115 359.46C269.236 360.095 269.476 360.632 269.812 361.381C270.067 361.951 270.377 362.645 270.732 363.598L270.461 363.636C272.258 367.839 269.311 372.788 261.461 377.083C247.905 384.502 232.467 391.758 209.885 383.097C202.225 380.158 198.201 376.536 198.148 372.673Z" fill="url(#paint1_linear)"/>
<path d="M243.819 454.27L244.721 453.306L244.771 453.48C244.771 453.48 241.772 459.007 251.424 453.165C256.719 449.959 260.935 446.417 261.427 444.632C261.896 445.435 262.334 446.286 262.671 447.126C263.02 448.761 262.342 450.492 260.88 451.435L259.193 452.517L258.962 452.619C256.462 453.728 253.774 455.283 251.641 456.865C250.66 457.585 249.611 458.321 248.795 458.776C246.7 459.949 243.862 460.374 242.773 460.067C242.497 459.991 242.27 459.715 242.07 459.344C241.248 457.802 242.631 455.553 243.819 454.27Z" fill="#5765A1"/>
<path d="M244.785 453.438L244.735 453.263L246.917 450.747C248.368 449.074 250.732 445.204 251.816 442.654C254.698 439.732 257.221 439.791 258.624 440.186C259.735 441.89 261.134 444.064 261.44 444.589C260.949 446.374 256.733 449.916 251.438 453.122C241.786 458.965 244.785 453.438 244.785 453.438Z" fill="#F09CAB"/>
<path d="M193.449 273.066L193.584 273.366L193.476 273.362C193.476 273.271 193.458 273.168 193.449 273.066Z" fill="#DCEFFE"/>
<path d="M240.074 257.637L271.456 210.824L274.848 204.623L278.615 197.767L275.988 194.16C274.882 192.681 272.793 192.857 271.786 194.401L229.496 259.235C233.445 261.377 236.013 255.723 240.074 257.637Z" fill="#F09CAB"/>
<path d="M224.549 254.64C224.623 253.827 224.702 253.01 224.785 252.185C224.83 251.739 224.895 251.251 225.222 250.944C225.517 250.667 225.948 250.61 226.347 250.541C230.812 249.763 232.831 245.816 235.423 242.608C238.741 238.501 242.179 234.52 245.359 230.297C248.701 225.859 251.903 221.317 255.068 216.751C255.986 215.426 264.091 205.341 263.563 204.394L264.398 205.89C265.424 207.73 267.103 209.01 269.387 209.693C270.048 209.89 270.71 210.019 271.355 210.077L272.933 210.218C267.62 219.866 262.307 229.513 256.995 239.161C253.506 245.498 249.122 251.441 244.78 257.209C240.158 263.347 234.217 274.243 225.654 273.639C225.251 273.61 224.807 273.549 224.542 273.243C224.323 272.991 224.282 272.633 224.257 272.3C223.755 266.267 224.009 260.588 224.549 254.64Z" fill="#D0E9F5"/>
<path d="M224.843 235.598V255.526C224.843 257.407 223.318 258.932 221.437 258.932H213.923V235.598H224.843Z" fill="#F09CAB"/>
<path d="M224.843 236.758V250.789C220.586 249.845 216.748 247.195 213.923 243.805V236.758H224.843Z" fill="black" fill-opacity="0.1"/>
<path d="M212.014 223.813C209.336 232.345 213.704 241.306 221.788 243.842C225.001 244.851 228.302 243.002 231.3 241.895C235.83 240.244 239.63 238.117 241.241 232.985C241.585 231.888 241.809 230.79 241.928 229.683C242.125 227.865 242.013 226.071 241.655 224.369C241.047 221.587 239.748 219.047 237.868 217.012C236.156 215.174 234.001 213.751 231.478 212.959C231.171 212.863 230.85 212.774 230.536 212.699C228.488 212.202 226.429 212.158 224.436 212.52C218.849 213.55 213.913 217.759 212.014 223.813Z" fill="#1A4A44"/>
<path d="M205.635 225.172C204.359 229.081 204.57 233.442 206.715 236.933C207.968 238.976 209.768 240.629 211.686 242.065C217.977 246.776 229.756 245.538 234.798 238.253C246.336 221.579 225.286 203.004 209.411 218.938C207.687 220.669 206.397 222.84 205.635 225.172Z" fill="#F09CAB"/>
<path d="M234.494 228.173C230.247 225.796 227.075 222.276 226.599 216.521C226.51 215.449 226.572 214.268 227.273 213.454C229.255 211.151 235.907 216.683 235.065 219.371L235.998 216.395C239.668 220.191 241.597 225.477 241.074 230.894C238.755 230.167 236.504 229.298 234.494 228.173Z" fill="#1A4A44"/>
<path d="M232.406 232.336C231.643 234.768 232.996 237.358 235.428 238.121C237.859 238.884 240.449 237.531 241.212 235.099C241.976 232.667 240.623 230.077 238.191 229.314C235.76 228.551 233.17 229.904 232.406 232.336Z" fill="#F09CAB"/>
<path d="M215.062 232.941C212.054 232.847 209.62 230.628 209.206 227.795C209.127 227.252 209.545 226.765 210.103 226.782L220.394 227.104C220.923 227.121 221.339 227.592 221.238 228.102C220.679 230.938 218.095 233.037 215.062 232.941Z" fill="white"/>
<path d="M206.343 292.667C206.261 292.625 206.185 292.582 206.106 292.54C206.185 292.582 206.261 292.625 206.343 292.667C206.501 292.748 206.662 292.826 206.827 292.902C206.662 292.826 206.501 292.748 206.343 292.667ZM224.817 283.174C219.626 280.524 211.213 280.524 206.056 283.174C200.9 285.824 200.928 290.133 206.118 292.782C211.306 295.431 219.722 295.432 224.878 292.782C230.034 290.133 230.005 285.822 224.817 283.174Z" fill="#B8E1F5"/>
<path d="M226.996 275.686C225.194 276.624 223.15 276.994 221.126 277.168C213.498 277.822 205.665 275.755 199.351 271.423C199.027 271.2 198.757 270.974 198.524 270.746C199.026 272.588 199.661 274.432 200.017 276.178C200.727 279.596 201.297 283.031 201.934 286.449C202.244 288.107 204.811 289.731 206.209 290.498C209.887 292.495 214.585 295.033 218.905 294.232C222.306 293.6 225.431 291.925 227.907 289.528C230.456 287.058 229.458 283.121 229.858 279.737C230.2 276.869 230.833 274.051 231.633 271.266C230.437 273.103 228.95 274.668 226.996 275.686Z" fill="#B8E1F5"/>
<path d="M235.334 260.684L235.382 260.562C235.289 260.436 235.191 260.313 235.093 260.19C235.174 260.323 235.247 260.457 235.304 260.597L235.334 260.684Z" fill="#8DC0EF"/>
<path d="M235.342 260.708L235.312 260.622C235.255 260.482 235.181 260.348 235.101 260.215C234.735 259.607 234.134 259.046 233.342 258.359C232.149 257.322 230.823 256.477 229.426 255.737C228.96 255.491 228.486 255.257 228.006 255.031C226.681 254.411 225.311 253.864 223.952 253.316L210.454 247.913L209.107 247.372C202.779 244.839 201.487 252.115 200.726 256.554C200.606 257.264 200.417 257.949 200.193 258.618C200.157 258.725 200.116 258.829 200.078 258.935C199.997 259.165 199.916 259.396 199.828 259.624C199.472 260.546 199.079 261.455 198.728 262.382C198.661 262.558 198.6 262.736 198.537 262.914C198.342 263.468 198.163 264.029 198.03 264.607C197.463 267.068 196.742 269.01 198.517 270.755C198.749 270.983 199.02 271.209 199.344 271.431C205.658 275.764 213.491 277.83 221.119 277.177C223.143 277.003 225.187 276.633 226.988 275.695C228.943 274.677 230.43 273.112 231.625 271.275C233.162 268.913 234.214 266.103 235.153 263.429C235.567 262.247 235.605 261.421 235.342 260.708Z" fill="#D0E9F5"/>
<path d="M214.111 249.166L210.583 259.246C210.001 260.91 211.827 262.385 213.331 261.466L225.391 253.678L215.239 247.662L214.111 249.166Z" fill="#F09CAB"/>
<defs>
<linearGradient id="paint0_linear" x1="61.9331" y1="364.783" x2="124.403" y2="364.783" gradientUnits="userSpaceOnUse">
<stop stop-color="#2B86A5"/>
<stop offset="1" stop-color="#2671A7"/>
</linearGradient>
<linearGradient id="paint1_linear" x1="192.869" y1="334.663" x2="270.97" y2="334.663" gradientUnits="userSpaceOnUse">
<stop stop-color="#32BB94"/>
<stop offset="1" stop-color="#16B4BD"/>
</linearGradient>
</defs>
</svg>
