<svg width="158" height="50" viewBox="0 0 158 50" fill="none" xmlns="http://www.w3.org/2000/svg">
<path d="M148.678 31.8673C148.678 31.5874 148.439 31.4856 148.194 31.4856H147.736V32.7887H147.971V32.2441H148.139L148.444 32.7887H148.729L148.378 32.2185C148.561 32.1778 148.678 32.0557 148.678 31.8673ZM147.971 32.0557V31.684H148.184C148.307 31.684 148.444 31.7197 148.444 31.8622C148.444 32.02 148.291 32.0557 148.159 32.0557H147.971ZM148.189 30.9867C147.548 30.9867 147.029 31.5009 147.029 32.1422C147.029 32.7836 147.548 33.2876 148.189 33.2876C148.831 33.2876 149.35 32.7836 149.35 32.1422C149.35 31.5009 148.831 30.9867 148.189 30.9867ZM148.189 33.1196C147.65 33.1196 147.212 32.6767 147.212 32.1422C147.212 31.6026 147.65 31.1649 148.189 31.1649C148.729 31.1649 149.167 31.6026 149.167 32.1422C149.167 32.6767 148.729 33.1196 148.189 33.1196Z" fill="#1A4A44"/>
<path d="M73.525 31.182C71.8274 31.182 70.9714 29.6651 70.9714 28.1985C70.9714 26.7319 71.9001 25.2795 73.4436 25.2795C74.1664 25.2795 75.0802 25.642 75.4388 26.1518L77.2361 24.3611C76.3661 23.4445 74.9795 22.8973 73.4436 22.8973C70.3179 22.8973 68.0494 25.1404 68.0494 28.2307C68.0494 31.3711 70.2926 33.5642 73.5046 33.5642C75.033 33.5642 76.4454 33.1169 77.2828 32.2166L75.5348 30.3406C75.131 30.8323 74.2845 31.182 73.525 31.182ZM63.4738 33.2799H66.2623V23.1816H63.4738V33.2799ZM58.4033 28.7181C58.4033 29.9047 57.6298 31.182 56.1881 31.182C55.0767 31.182 54.4832 30.3893 54.4832 28.7588V23.1816H51.6948V29.4491C51.6948 31.5344 52.7354 33.5642 55.5181 33.5642C56.8304 33.5642 57.9296 32.5312 58.4835 31.7688H58.5252V33.2799H61.1917V23.1816H58.4033V28.7181ZM46.6642 24.4637H46.6024C46.2085 24.028 45.1412 22.8973 43.4083 22.8973C40.5652 22.8973 38.3743 25.1233 38.3743 28.1902C38.3743 31.3041 40.396 33.5642 43.2746 33.5642C44.5817 33.5642 45.8093 32.8717 46.5211 32.066H46.5625V38.2527H49.3509V23.1816H46.6642V24.4637ZM43.9567 31.182C42.2325 31.182 41.2521 29.6769 41.2521 28.1902C41.2521 26.7688 42.1523 25.2389 43.9567 25.2389C45.6164 25.2389 46.6437 26.7919 46.6437 28.2307C46.6437 29.6814 45.6387 31.182 43.9567 31.182ZM107.473 22.8973C104.3 22.8973 101.997 25.1233 101.997 28.1902C101.997 31.3639 104.351 33.5914 107.473 33.5914C110.594 33.5914 112.948 31.3426 112.948 28.1902C112.948 25.1233 110.646 22.8973 107.473 22.8973ZM107.473 31.182C105.655 31.182 104.826 29.6312 104.826 28.1902C104.826 26.7688 105.655 25.2389 107.473 25.2389C109.291 25.2389 110.12 26.7688 110.12 28.1902C110.12 29.6312 109.291 31.182 107.473 31.182ZM142.335 27.0645C140.9 26.7221 140.394 26.5377 140.394 25.9565C140.394 25.1552 141.41 24.9793 141.869 24.9793C142.735 24.9793 143.712 25.4961 144.08 25.9865L145.724 24.409C144.963 23.4539 143.468 22.8973 141.889 22.8973C139.871 22.8973 137.752 23.9123 137.752 26.1799C137.752 28.127 139.278 28.7145 140.772 29.0723C142.345 29.4387 142.907 29.7066 142.907 30.3406C142.907 31.2752 141.847 31.4278 141.482 31.4278C140.57 31.4278 139.512 30.9056 138.942 30.2288L137.249 31.9448C138.174 32.9703 139.757 33.5874 141.38 33.5874C144.106 33.5874 145.724 32.2879 145.724 30.1434C145.724 28.0918 143.744 27.4021 142.335 27.0645ZM137.063 23.1816H133.467L129.867 27.3718H129.805V17.6168H127.016V33.2799H129.805V28.2992H129.867L133.602 33.2799H137.272L132.931 27.7612L137.063 23.1816ZM95.7134 22.8973C94.4382 22.8973 93.4987 23.4548 92.6115 24.2861H92.5593V17.6168H89.7711V33.2799H92.4376V31.8525H92.4793C93.108 32.8837 94.3572 33.5642 95.6527 33.5642C98.5312 33.5642 100.713 31.3041 100.713 28.1902C100.713 25.1233 98.5568 22.8973 95.7134 22.8973ZM95.1653 31.182C93.4832 31.182 92.4781 29.6814 92.4781 28.2307C92.4781 26.7919 93.5054 25.2389 95.1653 25.2389C96.9697 25.2389 97.8673 26.7688 97.8673 28.1902C97.8673 29.6769 96.8896 31.182 95.1653 31.182ZM88.722 23.1816H85.1257L81.5255 27.3718H81.4635V17.6168H78.6751V33.2799H81.4635V28.2992H81.5256L85.2607 33.2799H88.9303L84.5892 27.7612L88.722 23.1816ZM119.726 22.8973C116.553 22.8973 114.251 25.1233 114.251 28.1902C114.251 31.3639 116.605 33.5914 119.726 33.5914C122.848 33.5914 125.202 31.3426 125.202 28.1902C125.202 25.1233 122.899 22.8973 119.726 22.8973ZM119.726 31.182C117.908 31.182 117.08 29.6312 117.08 28.1902C117.08 26.7688 117.908 25.2389 119.726 25.2389C121.545 25.2389 122.373 26.7688 122.373 28.1902C122.373 29.6312 121.545 31.182 119.726 31.182Z" fill="#1A4A44"/>
<path fill-rule="evenodd" clip-rule="evenodd" d="M35.239 23.4927C35.239 29.98 29.98 35.239 23.4927 35.239C17.0054 35.239 11.7463 29.98 11.7463 23.4927C11.7463 17.0054 17.0054 11.7463 23.4927 11.7463C29.98 11.7463 35.239 17.0054 35.239 23.4927ZM19.576 28.0605C17.0532 28.0605 15.008 26.0154 15.008 23.4926C15.008 20.9698 17.0532 18.9245 19.576 18.9245H22.8409V31.1929C21.9038 31.1929 21.1442 30.4332 21.1442 29.4962V20.6212H19.576C17.9928 20.6212 16.7047 21.9093 16.7047 23.4926C16.7047 25.0758 17.9928 26.3638 19.576 26.3638H20.2286V28.0605H19.576ZM26.7567 18.9252H27.4093C29.9321 18.9252 31.9773 20.9704 31.9773 23.4932C31.9773 26.016 29.9321 28.0612 27.4093 28.0612H24.1444V15.7928C25.0815 15.7928 25.8411 16.5524 25.8411 17.4895V26.3645H27.4093C28.9925 26.3645 30.2806 25.0765 30.2806 23.4932C30.2806 21.91 28.9925 20.6219 27.4093 20.6219H26.7567V18.9252Z" fill="#1A4A44"/>
<path d="M49.8749 14.4214C50.3036 14.4214 50.6511 14.0738 50.6511 13.6452C50.6511 13.2167 50.3036 12.869 49.8749 12.869C49.4463 12.869 49.0988 13.2167 49.0988 13.6452C49.0988 14.0738 49.4463 14.4214 49.8749 14.4214ZM45.2434 14.9443C44.4837 14.9443 43.8735 15.4048 43.6488 15.9184H43.6273V15.0944H42.4074V20.2322H43.6915V17.4061C43.6915 16.7214 44.0771 16.0146 44.8903 16.0146C45.7146 16.0146 45.8538 16.7749 45.8538 17.3848V20.2322H47.1381V17.0209C47.1381 15.9719 46.5817 14.9443 45.2434 14.9443ZM39.8066 20.2322H41.0911V15.0944H39.8066V20.2322ZM63.1644 14.4214C63.593 14.4214 63.9405 14.0738 63.9405 13.6452C63.9405 13.2167 63.593 12.869 63.1644 12.869C62.7357 12.869 62.3882 13.2167 62.3882 13.6452C62.3882 14.0738 62.7357 14.4214 63.1644 14.4214ZM61.0819 15.0912V16.2294H62.5222V20.2322H63.8066V16.2294H65.2467V15.0912H61.0819ZM58.8976 20.2322H60.1821V15.0944H58.8976V20.2322ZM47.7925 16.2294H49.2327V20.2322H50.5171V16.2294H51.9572V15.0912H47.7925V16.2294ZM56.2982 17.9201C56.2982 18.6052 55.9127 19.3116 55.0995 19.3116C54.2753 19.3116 54.136 18.5516 54.136 17.9415V15.0944H52.8516V18.3053C52.8516 19.3546 53.408 20.3819 54.7463 20.3819C55.5061 20.3819 56.1164 19.9218 56.3409 19.4078H56.3624V20.2322H57.5826V15.0944H56.2982V17.9201Z" fill="#1A4A44"/>
</svg>
