<svg width="200" height="434" viewBox="0 0 200 434" fill="none" xmlns="http://www.w3.org/2000/svg">
<path d="M6.10352e-05 0L200 0V433.067H6.10352e-05L6.10352e-05 0Z" fill="white"/>
<rect x="10.0001" y="253" width="180" height="32" rx="4" fill="url(#paint0_linear)"/>
<path d="M79.5541 264.48C80.0981 264.48 80.5701 264.556 80.9701 264.708C81.3781 264.86 81.7621 265.088 82.1221 265.392L81.1621 266.532C80.6981 266.132 80.2021 265.932 79.6741 265.932C79.1221 265.932 78.6821 266.172 78.3541 266.652C78.0341 267.124 77.8741 267.848 77.8741 268.824C77.8741 269.792 78.0341 270.512 78.3541 270.984C78.6821 271.448 79.1341 271.68 79.7101 271.68C80.0061 271.68 80.2741 271.62 80.5141 271.5C80.7621 271.38 81.0341 271.208 81.3301 270.984L82.2181 272.136C81.9141 272.44 81.5381 272.696 81.0901 272.904C80.6421 273.104 80.1501 273.204 79.6141 273.204C78.8461 273.204 78.1781 273.036 77.6101 272.7C77.0421 272.364 76.5981 271.868 76.2781 271.212C75.9661 270.548 75.8101 269.752 75.8101 268.824C75.8101 267.92 75.9701 267.14 76.2901 266.484C76.6181 265.828 77.0621 265.332 77.6221 264.996C78.1901 264.652 78.8341 264.48 79.5541 264.48ZM85.7033 266.424C86.6793 266.424 87.4433 266.724 87.9953 267.324C88.5473 267.916 88.8233 268.748 88.8233 269.82C88.8233 270.5 88.6953 271.096 88.4393 271.608C88.1913 272.112 87.8313 272.504 87.3593 272.784C86.8953 273.064 86.3433 273.204 85.7033 273.204C84.7353 273.204 83.9713 272.908 83.4113 272.316C82.8593 271.716 82.5833 270.88 82.5833 269.808C82.5833 269.128 82.7073 268.536 82.9553 268.032C83.2113 267.52 83.5713 267.124 84.0353 266.844C84.5073 266.564 85.0633 266.424 85.7033 266.424ZM85.7033 267.816C85.3193 267.816 85.0313 267.98 84.8393 268.308C84.6473 268.628 84.5513 269.128 84.5513 269.808C84.5513 270.504 84.6433 271.012 84.8273 271.332C85.0193 271.652 85.3113 271.812 85.7033 271.812C86.0873 271.812 86.3753 271.652 86.5673 271.332C86.7593 271.004 86.8553 270.5 86.8553 269.82C86.8553 269.124 86.7593 268.616 86.5673 268.296C86.3833 267.976 86.0953 267.816 85.7033 267.816ZM93.6831 266.424C94.2351 266.424 94.6671 266.592 94.9791 266.928C95.2911 267.264 95.4471 267.736 95.4471 268.344V273H93.5511V268.668C93.5511 268.348 93.4991 268.128 93.3951 268.008C93.2991 267.88 93.1511 267.816 92.9511 267.816C92.5671 267.816 92.1991 268.092 91.8471 268.644V273H89.9511V266.628H91.6071L91.7391 267.384C92.0191 267.064 92.3151 266.824 92.6271 266.664C92.9471 266.504 93.2991 266.424 93.6831 266.424ZM100.873 272.7C100.641 272.86 100.369 272.984 100.057 273.072C99.7529 273.16 99.4489 273.204 99.1449 273.204C97.7529 273.196 97.0569 272.428 97.0569 270.9V267.948H96.1569V266.628H97.0569V265.248L98.9529 265.032V266.628H100.417L100.213 267.948H98.9529V270.876C98.9529 271.172 99.0009 271.384 99.0969 271.512C99.1929 271.64 99.3449 271.704 99.5529 271.704C99.7769 271.704 100.005 271.632 100.237 271.488L100.873 272.7ZM101.506 273V266.628H103.402V273H101.506ZM102.442 263.268C102.77 263.268 103.038 263.372 103.246 263.58C103.462 263.78 103.57 264.036 103.57 264.348C103.57 264.66 103.462 264.92 103.246 265.128C103.038 265.328 102.77 265.428 102.442 265.428C102.114 265.428 101.846 265.328 101.638 265.128C101.43 264.92 101.326 264.66 101.326 264.348C101.326 264.036 101.43 263.78 101.638 263.58C101.846 263.372 102.114 263.268 102.442 263.268ZM108.624 266.424C109.176 266.424 109.608 266.592 109.92 266.928C110.232 267.264 110.388 267.736 110.388 268.344V273H108.492V268.668C108.492 268.348 108.44 268.128 108.336 268.008C108.24 267.88 108.092 267.816 107.892 267.816C107.508 267.816 107.14 268.092 106.788 268.644V273H104.892V266.628H106.548L106.68 267.384C106.96 267.064 107.256 266.824 107.568 266.664C107.888 266.504 108.24 266.424 108.624 266.424ZM115.55 273L115.466 272.196C115.002 272.868 114.358 273.204 113.534 273.204C112.95 273.204 112.506 273.028 112.202 272.676C111.906 272.324 111.758 271.832 111.758 271.2V266.628H113.654V270.96C113.654 271.272 113.702 271.492 113.798 271.62C113.902 271.74 114.058 271.8 114.266 271.8C114.666 271.8 115.01 271.552 115.298 271.056V266.628H117.194V273H115.55ZM124.241 269.688C124.241 269.952 124.229 270.18 124.205 270.372H120.269C120.325 270.908 120.473 271.284 120.713 271.5C120.953 271.716 121.285 271.824 121.709 271.824C121.965 271.824 122.213 271.78 122.453 271.692C122.693 271.596 122.953 271.452 123.233 271.26L124.013 272.316C123.269 272.908 122.441 273.204 121.529 273.204C120.497 273.204 119.705 272.9 119.153 272.292C118.601 271.684 118.325 270.868 118.325 269.844C118.325 269.196 118.441 268.616 118.673 268.104C118.905 267.584 119.245 267.176 119.693 266.88C120.141 266.576 120.677 266.424 121.301 266.424C122.221 266.424 122.941 266.712 123.461 267.288C123.981 267.864 124.241 268.664 124.241 269.688ZM122.381 269.148C122.365 268.172 122.021 267.684 121.349 267.684C121.021 267.684 120.769 267.804 120.593 268.044C120.417 268.276 120.305 268.672 120.257 269.232H122.381V269.148Z" fill="white"/>
<path d="M12.1561 207.578L11.4281 210H10.0841L13.1781 200.354H14.8581L17.9381 210H16.5381L15.8101 207.578H12.1561ZM13.9901 201.46L12.4781 206.5H15.4881L13.9901 201.46ZM24.9991 210H23.8651L23.7391 208.978C23.4964 209.351 23.1931 209.645 22.8291 209.86C22.4651 210.065 22.0591 210.168 21.6111 210.168C20.7338 210.168 20.0478 209.823 19.5531 209.132C19.0678 208.441 18.8251 207.513 18.8251 206.346C18.8251 205.59 18.9418 204.918 19.1751 204.33C19.4084 203.742 19.7444 203.285 20.1831 202.958C20.6218 202.622 21.1351 202.454 21.7231 202.454C22.4791 202.454 23.1418 202.757 23.7111 203.364V199.5L24.9991 199.654V210ZM21.8911 209.146C22.2831 209.146 22.6191 209.057 22.8991 208.88C23.1791 208.693 23.4498 208.418 23.7111 208.054V204.442C23.4684 204.125 23.2071 203.887 22.9271 203.728C22.6564 203.56 22.3484 203.476 22.0031 203.476C21.4338 203.476 20.9904 203.714 20.6731 204.19C20.3651 204.666 20.2111 205.375 20.2111 206.318C20.2111 207.27 20.3558 207.979 20.6451 208.446C20.9344 208.913 21.3498 209.146 21.8911 209.146ZM33.2296 210H32.0956L31.9696 208.978C31.7269 209.351 31.4236 209.645 31.0596 209.86C30.6956 210.065 30.2896 210.168 29.8416 210.168C28.9642 210.168 28.2782 209.823 27.7836 209.132C27.2982 208.441 27.0556 207.513 27.0556 206.346C27.0556 205.59 27.1722 204.918 27.4056 204.33C27.6389 203.742 27.9749 203.285 28.4136 202.958C28.8522 202.622 29.3656 202.454 29.9536 202.454C30.7096 202.454 31.3722 202.757 31.9416 203.364V199.5L33.2296 199.654V210ZM30.1216 209.146C30.5136 209.146 30.8496 209.057 31.1296 208.88C31.4096 208.693 31.6802 208.418 31.9416 208.054V204.442C31.6989 204.125 31.4376 203.887 31.1576 203.728C30.8869 203.56 30.5789 203.476 30.2336 203.476C29.6642 203.476 29.2209 203.714 28.9036 204.19C28.5956 204.666 28.4416 205.375 28.4416 206.318C28.4416 207.27 28.5862 207.979 28.8756 208.446C29.1649 208.913 29.5802 209.146 30.1216 209.146ZM44.5598 208.278C44.5598 208.577 44.6112 208.801 44.7138 208.95C44.8165 209.09 44.9705 209.197 45.1758 209.272L44.8818 210.168C44.4992 210.121 44.1912 210.014 43.9578 209.846C43.7245 209.678 43.5518 209.417 43.4398 209.062C42.9452 209.799 42.2125 210.168 41.2418 210.168C40.5138 210.168 39.9398 209.963 39.5198 209.552C39.0998 209.141 38.8898 208.605 38.8898 207.942C38.8898 207.158 39.1698 206.556 39.7298 206.136C40.2992 205.716 41.1018 205.506 42.1378 205.506H43.2718V204.96C43.2718 204.437 43.1458 204.064 42.8938 203.84C42.6418 203.616 42.2545 203.504 41.7318 203.504C41.1905 203.504 40.5278 203.635 39.7438 203.896L39.4218 202.958C40.3365 202.622 41.1858 202.454 41.9698 202.454C42.8378 202.454 43.4865 202.669 43.9158 203.098C44.3452 203.518 44.5598 204.12 44.5598 204.904V208.278ZM41.5358 209.202C42.2732 209.202 42.8518 208.819 43.2718 208.054V206.36H42.3058C40.9432 206.36 40.2618 206.864 40.2618 207.872C40.2618 208.311 40.3692 208.642 40.5838 208.866C40.7985 209.09 41.1158 209.202 41.5358 209.202ZM50.9291 209.664C50.4437 210 49.8931 210.168 49.2771 210.168C48.6517 210.168 48.1617 209.991 47.8071 209.636C47.4617 209.272 47.2891 208.749 47.2891 208.068V203.616H46.0011V202.622H47.2891V200.956L48.5771 200.802V202.622H50.3271L50.1871 203.616H48.5771V208.012C48.5771 208.395 48.6424 208.675 48.7731 208.852C48.9131 209.02 49.1417 209.104 49.4591 209.104C49.7671 209.104 50.0937 208.997 50.4391 208.782L50.9291 209.664ZM55.9877 209.664C55.5023 210 54.9517 210.168 54.3357 210.168C53.7103 210.168 53.2203 209.991 52.8657 209.636C52.5203 209.272 52.3477 208.749 52.3477 208.068V203.616H51.0597V202.622H52.3477V200.956L53.6357 200.802V202.622H55.3857L55.2457 203.616H53.6357V208.012C53.6357 208.395 53.701 208.675 53.8317 208.852C53.9717 209.02 54.2003 209.104 54.5177 209.104C54.8257 209.104 55.1523 208.997 55.4977 208.782L55.9877 209.664ZM62.7575 206.094C62.7575 206.309 62.7482 206.528 62.7295 206.752H58.0255C58.0815 207.564 58.2869 208.161 58.6415 208.544C58.9962 208.927 59.4535 209.118 60.0135 209.118C60.3682 209.118 60.6949 209.067 60.9935 208.964C61.2922 208.861 61.6049 208.698 61.9315 208.474L62.4915 209.244C61.7075 209.86 60.8489 210.168 59.9155 210.168C58.8889 210.168 58.0862 209.832 57.5075 209.16C56.9382 208.488 56.6535 207.564 56.6535 206.388C56.6535 205.623 56.7749 204.946 57.0175 204.358C57.2695 203.761 57.6242 203.294 58.0815 202.958C58.5482 202.622 59.0942 202.454 59.7195 202.454C60.6995 202.454 61.4509 202.776 61.9735 203.42C62.4962 204.064 62.7575 204.955 62.7575 206.094ZM61.4835 205.716C61.4835 204.988 61.3389 204.433 61.0495 204.05C60.7602 203.667 60.3262 203.476 59.7475 203.476C58.6929 203.476 58.1189 204.251 58.0255 205.8H61.4835V205.716ZM68.3548 202.454C69.0268 202.454 69.5495 202.655 69.9228 203.056C70.3055 203.457 70.4968 204.008 70.4968 204.708V210H69.2088V204.89C69.2088 204.367 69.1108 203.999 68.9148 203.784C68.7188 203.569 68.4295 203.462 68.0468 203.462C67.6548 203.462 67.3095 203.574 67.0108 203.798C66.7121 204.022 66.4321 204.344 66.1708 204.764V210H64.8828V202.622H65.9888L66.1008 203.714C66.3621 203.322 66.6841 203.014 67.0668 202.79C67.4588 202.566 67.8881 202.454 68.3548 202.454ZM78.7979 210H77.6639L77.5379 208.978C77.2953 209.351 76.9919 209.645 76.6279 209.86C76.2639 210.065 75.8579 210.168 75.4099 210.168C74.5326 210.168 73.8466 209.823 73.3519 209.132C72.8666 208.441 72.6239 207.513 72.6239 206.346C72.6239 205.59 72.7406 204.918 72.9739 204.33C73.2073 203.742 73.5433 203.285 73.9819 202.958C74.4206 202.622 74.9339 202.454 75.5219 202.454C76.2779 202.454 76.9406 202.757 77.5099 203.364V199.5L78.7979 199.654V210ZM75.6899 209.146C76.0819 209.146 76.4179 209.057 76.6979 208.88C76.9779 208.693 77.2486 208.418 77.5099 208.054V204.442C77.2673 204.125 77.0059 203.887 76.7259 203.728C76.4553 203.56 76.1473 203.476 75.8019 203.476C75.2326 203.476 74.7893 203.714 74.4719 204.19C74.1639 204.666 74.0099 205.375 74.0099 206.318C74.0099 207.27 74.1546 207.979 74.4439 208.446C74.7333 208.913 75.1486 209.146 75.6899 209.146ZM86.8884 206.094C86.8884 206.309 86.8791 206.528 86.8604 206.752H82.1564C82.2124 207.564 82.4177 208.161 82.7724 208.544C83.1271 208.927 83.5844 209.118 84.1444 209.118C84.4991 209.118 84.8257 209.067 85.1244 208.964C85.4231 208.861 85.7357 208.698 86.0624 208.474L86.6224 209.244C85.8384 209.86 84.9797 210.168 84.0464 210.168C83.0197 210.168 82.2171 209.832 81.6384 209.16C81.0691 208.488 80.7844 207.564 80.7844 206.388C80.7844 205.623 80.9057 204.946 81.1484 204.358C81.4004 203.761 81.7551 203.294 82.2124 202.958C82.6791 202.622 83.2251 202.454 83.8504 202.454C84.8304 202.454 85.5817 202.776 86.1044 203.42C86.6271 204.064 86.8884 204.955 86.8884 206.094ZM85.6144 205.716C85.6144 204.988 85.4697 204.433 85.1804 204.05C84.8911 203.667 84.4571 203.476 83.8784 203.476C82.8237 203.476 82.2497 204.251 82.1564 205.8H85.6144V205.716ZM94.5857 206.094C94.5857 206.309 94.5763 206.528 94.5577 206.752H89.8537C89.9097 207.564 90.115 208.161 90.4697 208.544C90.8243 208.927 91.2817 209.118 91.8417 209.118C92.1963 209.118 92.523 209.067 92.8217 208.964C93.1203 208.861 93.433 208.698 93.7597 208.474L94.3197 209.244C93.5357 209.86 92.677 210.168 91.7437 210.168C90.717 210.168 89.9143 209.832 89.3357 209.16C88.7663 208.488 88.4817 207.564 88.4817 206.388C88.4817 205.623 88.603 204.946 88.8457 204.358C89.0977 203.761 89.4523 203.294 89.9097 202.958C90.3763 202.622 90.9223 202.454 91.5477 202.454C92.5277 202.454 93.279 202.776 93.8017 203.42C94.3243 204.064 94.5857 204.955 94.5857 206.094ZM93.3117 205.716C93.3117 204.988 93.167 204.433 92.8777 204.05C92.5883 203.667 92.1543 203.476 91.5757 203.476C90.521 203.476 89.947 204.251 89.8537 205.8H93.3117V205.716ZM98.7129 202.454C99.2169 202.454 99.6696 202.524 100.071 202.664C100.472 202.804 100.855 203.014 101.219 203.294L100.659 204.148C100.332 203.915 100.015 203.747 99.7069 203.644C99.4083 203.532 99.0909 203.476 98.7549 203.476C98.3349 203.476 98.0036 203.565 97.7609 203.742C97.5183 203.91 97.3969 204.143 97.3969 204.442C97.3969 204.741 97.5089 204.974 97.7329 205.142C97.9663 205.31 98.3816 205.473 98.9789 205.632C99.8003 205.837 100.412 206.117 100.813 206.472C101.224 206.827 101.429 207.312 101.429 207.928C101.429 208.656 101.144 209.211 100.575 209.594C100.015 209.977 99.3289 210.168 98.5169 210.168C97.3969 210.168 96.4683 209.846 95.7309 209.202L96.4449 208.39C97.0236 208.885 97.7049 209.132 98.4889 209.132C98.9649 209.132 99.3476 209.034 99.6369 208.838C99.9263 208.642 100.071 208.381 100.071 208.054C100.071 207.793 100.02 207.583 99.9169 207.424C99.8143 207.256 99.6369 207.116 99.3849 207.004C99.1423 206.883 98.7736 206.757 98.2789 206.626C97.4949 206.421 96.9256 206.145 96.5709 205.8C96.2256 205.445 96.0529 205.002 96.0529 204.47C96.0529 204.087 96.1649 203.742 96.3889 203.434C96.6223 203.126 96.9396 202.888 97.3409 202.72C97.7516 202.543 98.2089 202.454 98.7129 202.454Z" fill="#1A4A44"/>
<line x1="10.0001" y1="174.5" x2="190" y2="174.5" stroke="black" stroke-opacity="0.1"/>
<path d="M35.008 144.906C35.008 145.55 34.8727 146.119 34.602 146.614C34.3407 147.099 33.9533 147.482 33.44 147.762C32.936 148.033 32.3293 148.168 31.62 148.168C30.5467 148.168 29.716 147.874 29.128 147.286C28.5493 146.689 28.26 145.895 28.26 144.906V138.354H29.59V144.808C29.59 145.555 29.758 146.115 30.094 146.488C30.43 146.861 30.9387 147.048 31.62 147.048C32.3107 147.048 32.824 146.866 33.16 146.502C33.496 146.129 33.664 145.564 33.664 144.808V138.354H35.008V144.906ZM40.9875 140.454C41.9302 140.454 42.6209 140.79 43.0595 141.462C43.4982 142.134 43.7175 143.081 43.7175 144.304C43.7175 145.461 43.4655 146.395 42.9615 147.104C42.4575 147.813 41.7435 148.168 40.8195 148.168C39.9982 148.168 39.3542 147.888 38.8875 147.328V150.828L37.5995 150.982V140.622H38.7055L38.8035 141.616C39.0742 141.243 39.4009 140.958 39.7835 140.762C40.1662 140.557 40.5675 140.454 40.9875 140.454ZM40.5115 147.118C41.7249 147.118 42.3315 146.18 42.3315 144.304C42.3315 142.419 41.7762 141.476 40.6655 141.476C40.3015 141.476 39.9702 141.583 39.6715 141.798C39.3729 142.013 39.1115 142.288 38.8875 142.624V146.222C39.0742 146.511 39.3075 146.735 39.5875 146.894C39.8675 147.043 40.1755 147.118 40.5115 147.118ZM47.13 146.516C47.13 146.721 47.1627 146.871 47.228 146.964C47.3027 147.057 47.424 147.104 47.592 147.104C47.7694 147.104 47.928 147.076 48.068 147.02L48.404 147.916C48.0587 148.084 47.6947 148.168 47.312 148.168C46.836 148.168 46.472 148.033 46.22 147.762C45.968 147.482 45.842 147.076 45.842 146.544V137.654L47.13 137.5V146.516ZM52.6489 140.454C53.6849 140.454 54.4875 140.799 55.0569 141.49C55.6355 142.181 55.9249 143.119 55.9249 144.304C55.9249 145.069 55.7942 145.746 55.5329 146.334C55.2715 146.913 54.8935 147.365 54.3989 147.692C53.9042 148.009 53.3162 148.168 52.6349 148.168C51.5989 148.168 50.7915 147.823 50.2129 147.132C49.6342 146.441 49.3449 145.503 49.3449 144.318C49.3449 143.553 49.4755 142.881 49.7369 142.302C49.9982 141.714 50.3762 141.261 50.8709 140.944C51.3655 140.617 51.9582 140.454 52.6489 140.454ZM52.6489 141.49C51.3702 141.49 50.7309 142.433 50.7309 144.318C50.7309 146.194 51.3655 147.132 52.6349 147.132C53.9042 147.132 54.5389 146.189 54.5389 144.304C54.5389 142.428 53.9089 141.49 52.6489 141.49ZM63.0227 146.278C63.0227 146.577 63.074 146.801 63.1767 146.95C63.2793 147.09 63.4333 147.197 63.6387 147.272L63.3447 148.168C62.962 148.121 62.654 148.014 62.4207 147.846C62.1873 147.678 62.0147 147.417 61.9027 147.062C61.408 147.799 60.6753 148.168 59.7047 148.168C58.9767 148.168 58.4027 147.963 57.9827 147.552C57.5627 147.141 57.3527 146.605 57.3527 145.942C57.3527 145.158 57.6327 144.556 58.1927 144.136C58.762 143.716 59.5647 143.506 60.6007 143.506H61.7347V142.96C61.7347 142.437 61.6087 142.064 61.3567 141.84C61.1047 141.616 60.7173 141.504 60.1947 141.504C59.6533 141.504 58.9907 141.635 58.2067 141.896L57.8847 140.958C58.7993 140.622 59.6487 140.454 60.4327 140.454C61.3007 140.454 61.9493 140.669 62.3787 141.098C62.808 141.518 63.0227 142.12 63.0227 142.904V146.278ZM59.9987 147.202C60.736 147.202 61.3147 146.819 61.7347 146.054V144.36H60.7687C59.406 144.36 58.7247 144.864 58.7247 145.872C58.7247 146.311 58.832 146.642 59.0467 146.866C59.2613 147.09 59.5787 147.202 59.9987 147.202ZM71.3799 148H70.2459L70.1199 146.978C69.8772 147.351 69.5739 147.645 69.2099 147.86C68.8459 148.065 68.4399 148.168 67.9919 148.168C67.1146 148.168 66.4286 147.823 65.9339 147.132C65.4486 146.441 65.2059 145.513 65.2059 144.346C65.2059 143.59 65.3226 142.918 65.5559 142.33C65.7892 141.742 66.1252 141.285 66.5639 140.958C67.0026 140.622 67.5159 140.454 68.1039 140.454C68.8599 140.454 69.5226 140.757 70.0919 141.364V137.5L71.3799 137.654V148ZM68.2719 147.146C68.6639 147.146 68.9999 147.057 69.2799 146.88C69.5599 146.693 69.8306 146.418 70.0919 146.054V142.442C69.8492 142.125 69.5879 141.887 69.3079 141.728C69.0372 141.56 68.7292 141.476 68.3839 141.476C67.8146 141.476 67.3712 141.714 67.0539 142.19C66.7459 142.666 66.5919 143.375 66.5919 144.318C66.5919 145.27 66.7366 145.979 67.0259 146.446C67.3152 146.913 67.7306 147.146 68.2719 147.146ZM82.7102 146.278C82.7102 146.577 82.7615 146.801 82.8642 146.95C82.9668 147.09 83.1208 147.197 83.3262 147.272L83.0322 148.168C82.6495 148.121 82.3415 148.014 82.1082 147.846C81.8748 147.678 81.7022 147.417 81.5902 147.062C81.0955 147.799 80.3628 148.168 79.3922 148.168C78.6642 148.168 78.0902 147.963 77.6702 147.552C77.2502 147.141 77.0402 146.605 77.0402 145.942C77.0402 145.158 77.3202 144.556 77.8802 144.136C78.4495 143.716 79.2522 143.506 80.2882 143.506H81.4222V142.96C81.4222 142.437 81.2962 142.064 81.0442 141.84C80.7922 141.616 80.4048 141.504 79.8822 141.504C79.3408 141.504 78.6782 141.635 77.8942 141.896L77.5722 140.958C78.4868 140.622 79.3362 140.454 80.1202 140.454C80.9882 140.454 81.6368 140.669 82.0662 141.098C82.4955 141.518 82.7102 142.12 82.7102 142.904V146.278ZM79.6862 147.202C80.4235 147.202 81.0022 146.819 81.4222 146.054V144.36H80.4562C79.0935 144.36 78.4122 144.864 78.4122 145.872C78.4122 146.311 78.5195 146.642 78.7342 146.866C78.9488 147.09 79.2662 147.202 79.6862 147.202ZM92.2665 140.454C92.5278 140.454 92.7705 140.482 92.9945 140.538L92.7565 141.798C92.5325 141.742 92.3178 141.714 92.1125 141.714C91.6551 141.714 91.2865 141.882 91.0065 142.218C90.7265 142.554 90.5071 143.077 90.3485 143.786V148H89.0605V140.622H90.1665L90.2925 142.12C90.4885 141.569 90.7545 141.154 91.0905 140.874C91.4265 140.594 91.8185 140.454 92.2665 140.454ZM99.8961 144.094C99.8961 144.309 99.8868 144.528 99.8681 144.752H95.1641C95.2201 145.564 95.4255 146.161 95.7801 146.544C96.1348 146.927 96.5921 147.118 97.1521 147.118C97.5068 147.118 97.8335 147.067 98.1321 146.964C98.4308 146.861 98.7435 146.698 99.0701 146.474L99.6301 147.244C98.8461 147.86 97.9875 148.168 97.0541 148.168C96.0275 148.168 95.2248 147.832 94.6461 147.16C94.0768 146.488 93.7921 145.564 93.7921 144.388C93.7921 143.623 93.9135 142.946 94.1561 142.358C94.4081 141.761 94.7628 141.294 95.2201 140.958C95.6868 140.622 96.2328 140.454 96.8581 140.454C97.8381 140.454 98.5895 140.776 99.1121 141.42C99.6348 142.064 99.8961 142.955 99.8961 144.094ZM98.6221 143.716C98.6221 142.988 98.4775 142.433 98.1881 142.05C97.8988 141.667 97.4648 141.476 96.8861 141.476C95.8315 141.476 95.2575 142.251 95.1641 143.8H98.6221V143.716ZM104.709 140.454C105.148 140.454 105.549 140.519 105.913 140.65C106.277 140.771 106.627 140.972 106.963 141.252L106.333 142.092C106.081 141.896 105.834 141.751 105.591 141.658C105.349 141.565 105.073 141.518 104.765 141.518C104.168 141.518 103.701 141.756 103.365 142.232C103.039 142.708 102.875 143.413 102.875 144.346C102.875 145.279 103.039 145.97 103.365 146.418C103.692 146.857 104.159 147.076 104.765 147.076C105.064 147.076 105.33 147.029 105.563 146.936C105.806 146.843 106.067 146.689 106.347 146.474L106.963 147.356C106.291 147.897 105.54 148.168 104.709 148.168C103.711 148.168 102.922 147.832 102.343 147.16C101.774 146.488 101.489 145.559 101.489 144.374C101.489 143.59 101.62 142.904 101.881 142.316C102.143 141.728 102.511 141.271 102.987 140.944C103.473 140.617 104.047 140.454 104.709 140.454ZM114.142 144.094C114.142 144.309 114.133 144.528 114.114 144.752H109.41C109.466 145.564 109.672 146.161 110.026 146.544C110.381 146.927 110.838 147.118 111.398 147.118C111.753 147.118 112.08 147.067 112.378 146.964C112.677 146.861 112.99 146.698 113.316 146.474L113.876 147.244C113.092 147.86 112.234 148.168 111.3 148.168C110.274 148.168 109.471 147.832 108.892 147.16C108.323 146.488 108.038 145.564 108.038 144.388C108.038 143.623 108.16 142.946 108.402 142.358C108.654 141.761 109.009 141.294 109.466 140.958C109.933 140.622 110.479 140.454 111.104 140.454C112.084 140.454 112.836 140.776 113.358 141.42C113.881 142.064 114.142 142.955 114.142 144.094ZM112.868 143.716C112.868 142.988 112.724 142.433 112.434 142.05C112.145 141.667 111.711 141.476 111.132 141.476C110.078 141.476 109.504 142.251 109.41 143.8H112.868V143.716ZM116.268 148V140.622H117.556V148H116.268ZM116.898 137.08C117.168 137.08 117.388 137.164 117.556 137.332C117.724 137.5 117.808 137.71 117.808 137.962C117.808 138.214 117.724 138.424 117.556 138.592C117.388 138.751 117.168 138.83 116.898 138.83C116.636 138.83 116.422 138.751 116.254 138.592C116.086 138.424 116.002 138.214 116.002 137.962C116.002 137.71 116.086 137.5 116.254 137.332C116.422 137.164 116.636 137.08 116.898 137.08ZM123.607 140.454C124.549 140.454 125.24 140.79 125.679 141.462C126.117 142.134 126.337 143.081 126.337 144.304C126.337 145.461 126.085 146.395 125.581 147.104C125.077 147.813 124.363 148.168 123.439 148.168C122.617 148.168 121.973 147.888 121.507 147.328V150.828L120.219 150.982V140.622H121.325L121.423 141.616C121.693 141.243 122.02 140.958 122.403 140.762C122.785 140.557 123.187 140.454 123.607 140.454ZM123.131 147.118C124.344 147.118 124.951 146.18 124.951 144.304C124.951 142.419 124.395 141.476 123.285 141.476C122.921 141.476 122.589 141.583 122.291 141.798C121.992 142.013 121.731 142.288 121.507 142.624V146.222C121.693 146.511 121.927 146.735 122.207 146.894C122.487 147.043 122.795 147.118 123.131 147.118ZM132.255 147.664C131.77 148 131.219 148.168 130.603 148.168C129.978 148.168 129.488 147.991 129.133 147.636C128.788 147.272 128.615 146.749 128.615 146.068V141.616H127.327V140.622H128.615V138.956L129.903 138.802V140.622H131.653L131.513 141.616H129.903V146.012C129.903 146.395 129.969 146.675 130.099 146.852C130.239 147.02 130.468 147.104 130.785 147.104C131.093 147.104 131.42 146.997 131.765 146.782L132.255 147.664Z" fill="#919998"/>
<path d="M13.711 146.867L9.76099 142.918L10.468 142.211L13.711 143.453L20.782 138.383L21.489 139.09L13.711 146.867Z" fill="#B5BFBE"/>
<path d="M14.9281 76.062V84H12.6321V76.062H10.1261V74.298H17.5461L17.3221 76.062H14.9281ZM20.5275 76.328C21.6662 76.328 22.5575 76.678 23.2015 77.378C23.8455 78.0687 24.1675 79.0393 24.1675 80.29C24.1675 81.0833 24.0182 81.7787 23.7195 82.376C23.4302 82.964 23.0102 83.4213 22.4595 83.748C21.9182 84.0747 21.2742 84.238 20.5275 84.238C19.3982 84.238 18.5068 83.8927 17.8535 83.202C17.2095 82.502 16.8875 81.5267 16.8875 80.276C16.8875 79.4827 17.0322 78.792 17.3215 78.204C17.6202 77.6067 18.0402 77.1447 18.5815 76.818C19.1322 76.4913 19.7808 76.328 20.5275 76.328ZM20.5275 77.952C20.0795 77.952 19.7435 78.1433 19.5195 78.526C19.2955 78.8993 19.1835 79.4827 19.1835 80.276C19.1835 81.088 19.2908 81.6807 19.5055 82.054C19.7295 82.4273 20.0702 82.614 20.5275 82.614C20.9755 82.614 21.3115 82.4273 21.5355 82.054C21.7595 81.6713 21.8715 81.0833 21.8715 80.29C21.8715 79.478 21.7595 78.8853 21.5355 78.512C21.3208 78.1387 20.9848 77.952 20.5275 77.952ZM32.0256 76.328C32.5389 76.328 33.0009 76.4027 33.4116 76.552C33.8222 76.7013 34.2096 76.93 34.5736 77.238L33.6076 78.568C33.1596 78.204 32.6929 78.022 32.2076 78.022C31.7129 78.022 31.3396 78.204 31.0876 78.568C30.8356 78.932 30.7096 79.52 30.7096 80.332C30.7096 81.116 30.8356 81.6713 31.0876 81.998C31.3396 82.3247 31.7036 82.488 32.1796 82.488C32.4409 82.488 32.6742 82.446 32.8796 82.362C33.0849 82.278 33.3136 82.138 33.5656 81.942L34.5736 83.356C33.8362 83.944 33.0009 84.238 32.0676 84.238C31.3116 84.238 30.6582 84.0793 30.1076 83.762C29.5569 83.4353 29.1322 82.9827 28.8336 82.404C28.5349 81.816 28.3856 81.13 28.3856 80.346C28.3856 79.562 28.5349 78.8667 28.8336 78.26C29.1322 77.6533 29.5569 77.182 30.1076 76.846C30.6582 76.5007 31.2976 76.328 32.0256 76.328ZM38.5881 76.328C39.7267 76.328 40.6181 76.678 41.2621 77.378C41.9061 78.0687 42.2281 79.0393 42.2281 80.29C42.2281 81.0833 42.0787 81.7787 41.7801 82.376C41.4907 82.964 41.0707 83.4213 40.5201 83.748C39.9787 84.0747 39.3347 84.238 38.5881 84.238C37.4587 84.238 36.5674 83.8927 35.9141 83.202C35.2701 82.502 34.9481 81.5267 34.9481 80.276C34.9481 79.4827 35.0927 78.792 35.3821 78.204C35.6807 77.6067 36.1007 77.1447 36.6421 76.818C37.1927 76.4913 37.8414 76.328 38.5881 76.328ZM38.5881 77.952C38.1401 77.952 37.8041 78.1433 37.5801 78.526C37.3561 78.8993 37.2441 79.4827 37.2441 80.276C37.2441 81.088 37.3514 81.6807 37.5661 82.054C37.7901 82.4273 38.1307 82.614 38.5881 82.614C39.0361 82.614 39.3721 82.4273 39.5961 82.054C39.8201 81.6713 39.9321 81.0833 39.9321 80.29C39.9321 79.478 39.8201 78.8853 39.5961 78.512C39.3814 78.1387 39.0454 77.952 38.5881 77.952ZM51.7618 76.328C52.3498 76.328 52.8212 76.5287 53.1758 76.93C53.5305 77.322 53.7078 77.868 53.7078 78.568V84H51.4958V78.946C51.4958 78.2833 51.2858 77.952 50.8658 77.952C50.6325 77.952 50.4272 78.0313 50.2498 78.19C50.0725 78.3487 49.8998 78.5913 49.7318 78.918V84H47.5198V78.946C47.5198 78.2833 47.3098 77.952 46.8898 77.952C46.6658 77.952 46.4605 78.036 46.2738 78.204C46.0965 78.3627 45.9238 78.6007 45.7558 78.918V84H43.5438V76.566H45.4758L45.6298 77.434C45.9192 77.0607 46.2365 76.7853 46.5818 76.608C46.9365 76.4213 47.3378 76.328 47.7858 76.328C48.1965 76.328 48.5512 76.4307 48.8498 76.636C49.1578 76.8413 49.3865 77.1307 49.5358 77.504C49.8345 77.112 50.1612 76.818 50.5158 76.622C50.8798 76.426 51.2952 76.328 51.7618 76.328ZM59.528 76.328C60.48 76.328 61.1847 76.6733 61.642 77.364C62.1087 78.0453 62.342 79.0113 62.342 80.262C62.342 81.0273 62.2207 81.7133 61.978 82.32C61.7447 82.9173 61.404 83.3887 60.956 83.734C60.508 84.07 59.9854 84.238 59.388 84.238C58.6414 84.238 58.0394 83.9767 57.582 83.454V86.87L55.37 87.108V76.566H57.316L57.428 77.392C57.7174 77.028 58.044 76.762 58.408 76.594C58.7814 76.4167 59.1547 76.328 59.528 76.328ZM58.716 82.614C59.6027 82.614 60.046 81.8393 60.046 80.29C60.046 79.4127 59.9434 78.806 59.738 78.47C59.542 78.1247 59.2387 77.952 58.828 77.952C58.5947 77.952 58.366 78.0313 58.142 78.19C57.9274 78.3393 57.7407 78.5493 57.582 78.82V81.956C57.8807 82.3947 58.2587 82.614 58.716 82.614ZM65.8655 81.914C65.8655 82.2967 65.9915 82.488 66.2435 82.488C66.3742 82.488 66.4955 82.4647 66.6075 82.418L67.0415 83.986C66.6309 84.154 66.1549 84.238 65.6135 84.238C64.9882 84.238 64.5029 84.0607 64.1575 83.706C63.8215 83.342 63.6535 82.8193 63.6535 82.138V73.612L65.8655 73.374V81.914ZM74.2251 80.136C74.2251 80.444 74.2111 80.71 74.1831 80.934H69.5911C69.6564 81.5593 69.8291 81.998 70.1091 82.25C70.3891 82.502 70.7764 82.628 71.2711 82.628C71.5697 82.628 71.8591 82.5767 72.1391 82.474C72.4191 82.362 72.7224 82.194 73.0491 81.97L73.9591 83.202C73.0911 83.8927 72.1251 84.238 71.0611 84.238C69.8571 84.238 68.9331 83.8833 68.2891 83.174C67.6451 82.4647 67.3231 81.5127 67.3231 80.318C67.3231 79.562 67.4584 78.8853 67.7291 78.288C67.9997 77.6813 68.3964 77.2053 68.9191 76.86C69.4417 76.5053 70.0671 76.328 70.7951 76.328C71.8684 76.328 72.7084 76.664 73.3151 77.336C73.9217 78.008 74.2251 78.9413 74.2251 80.136ZM72.0551 79.506C72.0364 78.3673 71.6351 77.798 70.8511 77.798C70.4684 77.798 70.1744 77.938 69.9691 78.218C69.7637 78.4887 69.6331 78.9507 69.5771 79.604H72.0551V79.506ZM80.157 83.65C79.8864 83.8367 79.569 83.9813 79.205 84.084C78.8504 84.1867 78.4957 84.238 78.141 84.238C76.517 84.2287 75.705 83.3327 75.705 81.55V78.106H74.655V76.566H75.705V74.956L77.917 74.704V76.566H79.625L79.387 78.106H77.917V81.522C77.917 81.8673 77.973 82.1147 78.085 82.264C78.197 82.4133 78.3744 82.488 78.617 82.488C78.8784 82.488 79.1444 82.404 79.415 82.236L80.157 83.65ZM87.2407 80.136C87.2407 80.444 87.2267 80.71 87.1987 80.934H82.6067C82.672 81.5593 82.8447 81.998 83.1247 82.25C83.4047 82.502 83.792 82.628 84.2867 82.628C84.5854 82.628 84.8747 82.5767 85.1547 82.474C85.4347 82.362 85.738 82.194 86.0647 81.97L86.9747 83.202C86.1067 83.8927 85.1407 84.238 84.0767 84.238C82.8727 84.238 81.9487 83.8833 81.3047 83.174C80.6607 82.4647 80.3387 81.5127 80.3387 80.318C80.3387 79.562 80.474 78.8853 80.7447 78.288C81.0154 77.6813 81.412 77.2053 81.9347 76.86C82.4574 76.5053 83.0827 76.328 83.8107 76.328C84.884 76.328 85.724 76.664 86.3307 77.336C86.9374 78.008 87.2407 78.9413 87.2407 80.136ZM85.0707 79.506C85.052 78.3673 84.6507 77.798 83.8667 77.798C83.484 77.798 83.19 77.938 82.9847 78.218C82.7794 78.4887 82.6487 78.9507 82.5927 79.604H85.0707V79.506ZM96.4949 83.65C96.2242 83.8367 95.9069 83.9813 95.5429 84.084C95.1882 84.1867 94.8336 84.238 94.4789 84.238C92.8549 84.2287 92.0429 83.3327 92.0429 81.55V78.106H90.9929V76.566H92.0429V74.956L94.2549 74.704V76.566H95.9629L95.7249 78.106H94.2549V81.522C94.2549 81.8673 94.3109 82.1147 94.4229 82.264C94.5349 82.4133 94.7122 82.488 94.9549 82.488C95.2162 82.488 95.4822 82.404 95.7529 82.236L96.4949 83.65ZM101.587 76.328C102.231 76.328 102.735 76.524 103.099 76.916C103.463 77.308 103.645 77.8587 103.645 78.568V84H101.433V78.946C101.433 78.5727 101.373 78.316 101.251 78.176C101.13 78.0267 100.957 77.952 100.733 77.952C100.285 77.952 99.856 78.2693 99.4453 78.904V84H97.2333V73.612L99.4453 73.388V77.35C99.7533 77.0047 100.08 76.748 100.425 76.58C100.771 76.412 101.158 76.328 101.587 76.328ZM105.313 84V76.566H107.525V84H105.313ZM106.405 72.646C106.788 72.646 107.101 72.7673 107.343 73.01C107.595 73.2433 107.721 73.542 107.721 73.906C107.721 74.27 107.595 74.5733 107.343 74.816C107.101 75.0493 106.788 75.166 106.405 75.166C106.023 75.166 105.71 75.0493 105.467 74.816C105.225 74.5733 105.103 74.27 105.103 73.906C105.103 73.542 105.225 73.2433 105.467 73.01C105.71 72.7673 106.023 72.646 106.405 72.646ZM111.883 76.328C112.415 76.328 112.914 76.4073 113.381 76.566C113.847 76.7247 114.258 76.9487 114.613 77.238L113.801 78.498C113.203 78.106 112.615 77.91 112.037 77.91C111.71 77.91 111.467 77.9613 111.309 78.064C111.15 78.1573 111.071 78.2927 111.071 78.47C111.071 78.61 111.103 78.7267 111.169 78.82C111.243 78.904 111.388 78.9927 111.603 79.086C111.817 79.1793 112.149 79.2913 112.597 79.422C113.371 79.646 113.945 79.94 114.319 80.304C114.701 80.6587 114.893 81.1533 114.893 81.788C114.893 82.292 114.748 82.7307 114.459 83.104C114.169 83.468 113.773 83.748 113.269 83.944C112.765 84.14 112.205 84.238 111.589 84.238C110.963 84.238 110.38 84.14 109.839 83.944C109.307 83.748 108.854 83.4773 108.481 83.132L109.573 81.914C109.853 82.1473 110.161 82.3293 110.497 82.46C110.833 82.5907 111.173 82.656 111.519 82.656C111.864 82.656 112.13 82.5953 112.317 82.474C112.513 82.3527 112.611 82.1847 112.611 81.97C112.611 81.7927 112.573 81.6527 112.499 81.55C112.424 81.438 112.279 81.34 112.065 81.256C111.85 81.1627 111.509 81.0507 111.043 80.92C110.305 80.7053 109.755 80.4067 109.391 80.024C109.027 79.6413 108.845 79.1653 108.845 78.596C108.845 78.1667 108.966 77.784 109.209 77.448C109.461 77.1027 109.815 76.832 110.273 76.636C110.739 76.4307 111.276 76.328 111.883 76.328ZM123.512 76.328C124.464 76.328 125.169 76.6733 125.626 77.364C126.093 78.0453 126.326 79.0113 126.326 80.262C126.326 81.0273 126.205 81.7133 125.962 82.32C125.729 82.9173 125.388 83.3887 124.94 83.734C124.492 84.07 123.97 84.238 123.372 84.238C122.626 84.238 122.024 83.9767 121.566 83.454V86.87L119.354 87.108V76.566H121.3L121.412 77.392C121.702 77.028 122.028 76.762 122.392 76.594C122.766 76.4167 123.139 76.328 123.512 76.328ZM122.7 82.614C123.587 82.614 124.03 81.8393 124.03 80.29C124.03 79.4127 123.928 78.806 123.722 78.47C123.526 78.1247 123.223 77.952 122.812 77.952C122.579 77.952 122.35 78.0313 122.126 78.19C121.912 78.3393 121.725 78.5493 121.566 78.82V81.956C121.865 82.3947 122.243 82.614 122.7 82.614ZM132.062 84L131.964 83.062C131.423 83.846 130.671 84.238 129.71 84.238C129.029 84.238 128.511 84.0327 128.156 83.622C127.811 83.2113 127.638 82.6373 127.638 81.9V76.566H129.85V81.62C129.85 81.984 129.906 82.2407 130.018 82.39C130.139 82.53 130.321 82.6 130.564 82.6C131.031 82.6 131.432 82.3107 131.768 81.732V76.566H133.98V84H132.062ZM139.752 76.356C140.022 76.356 140.27 76.3887 140.494 76.454L140.144 78.596C139.864 78.5307 139.64 78.498 139.472 78.498C139.042 78.498 138.711 78.6473 138.478 78.946C138.244 79.2447 138.062 79.6927 137.932 80.29V84H135.72V76.566H137.652L137.834 77.994C138.002 77.4807 138.254 77.0793 138.59 76.79C138.935 76.5007 139.322 76.356 139.752 76.356ZM144.422 76.328C144.935 76.328 145.397 76.4027 145.808 76.552C146.219 76.7013 146.606 76.93 146.97 77.238L146.004 78.568C145.556 78.204 145.089 78.022 144.604 78.022C144.109 78.022 143.736 78.204 143.484 78.568C143.232 78.932 143.106 79.52 143.106 80.332C143.106 81.116 143.232 81.6713 143.484 81.998C143.736 82.3247 144.1 82.488 144.576 82.488C144.837 82.488 145.071 82.446 145.276 82.362C145.481 82.278 145.71 82.138 145.962 81.942L146.97 83.356C146.233 83.944 145.397 84.238 144.464 84.238C143.708 84.238 143.055 84.0793 142.504 83.762C141.953 83.4353 141.529 82.9827 141.23 82.404C140.931 81.816 140.782 81.13 140.782 80.346C140.782 79.562 140.931 78.8667 141.23 78.26C141.529 77.6533 141.953 77.182 142.504 76.846C143.055 76.5007 143.694 76.328 144.422 76.328ZM152.255 76.328C152.899 76.328 153.403 76.524 153.767 76.916C154.131 77.308 154.313 77.8587 154.313 78.568V84H152.101V78.946C152.101 78.5727 152.041 78.316 151.919 78.176C151.798 78.0267 151.625 77.952 151.401 77.952C150.953 77.952 150.524 78.2693 150.113 78.904V84H147.901V73.612L150.113 73.388V77.35C150.421 77.0047 150.748 76.748 151.093 76.58C151.439 76.412 151.826 76.328 152.255 76.328ZM161.889 81.844C161.889 82.124 161.927 82.3293 162.001 82.46C162.085 82.5907 162.216 82.6887 162.393 82.754L161.931 84.196C161.474 84.1587 161.101 84.0607 160.811 83.902C160.531 83.7433 160.307 83.4867 160.139 83.132C159.654 83.8693 158.907 84.238 157.899 84.238C157.162 84.238 156.574 84.0233 156.135 83.594C155.697 83.1647 155.477 82.6047 155.477 81.914C155.477 81.102 155.776 80.4813 156.373 80.052C156.971 79.6227 157.834 79.408 158.963 79.408H159.719V79.086C159.719 78.6473 159.626 78.3487 159.439 78.19C159.253 78.022 158.926 77.938 158.459 77.938C158.217 77.938 157.923 77.9753 157.577 78.05C157.232 78.1153 156.877 78.2087 156.513 78.33L156.009 76.874C156.476 76.6967 156.952 76.5613 157.437 76.468C157.932 76.3747 158.389 76.328 158.809 76.328C159.873 76.328 160.653 76.5473 161.147 76.986C161.642 77.4247 161.889 78.0827 161.889 78.96V81.844ZM158.543 82.656C158.786 82.656 159.005 82.5953 159.201 82.474C159.407 82.3527 159.579 82.18 159.719 81.956V80.626H159.173C158.669 80.626 158.291 80.7147 158.039 80.892C157.797 81.0693 157.675 81.3447 157.675 81.718C157.675 82.0167 157.75 82.25 157.899 82.418C158.058 82.5767 158.273 82.656 158.543 82.656ZM166.269 76.328C166.801 76.328 167.301 76.4073 167.767 76.566C168.234 76.7247 168.645 76.9487 168.999 77.238L168.187 78.498C167.59 78.106 167.002 77.91 166.423 77.91C166.097 77.91 165.854 77.9613 165.695 78.064C165.537 78.1573 165.457 78.2927 165.457 78.47C165.457 78.61 165.49 78.7267 165.555 78.82C165.63 78.904 165.775 78.9927 165.989 79.086C166.204 79.1793 166.535 79.2913 166.983 79.422C167.758 79.646 168.332 79.94 168.705 80.304C169.088 80.6587 169.279 81.1533 169.279 81.788C169.279 82.292 169.135 82.7307 168.845 83.104C168.556 83.468 168.159 83.748 167.655 83.944C167.151 84.14 166.591 84.238 165.975 84.238C165.35 84.238 164.767 84.14 164.225 83.944C163.693 83.748 163.241 83.4773 162.867 83.132L163.959 81.914C164.239 82.1473 164.547 82.3293 164.883 82.46C165.219 82.5907 165.56 82.656 165.905 82.656C166.251 82.656 166.517 82.5953 166.703 82.474C166.899 82.3527 166.997 82.1847 166.997 81.97C166.997 81.7927 166.96 81.6527 166.885 81.55C166.811 81.438 166.666 81.34 166.451 81.256C166.237 81.1627 165.896 81.0507 165.429 80.92C164.692 80.7053 164.141 80.4067 163.777 80.024C163.413 79.6413 163.231 79.1653 163.231 78.596C163.231 78.1667 163.353 77.784 163.595 77.448C163.847 77.1027 164.202 76.832 164.659 76.636C165.126 76.4307 165.663 76.328 166.269 76.328ZM176.901 80.136C176.901 80.444 176.887 80.71 176.859 80.934H172.267C172.332 81.5593 172.505 81.998 172.785 82.25C173.065 82.502 173.452 82.628 173.947 82.628C174.246 82.628 174.535 82.5767 174.815 82.474C175.095 82.362 175.398 82.194 175.725 81.97L176.635 83.202C175.767 83.8927 174.801 84.238 173.737 84.238C172.533 84.238 171.609 83.8833 170.965 83.174C170.321 82.4647 169.999 81.5127 169.999 80.318C169.999 79.562 170.134 78.8853 170.405 78.288C170.676 77.6813 171.072 77.2053 171.595 76.86C172.118 76.5053 172.743 76.328 173.471 76.328C174.544 76.328 175.384 76.664 175.991 77.336C176.598 78.008 176.901 78.9413 176.901 80.136ZM174.731 79.506C174.712 78.3673 174.311 77.798 173.527 77.798C173.144 77.798 172.85 77.938 172.645 78.218C172.44 78.4887 172.309 78.9507 172.253 79.604H174.731V79.506ZM178.983 81.704C179.328 81.704 179.622 81.83 179.865 82.082C180.117 82.3247 180.243 82.6187 180.243 82.964C180.243 83.3187 180.117 83.622 179.865 83.874C179.622 84.1167 179.328 84.238 178.983 84.238C178.628 84.238 178.325 84.1167 178.073 83.874C177.83 83.622 177.709 83.3187 177.709 82.964C177.709 82.6187 177.83 82.3247 178.073 82.082C178.325 81.83 178.628 81.704 178.983 81.704ZM178.983 76.874C179.328 76.874 179.622 77 179.865 77.252C180.117 77.4947 180.243 77.7887 180.243 78.134C180.243 78.4887 180.117 78.792 179.865 79.044C179.622 79.2867 179.328 79.408 178.983 79.408C178.628 79.408 178.325 79.2867 178.073 79.044C177.83 78.792 177.709 78.4887 177.709 78.134C177.709 77.7887 177.83 77.4947 178.073 77.252C178.325 77 178.628 76.874 178.983 76.874Z" fill="#1A4A44"/>
<path fill-rule="evenodd" clip-rule="evenodd" d="M89.6452 32.0299C89.2173 31.2208 88.7894 30.4118 88.3616 29.6026C87.913 28.7545 87.4646 27.9063 87.0161 27.0581C86.8923 26.8239 86.6407 26.7078 86.4018 26.7752C86.1259 26.8531 85.9715 27.0843 86.0044 27.3703C86.0145 27.4573 86.0493 27.5355 86.0898 27.6118C87.1285 29.5753 88.1674 31.5384 89.2046 33.5026C89.3011 33.6852 89.4469 33.7821 89.6508 33.7881C89.8573 33.7944 90.0235 33.7177 90.1232 33.5295C90.7578 32.3322 91.3908 31.1341 92.0243 29.9361C92.4384 29.1531 92.8525 28.3702 93.2667 27.5872C93.3281 27.4712 93.3561 27.35 93.3393 27.2175C93.2994 26.9028 92.9965 26.7229 92.7285 26.7626C92.5453 26.7897 92.4141 26.8961 92.3289 27.0569C91.4517 28.7137 90.5757 30.3712 89.6992 32.0284C89.6912 32.0434 89.6828 32.0583 89.6718 32.0783C89.6613 32.0592 89.653 32.0447 89.6452 32.0299ZM95.1564 30.294C95.1489 31.7328 96.3528 32.9113 97.7609 32.9121C99.1877 32.9127 100.371 31.7134 100.371 30.2943C100.372 28.8745 99.189 27.675 97.763 27.6746C96.3533 27.6742 95.1481 28.8539 95.1564 30.294ZM101.439 30.2953C101.444 32.3366 99.8236 34.0005 97.7481 34C95.6866 33.9995 94.0541 32.3568 94.0558 30.2877C94.0574 28.2257 95.692 26.5866 97.7483 26.5866C99.8251 26.5866 101.446 28.2522 101.439 30.2953ZM104.198 27.8938C104.609 27.8938 105.02 27.8941 105.43 27.8935C105.477 27.8933 105.524 27.8931 105.57 27.8841C106.008 27.7977 106.103 27.3085 105.904 27.0329C105.79 26.8752 105.636 26.8023 105.444 26.8028C105.027 26.8037 104.61 26.8031 104.193 26.8031C104.179 26.8031 104.165 26.8018 104.148 26.8011V26.7494C104.148 26.3456 104.148 25.9418 104.148 25.538C104.147 25.121 103.738 24.8918 103.381 25.0506C103.169 25.1449 103.063 25.3188 103.063 25.5552C103.064 27.6677 103.064 29.7803 103.063 31.8927C103.063 32.0533 103.073 32.2123 103.11 32.369C103.232 32.8866 103.517 33.2847 103.979 33.5499C104.273 33.7189 104.593 33.7887 104.93 33.7885C105.238 33.7882 105.546 33.7887 105.854 33.788C105.896 33.7879 105.94 33.7876 105.982 33.7786C106.206 33.7309 106.354 33.5965 106.4 33.3706C106.447 33.1422 106.389 32.9435 106.196 32.7975C106.094 32.7205 105.976 32.698 105.853 32.6977C105.536 32.6972 105.22 32.6992 104.904 32.696C104.74 32.6942 104.589 32.646 104.46 32.543C104.246 32.3728 104.148 32.1453 104.148 31.8759C104.147 30.5647 104.148 29.2536 104.148 27.9426V27.8938H104.198ZM108.303 30.1489C108.304 30.634 108.351 30.9347 108.473 31.2629C108.757 32.0257 109.27 32.5586 110.048 32.816C110.397 32.9316 110.757 32.9481 111.12 32.9046C111.551 32.8531 111.947 32.7035 112.306 32.4597C113.205 31.8497 113.646 30.7833 113.385 29.6741C113.236 29.041 112.881 28.5367 112.353 28.1615C111.721 27.7133 111.022 27.55 110.261 27.7032C109.767 27.8027 109.348 28.0481 109.008 28.421C108.528 28.9482 108.314 29.5799 108.303 30.1489ZM113.457 27.948V27.9078C113.457 27.7196 113.456 27.5313 113.457 27.343C113.458 26.9347 113.894 26.6653 114.253 26.8552C114.436 26.9517 114.532 27.1111 114.542 27.3203C114.543 27.3277 114.542 27.3351 114.542 27.3425C114.542 29.3071 114.543 31.2718 114.542 33.2364C114.542 33.4687 114.421 33.6617 114.214 33.7405C113.873 33.87 113.523 33.6687 113.466 33.3346C113.46 33.3007 113.457 33.2661 113.457 33.2317C113.457 33.0534 113.457 32.8747 113.457 32.6962V32.6561C113.454 32.6547 113.452 32.6533 113.45 32.6522C113.441 32.6627 113.432 32.6732 113.424 32.684C113.02 33.2092 112.512 33.594 111.889 33.8202C111.578 33.9331 111.256 33.9859 110.925 33.9974C110.527 34.0112 110.136 33.9706 109.757 33.8495C108.73 33.5212 108.004 32.8508 107.555 31.8729C107.379 31.4902 107.271 31.0879 107.237 30.6673C107.138 29.4578 107.505 28.4139 108.365 27.5591C108.836 27.0914 109.41 26.8001 110.058 26.6622C110.394 26.5908 110.733 26.5742 111.075 26.6001C111.853 26.6591 112.509 26.9863 113.069 27.521C113.202 27.6473 113.324 27.7837 113.433 27.9316C113.438 27.9382 113.443 27.9441 113.449 27.9503C113.451 27.9495 113.454 27.9488 113.457 27.948Z" fill="url(#paint1_linear)"/>
<path d="M15.0001 30L19.0001 34L20.0001 33L16.0001 29L20.0001 25L19.0001 24L15.0001 28L11.0001 24L10.0001 25L14.0001 29L10.0001 33L11.0001 34L15.0001 30Z" fill="#1A4A44"/>
<defs>
<linearGradient id="paint0_linear" x1="10.0001" y1="268.61" x2="190" y2="268.61" gradientUnits="userSpaceOnUse">
<stop stop-color="#32BB94"/>
<stop offset="1" stop-color="#16B4BD"/>
</linearGradient>
<linearGradient id="paint1_linear" x1="86" y1="29.3902" x2="114.543" y2="29.3902" gradientUnits="userSpaceOnUse">
<stop stop-color="#32BB94"/>
<stop offset="1" stop-color="#16B4BD"/>
</linearGradient>
</defs>
</svg>
