<svg width="87" height="24" xmlns="http://www.w3.org/2000/svg"><defs><linearGradient x1="50%" y1="0%" x2="50%" y2="100%" id="a"><stop stop-color="#32BB94" offset="0%"/><stop stop-color="#009CA4" offset="100%"/></linearGradient><linearGradient x1="0%" y1="50%" y2="50%" id="b"><stop stop-color="#32BB94" offset="0%"/><stop stop-color="#16B4BD" offset="100%"/></linearGradient><linearGradient x1="0%" y1="50%" y2="50%" id="c"><stop stop-color="#97D98B" offset="0%"/><stop stop-color="#8BD98C" offset="100%"/></linearGradient></defs><g fill="none" fill-rule="evenodd"><path d="M42.105 16.646l-2.306-4.356-2.417-4.565c-.222-.42-.674-.629-1.103-.508-.496.14-.773.555-.714 1.068.018.156.08.296.153.433 1.866 3.523 3.732 7.046 5.595 10.57.174.328.436.502.802.513.37.01.67-.127.848-.464 1.14-2.149 2.277-4.299 3.415-6.448l2.232-4.215c.11-.208.16-.426.13-.663-.071-.565-.615-.888-1.097-.817-.329.05-.564.24-.717.529-1.576 2.972-3.15 5.946-4.724 8.92l-.05.09-.047-.087zm9.9-3.115c-.014 2.582 2.149 4.696 4.678 4.698 2.563 0 4.688-2.151 4.69-4.697 0-2.548-2.124-4.7-4.686-4.701-2.532 0-4.697 2.116-4.682 4.7zm11.286.002a6.597 6.597 0 0 1-6.63 6.648c-3.704-.001-6.636-2.949-6.633-6.661.003-3.7 2.939-6.641 6.633-6.641a6.597 6.597 0 0 1 6.63 6.654zm4.955-4.309h2.214c.084 0 .169-.001.25-.017.788-.155.958-1.033.601-1.527a.957.957 0 0 0-.827-.413h-2.246c-.026 0-.05-.002-.082-.004v-.092-2.174c0-.748-.736-1.16-1.377-.874-.38.169-.57.48-.57.905L66.207 16.4c0 .288.018.573.084.854.22.929.731 1.643 1.56 2.12.53.302 1.104.428 1.71.427h1.658c.077 0 .156-.001.23-.017.403-.086.669-.327.752-.732.085-.41-.02-.767-.367-1.029-.183-.138-.394-.178-.616-.179-.569 0-1.137.003-1.705-.003a1.273 1.273 0 0 1-.797-.275c-.385-.305-.56-.713-.56-1.196-.002-2.353 0-4.706 0-7.058v-.088h.09zm7.375 4.047c0 .87.085 1.41.305 1.999.51 1.368 1.432 2.324 2.83 2.786.626.208 1.272.237 1.925.16a4.746 4.746 0 0 0 2.13-.799c1.615-1.095 2.408-3.008 1.938-4.998-.268-1.136-.905-2.041-1.854-2.714-1.134-.805-2.39-1.098-3.757-.823a4.085 4.085 0 0 0-2.25 1.288 4.758 4.758 0 0 0-1.267 3.1zm9.257-3.95V9.25 8.236c.003-.733.785-1.216 1.43-.875.329.173.502.459.52.834v10.616c0 .417-.218.763-.59.904-.613.233-1.24-.129-1.344-.728a1.11 1.11 0 0 1-.015-.185V17.77a.183.183 0 0 0-.014-.007l-.045.057c-.726.943-1.639 1.633-2.757 2.04a5.614 5.614 0 0 1-1.733.317 6.145 6.145 0 0 1-2.098-.265c-1.844-.59-3.148-1.792-3.956-3.547a6.395 6.395 0 0 1-.571-2.163c-.178-2.17.481-4.044 2.027-5.577.846-.84 1.876-1.362 3.041-1.61a6.413 6.413 0 0 1 1.826-.111c1.399.106 2.576.693 3.583 1.652.238.227.458.472.653.737l.029.034.014-.005z" fill="#1A4A44"/><path d="M18.97 13.55c-2.84-2.388-3.492-6.807-3.492-6.807l3.63-4.339a6.696 6.696 0 0 1 9.453-.83c2.839 2.39 3.24 6.617.827 9.48-2.413 2.864-7.58 4.886-10.419 2.497" fill="url(#a)"/><path d="M29.365 11.054a6.696 6.696 0 0 1-9.453.83l-.448-.377-7.614-9.102c-1.155-1.38-.889 2.984-2.2 6.567-1.392 3.81-4.29 6.944-2.945 8.56 1.662 1.997 3.358 3.912 4.461 4.833 2.837 2.368 7.072 2.004 9.453-.83l8.746-10.48z" fill="url(#b)"/><path d="M6.685 8.972a2.24 2.24 0 0 1-2.237-2.243 2.24 2.24 0 0 1 2.237-2.243A2.24 2.24 0 0 1 8.92 6.729a2.24 2.24 0 0 1-2.236 2.243m5.622-6.02l-.458-.546a6.696 6.696 0 0 0-9.452-.83 6.743 6.743 0 0 0-.827 9.48s2.384 3.153 4.914 6.21l.226.262c.016-.016 6.71-7.086 6.71-10.797a7.04 7.04 0 0 0-1.113-3.778" fill="url(#c)"/></g></svg>