<svg width="64" height="20" viewBox="0 0 64 20" fill="none" xmlns="http://www.w3.org/2000/svg">
<path fill-rule="evenodd" clip-rule="evenodd" d="M8.10054 15.6221C7.14961 13.824 6.19867 12.0262 5.24801 10.2281C4.25115 8.34331 3.25457 6.45854 2.25798 4.5735C1.98297 4.05321 1.4238 3.79514 0.892863 3.94487C0.27975 4.11793 -0.0633252 4.63183 0.00971712 5.2674C0.0321279 5.46074 0.109596 5.63436 0.199516 5.80408C2.50782 10.1672 4.8164 14.5299 7.12138 18.8947C7.33581 19.3005 7.65979 19.5158 8.11299 19.5292C8.57172 19.543 8.94108 19.3728 9.1627 18.9544C10.5729 16.2938 11.9795 13.6312 13.3873 10.9692C14.3075 9.22917 15.2277 7.4894 16.1482 5.74936C16.2846 5.49157 16.3469 5.22212 16.3095 4.92767C16.221 4.22849 15.5478 3.82876 14.9521 3.91681C14.5451 3.97709 14.2535 4.21349 14.0643 4.571C12.1148 8.25276 10.1681 11.9359 8.22034 15.6188C8.20263 15.6521 8.1841 15.6852 8.15947 15.7296C8.13623 15.6871 8.11769 15.6549 8.10054 15.6221ZM20.3475 11.7645C20.331 14.9618 23.0062 17.5808 26.1354 17.5824C29.3061 17.5838 31.935 14.9188 31.9364 11.7651C31.9375 8.60999 29.3088 5.94436 26.1401 5.94353C23.0073 5.9427 20.329 8.56415 20.3475 11.7645ZM34.3098 11.7673C34.3203 16.3035 30.719 20.0011 26.1069 20C21.5257 19.9989 17.8979 16.3485 17.9018 11.7503C17.9054 7.16828 21.5378 3.52569 26.1074 3.52569C30.7224 3.52569 34.325 7.22717 34.3098 11.7673ZM40.44 6.43077C41.3531 6.43077 42.2658 6.43132 43.1786 6.42993C43.2818 6.42965 43.3872 6.4291 43.4879 6.4091C44.4624 6.21715 44.6732 5.1299 44.2316 4.51766C43.9784 4.1671 43.6365 4.00515 43.2087 4.00626C42.2821 4.0082 41.3556 4.00682 40.4293 4.00682C40.398 4.00682 40.3667 4.00404 40.3283 4.00237V3.88765C40.3283 2.99012 40.3291 2.09288 40.328 1.19563C40.3272 0.268942 39.418 -0.240515 38.6245 0.112549C38.1536 0.321999 37.9187 0.708398 37.9187 1.23369C37.9198 5.92825 37.9198 10.6228 37.9181 15.3171C37.9181 15.6741 37.9403 16.0274 38.0225 16.3755C38.2944 17.5258 38.9269 18.4105 39.9531 18.9997C40.6066 19.3753 41.3182 19.5305 42.0672 19.53C42.7511 19.5294 43.4348 19.5305 44.119 19.5289C44.2139 19.5286 44.3113 19.528 44.4037 19.508C44.9014 19.4019 45.2304 19.1033 45.3339 18.6014C45.4382 18.0938 45.3079 17.6522 44.8793 17.3277C44.6535 17.1566 44.3918 17.1066 44.1171 17.106C43.414 17.1049 42.711 17.1094 42.008 17.1021C41.645 17.0983 41.3099 16.991 41.0219 16.7621C40.5463 16.3841 40.3299 15.8785 40.3294 15.2799C40.3269 12.3659 40.3283 9.45251 40.3283 6.5391V6.43077H40.44ZM49.5631 11.442C49.564 12.5201 49.6686 13.1882 49.9405 13.9176C50.5716 15.6127 51.7121 16.7969 53.4408 17.3688C54.2163 17.6258 55.015 17.6624 55.8227 17.5658C56.7811 17.4513 57.6595 17.1188 58.4572 16.5771C60.4553 15.2215 61.4364 12.8518 60.8551 10.387C60.5234 8.98 59.736 7.85941 58.5615 7.0255C57.1584 6.02964 55.6049 5.66658 53.9133 6.00714C52.816 6.22826 51.885 6.77355 51.1297 7.60218C50.0617 8.77388 49.5875 10.1775 49.5631 11.442ZM61.015 6.55105V6.46188C61.015 6.04353 61.0142 5.62519 61.0153 5.20657C61.0183 4.29932 61.9862 3.7007 62.7846 4.12265C63.1905 4.3371 63.4052 4.69128 63.4274 5.15629C63.4282 5.17268 63.4276 5.18907 63.4276 5.20546C63.4276 9.5714 63.4278 13.9373 63.4276 18.303C63.4276 18.8194 63.1576 19.2483 62.6969 19.4233C61.9391 19.7111 61.1625 19.2639 61.0347 18.5214C61.0217 18.4461 61.0161 18.3691 61.0159 18.2927C61.0145 17.8963 61.015 17.4994 61.015 17.1027V17.0135C61.0098 17.0105 61.0042 17.0074 60.999 17.0049C60.9802 17.0283 60.9611 17.0516 60.9428 17.0755C60.0447 18.2427 58.9159 19.0978 57.532 19.6005C56.8411 19.8514 56.1237 19.9686 55.3891 19.9942C54.5054 20.025 53.6364 19.9347 52.7933 19.6655C50.5113 18.9361 48.8983 17.4463 47.8995 15.2732C47.5086 14.4226 47.269 13.5287 47.1923 12.594C46.9729 9.90613 47.788 7.58635 49.7004 5.68686C50.7465 4.64766 52.0214 4.00015 53.4626 3.69375C54.208 3.53514 54.9622 3.49819 55.7217 3.55569C57.4517 3.68681 58.9084 4.41405 60.154 5.60213C60.4487 5.88297 60.7198 6.18604 60.9622 6.51466C60.973 6.52938 60.9854 6.54244 60.9973 6.55632C61.0031 6.55438 61.0092 6.55299 61.015 6.55105Z" fill="url(#paint0_linear)"/>
<defs>
<linearGradient id="paint0_linear" x1="-7.30438e-07" y1="9.7561" x2="63.4278" y2="9.7561" gradientUnits="userSpaceOnUse">
<stop stop-color="#32BB94"/>
<stop offset="1" stop-color="#16B4BD"/>
</linearGradient>
</defs>
</svg>
