<svg width="321" height="466" viewBox="0 0 321 366" fill="none" xmlns="http://www.w3.org/2000/svg">
<path fill-rule="evenodd" clip-rule="evenodd" d="M59.8641 25.2884L56.9259 26.7066L53.9581 20.5587L56.8957 19.1399L59.8641 25.2884ZM109 114.09L112.577 114.679L113.809 107.193L110.233 106.604L109 114.09ZM131.806 56.8063L129.605 50.3442L126.517 51.3951L128.717 57.8584L131.806 56.8063ZM187.386 82.4994L183.794 82.0125L182.777 89.5299L186.368 90.0169L187.386 82.4994ZM241.934 168.318L239.037 169.819L242.179 175.88L245.076 174.378L241.934 168.318ZM168.603 146.855L166.218 140.458L169.275 139.317L171.659 145.716L168.603 146.855Z" fill="#F2584D"/>
<path fill-rule="evenodd" clip-rule="evenodd" d="M300.248 5.8193L297.821 5.07933L299.37 0L301.797 0.740629L300.248 5.8193ZM229.778 36.0093L233.325 35.2647L231.767 27.8406L228.22 28.5845L229.778 36.0093ZM254.011 48.5476L256.392 47.6703L254.555 42.6882L252.174 43.5656L254.011 48.5476ZM232.109 123.773L235.702 123.286L234.683 115.769L231.091 116.255L232.109 123.773ZM218.687 66.1204L221.664 67.4544L218.872 73.6858L215.895 72.3511L218.687 66.1204ZM308.435 114.299L309.984 112.289L314.189 115.531L312.64 117.541L308.435 114.299ZM288.162 80.5049L285.38 82.8273L290.242 88.6506L293.024 86.3281L288.162 80.5049ZM303.614 75.879L301.852 69.2836L305.003 68.4404L306.766 75.0372L303.614 75.879ZM277.579 41.783L281.193 42.0636L281.781 34.5008L278.167 34.2202L277.579 41.783ZM317.577 17.1656L315.192 10.7686L318.249 9.62842L320.634 16.0267L317.577 17.1656ZM219.383 101.176L216.263 100.225L214.271 106.755L217.392 107.706L219.383 101.176ZM275.222 159.98L274.938 162.903L268.821 162.308L269.105 159.385L275.222 159.98ZM259.153 123.193L258.932 125.467L263.69 125.929L263.91 123.656L259.153 123.193ZM234.165 139.197L239.385 135.953L240.936 138.449L235.714 141.692L234.165 139.197ZM306.173 155.879L308.601 156.619L310.149 151.541L307.722 150.801L306.173 155.879ZM292.51 165.148L291.847 161.584L299.305 160.198L299.968 163.761L292.51 165.148ZM315.308 165.978L317.693 172.374L320.75 171.236L318.366 164.837L315.308 165.978ZM43.2278 4.64209L45.0022 6.98166L49.8995 3.26795L48.1251 0.927734L43.2278 4.64209ZM127.676 24.2791L124.072 23.896L123.269 31.4391L126.873 31.8222L127.676 24.2791ZM65.4798 71.5723L61.8751 71.956L62.6788 79.4992L66.2828 79.116L65.4798 71.5723ZM127.784 144.163L124.692 145.204L122.515 138.733L125.607 137.693L127.784 144.163ZM39.0229 146.97L41.4282 146.161L43.121 151.193L40.7164 152.002L39.0229 146.97ZM77.2538 129.484L74.3162 128.066L77.2841 121.917L80.2223 123.336L77.2538 129.484ZM65.2965 159.385L61.73 160.029L63.0746 167.494L66.6417 166.851L65.2965 159.385ZM11.0676 111.056L8.21941 113.299L3.52649 107.339L6.37405 105.097L11.0676 111.056ZM14.0737 151.845L17.6783 152.229L16.8745 159.772L13.2706 159.389L14.0737 151.845ZM80.6271 95.5553L77.535 94.515L79.7123 88.0444L82.8043 89.0841L80.6271 95.5553ZM140.649 81.3139L138.243 80.5049L136.551 85.5382L138.955 86.3465L140.649 81.3139ZM102.388 78.5909L105.989 78.1848L106.84 85.7233L103.239 86.1288L102.388 78.5909ZM23.7591 31.2043L23.3917 34.1176L29.4897 34.8872L29.857 31.9726L23.7591 31.2043ZM38.6859 69.1547L38.4 71.4213L33.6578 70.8232L33.9431 68.5566L38.6859 69.1547ZM63.8496 56.1303L58.5389 59.2236L57.0609 56.6856L62.3722 53.5923L63.8496 56.1303ZM167.755 52.8643L170.816 51.7366L173.177 58.1427L170.115 59.2698L167.755 52.8643ZM174.907 173.029L171.293 172.748L171.882 165.186L175.495 165.466L174.907 173.029ZM156.677 116.091L159.104 116.831L160.653 111.753L158.226 111.013L156.677 116.091ZM195.029 117.712L191.44 118.22L190.375 110.71L193.964 110.201L195.029 117.712ZM256.252 189.978L254.412 187.689L249.623 191.542L251.463 193.83L256.252 189.978Z" fill="#32BBAB"/>
<path fill-rule="evenodd" clip-rule="evenodd" d="M258.816 16.0579L265.232 18.3876L266.345 15.3212L259.928 12.9922L258.816 16.0579ZM168.925 28.0771L175.199 25.3853L173.913 22.3879L167.639 25.0791L168.925 28.0771ZM90.7848 30.2149L89.7615 33.3135L83.2772 31.1711L84.301 28.0725L90.7848 30.2149ZM106.105 45.0635L102.956 43.2681L99.1982 49.8576L102.347 51.653L106.105 45.0635ZM2.79257 91.6508L6.83159 86.1469L4.20221 84.2168L0.162537 89.7207L2.79257 91.6508ZM51.4811 101.269L48.3319 103.063L52.0903 109.653L55.2388 107.858L51.4811 101.269ZM19.097 133.517L12.7487 136.029L13.948 139.062L20.297 136.551L19.097 133.517ZM101.953 152.862L103.256 146.161L106.458 146.783L105.155 153.485L101.953 152.862ZM119.556 171.524L125.904 169.013L127.104 172.046L120.756 174.558L119.556 171.524ZM29.3477 175.858L35.696 178.369L34.4967 181.402L28.1477 178.891L29.3477 175.858ZM31.8783 98.6728L32.9646 92.6242L30.0744 92.105L28.9887 98.1543L31.8783 98.6728ZM46.6623 44.0806L46.73 47.3415L39.9025 47.4847L39.8348 44.2219L46.6623 44.0806ZM18.5853 53.899L12.2377 51.3879L11.0377 54.4208L17.386 56.9325L18.5853 53.899ZM245.244 93.6251L248.34 91.7409L244.396 85.2605L241.299 87.1453L245.244 93.6251ZM282.993 57.866L276.719 60.5578L275.433 57.5598L281.707 54.8687L282.993 57.866ZM192.202 50.1872L193.313 43.4518L190.094 42.9202L188.983 49.6562L192.202 50.1872ZM290.31 107.465L294.19 101.849L296.874 103.703L292.993 109.32L290.31 107.465ZM195.459 153.052L192.26 151.348L195.828 144.653L199.027 146.358L195.459 153.052ZM208.913 162.634L207.978 165.76L214.52 167.717L215.456 164.591L208.913 162.634ZM264.007 101.778L264.919 95.7004L267.823 96.1361L266.911 102.214L264.007 101.778ZM251.536 147.426L251.698 150.685L258.518 150.348L258.357 147.089L251.536 147.426ZM285.909 142.393L279.493 140.063L280.605 136.997L287.023 139.326L285.909 142.393Z" fill="#E0B475"/>
</svg>
